M48
METRIC,TZ
T1C0.500
T2C1.000
T3C1.016
T4C1.300
T5C3.175
%
G90
G05
T1
X136144Y-94996
X137240Y-114935
X137240Y-117475
X137292Y-100076
X137668Y-93848
X139192Y-87780
X139700Y-90424
X140208Y-97028
X141794Y-92489
X142240Y-108585
X142280Y-103505
X142280Y-106045
X142748Y-99568
X143764Y-122936
X144780Y-128016
X146304Y-89408
X147752Y-90856
X147828Y-123952
X149352Y-104648
X149352Y-106172
X151384Y-107188
X151892Y-116332
X155817Y-120027
X155956Y-108204
X156972Y-113792
X159004Y-103124
X160020Y-107442
X160060Y-115062
X162052Y-122428
X165060Y-113792
X165100Y-106172
X168148Y-103632
X168148Y-120396
X168918Y-117086
X169672Y-121920
X169767Y-116237
X170688Y-107696
X171172Y-118872
X171196Y-110186
X172212Y-98044
X172212Y-102616
X173228Y-97201
X173228Y-120660
X174244Y-113792
X174244Y-125476
X175260Y-88900
X175260Y-90424
X175260Y-126492
X175271Y-86081
X176116Y-101473
X176116Y-104013
X176276Y-114300
X178983Y-100417
X179324Y-116332
X179816Y-106172
X180020Y-89154
X180020Y-90424
X181516Y-102743
X181516Y-104013
X182372Y-85344
X182960Y-112522
X182960Y-115062
X183388Y-90620
X183388Y-97201
X183896Y-100584
X184404Y-110236
X184588Y-97201
X185420Y-86614
X185420Y-90620
X187960Y-113792
X189992Y-125476
X191516Y-111760
X192024Y-120396
X193040Y-92797
X193040Y-102108
X193040Y-114792
X193468Y-98632
X195072Y-85032
X195072Y-117348
X195368Y-99272
X196088Y-127000
X196156Y-91459
X197612Y-119888
X197968Y-100228
X198694Y-93980
X199644Y-90424
X200152Y-96520
X203748Y-117475
X203748Y-120015
X204724Y-88392
X206248Y-93472
X206380Y-90292
X207772Y-88806
X207772Y-109728
X208214Y-93472
X208748Y-113665
T2
X130282Y-95504
X130282Y-100004
T3
X128016Y-86360
X133096Y-86360
X142748Y-81280
X145288Y-81280
X147828Y-81280
X147828Y-84328
X150368Y-81280
X151892Y-129540
X152400Y-98552
X152400Y-101092
X152908Y-81280
X154432Y-129540
X154940Y-98552
X154940Y-101092
X155448Y-81280
X156972Y-129540
X157480Y-98552
X157480Y-101092
X157988Y-81280
X157988Y-84328
X159512Y-129540
X160020Y-98552
X160020Y-101092
X160528Y-81280
X162052Y-129540
X162560Y-98552
X162560Y-101092
X163068Y-81280
X164592Y-129540
X165100Y-98552
X165100Y-101092
X165608Y-81280
X167132Y-129540
X167640Y-98552
X167640Y-101092
X168148Y-84328
X169672Y-81280
X169672Y-129540
X170180Y-98552
X170180Y-101092
X172212Y-81280
X174752Y-81280
X174752Y-129540
X177292Y-81280
X177292Y-129540
X179832Y-81280
X179832Y-129540
X182372Y-81280
X182372Y-129540
X184912Y-81280
X184912Y-84328
X184912Y-129540
X187452Y-81280
X187452Y-84328
X187452Y-129540
X187579Y-101600
X187579Y-104140
X187579Y-106680
X189992Y-129540
X190119Y-101600
X190119Y-104140
X190119Y-106680
X190500Y-84328
X190500Y-86868
X190500Y-89408
X190500Y-91948
X192532Y-81280
X192532Y-129540
X195072Y-81280
X197612Y-81280
X197612Y-129540
X200152Y-81280
X200152Y-129540
X202692Y-81280
X202692Y-84328
X202692Y-129540
X205232Y-81280
X205232Y-84328
X205232Y-129540
X207772Y-81280
X207772Y-126492
X207772Y-129540
X210312Y-81280
X210312Y-84836
X210312Y-87376
X210312Y-89916
X210312Y-92456
X210312Y-94996
X210312Y-102616
X210312Y-123698
X210312Y-126492
X210312Y-129540
X212852Y-84836
X212852Y-87376
X212852Y-89916
X212852Y-92456
X212852Y-94996
X212852Y-97536
X212852Y-102616
X212852Y-110236
X212852Y-112776
X212852Y-115316
X212852Y-117856
X212852Y-123698
X212852Y-126492
X212852Y-129540
X215392Y-84836
X215392Y-87376
X215392Y-89916
X215392Y-92456
X215392Y-94996
X215392Y-102616
X215392Y-110236
X215392Y-112776
X215392Y-115316
X215392Y-117856
X215392Y-120396
X215392Y-123698
X215392Y-126492
X215392Y-129540
X217932Y-81280
X217932Y-83820
X217932Y-86360
X217932Y-88900
X217932Y-91440
X217932Y-93980
X217932Y-96520
X217932Y-99060
X217932Y-101600
X217932Y-104140
X217932Y-106680
X217932Y-109220
X217932Y-111760
X217932Y-114300
X217932Y-116840
X217932Y-119380
X217932Y-121920
X217932Y-124460
X220472Y-81280
X220472Y-83820
X220472Y-86360
X220472Y-88900
X220472Y-91440
X220472Y-93980
X220472Y-96520
X220472Y-99060
X220472Y-101600
X220472Y-104140
X220472Y-106680
X220472Y-109220
X220472Y-111760
X220472Y-114300
X220472Y-116840
X220472Y-119380
X220472Y-121920
X220472Y-124460
T4
X127782Y-94254
X127782Y-101254
T5
X137922Y-129540
X139192Y-81280
X214122Y-81280
X220472Y-129540
T0
M30
