G04 #@! TF.FileFunction,Legend,Bot*
%FSLAX46Y46*%
G04 Gerber Fmt 4.6, Leading zero omitted, Abs format (unit mm)*
G04 Created by KiCad (PCBNEW 4.0.2-4+6225~38~ubuntu14.04.1-stable) date Fri 18 Mar 2016 20:16:10 GMT*
%MOMM*%
G01*
G04 APERTURE LIST*
%ADD10C,0.100000*%
%ADD11C,0.150000*%
%ADD12C,0.110000*%
G04 APERTURE END LIST*
D10*
D11*
X193890000Y-89908000D02*
X193890000Y-90908000D01*
X192190000Y-90908000D02*
X192190000Y-89908000D01*
X170014000Y-105672000D02*
X170014000Y-106672000D01*
X168314000Y-106672000D02*
X168314000Y-105672000D01*
X202192000Y-88734000D02*
X201192000Y-88734000D01*
X201192000Y-87034000D02*
X202192000Y-87034000D01*
X182030000Y-88892000D02*
X182030000Y-87892000D01*
X183730000Y-87892000D02*
X183730000Y-88892000D01*
X162026000Y-108571000D02*
X163226000Y-108571000D01*
X163226000Y-106821000D02*
X162026000Y-106821000D01*
X165749000Y-105826000D02*
X165749000Y-107026000D01*
X167499000Y-107026000D02*
X167499000Y-105826000D01*
X186970000Y-98185000D02*
X185770000Y-98185000D01*
X185770000Y-99935000D02*
X186970000Y-99935000D01*
D12*
X195390000Y-90291334D02*
X195423333Y-90258000D01*
X195456667Y-90158000D01*
X195456667Y-90091334D01*
X195423333Y-89991334D01*
X195356667Y-89924667D01*
X195290000Y-89891334D01*
X195156667Y-89858000D01*
X195056667Y-89858000D01*
X194923333Y-89891334D01*
X194856667Y-89924667D01*
X194790000Y-89991334D01*
X194756667Y-90091334D01*
X194756667Y-90158000D01*
X194790000Y-90258000D01*
X194823333Y-90291334D01*
X194823333Y-90558000D02*
X194790000Y-90591334D01*
X194756667Y-90658000D01*
X194756667Y-90824667D01*
X194790000Y-90891334D01*
X194823333Y-90924667D01*
X194890000Y-90958000D01*
X194956667Y-90958000D01*
X195056667Y-90924667D01*
X195456667Y-90524667D01*
X195456667Y-90958000D01*
X169280666Y-103898000D02*
X169314000Y-103931333D01*
X169414000Y-103964667D01*
X169480666Y-103964667D01*
X169580666Y-103931333D01*
X169647333Y-103864667D01*
X169680666Y-103798000D01*
X169714000Y-103664667D01*
X169714000Y-103564667D01*
X169680666Y-103431333D01*
X169647333Y-103364667D01*
X169580666Y-103298000D01*
X169480666Y-103264667D01*
X169414000Y-103264667D01*
X169314000Y-103298000D01*
X169280666Y-103331333D01*
X169047333Y-103264667D02*
X168614000Y-103264667D01*
X168847333Y-103531333D01*
X168747333Y-103531333D01*
X168680666Y-103564667D01*
X168647333Y-103598000D01*
X168614000Y-103664667D01*
X168614000Y-103831333D01*
X168647333Y-103898000D01*
X168680666Y-103931333D01*
X168747333Y-103964667D01*
X168947333Y-103964667D01*
X169014000Y-103931333D01*
X169047333Y-103898000D01*
X201808666Y-86610000D02*
X201842000Y-86643333D01*
X201942000Y-86676667D01*
X202008666Y-86676667D01*
X202108666Y-86643333D01*
X202175333Y-86576667D01*
X202208666Y-86510000D01*
X202242000Y-86376667D01*
X202242000Y-86276667D01*
X202208666Y-86143333D01*
X202175333Y-86076667D01*
X202108666Y-86010000D01*
X202008666Y-85976667D01*
X201942000Y-85976667D01*
X201842000Y-86010000D01*
X201808666Y-86043333D01*
X201175333Y-85976667D02*
X201508666Y-85976667D01*
X201542000Y-86310000D01*
X201508666Y-86276667D01*
X201442000Y-86243333D01*
X201275333Y-86243333D01*
X201208666Y-86276667D01*
X201175333Y-86310000D01*
X201142000Y-86376667D01*
X201142000Y-86543333D01*
X201175333Y-86610000D01*
X201208666Y-86643333D01*
X201275333Y-86676667D01*
X201442000Y-86676667D01*
X201508666Y-86643333D01*
X201542000Y-86610000D01*
X182996666Y-91182000D02*
X183030000Y-91215333D01*
X183130000Y-91248667D01*
X183196666Y-91248667D01*
X183296666Y-91215333D01*
X183363333Y-91148667D01*
X183396666Y-91082000D01*
X183430000Y-90948667D01*
X183430000Y-90848667D01*
X183396666Y-90715333D01*
X183363333Y-90648667D01*
X183296666Y-90582000D01*
X183196666Y-90548667D01*
X183130000Y-90548667D01*
X183030000Y-90582000D01*
X182996666Y-90615333D01*
X182763333Y-90548667D02*
X182296666Y-90548667D01*
X182596666Y-91248667D01*
X162676666Y-106488667D02*
X162910000Y-106155333D01*
X163076666Y-106488667D02*
X163076666Y-105788667D01*
X162810000Y-105788667D01*
X162743333Y-105822000D01*
X162710000Y-105855333D01*
X162676666Y-105922000D01*
X162676666Y-106022000D01*
X162710000Y-106088667D01*
X162743333Y-106122000D01*
X162810000Y-106155333D01*
X163076666Y-106155333D01*
X162010000Y-106488667D02*
X162410000Y-106488667D01*
X162210000Y-106488667D02*
X162210000Y-105788667D01*
X162276666Y-105888667D01*
X162343333Y-105955333D01*
X162410000Y-105988667D01*
X166740666Y-104268667D02*
X166974000Y-103935333D01*
X167140666Y-104268667D02*
X167140666Y-103568667D01*
X166874000Y-103568667D01*
X166807333Y-103602000D01*
X166774000Y-103635333D01*
X166740666Y-103702000D01*
X166740666Y-103802000D01*
X166774000Y-103868667D01*
X166807333Y-103902000D01*
X166874000Y-103935333D01*
X167140666Y-103935333D01*
X166474000Y-103635333D02*
X166440666Y-103602000D01*
X166374000Y-103568667D01*
X166207333Y-103568667D01*
X166140666Y-103602000D01*
X166107333Y-103635333D01*
X166074000Y-103702000D01*
X166074000Y-103768667D01*
X166107333Y-103868667D01*
X166507333Y-104268667D01*
X166074000Y-104268667D01*
X186552666Y-97344667D02*
X186786000Y-97011333D01*
X186952666Y-97344667D02*
X186952666Y-96644667D01*
X186686000Y-96644667D01*
X186619333Y-96678000D01*
X186586000Y-96711333D01*
X186552666Y-96778000D01*
X186552666Y-96878000D01*
X186586000Y-96944667D01*
X186619333Y-96978000D01*
X186686000Y-97011333D01*
X186952666Y-97011333D01*
X186319333Y-96644667D02*
X185886000Y-96644667D01*
X186119333Y-96911333D01*
X186019333Y-96911333D01*
X185952666Y-96944667D01*
X185919333Y-96978000D01*
X185886000Y-97044667D01*
X185886000Y-97211333D01*
X185919333Y-97278000D01*
X185952666Y-97311333D01*
X186019333Y-97344667D01*
X186219333Y-97344667D01*
X186286000Y-97311333D01*
X186319333Y-97278000D01*
M02*
