G04 #@! TF.FileFunction,Soldermask,Top*
%FSLAX46Y46*%
G04 Gerber Fmt 4.6, Leading zero omitted, Abs format (unit mm)*
G04 Created by KiCad (PCBNEW 4.0.2-4+6225~38~ubuntu14.04.1-stable) date Fri 18 Mar 2016 20:16:10 GMT*
%MOMM*%
G01*
G04 APERTURE LIST*
%ADD10C,0.100000*%
%ADD11R,1.400000X1.650000*%
%ADD12R,2.200860X1.997660*%
%ADD13R,3.900000X1.900000*%
%ADD14R,2.432000X2.127200*%
%ADD15O,2.432000X2.127200*%
%ADD16R,2.127200X2.127200*%
%ADD17O,2.127200X2.127200*%
%ADD18R,1.924000X1.924000*%
%ADD19R,1.200100X1.200100*%
%ADD20R,1.100000X1.700000*%
%ADD21R,1.700000X1.100000*%
%ADD22R,1.950000X1.000000*%
%ADD23R,0.850000X1.850000*%
%ADD24R,1.700000X2.300000*%
%ADD25R,2.178000X2.178000*%
%ADD26C,2.178000*%
%ADD27C,2.200000*%
%ADD28C,2.500000*%
%ADD29O,1.924000X2.940000*%
%ADD30C,4.337000*%
%ADD31C,1.924000*%
%ADD32R,1.300000X1.300000*%
G04 APERTURE END LIST*
D10*
D11*
X179816000Y-106172000D03*
X177816000Y-106172000D03*
X139700000Y-90424000D03*
X141700000Y-90424000D03*
X202152000Y-96520000D03*
X200152000Y-96520000D03*
D12*
X139192000Y-87779860D03*
X139192000Y-84940140D03*
D13*
X137200000Y-120015000D03*
X142240000Y-118745000D03*
X137240000Y-117475000D03*
X142240000Y-116205000D03*
X137240000Y-114935000D03*
X142240000Y-113665000D03*
X137240000Y-112395000D03*
X142240000Y-111125000D03*
X137200000Y-109855000D03*
X142240000Y-108585000D03*
X137200000Y-107315000D03*
X142280000Y-106045000D03*
X137200000Y-104775000D03*
X142280000Y-103505000D03*
X182960000Y-120142000D03*
X187960000Y-118872000D03*
X182960000Y-117602000D03*
X187960000Y-116332000D03*
X182960000Y-115062000D03*
X187960000Y-113792000D03*
X182960000Y-112522000D03*
X187960000Y-111252000D03*
X203748000Y-120015000D03*
X208748000Y-118745000D03*
X203748000Y-117475000D03*
X208748000Y-116205000D03*
X203748000Y-114935000D03*
X208748000Y-113665000D03*
X160060000Y-120142000D03*
X165060000Y-118872000D03*
X160060000Y-117602000D03*
X165060000Y-116332000D03*
X160060000Y-115062000D03*
X165060000Y-113792000D03*
X160060000Y-112522000D03*
X165060000Y-111252000D03*
X160020000Y-109982000D03*
X165060000Y-108712000D03*
X160020000Y-107442000D03*
X165100000Y-106172000D03*
D14*
X190500000Y-91948000D03*
D15*
X190500000Y-89408000D03*
X190500000Y-86868000D03*
X190500000Y-84328000D03*
D16*
X170180000Y-101092000D03*
D17*
X170180000Y-98552000D03*
X167640000Y-101092000D03*
X167640000Y-98552000D03*
X165100000Y-101092000D03*
X165100000Y-98552000D03*
X162560000Y-101092000D03*
X162560000Y-98552000D03*
X160020000Y-101092000D03*
X160020000Y-98552000D03*
X157480000Y-101092000D03*
X157480000Y-98552000D03*
X154940000Y-101092000D03*
X154940000Y-98552000D03*
X152400000Y-101092000D03*
X152400000Y-98552000D03*
D18*
X207772000Y-126492000D03*
X210312000Y-126492000D03*
X212852000Y-126492000D03*
X215392000Y-126492000D03*
X215392000Y-120396000D03*
X215392000Y-117856000D03*
X212852000Y-117856000D03*
X215392000Y-115316000D03*
X212852000Y-115316000D03*
X215392000Y-112776000D03*
X212852000Y-112776000D03*
X147828000Y-84328000D03*
X157988000Y-84328000D03*
X168148000Y-84328000D03*
X184912000Y-84328000D03*
X187452000Y-84328000D03*
X202692000Y-84328000D03*
X205232000Y-84328000D03*
X210312000Y-87376000D03*
X212852000Y-87376000D03*
X215392000Y-87376000D03*
X212852000Y-89916000D03*
X215392000Y-89916000D03*
X212852000Y-92456000D03*
X215392000Y-92456000D03*
X212852000Y-94996000D03*
X215392000Y-94996000D03*
X212852000Y-97536000D03*
X210312000Y-89916000D03*
X210312000Y-94996000D03*
X210312000Y-92456000D03*
X210312000Y-84836000D03*
X212852000Y-84836000D03*
X215392000Y-84836000D03*
X212852000Y-102616000D03*
X215392000Y-102616000D03*
X210312000Y-102616000D03*
D19*
X144206000Y-86375240D03*
X142306000Y-86375240D03*
X143256000Y-88374220D03*
X143698000Y-92489020D03*
X141798000Y-92489020D03*
X142748000Y-94488000D03*
X208214000Y-93472000D03*
X206314000Y-93472000D03*
X207264000Y-95470980D03*
D20*
X137292000Y-100076000D03*
X139192000Y-100076000D03*
X172344000Y-106680000D03*
X174244000Y-106680000D03*
D21*
X146304000Y-86426000D03*
X146304000Y-88326000D03*
D20*
X138308000Y-94488000D03*
X140208000Y-94488000D03*
X197744000Y-86868000D03*
X199644000Y-86868000D03*
X197744000Y-89408000D03*
X199644000Y-89408000D03*
D21*
X207264000Y-91882000D03*
X207264000Y-89982000D03*
D20*
X203840000Y-97028000D03*
X205740000Y-97028000D03*
X200594000Y-93980000D03*
X198694000Y-93980000D03*
D22*
X176116000Y-100203000D03*
X176116000Y-101473000D03*
X176116000Y-102743000D03*
X176116000Y-104013000D03*
X181516000Y-104013000D03*
X181516000Y-102743000D03*
X181516000Y-101473000D03*
X181516000Y-100203000D03*
D23*
X204175000Y-88732000D03*
X203525000Y-88732000D03*
X202875000Y-88732000D03*
X202225000Y-88732000D03*
X202225000Y-93132000D03*
X202875000Y-93132000D03*
X203525000Y-93132000D03*
X204175000Y-93132000D03*
D22*
X180020000Y-86614000D03*
X180020000Y-87884000D03*
X180020000Y-89154000D03*
X180020000Y-90424000D03*
X185420000Y-90424000D03*
X185420000Y-89154000D03*
X185420000Y-87884000D03*
X185420000Y-86614000D03*
D24*
X176994000Y-85776000D03*
X171494000Y-85776000D03*
X171494000Y-88976000D03*
X176994000Y-88976000D03*
D25*
X128016000Y-86360000D03*
D26*
X133096000Y-86360000D03*
D27*
X130282000Y-100004000D03*
X130282000Y-95504000D03*
D28*
X127782000Y-101254000D03*
X127782000Y-94254000D03*
D18*
X210312000Y-123698000D03*
X212852000Y-123698000D03*
X215392000Y-123698000D03*
D29*
X192532000Y-81280000D03*
X195072000Y-81280000D03*
X197612000Y-81280000D03*
X200152000Y-81280000D03*
X202692000Y-81280000D03*
X205232000Y-81280000D03*
X207772000Y-81280000D03*
X210312000Y-81280000D03*
X215392000Y-129540000D03*
X212852000Y-129540000D03*
X210312000Y-129540000D03*
X207772000Y-129540000D03*
X197612000Y-129540000D03*
X192532000Y-129540000D03*
X189992000Y-129540000D03*
X200152000Y-129540000D03*
X202692000Y-129540000D03*
X205232000Y-129540000D03*
X187452000Y-129540000D03*
X184912000Y-129540000D03*
X182372000Y-129540000D03*
X174752000Y-129540000D03*
X177292000Y-129540000D03*
X179832000Y-129540000D03*
X169672000Y-129540000D03*
X167132000Y-129540000D03*
X164592000Y-129540000D03*
X159512000Y-129540000D03*
X156972000Y-129540000D03*
X187452000Y-81280000D03*
X184912000Y-81280000D03*
X182372000Y-81280000D03*
X179832000Y-81280000D03*
X177292000Y-81280000D03*
X174752000Y-81280000D03*
X172212000Y-81280000D03*
X169672000Y-81280000D03*
X165608000Y-81280000D03*
X163068000Y-81280000D03*
X160528000Y-81280000D03*
X157988000Y-81280000D03*
X155448000Y-81280000D03*
X152908000Y-81280000D03*
X150368000Y-81280000D03*
X147828000Y-81280000D03*
X162052000Y-129540000D03*
D30*
X220472000Y-129540000D03*
X214122000Y-81280000D03*
X139192000Y-81280000D03*
X137922000Y-129540000D03*
D31*
X217932000Y-83820000D03*
X220472000Y-83820000D03*
X217932000Y-86360000D03*
X220472000Y-86360000D03*
X217932000Y-88900000D03*
X220472000Y-88900000D03*
X217932000Y-91440000D03*
X220472000Y-91440000D03*
X217932000Y-81280000D03*
X220472000Y-81280000D03*
X220472000Y-93980000D03*
X217932000Y-93980000D03*
X217932000Y-96520000D03*
X220472000Y-96520000D03*
X217932000Y-99060000D03*
X220472000Y-99060000D03*
X217932000Y-101600000D03*
X220472000Y-101600000D03*
X217932000Y-104140000D03*
X220472000Y-104140000D03*
X217932000Y-106680000D03*
X220472000Y-106680000D03*
X217932000Y-109220000D03*
X220472000Y-109220000D03*
X217932000Y-111760000D03*
X220472000Y-111760000D03*
X217932000Y-114300000D03*
X220472000Y-114300000D03*
X217932000Y-116840000D03*
X220472000Y-116840000D03*
X217932000Y-119380000D03*
X220472000Y-119380000D03*
X217932000Y-121920000D03*
X220472000Y-121920000D03*
X217932000Y-124460000D03*
X220472000Y-124460000D03*
D29*
X145288000Y-81280000D03*
X142748000Y-81280000D03*
D31*
X187579000Y-101600000D03*
X190119000Y-101600000D03*
X187579000Y-104140000D03*
X187579000Y-106680000D03*
X190119000Y-104140000D03*
X190119000Y-106680000D03*
D29*
X154432000Y-129540000D03*
X151892000Y-129540000D03*
D18*
X192532000Y-126492000D03*
D19*
X197119240Y-111826000D03*
X197119240Y-113726000D03*
X199118220Y-112776000D03*
D21*
X195326000Y-111826000D03*
X195326000Y-113726000D03*
D20*
X197170000Y-109474000D03*
X199070000Y-109474000D03*
D32*
X200367000Y-110998000D03*
X202477000Y-110998000D03*
M02*
