G04 #@! TF.FileFunction,Copper,L2,Bot,Signal*
%FSLAX46Y46*%
G04 Gerber Fmt 4.6, Leading zero omitted, Abs format (unit mm)*
G04 Created by KiCad (PCBNEW 4.0.0-2.201512091501+6195~38~ubuntu14.04.1-stable) date Wed 16 Dec 2015 17:55:33 GMT*
%MOMM*%
G01*
G04 APERTURE LIST*
%ADD10C,0.100000*%
%ADD11R,1.250000X1.000000*%
%ADD12R,1.000000X1.250000*%
%ADD13R,2.032000X1.727200*%
%ADD14O,2.032000X1.727200*%
%ADD15R,1.727200X1.727200*%
%ADD16O,1.727200X1.727200*%
%ADD17R,1.524000X1.524000*%
%ADD18R,0.700000X1.300000*%
%ADD19R,1.300000X0.700000*%
%ADD20R,1.778000X1.778000*%
%ADD21C,1.778000*%
%ADD22C,1.800000*%
%ADD23C,2.100000*%
%ADD24O,1.524000X2.540000*%
%ADD25C,3.937000*%
%ADD26C,1.524000*%
%ADD27C,1.000000*%
%ADD28C,1.024000*%
%ADD29C,0.508000*%
%ADD30C,0.254000*%
%ADD31C,0.381000*%
G04 APERTURE END LIST*
D10*
D11*
X193040000Y-91408000D03*
X193040000Y-89408000D03*
X169164000Y-107664000D03*
X169164000Y-105664000D03*
D12*
X200692000Y-87884000D03*
X202692000Y-87884000D03*
D11*
X182880000Y-87392000D03*
X182880000Y-89392000D03*
D13*
X190500000Y-91948000D03*
D14*
X190500000Y-89408000D03*
X190500000Y-86868000D03*
X190500000Y-84328000D03*
D15*
X170180000Y-101092000D03*
D16*
X170180000Y-98552000D03*
X167640000Y-101092000D03*
X167640000Y-98552000D03*
X165100000Y-101092000D03*
X165100000Y-98552000D03*
X162560000Y-101092000D03*
X162560000Y-98552000D03*
X160020000Y-101092000D03*
X160020000Y-98552000D03*
X157480000Y-101092000D03*
X157480000Y-98552000D03*
X154940000Y-101092000D03*
X154940000Y-98552000D03*
X152400000Y-101092000D03*
X152400000Y-98552000D03*
D17*
X207772000Y-126492000D03*
X210312000Y-126492000D03*
X212852000Y-126492000D03*
X215392000Y-126492000D03*
X215392000Y-120396000D03*
X215392000Y-117856000D03*
X212852000Y-117856000D03*
X215392000Y-115316000D03*
X212852000Y-115316000D03*
X215392000Y-112776000D03*
X212852000Y-112776000D03*
X215392000Y-110236000D03*
X212852000Y-110236000D03*
X147828000Y-84328000D03*
X157988000Y-84328000D03*
X168148000Y-84328000D03*
X184912000Y-84328000D03*
X187452000Y-84328000D03*
X202692000Y-84328000D03*
X205232000Y-84328000D03*
X210312000Y-87376000D03*
X212852000Y-87376000D03*
X215392000Y-87376000D03*
X212852000Y-89916000D03*
X215392000Y-89916000D03*
X212852000Y-92456000D03*
X215392000Y-92456000D03*
X212852000Y-94996000D03*
X215392000Y-94996000D03*
X212852000Y-97536000D03*
X210312000Y-89916000D03*
X210312000Y-94996000D03*
X210312000Y-92456000D03*
X210312000Y-84836000D03*
X212852000Y-84836000D03*
X215392000Y-84836000D03*
X212852000Y-102616000D03*
X215392000Y-102616000D03*
X210312000Y-102616000D03*
D18*
X163576000Y-107696000D03*
X161676000Y-107696000D03*
D19*
X166624000Y-108072000D03*
X166624000Y-106172000D03*
D18*
X185420000Y-99060000D03*
X187320000Y-99060000D03*
D20*
X128016000Y-86360000D03*
D21*
X133096000Y-86360000D03*
D22*
X130282000Y-100004000D03*
X130282000Y-95504000D03*
D23*
X127782000Y-101254000D03*
X127782000Y-94254000D03*
D17*
X210312000Y-123698000D03*
X212852000Y-123698000D03*
X215392000Y-123698000D03*
D24*
X192532000Y-81280000D03*
X195072000Y-81280000D03*
X197612000Y-81280000D03*
X200152000Y-81280000D03*
X202692000Y-81280000D03*
X205232000Y-81280000D03*
X207772000Y-81280000D03*
X210312000Y-81280000D03*
X215392000Y-129540000D03*
X212852000Y-129540000D03*
X210312000Y-129540000D03*
X207772000Y-129540000D03*
X197612000Y-129540000D03*
X192532000Y-129540000D03*
X189992000Y-129540000D03*
X200152000Y-129540000D03*
X202692000Y-129540000D03*
X205232000Y-129540000D03*
X187452000Y-129540000D03*
X184912000Y-129540000D03*
X182372000Y-129540000D03*
X174752000Y-129540000D03*
X177292000Y-129540000D03*
X179832000Y-129540000D03*
X169672000Y-129540000D03*
X167132000Y-129540000D03*
X164592000Y-129540000D03*
X159512000Y-129540000D03*
X156972000Y-129540000D03*
X187452000Y-81280000D03*
X184912000Y-81280000D03*
X182372000Y-81280000D03*
X179832000Y-81280000D03*
X177292000Y-81280000D03*
X174752000Y-81280000D03*
X172212000Y-81280000D03*
X169672000Y-81280000D03*
X165608000Y-81280000D03*
X163068000Y-81280000D03*
X160528000Y-81280000D03*
X157988000Y-81280000D03*
X155448000Y-81280000D03*
X152908000Y-81280000D03*
X150368000Y-81280000D03*
X147828000Y-81280000D03*
X162052000Y-129540000D03*
D25*
X220472000Y-129540000D03*
X214122000Y-81280000D03*
X139192000Y-81280000D03*
X137922000Y-129540000D03*
D26*
X217932000Y-83820000D03*
X220472000Y-83820000D03*
X217932000Y-86360000D03*
X220472000Y-86360000D03*
X217932000Y-88900000D03*
X220472000Y-88900000D03*
X217932000Y-91440000D03*
X220472000Y-91440000D03*
X217932000Y-81280000D03*
X220472000Y-81280000D03*
X220472000Y-93980000D03*
X217932000Y-93980000D03*
X217932000Y-96520000D03*
X220472000Y-96520000D03*
X217932000Y-99060000D03*
X220472000Y-99060000D03*
X217932000Y-101600000D03*
X220472000Y-101600000D03*
X217932000Y-104140000D03*
X220472000Y-104140000D03*
X217932000Y-106680000D03*
X220472000Y-106680000D03*
X217932000Y-109220000D03*
X220472000Y-109220000D03*
X217932000Y-111760000D03*
X220472000Y-111760000D03*
X217932000Y-114300000D03*
X220472000Y-114300000D03*
X217932000Y-116840000D03*
X220472000Y-116840000D03*
X217932000Y-119380000D03*
X220472000Y-119380000D03*
X217932000Y-121920000D03*
X220472000Y-121920000D03*
X217932000Y-124460000D03*
X220472000Y-124460000D03*
D24*
X145288000Y-81280000D03*
X142748000Y-81280000D03*
D26*
X187579000Y-101600000D03*
X190119000Y-101600000D03*
X187579000Y-104140000D03*
X187579000Y-106680000D03*
X190119000Y-104140000D03*
X190119000Y-106680000D03*
D24*
X154432000Y-129540000D03*
X151892000Y-129540000D03*
D27*
X139192000Y-87779860D03*
X136144000Y-94996000D03*
X137292000Y-100076000D03*
X151384000Y-107188000D03*
X156972000Y-113792000D03*
X168148000Y-120396000D03*
X170688000Y-107696000D03*
X171196000Y-110186010D03*
X179816000Y-106172000D03*
X206380000Y-90292000D03*
X183896000Y-100584000D03*
X182372000Y-85344000D03*
X196088000Y-127000000D03*
X195072000Y-117348000D03*
X192024000Y-120396000D03*
X173228000Y-120660027D03*
X207772000Y-109728000D03*
X184404000Y-110236000D03*
X176276000Y-114300000D03*
X168148000Y-103632000D03*
X147828000Y-123952000D03*
X155816536Y-120027464D03*
X151892000Y-116332000D03*
X146304000Y-89408000D03*
X141793990Y-92489020D03*
X169672000Y-121920000D03*
X206248000Y-93472000D03*
X159004000Y-103124000D03*
X207772000Y-88806020D03*
X208748000Y-113665000D03*
X200152000Y-96520000D03*
X175260000Y-90424000D03*
X180020000Y-90424000D03*
X176116000Y-104013000D03*
X204724000Y-88392000D03*
X147752327Y-90856327D03*
X139700000Y-90424000D03*
X137668000Y-93848000D03*
X142748000Y-99568000D03*
X140208000Y-97028000D03*
X162052000Y-122428000D03*
X185420000Y-86614000D03*
X198694000Y-93980000D03*
X199644000Y-90424000D03*
X176116000Y-101473000D03*
X137240000Y-117475000D03*
X182960000Y-115062000D03*
X137240000Y-114935000D03*
X181516000Y-104013000D03*
X174244000Y-125476000D03*
X175260000Y-126492000D03*
X149352000Y-106172000D03*
X142280000Y-106045000D03*
X149352000Y-104648000D03*
X142280000Y-103505000D03*
X175260000Y-88900000D03*
X175271143Y-86080921D03*
X193040000Y-114792000D03*
X195072000Y-85032010D03*
X196156130Y-91459109D03*
X193040000Y-92797452D03*
X193040000Y-102108000D03*
X187960000Y-113792000D03*
X191516000Y-111760000D03*
X182960000Y-112522000D03*
X172212000Y-102616000D03*
X171171742Y-118872000D03*
X203748000Y-120015000D03*
X197612000Y-119888000D03*
X189992000Y-125476000D03*
X178982587Y-100417413D03*
X180020000Y-89154000D03*
X203748000Y-117475000D03*
X179324000Y-116332000D03*
X160060000Y-115062000D03*
X165060000Y-113792000D03*
X168918246Y-117085754D03*
X169766775Y-116237225D03*
X160020000Y-107442000D03*
X165100000Y-106172000D03*
X172212000Y-98044000D03*
X185420000Y-90620010D03*
X184588003Y-97200990D03*
X173228000Y-97200990D03*
X183388000Y-97200990D03*
X183388000Y-90620010D03*
X208214000Y-93472000D03*
X174244000Y-113792000D03*
X193468198Y-98631802D03*
X195367884Y-99272116D03*
X197967556Y-100228444D03*
X181516000Y-102743000D03*
X144780000Y-128016000D03*
X143764000Y-122936000D03*
X155956000Y-108204000D03*
X142240000Y-108585000D03*
D28*
X136144000Y-94996000D02*
X136144000Y-90827860D01*
X136144000Y-90827860D02*
X139192000Y-87779860D01*
X137876008Y-100792008D02*
X137292000Y-100208000D01*
X137292000Y-100208000D02*
X137292000Y-100076000D01*
X151384000Y-107188000D02*
X151384000Y-104886238D01*
X151384000Y-104886238D02*
X147289770Y-100792008D01*
X147289770Y-100792008D02*
X137876008Y-100792008D01*
X159512000Y-116332000D02*
X156972000Y-113792000D01*
X159512000Y-123236989D02*
X159512000Y-116332000D01*
X159512000Y-129540000D02*
X159512000Y-123444000D01*
X168148000Y-120396000D02*
X162352989Y-120396000D01*
X162352989Y-120396000D02*
X159512000Y-123236989D01*
X159512000Y-123236989D02*
X159512000Y-123444000D01*
X185420000Y-99060000D02*
X185420000Y-98760000D01*
X185420000Y-98760000D02*
X190500000Y-93680000D01*
X190500000Y-93680000D02*
X190500000Y-91948000D01*
X183896000Y-100584000D02*
X185420000Y-99060000D01*
X174244000Y-110186010D02*
X171196000Y-110186010D01*
X179816000Y-106172000D02*
X179816000Y-106297000D01*
X179816000Y-106297000D02*
X175926990Y-110186010D01*
X175926990Y-110186010D02*
X174244000Y-110186010D01*
X170688000Y-107696000D02*
X169196000Y-107696000D01*
X169196000Y-107696000D02*
X169164000Y-107664000D01*
X190500000Y-91948000D02*
X191040000Y-91408000D01*
X191040000Y-91408000D02*
X193040000Y-91408000D01*
X206380000Y-90292000D02*
X201467992Y-95204008D01*
X201467992Y-95204008D02*
X197240318Y-95204008D01*
X197240318Y-95204008D02*
X193444310Y-91408000D01*
X193444310Y-91408000D02*
X193040000Y-91408000D01*
X169164000Y-107664000D02*
X166280000Y-107664000D01*
X166280000Y-107664000D02*
X166248000Y-107696000D01*
X166624000Y-108072000D02*
X168756000Y-108072000D01*
X168756000Y-108072000D02*
X169164000Y-107664000D01*
X190500000Y-91948000D02*
X190652400Y-91948000D01*
X163576000Y-107696000D02*
X166248000Y-107696000D01*
X166248000Y-107696000D02*
X166624000Y-108072000D01*
X131298000Y-96520000D02*
X137763010Y-96520000D01*
X137763010Y-96520000D02*
X141781990Y-92501020D01*
X130282000Y-95504000D02*
X131298000Y-96520000D01*
X141781990Y-92501020D02*
X141781990Y-92489020D01*
X141781990Y-92501020D02*
X141781990Y-83869990D01*
X141781990Y-83869990D02*
X139192000Y-81280000D01*
X208748000Y-109728000D02*
X208748000Y-104180000D01*
X208748000Y-113665000D02*
X208748000Y-109728000D01*
D29*
X208748000Y-109728000D02*
X207772000Y-109728000D01*
X184404000Y-112444144D02*
X184404000Y-110236000D01*
X176784000Y-113792000D02*
X183056144Y-113792000D01*
X183056144Y-113792000D02*
X184404000Y-112444144D01*
X176276000Y-114300000D02*
X176784000Y-113792000D01*
X169164000Y-105664000D02*
X169164000Y-104648000D01*
X169164000Y-104648000D02*
X168148000Y-103632000D01*
D30*
X148844000Y-124968000D02*
X147828000Y-123952000D01*
X149352000Y-124968000D02*
X149352000Y-118872000D01*
X149352000Y-131318000D02*
X149352000Y-124968000D01*
X149352000Y-124968000D02*
X148844000Y-124968000D01*
X149352000Y-118872000D02*
X151892000Y-116332000D01*
X149352000Y-131318000D02*
X163322000Y-131318000D01*
X149098000Y-131318000D02*
X149352000Y-131318000D01*
D28*
X152400000Y-101092000D02*
X146304000Y-94996000D01*
X146304000Y-94996000D02*
X146304000Y-89408000D01*
X146304000Y-89408000D02*
X150368000Y-85344000D01*
X150368000Y-85344000D02*
X150368000Y-81280000D01*
D29*
X141698980Y-92489020D02*
X141793990Y-92489020D01*
X147320000Y-129540000D02*
X149098000Y-131318000D01*
X163322000Y-131318000D02*
X164592000Y-130048000D01*
X164592000Y-130048000D02*
X164592000Y-129540000D01*
X137922000Y-129540000D02*
X147320000Y-129540000D01*
D28*
X167132000Y-129540000D02*
X164592000Y-129540000D01*
X169672000Y-124706000D02*
X169672000Y-121920000D01*
X167132000Y-129540000D02*
X167132000Y-127246000D01*
X167132000Y-127246000D02*
X169672000Y-124706000D01*
X169164000Y-105664000D02*
X174465000Y-105664000D01*
X174465000Y-105664000D02*
X176116000Y-104013000D01*
X208748000Y-104180000D02*
X210312000Y-102616000D01*
X215392000Y-102616000D02*
X212852000Y-102616000D01*
X210312000Y-102616000D02*
X212852000Y-102616000D01*
X206248000Y-93472000D02*
X207772000Y-91948000D01*
X207772000Y-91948000D02*
X207772000Y-88806020D01*
X204931011Y-93472000D02*
X206248000Y-93472000D01*
X190500000Y-89408000D02*
X193040000Y-89408000D01*
X166499000Y-103124000D02*
X159004000Y-103124000D01*
X169164000Y-105664000D02*
X169039000Y-105664000D01*
X169039000Y-105664000D02*
X166499000Y-103124000D01*
X214122000Y-81280000D02*
X212139990Y-83262010D01*
X212139990Y-83262010D02*
X209080388Y-83262010D01*
X209080388Y-83262010D02*
X209080388Y-83285214D01*
X209080388Y-83285214D02*
X206563601Y-85802001D01*
X206563601Y-85802001D02*
X202692000Y-85802001D01*
X200152000Y-96520000D02*
X201883011Y-96520000D01*
X201883011Y-96520000D02*
X204931011Y-93472000D01*
X192684400Y-87376000D02*
X190652400Y-89408000D01*
X194056000Y-83820000D02*
X192684400Y-85191600D01*
X192684400Y-85191600D02*
X192684400Y-87376000D01*
X199644000Y-83820000D02*
X194056000Y-83820000D01*
X201626001Y-85802001D02*
X199644000Y-83820000D01*
X200152000Y-96520000D02*
X193786238Y-96520000D01*
X193786238Y-96520000D02*
X192256197Y-98050041D01*
X192256197Y-98050041D02*
X192256197Y-99213563D01*
X192256197Y-99213563D02*
X206707634Y-113665000D01*
X206707634Y-113665000D02*
X208748000Y-113665000D01*
X176116000Y-104013000D02*
X175641000Y-104013000D01*
X175641000Y-104013000D02*
X174760001Y-103132001D01*
X174760001Y-103132001D02*
X174760001Y-90923999D01*
X174760001Y-90923999D02*
X175260000Y-90424000D01*
X180020000Y-90424000D02*
X181819000Y-90424000D01*
X182835000Y-89408000D02*
X188460000Y-89408000D01*
X181819000Y-90424000D02*
X182835000Y-89408000D01*
X188460000Y-89408000D02*
X190500000Y-89408000D01*
X202692000Y-85802001D02*
X201626001Y-85802001D01*
X202692000Y-87884000D02*
X202692000Y-85802001D01*
X190652400Y-89408000D02*
X190500000Y-89408000D01*
X202692000Y-87884000D02*
X204216000Y-87884000D01*
X204216000Y-87884000D02*
X204724000Y-88392000D01*
X182880000Y-87392000D02*
X151216654Y-87392000D01*
X151216654Y-87392000D02*
X147752327Y-90856327D01*
X137668000Y-93848000D02*
X137668000Y-92456000D01*
X137668000Y-92456000D02*
X139700000Y-90424000D01*
X140208000Y-97028000D02*
X142748000Y-99568000D01*
X162052000Y-129540000D02*
X162052000Y-122428000D01*
X209296000Y-84836000D02*
X205948008Y-88183992D01*
X205948008Y-88183992D02*
X205948008Y-88899002D01*
X205948008Y-88899002D02*
X205231002Y-89616008D01*
X210312000Y-84836000D02*
X209296000Y-84836000D01*
X217932000Y-81280000D02*
X220472000Y-81280000D01*
X182880000Y-87392000D02*
X184642000Y-87392000D01*
X184642000Y-87392000D02*
X185420000Y-86614000D01*
X215392000Y-84836000D02*
X215392000Y-83820000D01*
X215392000Y-83820000D02*
X217932000Y-81280000D01*
X212852000Y-84836000D02*
X215392000Y-84836000D01*
X210312000Y-84836000D02*
X212852000Y-84836000D01*
X199644000Y-90424000D02*
X200328008Y-89739992D01*
X200328008Y-89739992D02*
X200328008Y-89616008D01*
X205231002Y-89616008D02*
X200328008Y-89616008D01*
X200328008Y-89616008D02*
X199644000Y-88932000D01*
X199644000Y-90424000D02*
X199644000Y-88932000D01*
X199644000Y-88932000D02*
X200692000Y-87884000D01*
X199644000Y-90424000D02*
X199644000Y-93030000D01*
X199644000Y-93030000D02*
X198694000Y-93980000D01*
D29*
X178435000Y-102616000D02*
X179832000Y-102616000D01*
X182372000Y-101600000D02*
X180848000Y-101600000D01*
X180848000Y-101600000D02*
X179832000Y-102616000D01*
X183388000Y-102616000D02*
X182372000Y-101600000D01*
X183896000Y-102616000D02*
X186563000Y-102616000D01*
X183896000Y-102616000D02*
X183388000Y-102616000D01*
X178435000Y-102616000D02*
X178435000Y-106045000D01*
X178435000Y-106045000D02*
X175260000Y-109220000D01*
X175260000Y-109220000D02*
X145796000Y-109220000D01*
X145796000Y-109220000D02*
X145288000Y-109728000D01*
X145288000Y-109728000D02*
X137668000Y-109728000D01*
X137668000Y-109728000D02*
X134112000Y-113284000D01*
X134112000Y-113284000D02*
X134112000Y-116332000D01*
X134112000Y-116332000D02*
X135255000Y-117475000D01*
X135255000Y-117475000D02*
X137240000Y-117475000D01*
X187579000Y-101600000D02*
X188795001Y-102816001D01*
X188795001Y-102816001D02*
X190594683Y-102816001D01*
X190594683Y-102816001D02*
X192532000Y-104753318D01*
X192532000Y-104753318D02*
X192532000Y-113284000D01*
X192532000Y-113284000D02*
X190754000Y-115062000D01*
X190754000Y-115062000D02*
X182960000Y-115062000D01*
X177292000Y-101473000D02*
X178308000Y-102489000D01*
X178308000Y-102489000D02*
X178435000Y-102616000D01*
X177292000Y-101473000D02*
X176116000Y-101473000D01*
X186563000Y-102616000D02*
X187579000Y-101600000D01*
X181516000Y-104013000D02*
X181991000Y-104013000D01*
X181991000Y-104013000D02*
X183441999Y-105463999D01*
X183441999Y-105463999D02*
X183601933Y-105463999D01*
X177813932Y-111252000D02*
X140923000Y-111252000D01*
X140923000Y-111252000D02*
X137240000Y-114935000D01*
X190119000Y-104140000D02*
X188795001Y-105463999D01*
X188795001Y-105463999D02*
X183601933Y-105463999D01*
X183601933Y-105463999D02*
X177813932Y-111252000D01*
X174244000Y-125476000D02*
X174244000Y-129032000D01*
X174244000Y-129032000D02*
X174752000Y-129540000D01*
X175260000Y-126492000D02*
X177292000Y-128524000D01*
X177292000Y-128524000D02*
X177292000Y-129540000D01*
X142280000Y-106045000D02*
X149225000Y-106045000D01*
X149225000Y-106045000D02*
X149352000Y-106172000D01*
X142280000Y-103505000D02*
X148209000Y-103505000D01*
X148209000Y-103505000D02*
X149352000Y-104648000D01*
X177292000Y-90932000D02*
X177292000Y-100076000D01*
X175260000Y-88900000D02*
X177292000Y-90932000D01*
X175260000Y-83820000D02*
X175260000Y-86069778D01*
X175260000Y-86069778D02*
X175271143Y-86080921D01*
X177292000Y-81280000D02*
X177292000Y-81788000D01*
X177292000Y-81788000D02*
X175260000Y-83820000D01*
X186944000Y-100076000D02*
X186636001Y-100383999D01*
X187320000Y-99700000D02*
X186944000Y-100076000D01*
X187320000Y-99436000D02*
X187960000Y-100076000D01*
X187960000Y-100076000D02*
X188267999Y-100383999D01*
X186944000Y-100076000D02*
X187960000Y-100076000D01*
X187320000Y-99060000D02*
X187320000Y-99700000D01*
X186636001Y-100383999D02*
X188468000Y-100383999D01*
X188468000Y-100383999D02*
X190702681Y-100383999D01*
X188267999Y-100383999D02*
X188468000Y-100383999D01*
X187320000Y-99060000D02*
X187320000Y-99436000D01*
X179373991Y-101550009D02*
X180340000Y-100584000D01*
X177292000Y-100076000D02*
X178766009Y-101550009D01*
X178766009Y-101550009D02*
X179373991Y-101550009D01*
X180340000Y-100584000D02*
X182529856Y-100584000D01*
X182529856Y-100584000D02*
X183495865Y-101550009D01*
X183495865Y-101550009D02*
X185469991Y-101550009D01*
X185469991Y-101550009D02*
X186636001Y-100383999D01*
X177458587Y-81446587D02*
X177292000Y-81280000D01*
X191410682Y-101092000D02*
X191410682Y-102002682D01*
X191410682Y-102002682D02*
X193548000Y-104140000D01*
X190702681Y-100383999D02*
X191410682Y-101092000D01*
X193548000Y-104140000D02*
X193548000Y-114284000D01*
X193548000Y-114284000D02*
X193040000Y-114792000D01*
X196156130Y-91459109D02*
X196156130Y-86116140D01*
X196156130Y-86116140D02*
X195072000Y-85032010D01*
X191290187Y-95221813D02*
X191290187Y-94547265D01*
X191290187Y-94547265D02*
X193040000Y-92797452D01*
X193040000Y-102108000D02*
X193040000Y-101363510D01*
X193040000Y-101363510D02*
X191290187Y-99613697D01*
X191290187Y-99613697D02*
X191290187Y-95221813D01*
X187960000Y-113792000D02*
X189484000Y-113792000D01*
X189484000Y-113792000D02*
X191516000Y-111760000D01*
D28*
X155702000Y-112522000D02*
X154432000Y-113792000D01*
X154432000Y-113792000D02*
X154432000Y-129540000D01*
X182960000Y-112522000D02*
X155702000Y-112522000D01*
X171171742Y-118872000D02*
X171171742Y-125697742D01*
X169672000Y-127246000D02*
X171196000Y-125722000D01*
X171196000Y-125722000D02*
X172654001Y-124263999D01*
X171171742Y-125697742D02*
X171196000Y-125722000D01*
X172212000Y-102616000D02*
X172212000Y-99837762D01*
X172212000Y-99837762D02*
X170999999Y-98625761D01*
X170999999Y-98625761D02*
X170999999Y-98552000D01*
X170180000Y-98552000D02*
X170999999Y-98552000D01*
X197612000Y-119888000D02*
X203621000Y-119888000D01*
X203621000Y-119888000D02*
X203748000Y-120015000D01*
X169672000Y-129540000D02*
X169672000Y-127246000D01*
X172654001Y-124263999D02*
X174825761Y-124263999D01*
X174825761Y-124263999D02*
X176037762Y-125476000D01*
X176037762Y-125476000D02*
X189992000Y-125476000D01*
D29*
X178000010Y-90223990D02*
X178000010Y-99434836D01*
X178000010Y-99434836D02*
X178982587Y-100417413D01*
X178000010Y-90223990D02*
X179070000Y-89154000D01*
X179070000Y-89154000D02*
X180020000Y-89154000D01*
X202184000Y-116332000D02*
X202605000Y-116332000D01*
X202605000Y-116332000D02*
X203748000Y-117475000D01*
X179324000Y-116332000D02*
X202184000Y-116332000D01*
X160060000Y-115062000D02*
X172988724Y-115062000D01*
X172988724Y-115062000D02*
X180554733Y-122628009D01*
X180554733Y-122628009D02*
X196288010Y-122628010D01*
X196288010Y-122628010D02*
X202692000Y-129032000D01*
X202692000Y-129032000D02*
X202692000Y-129540000D01*
X198120000Y-121920000D02*
X180848000Y-121920000D01*
X165060000Y-113792000D02*
X172720000Y-113792000D01*
X172720000Y-113792000D02*
X180848000Y-121920000D01*
X205232000Y-129540000D02*
X205232000Y-129032000D01*
X205232000Y-129032000D02*
X198120000Y-121920000D01*
X168918246Y-117085754D02*
X169418245Y-117585753D01*
X169418245Y-117585753D02*
X173480477Y-117585753D01*
X196342000Y-129540000D02*
X197612000Y-129540000D01*
X173480477Y-117585753D02*
X179938754Y-124044030D01*
X190846030Y-124044030D02*
X196342000Y-129540000D01*
X179938754Y-124044030D02*
X190846030Y-124044030D01*
X169766775Y-116237225D02*
X173133225Y-116237225D01*
X173133225Y-116237225D02*
X178816000Y-121920000D01*
X178816000Y-121920000D02*
X178845448Y-121920000D01*
X178845448Y-121920000D02*
X180261468Y-123336020D01*
X180261468Y-123336020D02*
X194456020Y-123336020D01*
X200152000Y-129032000D02*
X200152000Y-129540000D01*
X194456020Y-123336020D02*
X200152000Y-129032000D01*
X157762000Y-107442000D02*
X160020000Y-107442000D01*
X157000000Y-106680000D02*
X157762000Y-107442000D01*
X142748000Y-94391327D02*
X142748000Y-93472000D01*
X142748000Y-81280000D02*
X142748000Y-93472000D01*
X157000000Y-106680000D02*
X155036673Y-106680000D01*
X155036673Y-106680000D02*
X142748000Y-94391327D01*
X160020000Y-107442000D02*
X161422000Y-107442000D01*
X161422000Y-107442000D02*
X161676000Y-107696000D01*
X165100000Y-106172000D02*
X157493277Y-106172000D01*
X157493277Y-106172000D02*
X157293267Y-105971990D01*
X145288000Y-95930050D02*
X145288000Y-83058000D01*
X145288000Y-83058000D02*
X145288000Y-81280000D01*
X157293267Y-105971990D02*
X155329940Y-105971990D01*
X155329940Y-105971990D02*
X145288000Y-95930050D01*
X166624000Y-106172000D02*
X165100000Y-106172000D01*
X190500000Y-86868000D02*
X190347600Y-86868000D01*
X191262000Y-81280000D02*
X192532000Y-81280000D01*
X190347600Y-86868000D02*
X189029990Y-85550390D01*
X189029990Y-85550390D02*
X189029990Y-83512010D01*
X189029990Y-83512010D02*
X191262000Y-81280000D01*
X190500000Y-84328000D02*
X192024000Y-84328000D01*
X192024000Y-84328000D02*
X195072000Y-81280000D01*
X166423990Y-97228010D02*
X171396010Y-97228010D01*
X171396010Y-97228010D02*
X172212000Y-98044000D01*
X165100000Y-98552000D02*
X166423990Y-97228010D01*
X184588003Y-97200990D02*
X184588003Y-91452007D01*
X184588003Y-91452007D02*
X185420000Y-90620010D01*
X162560000Y-98552000D02*
X164592000Y-96520000D01*
X164592000Y-96520000D02*
X172547010Y-96520000D01*
X173228000Y-97200990D02*
X172547010Y-96520000D01*
X183388000Y-90620010D02*
X183388000Y-97200990D01*
X183388000Y-97028000D02*
X183388000Y-97200990D01*
X207772000Y-126492000D02*
X207772000Y-129540000D01*
X210312000Y-126492000D02*
X210312000Y-129540000D01*
X212852000Y-126492000D02*
X212852000Y-129540000D01*
X215392000Y-126492000D02*
X215392000Y-129540000D01*
X215392000Y-120396000D02*
X216662000Y-120396000D01*
X216969999Y-120703999D02*
X219255999Y-120703999D01*
X216662000Y-120396000D02*
X216969999Y-120703999D01*
X219255999Y-120703999D02*
X219710001Y-121158001D01*
X219710001Y-121158001D02*
X220472000Y-121920000D01*
X220472000Y-119380000D02*
X219148001Y-118056001D01*
X219148001Y-118056001D02*
X216862001Y-118056001D01*
X216862001Y-118056001D02*
X216662000Y-117856000D01*
X216662000Y-117856000D02*
X215392000Y-117856000D01*
X217932000Y-119380000D02*
X216854370Y-119380000D01*
X216854370Y-119380000D02*
X216546371Y-119072001D01*
X216546371Y-119072001D02*
X214068001Y-119072001D01*
X214068001Y-119072001D02*
X212852000Y-117856000D01*
X220472000Y-116840000D02*
X219255999Y-115623999D01*
X219255999Y-115623999D02*
X216969999Y-115623999D01*
X216969999Y-115623999D02*
X216662000Y-115316000D01*
X216662000Y-115316000D02*
X215392000Y-115316000D01*
X217932000Y-116840000D02*
X216854370Y-116840000D01*
X216854370Y-116840000D02*
X216546371Y-116532001D01*
X216546371Y-116532001D02*
X214068001Y-116532001D01*
X214068001Y-116532001D02*
X212852000Y-115316000D01*
X215392000Y-112776000D02*
X216662000Y-112776000D01*
X219255999Y-113083999D02*
X219710001Y-113538001D01*
X216662000Y-112776000D02*
X216969999Y-113083999D01*
X216969999Y-113083999D02*
X219255999Y-113083999D01*
X219710001Y-113538001D02*
X220472000Y-114300000D01*
X217932000Y-114300000D02*
X216854370Y-114300000D01*
X216854370Y-114300000D02*
X216546371Y-113992001D01*
X216546371Y-113992001D02*
X214068001Y-113992001D01*
X214068001Y-113992001D02*
X212852000Y-112776000D01*
X215392000Y-110236000D02*
X217148318Y-110236000D01*
X219255999Y-110436001D02*
X219710001Y-109981999D01*
X217148318Y-110236000D02*
X217348319Y-110436001D01*
X219710001Y-109981999D02*
X220472000Y-109220000D01*
X217348319Y-110436001D02*
X219255999Y-110436001D01*
X217932000Y-109220000D02*
X216717202Y-109220000D01*
X216717202Y-109220000D02*
X216517201Y-109019999D01*
X216517201Y-109019999D02*
X214068001Y-109019999D01*
X214068001Y-109019999D02*
X212852000Y-110236000D01*
X157988000Y-81280000D02*
X157988000Y-84328000D01*
X168148000Y-84328000D02*
X172212000Y-84328000D01*
X172212000Y-84328000D02*
X174752000Y-81788000D01*
X174752000Y-81788000D02*
X174752000Y-81280000D01*
X184912000Y-81280000D02*
X184912000Y-84328000D01*
X202692000Y-84328000D02*
X202692000Y-81280000D01*
X205232000Y-84328000D02*
X205232000Y-81280000D01*
X210312000Y-87376000D02*
X211528001Y-88592001D01*
X211528001Y-88592001D02*
X216440317Y-88592001D01*
X216440317Y-88592001D02*
X217456317Y-87576001D01*
X217456317Y-87576001D02*
X218515681Y-87576001D01*
X219255999Y-85036001D02*
X219710001Y-84581999D01*
X219710001Y-84581999D02*
X220472000Y-83820000D01*
X218515681Y-87576001D02*
X219255999Y-86835683D01*
X219255999Y-86835683D02*
X219255999Y-85036001D01*
X215392000Y-89916000D02*
X217148318Y-89916000D01*
X217148318Y-89916000D02*
X217348319Y-90116001D01*
X217348319Y-90116001D02*
X219255999Y-90116001D01*
X219255999Y-90116001D02*
X219710001Y-89661999D01*
X219710001Y-89661999D02*
X220472000Y-88900000D01*
X217932000Y-91440000D02*
X216854370Y-91440000D01*
X216854370Y-91440000D02*
X216654369Y-91239999D01*
X216654369Y-91239999D02*
X214068001Y-91239999D01*
X214068001Y-91239999D02*
X212852000Y-92456000D01*
X215392000Y-92456000D02*
X216662000Y-92456000D01*
X216662000Y-92456000D02*
X216862001Y-92656001D01*
X219710001Y-92201999D02*
X220472000Y-91440000D01*
X216862001Y-92656001D02*
X219255999Y-92656001D01*
X219255999Y-92656001D02*
X219710001Y-92201999D01*
X217932000Y-93980000D02*
X216854370Y-93980000D01*
X216854370Y-93980000D02*
X216654369Y-93779999D01*
X216654369Y-93779999D02*
X214068001Y-93779999D01*
X214068001Y-93779999D02*
X212852000Y-94996000D01*
X215392000Y-94996000D02*
X216662000Y-94996000D01*
X216662000Y-94996000D02*
X216862001Y-95196001D01*
X216862001Y-95196001D02*
X219255999Y-95196001D01*
X219255999Y-95196001D02*
X219710001Y-94741999D01*
X219710001Y-94741999D02*
X220472000Y-93980000D01*
X212852000Y-97536000D02*
X214122000Y-97536000D01*
X214122000Y-97536000D02*
X215138000Y-96520000D01*
X215138000Y-96520000D02*
X216854370Y-96520000D01*
X216854370Y-96520000D02*
X217932000Y-96520000D01*
D31*
X208788000Y-92964000D02*
X208280000Y-93472000D01*
X208280000Y-93472000D02*
X208214000Y-93472000D01*
X209446143Y-86052001D02*
X208788000Y-86710144D01*
X208788000Y-86710144D02*
X208788000Y-92964000D01*
D29*
X217932000Y-83820000D02*
X217170001Y-84581999D01*
X216517201Y-86052001D02*
X209446143Y-86052001D01*
X217170001Y-84581999D02*
X217170001Y-85399201D01*
X217170001Y-85399201D02*
X216517201Y-86052001D01*
X174244000Y-113792000D02*
X179060856Y-118608856D01*
X179060856Y-118608856D02*
X205740000Y-118608856D01*
X205740000Y-118608856D02*
X209051144Y-121920000D01*
X209051144Y-121920000D02*
X217932000Y-121920000D01*
D31*
X193468198Y-98631802D02*
X193968197Y-98131803D01*
X193968197Y-98131803D02*
X211220901Y-98131803D01*
X211220901Y-98131803D02*
X211777599Y-98688501D01*
X211777599Y-98688501D02*
X215763499Y-98688501D01*
X215763499Y-98688501D02*
X216544501Y-97907499D01*
X219084501Y-97907499D02*
X216544501Y-97907499D01*
X220472000Y-96520000D02*
X219084501Y-97907499D01*
X195367884Y-99272116D02*
X198540006Y-99272116D01*
X198540006Y-99272116D02*
X198978142Y-99710252D01*
X198978142Y-99710252D02*
X216204118Y-99710252D01*
X216204118Y-99710252D02*
X216854370Y-99060000D01*
X216854370Y-99060000D02*
X217932000Y-99060000D01*
X219240738Y-100291262D02*
X198737480Y-100291262D01*
X198737480Y-100291262D02*
X198674662Y-100228444D01*
X198674662Y-100228444D02*
X197967556Y-100228444D01*
X220472000Y-99060000D02*
X219240738Y-100291262D01*
D29*
X187579000Y-104140000D02*
X183119276Y-104140000D01*
X183119276Y-104140000D02*
X181722276Y-102743000D01*
X181722276Y-102743000D02*
X181516000Y-102743000D01*
X143764000Y-122936000D02*
X143764000Y-127000000D01*
X143764000Y-127000000D02*
X144780000Y-128016000D01*
X142240000Y-108585000D02*
X138863000Y-108585000D01*
X138863000Y-108585000D02*
X130282000Y-100004000D01*
X155956000Y-108204000D02*
X142621000Y-108204000D01*
X142621000Y-108204000D02*
X142240000Y-108585000D01*
X187452000Y-81280000D02*
X187452000Y-84328000D01*
D30*
G36*
X163349941Y-130699941D02*
X163693974Y-131125630D01*
X164097070Y-131345000D01*
X162632975Y-131345000D01*
X163039828Y-131073149D01*
X163331330Y-130636887D01*
X163349941Y-130699941D01*
X163349941Y-130699941D01*
G37*
X163349941Y-130699941D02*
X163693974Y-131125630D01*
X164097070Y-131345000D01*
X162632975Y-131345000D01*
X163039828Y-131073149D01*
X163331330Y-130636887D01*
X163349941Y-130699941D01*
G36*
X222277000Y-80314447D02*
X222277000Y-127594480D01*
X222257456Y-127574936D01*
X222144676Y-127687716D01*
X221927748Y-127320270D01*
X220967482Y-126932147D01*
X219931784Y-126941045D01*
X219016252Y-127320270D01*
X218799323Y-127687718D01*
X220472000Y-129360395D01*
X220486143Y-129346253D01*
X220665748Y-129525858D01*
X220651605Y-129540000D01*
X220665748Y-129554143D01*
X220486143Y-129733748D01*
X220472000Y-129719605D01*
X220457858Y-129733748D01*
X220278253Y-129554143D01*
X220292395Y-129540000D01*
X218619718Y-127867323D01*
X218252270Y-128084252D01*
X217864147Y-129044518D01*
X217873045Y-130080216D01*
X218252270Y-130995748D01*
X218619716Y-131212676D01*
X218506936Y-131325456D01*
X218526480Y-131345000D01*
X215972975Y-131345000D01*
X216379828Y-131073149D01*
X216682660Y-130619930D01*
X216789000Y-130085321D01*
X216789000Y-128994679D01*
X216682660Y-128460070D01*
X216379828Y-128006851D01*
X216281000Y-127940816D01*
X216281000Y-127877543D01*
X216389317Y-127857162D01*
X216605441Y-127718090D01*
X216750431Y-127505890D01*
X216801440Y-127254000D01*
X216801440Y-125730000D01*
X216757162Y-125494683D01*
X216722112Y-125440213D01*
X217131392Y-125440213D01*
X217200857Y-125682397D01*
X217724302Y-125869144D01*
X218279368Y-125841362D01*
X218663143Y-125682397D01*
X218732608Y-125440213D01*
X219671392Y-125440213D01*
X219740857Y-125682397D01*
X220264302Y-125869144D01*
X220819368Y-125841362D01*
X221203143Y-125682397D01*
X221272608Y-125440213D01*
X220472000Y-124639605D01*
X219671392Y-125440213D01*
X218732608Y-125440213D01*
X217932000Y-124639605D01*
X217131392Y-125440213D01*
X216722112Y-125440213D01*
X216618090Y-125278559D01*
X216405890Y-125133569D01*
X216215431Y-125095000D01*
X216280309Y-125095000D01*
X216513698Y-124998327D01*
X216595749Y-124916276D01*
X216709603Y-125191143D01*
X216951787Y-125260608D01*
X217752395Y-124460000D01*
X218111605Y-124460000D01*
X218912213Y-125260608D01*
X219154397Y-125191143D01*
X219198453Y-125067656D01*
X219249603Y-125191143D01*
X219491787Y-125260608D01*
X220292395Y-124460000D01*
X220651605Y-124460000D01*
X221452213Y-125260608D01*
X221694397Y-125191143D01*
X221881144Y-124667698D01*
X221853362Y-124112632D01*
X221694397Y-123728857D01*
X221452213Y-123659392D01*
X220651605Y-124460000D01*
X220292395Y-124460000D01*
X219491787Y-123659392D01*
X219249603Y-123728857D01*
X219205547Y-123852344D01*
X219154397Y-123728857D01*
X218912213Y-123659392D01*
X218111605Y-124460000D01*
X217752395Y-124460000D01*
X216951787Y-123659392D01*
X216709603Y-123728857D01*
X216663456Y-123858206D01*
X216630250Y-123825000D01*
X215519000Y-123825000D01*
X215519000Y-123845000D01*
X215265000Y-123845000D01*
X215265000Y-123825000D01*
X214153750Y-123825000D01*
X214122000Y-123856750D01*
X214090250Y-123825000D01*
X212979000Y-123825000D01*
X212979000Y-123845000D01*
X212725000Y-123845000D01*
X212725000Y-123825000D01*
X211613750Y-123825000D01*
X211582000Y-123856750D01*
X211550250Y-123825000D01*
X210439000Y-123825000D01*
X210439000Y-123845000D01*
X210185000Y-123845000D01*
X210185000Y-123825000D01*
X209073750Y-123825000D01*
X208915000Y-123983750D01*
X208915000Y-124586310D01*
X209011673Y-124819699D01*
X209190302Y-124998327D01*
X209423691Y-125095000D01*
X209483887Y-125095000D01*
X209314683Y-125126838D01*
X209098559Y-125265910D01*
X209042626Y-125347770D01*
X208998090Y-125278559D01*
X208785890Y-125133569D01*
X208534000Y-125082560D01*
X207010000Y-125082560D01*
X206774683Y-125126838D01*
X206558559Y-125265910D01*
X206413569Y-125478110D01*
X206362560Y-125730000D01*
X206362560Y-127254000D01*
X206406838Y-127489317D01*
X206545910Y-127705441D01*
X206758110Y-127850431D01*
X206883000Y-127875722D01*
X206883000Y-127940816D01*
X206784172Y-128006851D01*
X206502000Y-128429150D01*
X206219828Y-128006851D01*
X205766609Y-127704019D01*
X205232000Y-127597679D01*
X205084295Y-127627059D01*
X198748618Y-121291382D01*
X198622409Y-121207052D01*
X198460206Y-121098671D01*
X198140109Y-121035000D01*
X203244769Y-121035000D01*
X203257694Y-121040367D01*
X203309062Y-121074690D01*
X203369124Y-121086637D01*
X203521244Y-121149803D01*
X203687415Y-121149948D01*
X203748000Y-121161999D01*
X203808056Y-121150053D01*
X203972775Y-121150197D01*
X204126347Y-121086742D01*
X204186938Y-121074690D01*
X204237857Y-121040667D01*
X204390086Y-120977767D01*
X204507686Y-120860372D01*
X204559051Y-120826051D01*
X204593073Y-120775134D01*
X204709645Y-120658765D01*
X204773367Y-120505305D01*
X204807690Y-120453938D01*
X204819637Y-120393876D01*
X204882803Y-120241756D01*
X204882948Y-120075585D01*
X204894999Y-120015000D01*
X204883053Y-119954944D01*
X204883197Y-119790225D01*
X204819742Y-119636653D01*
X204807690Y-119576062D01*
X204773667Y-119525143D01*
X204762392Y-119497856D01*
X205371764Y-119497856D01*
X208422526Y-122548618D01*
X208710938Y-122741329D01*
X208925627Y-122784033D01*
X208915000Y-122809690D01*
X208915000Y-123412250D01*
X209073750Y-123571000D01*
X210185000Y-123571000D01*
X210185000Y-123551000D01*
X210439000Y-123551000D01*
X210439000Y-123571000D01*
X211550250Y-123571000D01*
X211582000Y-123539250D01*
X211613750Y-123571000D01*
X212725000Y-123571000D01*
X212725000Y-123551000D01*
X212979000Y-123551000D01*
X212979000Y-123571000D01*
X214090250Y-123571000D01*
X214122000Y-123539250D01*
X214153750Y-123571000D01*
X215265000Y-123571000D01*
X215265000Y-123551000D01*
X215519000Y-123551000D01*
X215519000Y-123571000D01*
X216630250Y-123571000D01*
X216789000Y-123412250D01*
X216789000Y-122809690D01*
X216788714Y-122809000D01*
X216845515Y-122809000D01*
X217139630Y-123103629D01*
X217331727Y-123183395D01*
X217200857Y-123237603D01*
X217131392Y-123479787D01*
X217932000Y-124280395D01*
X218732608Y-123479787D01*
X218663143Y-123237603D01*
X218522682Y-123187491D01*
X218722303Y-123105010D01*
X219115629Y-122712370D01*
X219201949Y-122504488D01*
X219286990Y-122710303D01*
X219679630Y-123103629D01*
X219871727Y-123183395D01*
X219740857Y-123237603D01*
X219671392Y-123479787D01*
X220472000Y-124280395D01*
X221272608Y-123479787D01*
X221203143Y-123237603D01*
X221062682Y-123187491D01*
X221262303Y-123105010D01*
X221655629Y-122712370D01*
X221868757Y-122199100D01*
X221869242Y-121643339D01*
X221657010Y-121129697D01*
X221264370Y-120736371D01*
X221056488Y-120650051D01*
X221262303Y-120565010D01*
X221655629Y-120172370D01*
X221868757Y-119659100D01*
X221869242Y-119103339D01*
X221657010Y-118589697D01*
X221264370Y-118196371D01*
X221056488Y-118110051D01*
X221262303Y-118025010D01*
X221655629Y-117632370D01*
X221868757Y-117119100D01*
X221869242Y-116563339D01*
X221657010Y-116049697D01*
X221264370Y-115656371D01*
X221056488Y-115570051D01*
X221262303Y-115485010D01*
X221655629Y-115092370D01*
X221868757Y-114579100D01*
X221869242Y-114023339D01*
X221657010Y-113509697D01*
X221264370Y-113116371D01*
X221056488Y-113030051D01*
X221262303Y-112945010D01*
X221655629Y-112552370D01*
X221868757Y-112039100D01*
X221869242Y-111483339D01*
X221657010Y-110969697D01*
X221264370Y-110576371D01*
X221056488Y-110490051D01*
X221262303Y-110405010D01*
X221655629Y-110012370D01*
X221868757Y-109499100D01*
X221869242Y-108943339D01*
X221657010Y-108429697D01*
X221264370Y-108036371D01*
X221056488Y-107950051D01*
X221262303Y-107865010D01*
X221655629Y-107472370D01*
X221868757Y-106959100D01*
X221869242Y-106403339D01*
X221657010Y-105889697D01*
X221264370Y-105496371D01*
X221056488Y-105410051D01*
X221262303Y-105325010D01*
X221655629Y-104932370D01*
X221868757Y-104419100D01*
X221869242Y-103863339D01*
X221657010Y-103349697D01*
X221264370Y-102956371D01*
X221056488Y-102870051D01*
X221262303Y-102785010D01*
X221655629Y-102392370D01*
X221868757Y-101879100D01*
X221869242Y-101323339D01*
X221657010Y-100809697D01*
X221264370Y-100416371D01*
X221056488Y-100330051D01*
X221262303Y-100245010D01*
X221655629Y-99852370D01*
X221868757Y-99339100D01*
X221869242Y-98783339D01*
X221657010Y-98269697D01*
X221264370Y-97876371D01*
X221056488Y-97790051D01*
X221262303Y-97705010D01*
X221655629Y-97312370D01*
X221868757Y-96799100D01*
X221869242Y-96243339D01*
X221657010Y-95729697D01*
X221264370Y-95336371D01*
X221056488Y-95250051D01*
X221262303Y-95165010D01*
X221655629Y-94772370D01*
X221868757Y-94259100D01*
X221869242Y-93703339D01*
X221657010Y-93189697D01*
X221264370Y-92796371D01*
X221056488Y-92710051D01*
X221262303Y-92625010D01*
X221655629Y-92232370D01*
X221868757Y-91719100D01*
X221869242Y-91163339D01*
X221657010Y-90649697D01*
X221264370Y-90256371D01*
X221056488Y-90170051D01*
X221262303Y-90085010D01*
X221655629Y-89692370D01*
X221868757Y-89179100D01*
X221869242Y-88623339D01*
X221657010Y-88109697D01*
X221264370Y-87716371D01*
X221056488Y-87630051D01*
X221262303Y-87545010D01*
X221655629Y-87152370D01*
X221868757Y-86639100D01*
X221869242Y-86083339D01*
X221657010Y-85569697D01*
X221264370Y-85176371D01*
X221056488Y-85090051D01*
X221262303Y-85005010D01*
X221655629Y-84612370D01*
X221868757Y-84099100D01*
X221869242Y-83543339D01*
X221657010Y-83029697D01*
X221264370Y-82636371D01*
X221056488Y-82550051D01*
X221262303Y-82465010D01*
X221655629Y-82072370D01*
X221868757Y-81559100D01*
X221869242Y-81003339D01*
X221657010Y-80489697D01*
X221264370Y-80096371D01*
X220751100Y-79883243D01*
X220195339Y-79882758D01*
X219681697Y-80094990D01*
X219643621Y-80133000D01*
X218760935Y-80133000D01*
X218724370Y-80096371D01*
X218211100Y-79883243D01*
X217655339Y-79882758D01*
X217141697Y-80094990D01*
X216748371Y-80487630D01*
X216682359Y-80646605D01*
X216341730Y-79824252D01*
X215974284Y-79607324D01*
X216087064Y-79494544D01*
X216067520Y-79475000D01*
X221437554Y-79475000D01*
X222277000Y-80314447D01*
X222277000Y-80314447D01*
G37*
X222277000Y-80314447D02*
X222277000Y-127594480D01*
X222257456Y-127574936D01*
X222144676Y-127687716D01*
X221927748Y-127320270D01*
X220967482Y-126932147D01*
X219931784Y-126941045D01*
X219016252Y-127320270D01*
X218799323Y-127687718D01*
X220472000Y-129360395D01*
X220486143Y-129346253D01*
X220665748Y-129525858D01*
X220651605Y-129540000D01*
X220665748Y-129554143D01*
X220486143Y-129733748D01*
X220472000Y-129719605D01*
X220457858Y-129733748D01*
X220278253Y-129554143D01*
X220292395Y-129540000D01*
X218619718Y-127867323D01*
X218252270Y-128084252D01*
X217864147Y-129044518D01*
X217873045Y-130080216D01*
X218252270Y-130995748D01*
X218619716Y-131212676D01*
X218506936Y-131325456D01*
X218526480Y-131345000D01*
X215972975Y-131345000D01*
X216379828Y-131073149D01*
X216682660Y-130619930D01*
X216789000Y-130085321D01*
X216789000Y-128994679D01*
X216682660Y-128460070D01*
X216379828Y-128006851D01*
X216281000Y-127940816D01*
X216281000Y-127877543D01*
X216389317Y-127857162D01*
X216605441Y-127718090D01*
X216750431Y-127505890D01*
X216801440Y-127254000D01*
X216801440Y-125730000D01*
X216757162Y-125494683D01*
X216722112Y-125440213D01*
X217131392Y-125440213D01*
X217200857Y-125682397D01*
X217724302Y-125869144D01*
X218279368Y-125841362D01*
X218663143Y-125682397D01*
X218732608Y-125440213D01*
X219671392Y-125440213D01*
X219740857Y-125682397D01*
X220264302Y-125869144D01*
X220819368Y-125841362D01*
X221203143Y-125682397D01*
X221272608Y-125440213D01*
X220472000Y-124639605D01*
X219671392Y-125440213D01*
X218732608Y-125440213D01*
X217932000Y-124639605D01*
X217131392Y-125440213D01*
X216722112Y-125440213D01*
X216618090Y-125278559D01*
X216405890Y-125133569D01*
X216215431Y-125095000D01*
X216280309Y-125095000D01*
X216513698Y-124998327D01*
X216595749Y-124916276D01*
X216709603Y-125191143D01*
X216951787Y-125260608D01*
X217752395Y-124460000D01*
X218111605Y-124460000D01*
X218912213Y-125260608D01*
X219154397Y-125191143D01*
X219198453Y-125067656D01*
X219249603Y-125191143D01*
X219491787Y-125260608D01*
X220292395Y-124460000D01*
X220651605Y-124460000D01*
X221452213Y-125260608D01*
X221694397Y-125191143D01*
X221881144Y-124667698D01*
X221853362Y-124112632D01*
X221694397Y-123728857D01*
X221452213Y-123659392D01*
X220651605Y-124460000D01*
X220292395Y-124460000D01*
X219491787Y-123659392D01*
X219249603Y-123728857D01*
X219205547Y-123852344D01*
X219154397Y-123728857D01*
X218912213Y-123659392D01*
X218111605Y-124460000D01*
X217752395Y-124460000D01*
X216951787Y-123659392D01*
X216709603Y-123728857D01*
X216663456Y-123858206D01*
X216630250Y-123825000D01*
X215519000Y-123825000D01*
X215519000Y-123845000D01*
X215265000Y-123845000D01*
X215265000Y-123825000D01*
X214153750Y-123825000D01*
X214122000Y-123856750D01*
X214090250Y-123825000D01*
X212979000Y-123825000D01*
X212979000Y-123845000D01*
X212725000Y-123845000D01*
X212725000Y-123825000D01*
X211613750Y-123825000D01*
X211582000Y-123856750D01*
X211550250Y-123825000D01*
X210439000Y-123825000D01*
X210439000Y-123845000D01*
X210185000Y-123845000D01*
X210185000Y-123825000D01*
X209073750Y-123825000D01*
X208915000Y-123983750D01*
X208915000Y-124586310D01*
X209011673Y-124819699D01*
X209190302Y-124998327D01*
X209423691Y-125095000D01*
X209483887Y-125095000D01*
X209314683Y-125126838D01*
X209098559Y-125265910D01*
X209042626Y-125347770D01*
X208998090Y-125278559D01*
X208785890Y-125133569D01*
X208534000Y-125082560D01*
X207010000Y-125082560D01*
X206774683Y-125126838D01*
X206558559Y-125265910D01*
X206413569Y-125478110D01*
X206362560Y-125730000D01*
X206362560Y-127254000D01*
X206406838Y-127489317D01*
X206545910Y-127705441D01*
X206758110Y-127850431D01*
X206883000Y-127875722D01*
X206883000Y-127940816D01*
X206784172Y-128006851D01*
X206502000Y-128429150D01*
X206219828Y-128006851D01*
X205766609Y-127704019D01*
X205232000Y-127597679D01*
X205084295Y-127627059D01*
X198748618Y-121291382D01*
X198622409Y-121207052D01*
X198460206Y-121098671D01*
X198140109Y-121035000D01*
X203244769Y-121035000D01*
X203257694Y-121040367D01*
X203309062Y-121074690D01*
X203369124Y-121086637D01*
X203521244Y-121149803D01*
X203687415Y-121149948D01*
X203748000Y-121161999D01*
X203808056Y-121150053D01*
X203972775Y-121150197D01*
X204126347Y-121086742D01*
X204186938Y-121074690D01*
X204237857Y-121040667D01*
X204390086Y-120977767D01*
X204507686Y-120860372D01*
X204559051Y-120826051D01*
X204593073Y-120775134D01*
X204709645Y-120658765D01*
X204773367Y-120505305D01*
X204807690Y-120453938D01*
X204819637Y-120393876D01*
X204882803Y-120241756D01*
X204882948Y-120075585D01*
X204894999Y-120015000D01*
X204883053Y-119954944D01*
X204883197Y-119790225D01*
X204819742Y-119636653D01*
X204807690Y-119576062D01*
X204773667Y-119525143D01*
X204762392Y-119497856D01*
X205371764Y-119497856D01*
X208422526Y-122548618D01*
X208710938Y-122741329D01*
X208925627Y-122784033D01*
X208915000Y-122809690D01*
X208915000Y-123412250D01*
X209073750Y-123571000D01*
X210185000Y-123571000D01*
X210185000Y-123551000D01*
X210439000Y-123551000D01*
X210439000Y-123571000D01*
X211550250Y-123571000D01*
X211582000Y-123539250D01*
X211613750Y-123571000D01*
X212725000Y-123571000D01*
X212725000Y-123551000D01*
X212979000Y-123551000D01*
X212979000Y-123571000D01*
X214090250Y-123571000D01*
X214122000Y-123539250D01*
X214153750Y-123571000D01*
X215265000Y-123571000D01*
X215265000Y-123551000D01*
X215519000Y-123551000D01*
X215519000Y-123571000D01*
X216630250Y-123571000D01*
X216789000Y-123412250D01*
X216789000Y-122809690D01*
X216788714Y-122809000D01*
X216845515Y-122809000D01*
X217139630Y-123103629D01*
X217331727Y-123183395D01*
X217200857Y-123237603D01*
X217131392Y-123479787D01*
X217932000Y-124280395D01*
X218732608Y-123479787D01*
X218663143Y-123237603D01*
X218522682Y-123187491D01*
X218722303Y-123105010D01*
X219115629Y-122712370D01*
X219201949Y-122504488D01*
X219286990Y-122710303D01*
X219679630Y-123103629D01*
X219871727Y-123183395D01*
X219740857Y-123237603D01*
X219671392Y-123479787D01*
X220472000Y-124280395D01*
X221272608Y-123479787D01*
X221203143Y-123237603D01*
X221062682Y-123187491D01*
X221262303Y-123105010D01*
X221655629Y-122712370D01*
X221868757Y-122199100D01*
X221869242Y-121643339D01*
X221657010Y-121129697D01*
X221264370Y-120736371D01*
X221056488Y-120650051D01*
X221262303Y-120565010D01*
X221655629Y-120172370D01*
X221868757Y-119659100D01*
X221869242Y-119103339D01*
X221657010Y-118589697D01*
X221264370Y-118196371D01*
X221056488Y-118110051D01*
X221262303Y-118025010D01*
X221655629Y-117632370D01*
X221868757Y-117119100D01*
X221869242Y-116563339D01*
X221657010Y-116049697D01*
X221264370Y-115656371D01*
X221056488Y-115570051D01*
X221262303Y-115485010D01*
X221655629Y-115092370D01*
X221868757Y-114579100D01*
X221869242Y-114023339D01*
X221657010Y-113509697D01*
X221264370Y-113116371D01*
X221056488Y-113030051D01*
X221262303Y-112945010D01*
X221655629Y-112552370D01*
X221868757Y-112039100D01*
X221869242Y-111483339D01*
X221657010Y-110969697D01*
X221264370Y-110576371D01*
X221056488Y-110490051D01*
X221262303Y-110405010D01*
X221655629Y-110012370D01*
X221868757Y-109499100D01*
X221869242Y-108943339D01*
X221657010Y-108429697D01*
X221264370Y-108036371D01*
X221056488Y-107950051D01*
X221262303Y-107865010D01*
X221655629Y-107472370D01*
X221868757Y-106959100D01*
X221869242Y-106403339D01*
X221657010Y-105889697D01*
X221264370Y-105496371D01*
X221056488Y-105410051D01*
X221262303Y-105325010D01*
X221655629Y-104932370D01*
X221868757Y-104419100D01*
X221869242Y-103863339D01*
X221657010Y-103349697D01*
X221264370Y-102956371D01*
X221056488Y-102870051D01*
X221262303Y-102785010D01*
X221655629Y-102392370D01*
X221868757Y-101879100D01*
X221869242Y-101323339D01*
X221657010Y-100809697D01*
X221264370Y-100416371D01*
X221056488Y-100330051D01*
X221262303Y-100245010D01*
X221655629Y-99852370D01*
X221868757Y-99339100D01*
X221869242Y-98783339D01*
X221657010Y-98269697D01*
X221264370Y-97876371D01*
X221056488Y-97790051D01*
X221262303Y-97705010D01*
X221655629Y-97312370D01*
X221868757Y-96799100D01*
X221869242Y-96243339D01*
X221657010Y-95729697D01*
X221264370Y-95336371D01*
X221056488Y-95250051D01*
X221262303Y-95165010D01*
X221655629Y-94772370D01*
X221868757Y-94259100D01*
X221869242Y-93703339D01*
X221657010Y-93189697D01*
X221264370Y-92796371D01*
X221056488Y-92710051D01*
X221262303Y-92625010D01*
X221655629Y-92232370D01*
X221868757Y-91719100D01*
X221869242Y-91163339D01*
X221657010Y-90649697D01*
X221264370Y-90256371D01*
X221056488Y-90170051D01*
X221262303Y-90085010D01*
X221655629Y-89692370D01*
X221868757Y-89179100D01*
X221869242Y-88623339D01*
X221657010Y-88109697D01*
X221264370Y-87716371D01*
X221056488Y-87630051D01*
X221262303Y-87545010D01*
X221655629Y-87152370D01*
X221868757Y-86639100D01*
X221869242Y-86083339D01*
X221657010Y-85569697D01*
X221264370Y-85176371D01*
X221056488Y-85090051D01*
X221262303Y-85005010D01*
X221655629Y-84612370D01*
X221868757Y-84099100D01*
X221869242Y-83543339D01*
X221657010Y-83029697D01*
X221264370Y-82636371D01*
X221056488Y-82550051D01*
X221262303Y-82465010D01*
X221655629Y-82072370D01*
X221868757Y-81559100D01*
X221869242Y-81003339D01*
X221657010Y-80489697D01*
X221264370Y-80096371D01*
X220751100Y-79883243D01*
X220195339Y-79882758D01*
X219681697Y-80094990D01*
X219643621Y-80133000D01*
X218760935Y-80133000D01*
X218724370Y-80096371D01*
X218211100Y-79883243D01*
X217655339Y-79882758D01*
X217141697Y-80094990D01*
X216748371Y-80487630D01*
X216682359Y-80646605D01*
X216341730Y-79824252D01*
X215974284Y-79607324D01*
X216087064Y-79494544D01*
X216067520Y-79475000D01*
X221437554Y-79475000D01*
X222277000Y-80314447D01*
G36*
X137226936Y-79494544D02*
X137339716Y-79607324D01*
X136972270Y-79824252D01*
X136584147Y-80784518D01*
X136593045Y-81820216D01*
X136972270Y-82735748D01*
X137339718Y-82952677D01*
X139012395Y-81280000D01*
X138998253Y-81265858D01*
X139177858Y-81086253D01*
X139192000Y-81100395D01*
X139206143Y-81086253D01*
X139385748Y-81265858D01*
X139371605Y-81280000D01*
X141044282Y-82952677D01*
X141411730Y-82735748D01*
X141523568Y-82459047D01*
X141760172Y-82813149D01*
X141859000Y-82879184D01*
X141859000Y-94391327D01*
X141926671Y-94731533D01*
X142094828Y-94983197D01*
X142119382Y-95019945D01*
X146744445Y-99645008D01*
X143882934Y-99645008D01*
X143882948Y-99628585D01*
X143894999Y-99568000D01*
X143883053Y-99507944D01*
X143883197Y-99343225D01*
X143819742Y-99189653D01*
X143807690Y-99129062D01*
X143773667Y-99078143D01*
X143710767Y-98925914D01*
X143593374Y-98808316D01*
X143559051Y-98756948D01*
X141019051Y-96216949D01*
X140968134Y-96182927D01*
X140851765Y-96066355D01*
X140698305Y-96002633D01*
X140646938Y-95968310D01*
X140586876Y-95956363D01*
X140434756Y-95893197D01*
X140268585Y-95893052D01*
X140208000Y-95881001D01*
X140147944Y-95892947D01*
X139983225Y-95892803D01*
X139829653Y-95956258D01*
X139769062Y-95968310D01*
X139718143Y-96002333D01*
X139565914Y-96065233D01*
X139448314Y-96182628D01*
X139396949Y-96216949D01*
X139362927Y-96267866D01*
X139246355Y-96384235D01*
X139182633Y-96537695D01*
X139148310Y-96589062D01*
X139136363Y-96649124D01*
X139073197Y-96801244D01*
X139073052Y-96967415D01*
X139061001Y-97028000D01*
X139072947Y-97088056D01*
X139072803Y-97252775D01*
X139136258Y-97406347D01*
X139148310Y-97466938D01*
X139182333Y-97517857D01*
X139245233Y-97670086D01*
X139362628Y-97787686D01*
X139396949Y-97839051D01*
X141202905Y-99645008D01*
X138353271Y-99645008D01*
X138351690Y-99637062D01*
X138317667Y-99586143D01*
X138254767Y-99433914D01*
X138137372Y-99316314D01*
X138103051Y-99264949D01*
X138052134Y-99230927D01*
X137935765Y-99114355D01*
X137782305Y-99050633D01*
X137730938Y-99016310D01*
X137670876Y-99004363D01*
X137518756Y-98941197D01*
X137352590Y-98941052D01*
X137292000Y-98929000D01*
X137231940Y-98940947D01*
X137067225Y-98940803D01*
X136913654Y-99004258D01*
X136853062Y-99016310D01*
X136802143Y-99050333D01*
X136649914Y-99113233D01*
X136532314Y-99230628D01*
X136480949Y-99264949D01*
X136446927Y-99315866D01*
X136330355Y-99432235D01*
X136266633Y-99585695D01*
X136232310Y-99637062D01*
X136220363Y-99697124D01*
X136157197Y-99849244D01*
X136157052Y-100015410D01*
X136145000Y-100076000D01*
X136145000Y-100208000D01*
X136156832Y-100267484D01*
X136156803Y-100300775D01*
X136169628Y-100331814D01*
X136224399Y-100607167D01*
X136232310Y-100646938D01*
X136480949Y-101019051D01*
X137064956Y-101603059D01*
X137351723Y-101794671D01*
X137437070Y-101851698D01*
X137876008Y-101939008D01*
X146814668Y-101939008D01*
X147491660Y-102616000D01*
X142996283Y-102616000D01*
X142923765Y-102543355D01*
X142506756Y-102370197D01*
X142055225Y-102369803D01*
X141637914Y-102542233D01*
X141318355Y-102861235D01*
X141145197Y-103278244D01*
X141144803Y-103729775D01*
X141317233Y-104147086D01*
X141636235Y-104466645D01*
X142053244Y-104639803D01*
X142504775Y-104640197D01*
X142922086Y-104467767D01*
X142995982Y-104394000D01*
X147840764Y-104394000D01*
X148216893Y-104770129D01*
X148216803Y-104872775D01*
X148333830Y-105156000D01*
X142996283Y-105156000D01*
X142923765Y-105083355D01*
X142506756Y-104910197D01*
X142055225Y-104909803D01*
X141637914Y-105082233D01*
X141318355Y-105401235D01*
X141145197Y-105818244D01*
X141144803Y-106269775D01*
X141317233Y-106687086D01*
X141636235Y-107006645D01*
X142053244Y-107179803D01*
X142504775Y-107180197D01*
X142922086Y-107007767D01*
X142995982Y-106934000D01*
X148508938Y-106934000D01*
X148708235Y-107133645D01*
X149125244Y-107306803D01*
X149576775Y-107307197D01*
X149994086Y-107134767D01*
X150237000Y-106892276D01*
X150237000Y-107188000D01*
X150248947Y-107248060D01*
X150248888Y-107315000D01*
X142621000Y-107315000D01*
X142280794Y-107382671D01*
X142180109Y-107449947D01*
X142015225Y-107449803D01*
X141597914Y-107622233D01*
X141524018Y-107696000D01*
X139231236Y-107696000D01*
X131816758Y-100281522D01*
X131817265Y-99700009D01*
X131584068Y-99135629D01*
X131152643Y-98703449D01*
X130588670Y-98469267D01*
X129978009Y-98468735D01*
X129413629Y-98701932D01*
X128981449Y-99133357D01*
X128747267Y-99697330D01*
X128747146Y-99835801D01*
X128737722Y-99826360D01*
X128118638Y-99569293D01*
X127448303Y-99568708D01*
X126828771Y-99824694D01*
X126354360Y-100298278D01*
X126097293Y-100917362D01*
X126096708Y-101587697D01*
X126352694Y-102207229D01*
X126826278Y-102681640D01*
X127445362Y-102938707D01*
X128115697Y-102939292D01*
X128735229Y-102683306D01*
X129209640Y-102209722D01*
X129466707Y-101590638D01*
X129466937Y-101327630D01*
X129975330Y-101538733D01*
X130560006Y-101539242D01*
X137859764Y-108839000D01*
X137668000Y-108839000D01*
X137327794Y-108906671D01*
X137039382Y-109099382D01*
X133483382Y-112655382D01*
X133290671Y-112943794D01*
X133223000Y-113284000D01*
X133223000Y-116332000D01*
X133290671Y-116672206D01*
X133430176Y-116880990D01*
X133483382Y-116960618D01*
X134626382Y-118103618D01*
X134914794Y-118296329D01*
X135255000Y-118364000D01*
X136523717Y-118364000D01*
X136596235Y-118436645D01*
X137013244Y-118609803D01*
X137464775Y-118610197D01*
X137882086Y-118437767D01*
X138201645Y-118118765D01*
X138374803Y-117701756D01*
X138375197Y-117250225D01*
X138202767Y-116832914D01*
X137883765Y-116513355D01*
X137466756Y-116340197D01*
X137015225Y-116339803D01*
X136597914Y-116512233D01*
X136524018Y-116586000D01*
X135623236Y-116586000D01*
X135001000Y-115963764D01*
X135001000Y-113652236D01*
X138036236Y-110617000D01*
X140303933Y-110617000D01*
X140294382Y-110623382D01*
X137117871Y-113799893D01*
X137015225Y-113799803D01*
X136597914Y-113972233D01*
X136278355Y-114291235D01*
X136105197Y-114708244D01*
X136104803Y-115159775D01*
X136277233Y-115577086D01*
X136596235Y-115896645D01*
X137013244Y-116069803D01*
X137464775Y-116070197D01*
X137882086Y-115897767D01*
X138201645Y-115578765D01*
X138374803Y-115161756D01*
X138374894Y-115057342D01*
X141291236Y-112141000D01*
X154460897Y-112141000D01*
X153620949Y-112980949D01*
X153372310Y-113353062D01*
X153285000Y-113792000D01*
X153285000Y-128245068D01*
X153162000Y-128429150D01*
X152879828Y-128006851D01*
X152426609Y-127704019D01*
X151892000Y-127597679D01*
X151357391Y-127704019D01*
X150904172Y-128006851D01*
X150601340Y-128460070D01*
X150495000Y-128994679D01*
X150495000Y-130085321D01*
X150601340Y-130619930D01*
X150904172Y-131073149D01*
X151311025Y-131345000D01*
X139867520Y-131345000D01*
X139887064Y-131325456D01*
X139774284Y-131212676D01*
X140141730Y-130995748D01*
X140529853Y-130035482D01*
X140520955Y-128999784D01*
X140141730Y-128084252D01*
X139774282Y-127867323D01*
X138101605Y-129540000D01*
X138115748Y-129554143D01*
X137936143Y-129733748D01*
X137922000Y-129719605D01*
X137907858Y-129733748D01*
X137728253Y-129554143D01*
X137742395Y-129540000D01*
X136069718Y-127867323D01*
X135702270Y-128084252D01*
X135314147Y-129044518D01*
X135323045Y-130080216D01*
X135702270Y-130995748D01*
X136069716Y-131212676D01*
X135956936Y-131325456D01*
X135976480Y-131345000D01*
X125703000Y-131345000D01*
X125703000Y-127687718D01*
X136249323Y-127687718D01*
X137922000Y-129360395D01*
X139594677Y-127687718D01*
X139377748Y-127320270D01*
X138417482Y-126932147D01*
X137381784Y-126941045D01*
X136466252Y-127320270D01*
X136249323Y-127687718D01*
X125703000Y-127687718D01*
X125703000Y-123160775D01*
X142628803Y-123160775D01*
X142801233Y-123578086D01*
X142875000Y-123651982D01*
X142875000Y-127000000D01*
X142942671Y-127340206D01*
X143042304Y-127489317D01*
X143135382Y-127628618D01*
X143644893Y-128138129D01*
X143644803Y-128240775D01*
X143817233Y-128658086D01*
X144136235Y-128977645D01*
X144553244Y-129150803D01*
X145004775Y-129151197D01*
X145422086Y-128978767D01*
X145741645Y-128659765D01*
X145914803Y-128242756D01*
X145915197Y-127791225D01*
X145742767Y-127373914D01*
X145423765Y-127054355D01*
X145006756Y-126881197D01*
X144902342Y-126881106D01*
X144653000Y-126631764D01*
X144653000Y-123652283D01*
X144725645Y-123579765D01*
X144898803Y-123162756D01*
X144899197Y-122711225D01*
X144726767Y-122293914D01*
X144407765Y-121974355D01*
X143990756Y-121801197D01*
X143539225Y-121800803D01*
X143121914Y-121973233D01*
X142802355Y-122292235D01*
X142629197Y-122709244D01*
X142628803Y-123160775D01*
X125703000Y-123160775D01*
X125703000Y-96584159D01*
X129381446Y-96584159D01*
X129467852Y-96840643D01*
X130041336Y-97050458D01*
X130651460Y-97024839D01*
X131096148Y-96840643D01*
X131182554Y-96584159D01*
X130282000Y-95683605D01*
X129381446Y-96584159D01*
X125703000Y-96584159D01*
X125703000Y-94587697D01*
X126096708Y-94587697D01*
X126352694Y-95207229D01*
X126826278Y-95681640D01*
X127445362Y-95938707D01*
X128115697Y-95939292D01*
X128735229Y-95683306D01*
X128752454Y-95666111D01*
X128761161Y-95873460D01*
X128945357Y-96318148D01*
X129201841Y-96404554D01*
X130102395Y-95504000D01*
X130461605Y-95504000D01*
X131362159Y-96404554D01*
X131618643Y-96318148D01*
X131828458Y-95744664D01*
X131802839Y-95134540D01*
X131618643Y-94689852D01*
X131362159Y-94603446D01*
X130461605Y-95504000D01*
X130102395Y-95504000D01*
X130088253Y-95489858D01*
X130267858Y-95310253D01*
X130282000Y-95324395D01*
X131182554Y-94423841D01*
X131096148Y-94167357D01*
X130522664Y-93957542D01*
X129912540Y-93983161D01*
X129467852Y-94167357D01*
X129467074Y-94169665D01*
X129467292Y-93920303D01*
X129211306Y-93300771D01*
X128737722Y-92826360D01*
X128118638Y-92569293D01*
X127448303Y-92568708D01*
X126828771Y-92824694D01*
X126354360Y-93298278D01*
X126097293Y-93917362D01*
X126096708Y-94587697D01*
X125703000Y-94587697D01*
X125703000Y-90827860D01*
X134997000Y-90827860D01*
X134997000Y-94996000D01*
X135008947Y-95056060D01*
X135008803Y-95220775D01*
X135072258Y-95374346D01*
X135084310Y-95434938D01*
X135118333Y-95485857D01*
X135181233Y-95638086D01*
X135298628Y-95755686D01*
X135332949Y-95807051D01*
X135383866Y-95841073D01*
X135500235Y-95957645D01*
X135653695Y-96021367D01*
X135705062Y-96055690D01*
X135765124Y-96067637D01*
X135917244Y-96130803D01*
X136083410Y-96130948D01*
X136144000Y-96143000D01*
X136204060Y-96131053D01*
X136368775Y-96131197D01*
X136522346Y-96067742D01*
X136582938Y-96055690D01*
X136633857Y-96021667D01*
X136786086Y-95958767D01*
X136903686Y-95841372D01*
X136955051Y-95807051D01*
X136989073Y-95756134D01*
X137105645Y-95639765D01*
X137169367Y-95486305D01*
X137203690Y-95434938D01*
X137215637Y-95374876D01*
X137278803Y-95222756D01*
X137278948Y-95056590D01*
X137291000Y-94996000D01*
X137291000Y-94920416D01*
X137441244Y-94982803D01*
X137607410Y-94982948D01*
X137668000Y-94995000D01*
X137728060Y-94983053D01*
X137892775Y-94983197D01*
X138046346Y-94919742D01*
X138106938Y-94907690D01*
X138157857Y-94873667D01*
X138310086Y-94810767D01*
X138427686Y-94693372D01*
X138479051Y-94659051D01*
X138513073Y-94608134D01*
X138629645Y-94491765D01*
X138693367Y-94338305D01*
X138727690Y-94286938D01*
X138739637Y-94226876D01*
X138802803Y-94074756D01*
X138802948Y-93908590D01*
X138815000Y-93848000D01*
X138815000Y-92931102D01*
X140511052Y-91235051D01*
X140545075Y-91184131D01*
X140661645Y-91067765D01*
X140725367Y-90914306D01*
X140759690Y-90862938D01*
X140771637Y-90802876D01*
X140834803Y-90650756D01*
X140834948Y-90484585D01*
X140846999Y-90424000D01*
X140835053Y-90363944D01*
X140835197Y-90199225D01*
X140771742Y-90045653D01*
X140759690Y-89985062D01*
X140725667Y-89934142D01*
X140662767Y-89781914D01*
X140545377Y-89664319D01*
X140511052Y-89612948D01*
X140460130Y-89578923D01*
X140343765Y-89462355D01*
X140190306Y-89398633D01*
X140138938Y-89364310D01*
X140078876Y-89352363D01*
X139926756Y-89289197D01*
X139760585Y-89289052D01*
X139700000Y-89277001D01*
X139639944Y-89288947D01*
X139475225Y-89288803D01*
X139321653Y-89352258D01*
X139261062Y-89364310D01*
X139210143Y-89398333D01*
X139185410Y-89408552D01*
X140003052Y-88590911D01*
X140037075Y-88539991D01*
X140153645Y-88423625D01*
X140217367Y-88270166D01*
X140251690Y-88218798D01*
X140263637Y-88158736D01*
X140326803Y-88006616D01*
X140326948Y-87840445D01*
X140338999Y-87779860D01*
X140327053Y-87719804D01*
X140327197Y-87555085D01*
X140263742Y-87401513D01*
X140251690Y-87340922D01*
X140217667Y-87290002D01*
X140154767Y-87137774D01*
X140037377Y-87020179D01*
X140003052Y-86968808D01*
X139952130Y-86934783D01*
X139835765Y-86818215D01*
X139682306Y-86754493D01*
X139630938Y-86720170D01*
X139570876Y-86708223D01*
X139418756Y-86645057D01*
X139252585Y-86644912D01*
X139192000Y-86632861D01*
X139131944Y-86644807D01*
X138967225Y-86644663D01*
X138813653Y-86708118D01*
X138753062Y-86720170D01*
X138702143Y-86754193D01*
X138549914Y-86817093D01*
X138432317Y-86934485D01*
X138380949Y-86968808D01*
X135332949Y-90016809D01*
X135084310Y-90388922D01*
X134997000Y-90827860D01*
X125703000Y-90827860D01*
X125703000Y-85471000D01*
X126479560Y-85471000D01*
X126479560Y-87249000D01*
X126523838Y-87484317D01*
X126662910Y-87700441D01*
X126875110Y-87845431D01*
X127127000Y-87896440D01*
X128905000Y-87896440D01*
X129140317Y-87852162D01*
X129356441Y-87713090D01*
X129501431Y-87500890D01*
X129552440Y-87249000D01*
X129552440Y-86661812D01*
X131571736Y-86661812D01*
X131803262Y-87222149D01*
X132231596Y-87651231D01*
X132791528Y-87883735D01*
X133397812Y-87884264D01*
X133958149Y-87652738D01*
X134387231Y-87224404D01*
X134619735Y-86664472D01*
X134620264Y-86058188D01*
X134388738Y-85497851D01*
X133960404Y-85068769D01*
X133400472Y-84836265D01*
X132794188Y-84835736D01*
X132233851Y-85067262D01*
X131804769Y-85495596D01*
X131572265Y-86055528D01*
X131571736Y-86661812D01*
X129552440Y-86661812D01*
X129552440Y-85471000D01*
X129508162Y-85235683D01*
X129369090Y-85019559D01*
X129156890Y-84874569D01*
X128905000Y-84823560D01*
X127127000Y-84823560D01*
X126891683Y-84867838D01*
X126675559Y-85006910D01*
X126530569Y-85219110D01*
X126479560Y-85471000D01*
X125703000Y-85471000D01*
X125703000Y-83132282D01*
X137519323Y-83132282D01*
X137736252Y-83499730D01*
X138696518Y-83887853D01*
X139732216Y-83878955D01*
X140647748Y-83499730D01*
X140864677Y-83132282D01*
X139192000Y-81459605D01*
X137519323Y-83132282D01*
X125703000Y-83132282D01*
X125703000Y-79475000D01*
X137246480Y-79475000D01*
X137226936Y-79494544D01*
X137226936Y-79494544D01*
G37*
X137226936Y-79494544D02*
X137339716Y-79607324D01*
X136972270Y-79824252D01*
X136584147Y-80784518D01*
X136593045Y-81820216D01*
X136972270Y-82735748D01*
X137339718Y-82952677D01*
X139012395Y-81280000D01*
X138998253Y-81265858D01*
X139177858Y-81086253D01*
X139192000Y-81100395D01*
X139206143Y-81086253D01*
X139385748Y-81265858D01*
X139371605Y-81280000D01*
X141044282Y-82952677D01*
X141411730Y-82735748D01*
X141523568Y-82459047D01*
X141760172Y-82813149D01*
X141859000Y-82879184D01*
X141859000Y-94391327D01*
X141926671Y-94731533D01*
X142094828Y-94983197D01*
X142119382Y-95019945D01*
X146744445Y-99645008D01*
X143882934Y-99645008D01*
X143882948Y-99628585D01*
X143894999Y-99568000D01*
X143883053Y-99507944D01*
X143883197Y-99343225D01*
X143819742Y-99189653D01*
X143807690Y-99129062D01*
X143773667Y-99078143D01*
X143710767Y-98925914D01*
X143593374Y-98808316D01*
X143559051Y-98756948D01*
X141019051Y-96216949D01*
X140968134Y-96182927D01*
X140851765Y-96066355D01*
X140698305Y-96002633D01*
X140646938Y-95968310D01*
X140586876Y-95956363D01*
X140434756Y-95893197D01*
X140268585Y-95893052D01*
X140208000Y-95881001D01*
X140147944Y-95892947D01*
X139983225Y-95892803D01*
X139829653Y-95956258D01*
X139769062Y-95968310D01*
X139718143Y-96002333D01*
X139565914Y-96065233D01*
X139448314Y-96182628D01*
X139396949Y-96216949D01*
X139362927Y-96267866D01*
X139246355Y-96384235D01*
X139182633Y-96537695D01*
X139148310Y-96589062D01*
X139136363Y-96649124D01*
X139073197Y-96801244D01*
X139073052Y-96967415D01*
X139061001Y-97028000D01*
X139072947Y-97088056D01*
X139072803Y-97252775D01*
X139136258Y-97406347D01*
X139148310Y-97466938D01*
X139182333Y-97517857D01*
X139245233Y-97670086D01*
X139362628Y-97787686D01*
X139396949Y-97839051D01*
X141202905Y-99645008D01*
X138353271Y-99645008D01*
X138351690Y-99637062D01*
X138317667Y-99586143D01*
X138254767Y-99433914D01*
X138137372Y-99316314D01*
X138103051Y-99264949D01*
X138052134Y-99230927D01*
X137935765Y-99114355D01*
X137782305Y-99050633D01*
X137730938Y-99016310D01*
X137670876Y-99004363D01*
X137518756Y-98941197D01*
X137352590Y-98941052D01*
X137292000Y-98929000D01*
X137231940Y-98940947D01*
X137067225Y-98940803D01*
X136913654Y-99004258D01*
X136853062Y-99016310D01*
X136802143Y-99050333D01*
X136649914Y-99113233D01*
X136532314Y-99230628D01*
X136480949Y-99264949D01*
X136446927Y-99315866D01*
X136330355Y-99432235D01*
X136266633Y-99585695D01*
X136232310Y-99637062D01*
X136220363Y-99697124D01*
X136157197Y-99849244D01*
X136157052Y-100015410D01*
X136145000Y-100076000D01*
X136145000Y-100208000D01*
X136156832Y-100267484D01*
X136156803Y-100300775D01*
X136169628Y-100331814D01*
X136224399Y-100607167D01*
X136232310Y-100646938D01*
X136480949Y-101019051D01*
X137064956Y-101603059D01*
X137351723Y-101794671D01*
X137437070Y-101851698D01*
X137876008Y-101939008D01*
X146814668Y-101939008D01*
X147491660Y-102616000D01*
X142996283Y-102616000D01*
X142923765Y-102543355D01*
X142506756Y-102370197D01*
X142055225Y-102369803D01*
X141637914Y-102542233D01*
X141318355Y-102861235D01*
X141145197Y-103278244D01*
X141144803Y-103729775D01*
X141317233Y-104147086D01*
X141636235Y-104466645D01*
X142053244Y-104639803D01*
X142504775Y-104640197D01*
X142922086Y-104467767D01*
X142995982Y-104394000D01*
X147840764Y-104394000D01*
X148216893Y-104770129D01*
X148216803Y-104872775D01*
X148333830Y-105156000D01*
X142996283Y-105156000D01*
X142923765Y-105083355D01*
X142506756Y-104910197D01*
X142055225Y-104909803D01*
X141637914Y-105082233D01*
X141318355Y-105401235D01*
X141145197Y-105818244D01*
X141144803Y-106269775D01*
X141317233Y-106687086D01*
X141636235Y-107006645D01*
X142053244Y-107179803D01*
X142504775Y-107180197D01*
X142922086Y-107007767D01*
X142995982Y-106934000D01*
X148508938Y-106934000D01*
X148708235Y-107133645D01*
X149125244Y-107306803D01*
X149576775Y-107307197D01*
X149994086Y-107134767D01*
X150237000Y-106892276D01*
X150237000Y-107188000D01*
X150248947Y-107248060D01*
X150248888Y-107315000D01*
X142621000Y-107315000D01*
X142280794Y-107382671D01*
X142180109Y-107449947D01*
X142015225Y-107449803D01*
X141597914Y-107622233D01*
X141524018Y-107696000D01*
X139231236Y-107696000D01*
X131816758Y-100281522D01*
X131817265Y-99700009D01*
X131584068Y-99135629D01*
X131152643Y-98703449D01*
X130588670Y-98469267D01*
X129978009Y-98468735D01*
X129413629Y-98701932D01*
X128981449Y-99133357D01*
X128747267Y-99697330D01*
X128747146Y-99835801D01*
X128737722Y-99826360D01*
X128118638Y-99569293D01*
X127448303Y-99568708D01*
X126828771Y-99824694D01*
X126354360Y-100298278D01*
X126097293Y-100917362D01*
X126096708Y-101587697D01*
X126352694Y-102207229D01*
X126826278Y-102681640D01*
X127445362Y-102938707D01*
X128115697Y-102939292D01*
X128735229Y-102683306D01*
X129209640Y-102209722D01*
X129466707Y-101590638D01*
X129466937Y-101327630D01*
X129975330Y-101538733D01*
X130560006Y-101539242D01*
X137859764Y-108839000D01*
X137668000Y-108839000D01*
X137327794Y-108906671D01*
X137039382Y-109099382D01*
X133483382Y-112655382D01*
X133290671Y-112943794D01*
X133223000Y-113284000D01*
X133223000Y-116332000D01*
X133290671Y-116672206D01*
X133430176Y-116880990D01*
X133483382Y-116960618D01*
X134626382Y-118103618D01*
X134914794Y-118296329D01*
X135255000Y-118364000D01*
X136523717Y-118364000D01*
X136596235Y-118436645D01*
X137013244Y-118609803D01*
X137464775Y-118610197D01*
X137882086Y-118437767D01*
X138201645Y-118118765D01*
X138374803Y-117701756D01*
X138375197Y-117250225D01*
X138202767Y-116832914D01*
X137883765Y-116513355D01*
X137466756Y-116340197D01*
X137015225Y-116339803D01*
X136597914Y-116512233D01*
X136524018Y-116586000D01*
X135623236Y-116586000D01*
X135001000Y-115963764D01*
X135001000Y-113652236D01*
X138036236Y-110617000D01*
X140303933Y-110617000D01*
X140294382Y-110623382D01*
X137117871Y-113799893D01*
X137015225Y-113799803D01*
X136597914Y-113972233D01*
X136278355Y-114291235D01*
X136105197Y-114708244D01*
X136104803Y-115159775D01*
X136277233Y-115577086D01*
X136596235Y-115896645D01*
X137013244Y-116069803D01*
X137464775Y-116070197D01*
X137882086Y-115897767D01*
X138201645Y-115578765D01*
X138374803Y-115161756D01*
X138374894Y-115057342D01*
X141291236Y-112141000D01*
X154460897Y-112141000D01*
X153620949Y-112980949D01*
X153372310Y-113353062D01*
X153285000Y-113792000D01*
X153285000Y-128245068D01*
X153162000Y-128429150D01*
X152879828Y-128006851D01*
X152426609Y-127704019D01*
X151892000Y-127597679D01*
X151357391Y-127704019D01*
X150904172Y-128006851D01*
X150601340Y-128460070D01*
X150495000Y-128994679D01*
X150495000Y-130085321D01*
X150601340Y-130619930D01*
X150904172Y-131073149D01*
X151311025Y-131345000D01*
X139867520Y-131345000D01*
X139887064Y-131325456D01*
X139774284Y-131212676D01*
X140141730Y-130995748D01*
X140529853Y-130035482D01*
X140520955Y-128999784D01*
X140141730Y-128084252D01*
X139774282Y-127867323D01*
X138101605Y-129540000D01*
X138115748Y-129554143D01*
X137936143Y-129733748D01*
X137922000Y-129719605D01*
X137907858Y-129733748D01*
X137728253Y-129554143D01*
X137742395Y-129540000D01*
X136069718Y-127867323D01*
X135702270Y-128084252D01*
X135314147Y-129044518D01*
X135323045Y-130080216D01*
X135702270Y-130995748D01*
X136069716Y-131212676D01*
X135956936Y-131325456D01*
X135976480Y-131345000D01*
X125703000Y-131345000D01*
X125703000Y-127687718D01*
X136249323Y-127687718D01*
X137922000Y-129360395D01*
X139594677Y-127687718D01*
X139377748Y-127320270D01*
X138417482Y-126932147D01*
X137381784Y-126941045D01*
X136466252Y-127320270D01*
X136249323Y-127687718D01*
X125703000Y-127687718D01*
X125703000Y-123160775D01*
X142628803Y-123160775D01*
X142801233Y-123578086D01*
X142875000Y-123651982D01*
X142875000Y-127000000D01*
X142942671Y-127340206D01*
X143042304Y-127489317D01*
X143135382Y-127628618D01*
X143644893Y-128138129D01*
X143644803Y-128240775D01*
X143817233Y-128658086D01*
X144136235Y-128977645D01*
X144553244Y-129150803D01*
X145004775Y-129151197D01*
X145422086Y-128978767D01*
X145741645Y-128659765D01*
X145914803Y-128242756D01*
X145915197Y-127791225D01*
X145742767Y-127373914D01*
X145423765Y-127054355D01*
X145006756Y-126881197D01*
X144902342Y-126881106D01*
X144653000Y-126631764D01*
X144653000Y-123652283D01*
X144725645Y-123579765D01*
X144898803Y-123162756D01*
X144899197Y-122711225D01*
X144726767Y-122293914D01*
X144407765Y-121974355D01*
X143990756Y-121801197D01*
X143539225Y-121800803D01*
X143121914Y-121973233D01*
X142802355Y-122292235D01*
X142629197Y-122709244D01*
X142628803Y-123160775D01*
X125703000Y-123160775D01*
X125703000Y-96584159D01*
X129381446Y-96584159D01*
X129467852Y-96840643D01*
X130041336Y-97050458D01*
X130651460Y-97024839D01*
X131096148Y-96840643D01*
X131182554Y-96584159D01*
X130282000Y-95683605D01*
X129381446Y-96584159D01*
X125703000Y-96584159D01*
X125703000Y-94587697D01*
X126096708Y-94587697D01*
X126352694Y-95207229D01*
X126826278Y-95681640D01*
X127445362Y-95938707D01*
X128115697Y-95939292D01*
X128735229Y-95683306D01*
X128752454Y-95666111D01*
X128761161Y-95873460D01*
X128945357Y-96318148D01*
X129201841Y-96404554D01*
X130102395Y-95504000D01*
X130461605Y-95504000D01*
X131362159Y-96404554D01*
X131618643Y-96318148D01*
X131828458Y-95744664D01*
X131802839Y-95134540D01*
X131618643Y-94689852D01*
X131362159Y-94603446D01*
X130461605Y-95504000D01*
X130102395Y-95504000D01*
X130088253Y-95489858D01*
X130267858Y-95310253D01*
X130282000Y-95324395D01*
X131182554Y-94423841D01*
X131096148Y-94167357D01*
X130522664Y-93957542D01*
X129912540Y-93983161D01*
X129467852Y-94167357D01*
X129467074Y-94169665D01*
X129467292Y-93920303D01*
X129211306Y-93300771D01*
X128737722Y-92826360D01*
X128118638Y-92569293D01*
X127448303Y-92568708D01*
X126828771Y-92824694D01*
X126354360Y-93298278D01*
X126097293Y-93917362D01*
X126096708Y-94587697D01*
X125703000Y-94587697D01*
X125703000Y-90827860D01*
X134997000Y-90827860D01*
X134997000Y-94996000D01*
X135008947Y-95056060D01*
X135008803Y-95220775D01*
X135072258Y-95374346D01*
X135084310Y-95434938D01*
X135118333Y-95485857D01*
X135181233Y-95638086D01*
X135298628Y-95755686D01*
X135332949Y-95807051D01*
X135383866Y-95841073D01*
X135500235Y-95957645D01*
X135653695Y-96021367D01*
X135705062Y-96055690D01*
X135765124Y-96067637D01*
X135917244Y-96130803D01*
X136083410Y-96130948D01*
X136144000Y-96143000D01*
X136204060Y-96131053D01*
X136368775Y-96131197D01*
X136522346Y-96067742D01*
X136582938Y-96055690D01*
X136633857Y-96021667D01*
X136786086Y-95958767D01*
X136903686Y-95841372D01*
X136955051Y-95807051D01*
X136989073Y-95756134D01*
X137105645Y-95639765D01*
X137169367Y-95486305D01*
X137203690Y-95434938D01*
X137215637Y-95374876D01*
X137278803Y-95222756D01*
X137278948Y-95056590D01*
X137291000Y-94996000D01*
X137291000Y-94920416D01*
X137441244Y-94982803D01*
X137607410Y-94982948D01*
X137668000Y-94995000D01*
X137728060Y-94983053D01*
X137892775Y-94983197D01*
X138046346Y-94919742D01*
X138106938Y-94907690D01*
X138157857Y-94873667D01*
X138310086Y-94810767D01*
X138427686Y-94693372D01*
X138479051Y-94659051D01*
X138513073Y-94608134D01*
X138629645Y-94491765D01*
X138693367Y-94338305D01*
X138727690Y-94286938D01*
X138739637Y-94226876D01*
X138802803Y-94074756D01*
X138802948Y-93908590D01*
X138815000Y-93848000D01*
X138815000Y-92931102D01*
X140511052Y-91235051D01*
X140545075Y-91184131D01*
X140661645Y-91067765D01*
X140725367Y-90914306D01*
X140759690Y-90862938D01*
X140771637Y-90802876D01*
X140834803Y-90650756D01*
X140834948Y-90484585D01*
X140846999Y-90424000D01*
X140835053Y-90363944D01*
X140835197Y-90199225D01*
X140771742Y-90045653D01*
X140759690Y-89985062D01*
X140725667Y-89934142D01*
X140662767Y-89781914D01*
X140545377Y-89664319D01*
X140511052Y-89612948D01*
X140460130Y-89578923D01*
X140343765Y-89462355D01*
X140190306Y-89398633D01*
X140138938Y-89364310D01*
X140078876Y-89352363D01*
X139926756Y-89289197D01*
X139760585Y-89289052D01*
X139700000Y-89277001D01*
X139639944Y-89288947D01*
X139475225Y-89288803D01*
X139321653Y-89352258D01*
X139261062Y-89364310D01*
X139210143Y-89398333D01*
X139185410Y-89408552D01*
X140003052Y-88590911D01*
X140037075Y-88539991D01*
X140153645Y-88423625D01*
X140217367Y-88270166D01*
X140251690Y-88218798D01*
X140263637Y-88158736D01*
X140326803Y-88006616D01*
X140326948Y-87840445D01*
X140338999Y-87779860D01*
X140327053Y-87719804D01*
X140327197Y-87555085D01*
X140263742Y-87401513D01*
X140251690Y-87340922D01*
X140217667Y-87290002D01*
X140154767Y-87137774D01*
X140037377Y-87020179D01*
X140003052Y-86968808D01*
X139952130Y-86934783D01*
X139835765Y-86818215D01*
X139682306Y-86754493D01*
X139630938Y-86720170D01*
X139570876Y-86708223D01*
X139418756Y-86645057D01*
X139252585Y-86644912D01*
X139192000Y-86632861D01*
X139131944Y-86644807D01*
X138967225Y-86644663D01*
X138813653Y-86708118D01*
X138753062Y-86720170D01*
X138702143Y-86754193D01*
X138549914Y-86817093D01*
X138432317Y-86934485D01*
X138380949Y-86968808D01*
X135332949Y-90016809D01*
X135084310Y-90388922D01*
X134997000Y-90827860D01*
X125703000Y-90827860D01*
X125703000Y-85471000D01*
X126479560Y-85471000D01*
X126479560Y-87249000D01*
X126523838Y-87484317D01*
X126662910Y-87700441D01*
X126875110Y-87845431D01*
X127127000Y-87896440D01*
X128905000Y-87896440D01*
X129140317Y-87852162D01*
X129356441Y-87713090D01*
X129501431Y-87500890D01*
X129552440Y-87249000D01*
X129552440Y-86661812D01*
X131571736Y-86661812D01*
X131803262Y-87222149D01*
X132231596Y-87651231D01*
X132791528Y-87883735D01*
X133397812Y-87884264D01*
X133958149Y-87652738D01*
X134387231Y-87224404D01*
X134619735Y-86664472D01*
X134620264Y-86058188D01*
X134388738Y-85497851D01*
X133960404Y-85068769D01*
X133400472Y-84836265D01*
X132794188Y-84835736D01*
X132233851Y-85067262D01*
X131804769Y-85495596D01*
X131572265Y-86055528D01*
X131571736Y-86661812D01*
X129552440Y-86661812D01*
X129552440Y-85471000D01*
X129508162Y-85235683D01*
X129369090Y-85019559D01*
X129156890Y-84874569D01*
X128905000Y-84823560D01*
X127127000Y-84823560D01*
X126891683Y-84867838D01*
X126675559Y-85006910D01*
X126530569Y-85219110D01*
X126479560Y-85471000D01*
X125703000Y-85471000D01*
X125703000Y-83132282D01*
X137519323Y-83132282D01*
X137736252Y-83499730D01*
X138696518Y-83887853D01*
X139732216Y-83878955D01*
X140647748Y-83499730D01*
X140864677Y-83132282D01*
X139192000Y-81459605D01*
X137519323Y-83132282D01*
X125703000Y-83132282D01*
X125703000Y-79475000D01*
X137246480Y-79475000D01*
X137226936Y-79494544D01*
G36*
X168649265Y-115968823D02*
X168276160Y-116122987D01*
X167956601Y-116441989D01*
X167783443Y-116858998D01*
X167783049Y-117310529D01*
X167955479Y-117727840D01*
X168274481Y-118047399D01*
X168691490Y-118220557D01*
X168799025Y-118220651D01*
X169078039Y-118407082D01*
X169418245Y-118474753D01*
X170103759Y-118474753D01*
X170100105Y-118493124D01*
X170036939Y-118645244D01*
X170036794Y-118811410D01*
X170024742Y-118872000D01*
X170024742Y-125271155D01*
X168860949Y-126434949D01*
X168612310Y-126807062D01*
X168525000Y-127246000D01*
X168525000Y-128245068D01*
X168392670Y-128443113D01*
X168374059Y-128380059D01*
X168030026Y-127954370D01*
X167549277Y-127692740D01*
X167475070Y-127677780D01*
X167259000Y-127800280D01*
X167259000Y-129413000D01*
X167279000Y-129413000D01*
X167279000Y-129667000D01*
X167259000Y-129667000D01*
X167259000Y-129687000D01*
X167005000Y-129687000D01*
X167005000Y-129667000D01*
X164719000Y-129667000D01*
X164719000Y-129687000D01*
X164465000Y-129687000D01*
X164465000Y-129667000D01*
X164445000Y-129667000D01*
X164445000Y-129413000D01*
X164465000Y-129413000D01*
X164465000Y-127800280D01*
X164719000Y-127800280D01*
X164719000Y-129413000D01*
X167005000Y-129413000D01*
X167005000Y-127800280D01*
X166788930Y-127677780D01*
X166714723Y-127692740D01*
X166233974Y-127954370D01*
X165889941Y-128380059D01*
X165862000Y-128474723D01*
X165834059Y-128380059D01*
X165490026Y-127954370D01*
X165009277Y-127692740D01*
X164935070Y-127677780D01*
X164719000Y-127800280D01*
X164465000Y-127800280D01*
X164248930Y-127677780D01*
X164174723Y-127692740D01*
X163693974Y-127954370D01*
X163349941Y-128380059D01*
X163331330Y-128443113D01*
X163199000Y-128245068D01*
X163199000Y-122428000D01*
X163187053Y-122367940D01*
X163187197Y-122203225D01*
X163123742Y-122049654D01*
X163111690Y-121989062D01*
X163077667Y-121938143D01*
X163014767Y-121785914D01*
X162897372Y-121668314D01*
X162863051Y-121616949D01*
X162812134Y-121582927D01*
X162800160Y-121570932D01*
X162828092Y-121543000D01*
X168148000Y-121543000D01*
X168208060Y-121531053D01*
X168372775Y-121531197D01*
X168526346Y-121467742D01*
X168586938Y-121455690D01*
X168637857Y-121421667D01*
X168790086Y-121358767D01*
X168907686Y-121241372D01*
X168959051Y-121207051D01*
X168993073Y-121156134D01*
X169109645Y-121039765D01*
X169173367Y-120886305D01*
X169207690Y-120834938D01*
X169219637Y-120774876D01*
X169282803Y-120622756D01*
X169282948Y-120456590D01*
X169295000Y-120396000D01*
X169283053Y-120335940D01*
X169283197Y-120171225D01*
X169219742Y-120017654D01*
X169207690Y-119957062D01*
X169173667Y-119906143D01*
X169110767Y-119753914D01*
X168993372Y-119636314D01*
X168959051Y-119584949D01*
X168908134Y-119550927D01*
X168791765Y-119434355D01*
X168638305Y-119370633D01*
X168586938Y-119336310D01*
X168526876Y-119324363D01*
X168374756Y-119261197D01*
X168208590Y-119261052D01*
X168148000Y-119249000D01*
X162352989Y-119249000D01*
X161914051Y-119336310D01*
X161541937Y-119584949D01*
X160659000Y-120467886D01*
X160659000Y-116332000D01*
X160605801Y-116064551D01*
X160702086Y-116024767D01*
X160775982Y-115951000D01*
X168656666Y-115951000D01*
X168649265Y-115968823D01*
X168649265Y-115968823D01*
G37*
X168649265Y-115968823D02*
X168276160Y-116122987D01*
X167956601Y-116441989D01*
X167783443Y-116858998D01*
X167783049Y-117310529D01*
X167955479Y-117727840D01*
X168274481Y-118047399D01*
X168691490Y-118220557D01*
X168799025Y-118220651D01*
X169078039Y-118407082D01*
X169418245Y-118474753D01*
X170103759Y-118474753D01*
X170100105Y-118493124D01*
X170036939Y-118645244D01*
X170036794Y-118811410D01*
X170024742Y-118872000D01*
X170024742Y-125271155D01*
X168860949Y-126434949D01*
X168612310Y-126807062D01*
X168525000Y-127246000D01*
X168525000Y-128245068D01*
X168392670Y-128443113D01*
X168374059Y-128380059D01*
X168030026Y-127954370D01*
X167549277Y-127692740D01*
X167475070Y-127677780D01*
X167259000Y-127800280D01*
X167259000Y-129413000D01*
X167279000Y-129413000D01*
X167279000Y-129667000D01*
X167259000Y-129667000D01*
X167259000Y-129687000D01*
X167005000Y-129687000D01*
X167005000Y-129667000D01*
X164719000Y-129667000D01*
X164719000Y-129687000D01*
X164465000Y-129687000D01*
X164465000Y-129667000D01*
X164445000Y-129667000D01*
X164445000Y-129413000D01*
X164465000Y-129413000D01*
X164465000Y-127800280D01*
X164719000Y-127800280D01*
X164719000Y-129413000D01*
X167005000Y-129413000D01*
X167005000Y-127800280D01*
X166788930Y-127677780D01*
X166714723Y-127692740D01*
X166233974Y-127954370D01*
X165889941Y-128380059D01*
X165862000Y-128474723D01*
X165834059Y-128380059D01*
X165490026Y-127954370D01*
X165009277Y-127692740D01*
X164935070Y-127677780D01*
X164719000Y-127800280D01*
X164465000Y-127800280D01*
X164248930Y-127677780D01*
X164174723Y-127692740D01*
X163693974Y-127954370D01*
X163349941Y-128380059D01*
X163331330Y-128443113D01*
X163199000Y-128245068D01*
X163199000Y-122428000D01*
X163187053Y-122367940D01*
X163187197Y-122203225D01*
X163123742Y-122049654D01*
X163111690Y-121989062D01*
X163077667Y-121938143D01*
X163014767Y-121785914D01*
X162897372Y-121668314D01*
X162863051Y-121616949D01*
X162812134Y-121582927D01*
X162800160Y-121570932D01*
X162828092Y-121543000D01*
X168148000Y-121543000D01*
X168208060Y-121531053D01*
X168372775Y-121531197D01*
X168526346Y-121467742D01*
X168586938Y-121455690D01*
X168637857Y-121421667D01*
X168790086Y-121358767D01*
X168907686Y-121241372D01*
X168959051Y-121207051D01*
X168993073Y-121156134D01*
X169109645Y-121039765D01*
X169173367Y-120886305D01*
X169207690Y-120834938D01*
X169219637Y-120774876D01*
X169282803Y-120622756D01*
X169282948Y-120456590D01*
X169295000Y-120396000D01*
X169283053Y-120335940D01*
X169283197Y-120171225D01*
X169219742Y-120017654D01*
X169207690Y-119957062D01*
X169173667Y-119906143D01*
X169110767Y-119753914D01*
X168993372Y-119636314D01*
X168959051Y-119584949D01*
X168908134Y-119550927D01*
X168791765Y-119434355D01*
X168638305Y-119370633D01*
X168586938Y-119336310D01*
X168526876Y-119324363D01*
X168374756Y-119261197D01*
X168208590Y-119261052D01*
X168148000Y-119249000D01*
X162352989Y-119249000D01*
X161914051Y-119336310D01*
X161541937Y-119584949D01*
X160659000Y-120467886D01*
X160659000Y-116332000D01*
X160605801Y-116064551D01*
X160702086Y-116024767D01*
X160775982Y-115951000D01*
X168656666Y-115951000D01*
X168649265Y-115968823D01*
G36*
X155836803Y-114016775D02*
X155900258Y-114170347D01*
X155912310Y-114230938D01*
X155946333Y-114281857D01*
X156009233Y-114434086D01*
X156126628Y-114551686D01*
X156160949Y-114603051D01*
X158365000Y-116807103D01*
X158365000Y-128245068D01*
X158242000Y-128429150D01*
X157959828Y-128006851D01*
X157506609Y-127704019D01*
X156972000Y-127597679D01*
X156437391Y-127704019D01*
X155984172Y-128006851D01*
X155702000Y-128429150D01*
X155579000Y-128245068D01*
X155579000Y-114267102D01*
X155836810Y-114009293D01*
X155836803Y-114016775D01*
X155836803Y-114016775D01*
G37*
X155836803Y-114016775D02*
X155900258Y-114170347D01*
X155912310Y-114230938D01*
X155946333Y-114281857D01*
X156009233Y-114434086D01*
X156126628Y-114551686D01*
X156160949Y-114603051D01*
X158365000Y-116807103D01*
X158365000Y-128245068D01*
X158242000Y-128429150D01*
X157959828Y-128006851D01*
X157506609Y-127704019D01*
X156972000Y-127597679D01*
X156437391Y-127704019D01*
X155984172Y-128006851D01*
X155702000Y-128429150D01*
X155579000Y-128245068D01*
X155579000Y-114267102D01*
X155836810Y-114009293D01*
X155836803Y-114016775D01*
G36*
X197485588Y-127622824D02*
X197077391Y-127704019D01*
X196624172Y-128006851D01*
X196400634Y-128341398D01*
X192284256Y-124225020D01*
X194087784Y-124225020D01*
X197485588Y-127622824D01*
X197485588Y-127622824D01*
G37*
X197485588Y-127622824D02*
X197077391Y-127704019D01*
X196624172Y-128006851D01*
X196400634Y-128341398D01*
X192284256Y-124225020D01*
X194087784Y-124225020D01*
X197485588Y-127622824D01*
G36*
X178966488Y-124329000D02*
X176512865Y-124329000D01*
X175636812Y-123452948D01*
X175264699Y-123204309D01*
X174825761Y-123116999D01*
X172654001Y-123116999D01*
X172318742Y-123183686D01*
X172318742Y-118872000D01*
X172306795Y-118811940D01*
X172306939Y-118647225D01*
X172243484Y-118493654D01*
X172239725Y-118474753D01*
X173112241Y-118474753D01*
X178966488Y-124329000D01*
X178966488Y-124329000D01*
G37*
X178966488Y-124329000D02*
X176512865Y-124329000D01*
X175636812Y-123452948D01*
X175264699Y-123204309D01*
X174825761Y-123116999D01*
X172654001Y-123116999D01*
X172318742Y-123183686D01*
X172318742Y-118872000D01*
X172306795Y-118811940D01*
X172306939Y-118647225D01*
X172243484Y-118493654D01*
X172239725Y-118474753D01*
X173112241Y-118474753D01*
X178966488Y-124329000D01*
G36*
X196540363Y-119509124D02*
X196477197Y-119661244D01*
X196477052Y-119827410D01*
X196465000Y-119888000D01*
X196476947Y-119948060D01*
X196476803Y-120112775D01*
X196540258Y-120266346D01*
X196552310Y-120326938D01*
X196586333Y-120377857D01*
X196649233Y-120530086D01*
X196766628Y-120647686D01*
X196800949Y-120699051D01*
X196851866Y-120733073D01*
X196968235Y-120849645D01*
X197121695Y-120913367D01*
X197173062Y-120947690D01*
X197233124Y-120959637D01*
X197385244Y-121022803D01*
X197551410Y-121022948D01*
X197591891Y-121031000D01*
X181216236Y-121031000D01*
X179683092Y-119497856D01*
X196542604Y-119497856D01*
X196540363Y-119509124D01*
X196540363Y-119509124D01*
G37*
X196540363Y-119509124D02*
X196477197Y-119661244D01*
X196477052Y-119827410D01*
X196465000Y-119888000D01*
X196476947Y-119948060D01*
X196476803Y-120112775D01*
X196540258Y-120266346D01*
X196552310Y-120326938D01*
X196586333Y-120377857D01*
X196649233Y-120530086D01*
X196766628Y-120647686D01*
X196800949Y-120699051D01*
X196851866Y-120733073D01*
X196968235Y-120849645D01*
X197121695Y-120913367D01*
X197173062Y-120947690D01*
X197233124Y-120959637D01*
X197385244Y-121022803D01*
X197551410Y-121022948D01*
X197591891Y-121031000D01*
X181216236Y-121031000D01*
X179683092Y-119497856D01*
X196542604Y-119497856D01*
X196540363Y-119509124D01*
G36*
X207962500Y-92347846D02*
X207571914Y-92509233D01*
X207252355Y-92828235D01*
X207079197Y-93245244D01*
X207078803Y-93696775D01*
X207251233Y-94114086D01*
X207570235Y-94433645D01*
X207987244Y-94606803D01*
X208438775Y-94607197D01*
X208856086Y-94434767D01*
X208902560Y-94388374D01*
X208902560Y-95758000D01*
X208946838Y-95993317D01*
X209085910Y-96209441D01*
X209298110Y-96354431D01*
X209550000Y-96405440D01*
X211074000Y-96405440D01*
X211309317Y-96361162D01*
X211525441Y-96222090D01*
X211581374Y-96140230D01*
X211625910Y-96209441D01*
X211707770Y-96265374D01*
X211638559Y-96309910D01*
X211493569Y-96522110D01*
X211442560Y-96774000D01*
X211442560Y-97350393D01*
X211220901Y-97306303D01*
X193968197Y-97306303D01*
X193652292Y-97369140D01*
X193461242Y-97496795D01*
X193243423Y-97496605D01*
X192826112Y-97669035D01*
X192506553Y-97988037D01*
X192333395Y-98405046D01*
X192333001Y-98856577D01*
X192505431Y-99273888D01*
X192824433Y-99593447D01*
X193241442Y-99766605D01*
X193692973Y-99766999D01*
X194110284Y-99594569D01*
X194232708Y-99472358D01*
X194232687Y-99496891D01*
X194405117Y-99914202D01*
X194724119Y-100233761D01*
X195141128Y-100406919D01*
X195592659Y-100407313D01*
X196009970Y-100234883D01*
X196147477Y-100097616D01*
X196832669Y-100097616D01*
X196832359Y-100453219D01*
X197004789Y-100870530D01*
X197323791Y-101190089D01*
X197740800Y-101363247D01*
X198192331Y-101363641D01*
X198609642Y-101191211D01*
X198693070Y-101107928D01*
X198737480Y-101116762D01*
X216620008Y-101116762D01*
X216535243Y-101320900D01*
X216535229Y-101337204D01*
X216513698Y-101315673D01*
X216280309Y-101219000D01*
X215677750Y-101219000D01*
X215519000Y-101377750D01*
X215519000Y-102489000D01*
X216630250Y-102489000D01*
X216741715Y-102377535D01*
X216746990Y-102390303D01*
X217139630Y-102783629D01*
X217347512Y-102869949D01*
X217141697Y-102954990D01*
X216789000Y-103307072D01*
X216789000Y-102901750D01*
X216630250Y-102743000D01*
X215519000Y-102743000D01*
X215519000Y-103854250D01*
X215677750Y-104013000D01*
X216280309Y-104013000D01*
X216513698Y-103916327D01*
X216535213Y-103894812D01*
X216534758Y-104416661D01*
X216746990Y-104930303D01*
X217139630Y-105323629D01*
X217347512Y-105409949D01*
X217141697Y-105494990D01*
X216748371Y-105887630D01*
X216535243Y-106400900D01*
X216534758Y-106956661D01*
X216746990Y-107470303D01*
X217139630Y-107863629D01*
X217347512Y-107949949D01*
X217141697Y-108034990D01*
X216929486Y-108246831D01*
X216857407Y-108198670D01*
X216517201Y-108130999D01*
X214068001Y-108130999D01*
X213727795Y-108198670D01*
X213488976Y-108358244D01*
X213439383Y-108391381D01*
X213004204Y-108826560D01*
X212090000Y-108826560D01*
X211854683Y-108870838D01*
X211638559Y-109009910D01*
X211493569Y-109222110D01*
X211442560Y-109474000D01*
X211442560Y-110998000D01*
X211486838Y-111233317D01*
X211625910Y-111449441D01*
X211707770Y-111505374D01*
X211638559Y-111549910D01*
X211493569Y-111762110D01*
X211442560Y-112014000D01*
X211442560Y-113538000D01*
X211486838Y-113773317D01*
X211625910Y-113989441D01*
X211707770Y-114045374D01*
X211638559Y-114089910D01*
X211493569Y-114302110D01*
X211442560Y-114554000D01*
X211442560Y-116078000D01*
X211486838Y-116313317D01*
X211625910Y-116529441D01*
X211707770Y-116585374D01*
X211638559Y-116629910D01*
X211493569Y-116842110D01*
X211442560Y-117094000D01*
X211442560Y-118618000D01*
X211486838Y-118853317D01*
X211625910Y-119069441D01*
X211838110Y-119214431D01*
X212090000Y-119265440D01*
X213004204Y-119265440D01*
X213439383Y-119700619D01*
X213727795Y-119893330D01*
X213982560Y-119944006D01*
X213982560Y-121031000D01*
X209419380Y-121031000D01*
X206368618Y-117980238D01*
X206287382Y-117925958D01*
X206080206Y-117787527D01*
X205740000Y-117719856D01*
X204875287Y-117719856D01*
X204882803Y-117701756D01*
X204883197Y-117250225D01*
X204710767Y-116832914D01*
X204391765Y-116513355D01*
X203974756Y-116340197D01*
X203870342Y-116340106D01*
X203233618Y-115703382D01*
X203163014Y-115656206D01*
X202945206Y-115510671D01*
X202605000Y-115443000D01*
X193994397Y-115443000D01*
X194001645Y-115435765D01*
X194174803Y-115018756D01*
X194174894Y-114914342D01*
X194176618Y-114912618D01*
X194369329Y-114624206D01*
X194437000Y-114284000D01*
X194437000Y-104140000D01*
X194369329Y-103799794D01*
X194176618Y-103511382D01*
X193709068Y-103043832D01*
X193851398Y-102901750D01*
X208915000Y-102901750D01*
X208915000Y-103504310D01*
X209011673Y-103737699D01*
X209190302Y-103916327D01*
X209423691Y-104013000D01*
X210026250Y-104013000D01*
X210185000Y-103854250D01*
X210185000Y-102743000D01*
X210439000Y-102743000D01*
X210439000Y-103854250D01*
X210597750Y-104013000D01*
X211200309Y-104013000D01*
X211433698Y-103916327D01*
X211582000Y-103768026D01*
X211730302Y-103916327D01*
X211963691Y-104013000D01*
X212566250Y-104013000D01*
X212725000Y-103854250D01*
X212725000Y-102743000D01*
X212979000Y-102743000D01*
X212979000Y-103854250D01*
X213137750Y-104013000D01*
X213740309Y-104013000D01*
X213973698Y-103916327D01*
X214122000Y-103768026D01*
X214270302Y-103916327D01*
X214503691Y-104013000D01*
X215106250Y-104013000D01*
X215265000Y-103854250D01*
X215265000Y-102743000D01*
X214153750Y-102743000D01*
X214122000Y-102774750D01*
X214090250Y-102743000D01*
X212979000Y-102743000D01*
X212725000Y-102743000D01*
X211613750Y-102743000D01*
X211582000Y-102774750D01*
X211550250Y-102743000D01*
X210439000Y-102743000D01*
X210185000Y-102743000D01*
X209073750Y-102743000D01*
X208915000Y-102901750D01*
X193851398Y-102901750D01*
X194001645Y-102751765D01*
X194174803Y-102334756D01*
X194175197Y-101883225D01*
X194110932Y-101727690D01*
X208915000Y-101727690D01*
X208915000Y-102330250D01*
X209073750Y-102489000D01*
X210185000Y-102489000D01*
X210185000Y-101377750D01*
X210439000Y-101377750D01*
X210439000Y-102489000D01*
X211550250Y-102489000D01*
X211582000Y-102457250D01*
X211613750Y-102489000D01*
X212725000Y-102489000D01*
X212725000Y-101377750D01*
X212979000Y-101377750D01*
X212979000Y-102489000D01*
X214090250Y-102489000D01*
X214122000Y-102457250D01*
X214153750Y-102489000D01*
X215265000Y-102489000D01*
X215265000Y-101377750D01*
X215106250Y-101219000D01*
X214503691Y-101219000D01*
X214270302Y-101315673D01*
X214122000Y-101463974D01*
X213973698Y-101315673D01*
X213740309Y-101219000D01*
X213137750Y-101219000D01*
X212979000Y-101377750D01*
X212725000Y-101377750D01*
X212566250Y-101219000D01*
X211963691Y-101219000D01*
X211730302Y-101315673D01*
X211582000Y-101463974D01*
X211433698Y-101315673D01*
X211200309Y-101219000D01*
X210597750Y-101219000D01*
X210439000Y-101377750D01*
X210185000Y-101377750D01*
X210026250Y-101219000D01*
X209423691Y-101219000D01*
X209190302Y-101315673D01*
X209011673Y-101494301D01*
X208915000Y-101727690D01*
X194110932Y-101727690D01*
X194002767Y-101465914D01*
X193929000Y-101392018D01*
X193929000Y-101363510D01*
X193861329Y-101023304D01*
X193668618Y-100734892D01*
X192179187Y-99245461D01*
X192179187Y-94915501D01*
X193162129Y-93932559D01*
X193264775Y-93932649D01*
X193682086Y-93760219D01*
X193928471Y-93514263D01*
X196429267Y-96015059D01*
X196801380Y-96263698D01*
X197240318Y-96351008D01*
X201467992Y-96351008D01*
X201906930Y-96263698D01*
X202279043Y-96015059D01*
X207191051Y-91103052D01*
X207225074Y-91052132D01*
X207341645Y-90935765D01*
X207405367Y-90782306D01*
X207439690Y-90730938D01*
X207451637Y-90670876D01*
X207514803Y-90518756D01*
X207514948Y-90352585D01*
X207526999Y-90292000D01*
X207515053Y-90231944D01*
X207515197Y-90067225D01*
X207451742Y-89913653D01*
X207439690Y-89853062D01*
X207405667Y-89802143D01*
X207342767Y-89649914D01*
X207225372Y-89532314D01*
X207191051Y-89480949D01*
X207140134Y-89446927D01*
X207023765Y-89330355D01*
X207010317Y-89324771D01*
X207095008Y-88899002D01*
X207095008Y-88659094D01*
X207962500Y-87791602D01*
X207962500Y-92347846D01*
X207962500Y-92347846D01*
G37*
X207962500Y-92347846D02*
X207571914Y-92509233D01*
X207252355Y-92828235D01*
X207079197Y-93245244D01*
X207078803Y-93696775D01*
X207251233Y-94114086D01*
X207570235Y-94433645D01*
X207987244Y-94606803D01*
X208438775Y-94607197D01*
X208856086Y-94434767D01*
X208902560Y-94388374D01*
X208902560Y-95758000D01*
X208946838Y-95993317D01*
X209085910Y-96209441D01*
X209298110Y-96354431D01*
X209550000Y-96405440D01*
X211074000Y-96405440D01*
X211309317Y-96361162D01*
X211525441Y-96222090D01*
X211581374Y-96140230D01*
X211625910Y-96209441D01*
X211707770Y-96265374D01*
X211638559Y-96309910D01*
X211493569Y-96522110D01*
X211442560Y-96774000D01*
X211442560Y-97350393D01*
X211220901Y-97306303D01*
X193968197Y-97306303D01*
X193652292Y-97369140D01*
X193461242Y-97496795D01*
X193243423Y-97496605D01*
X192826112Y-97669035D01*
X192506553Y-97988037D01*
X192333395Y-98405046D01*
X192333001Y-98856577D01*
X192505431Y-99273888D01*
X192824433Y-99593447D01*
X193241442Y-99766605D01*
X193692973Y-99766999D01*
X194110284Y-99594569D01*
X194232708Y-99472358D01*
X194232687Y-99496891D01*
X194405117Y-99914202D01*
X194724119Y-100233761D01*
X195141128Y-100406919D01*
X195592659Y-100407313D01*
X196009970Y-100234883D01*
X196147477Y-100097616D01*
X196832669Y-100097616D01*
X196832359Y-100453219D01*
X197004789Y-100870530D01*
X197323791Y-101190089D01*
X197740800Y-101363247D01*
X198192331Y-101363641D01*
X198609642Y-101191211D01*
X198693070Y-101107928D01*
X198737480Y-101116762D01*
X216620008Y-101116762D01*
X216535243Y-101320900D01*
X216535229Y-101337204D01*
X216513698Y-101315673D01*
X216280309Y-101219000D01*
X215677750Y-101219000D01*
X215519000Y-101377750D01*
X215519000Y-102489000D01*
X216630250Y-102489000D01*
X216741715Y-102377535D01*
X216746990Y-102390303D01*
X217139630Y-102783629D01*
X217347512Y-102869949D01*
X217141697Y-102954990D01*
X216789000Y-103307072D01*
X216789000Y-102901750D01*
X216630250Y-102743000D01*
X215519000Y-102743000D01*
X215519000Y-103854250D01*
X215677750Y-104013000D01*
X216280309Y-104013000D01*
X216513698Y-103916327D01*
X216535213Y-103894812D01*
X216534758Y-104416661D01*
X216746990Y-104930303D01*
X217139630Y-105323629D01*
X217347512Y-105409949D01*
X217141697Y-105494990D01*
X216748371Y-105887630D01*
X216535243Y-106400900D01*
X216534758Y-106956661D01*
X216746990Y-107470303D01*
X217139630Y-107863629D01*
X217347512Y-107949949D01*
X217141697Y-108034990D01*
X216929486Y-108246831D01*
X216857407Y-108198670D01*
X216517201Y-108130999D01*
X214068001Y-108130999D01*
X213727795Y-108198670D01*
X213488976Y-108358244D01*
X213439383Y-108391381D01*
X213004204Y-108826560D01*
X212090000Y-108826560D01*
X211854683Y-108870838D01*
X211638559Y-109009910D01*
X211493569Y-109222110D01*
X211442560Y-109474000D01*
X211442560Y-110998000D01*
X211486838Y-111233317D01*
X211625910Y-111449441D01*
X211707770Y-111505374D01*
X211638559Y-111549910D01*
X211493569Y-111762110D01*
X211442560Y-112014000D01*
X211442560Y-113538000D01*
X211486838Y-113773317D01*
X211625910Y-113989441D01*
X211707770Y-114045374D01*
X211638559Y-114089910D01*
X211493569Y-114302110D01*
X211442560Y-114554000D01*
X211442560Y-116078000D01*
X211486838Y-116313317D01*
X211625910Y-116529441D01*
X211707770Y-116585374D01*
X211638559Y-116629910D01*
X211493569Y-116842110D01*
X211442560Y-117094000D01*
X211442560Y-118618000D01*
X211486838Y-118853317D01*
X211625910Y-119069441D01*
X211838110Y-119214431D01*
X212090000Y-119265440D01*
X213004204Y-119265440D01*
X213439383Y-119700619D01*
X213727795Y-119893330D01*
X213982560Y-119944006D01*
X213982560Y-121031000D01*
X209419380Y-121031000D01*
X206368618Y-117980238D01*
X206287382Y-117925958D01*
X206080206Y-117787527D01*
X205740000Y-117719856D01*
X204875287Y-117719856D01*
X204882803Y-117701756D01*
X204883197Y-117250225D01*
X204710767Y-116832914D01*
X204391765Y-116513355D01*
X203974756Y-116340197D01*
X203870342Y-116340106D01*
X203233618Y-115703382D01*
X203163014Y-115656206D01*
X202945206Y-115510671D01*
X202605000Y-115443000D01*
X193994397Y-115443000D01*
X194001645Y-115435765D01*
X194174803Y-115018756D01*
X194174894Y-114914342D01*
X194176618Y-114912618D01*
X194369329Y-114624206D01*
X194437000Y-114284000D01*
X194437000Y-104140000D01*
X194369329Y-103799794D01*
X194176618Y-103511382D01*
X193709068Y-103043832D01*
X193851398Y-102901750D01*
X208915000Y-102901750D01*
X208915000Y-103504310D01*
X209011673Y-103737699D01*
X209190302Y-103916327D01*
X209423691Y-104013000D01*
X210026250Y-104013000D01*
X210185000Y-103854250D01*
X210185000Y-102743000D01*
X210439000Y-102743000D01*
X210439000Y-103854250D01*
X210597750Y-104013000D01*
X211200309Y-104013000D01*
X211433698Y-103916327D01*
X211582000Y-103768026D01*
X211730302Y-103916327D01*
X211963691Y-104013000D01*
X212566250Y-104013000D01*
X212725000Y-103854250D01*
X212725000Y-102743000D01*
X212979000Y-102743000D01*
X212979000Y-103854250D01*
X213137750Y-104013000D01*
X213740309Y-104013000D01*
X213973698Y-103916327D01*
X214122000Y-103768026D01*
X214270302Y-103916327D01*
X214503691Y-104013000D01*
X215106250Y-104013000D01*
X215265000Y-103854250D01*
X215265000Y-102743000D01*
X214153750Y-102743000D01*
X214122000Y-102774750D01*
X214090250Y-102743000D01*
X212979000Y-102743000D01*
X212725000Y-102743000D01*
X211613750Y-102743000D01*
X211582000Y-102774750D01*
X211550250Y-102743000D01*
X210439000Y-102743000D01*
X210185000Y-102743000D01*
X209073750Y-102743000D01*
X208915000Y-102901750D01*
X193851398Y-102901750D01*
X194001645Y-102751765D01*
X194174803Y-102334756D01*
X194175197Y-101883225D01*
X194110932Y-101727690D01*
X208915000Y-101727690D01*
X208915000Y-102330250D01*
X209073750Y-102489000D01*
X210185000Y-102489000D01*
X210185000Y-101377750D01*
X210439000Y-101377750D01*
X210439000Y-102489000D01*
X211550250Y-102489000D01*
X211582000Y-102457250D01*
X211613750Y-102489000D01*
X212725000Y-102489000D01*
X212725000Y-101377750D01*
X212979000Y-101377750D01*
X212979000Y-102489000D01*
X214090250Y-102489000D01*
X214122000Y-102457250D01*
X214153750Y-102489000D01*
X215265000Y-102489000D01*
X215265000Y-101377750D01*
X215106250Y-101219000D01*
X214503691Y-101219000D01*
X214270302Y-101315673D01*
X214122000Y-101463974D01*
X213973698Y-101315673D01*
X213740309Y-101219000D01*
X213137750Y-101219000D01*
X212979000Y-101377750D01*
X212725000Y-101377750D01*
X212566250Y-101219000D01*
X211963691Y-101219000D01*
X211730302Y-101315673D01*
X211582000Y-101463974D01*
X211433698Y-101315673D01*
X211200309Y-101219000D01*
X210597750Y-101219000D01*
X210439000Y-101377750D01*
X210185000Y-101377750D01*
X210026250Y-101219000D01*
X209423691Y-101219000D01*
X209190302Y-101315673D01*
X209011673Y-101494301D01*
X208915000Y-101727690D01*
X194110932Y-101727690D01*
X194002767Y-101465914D01*
X193929000Y-101392018D01*
X193929000Y-101363510D01*
X193861329Y-101023304D01*
X193668618Y-100734892D01*
X192179187Y-99245461D01*
X192179187Y-94915501D01*
X193162129Y-93932559D01*
X193264775Y-93932649D01*
X193682086Y-93760219D01*
X193928471Y-93514263D01*
X196429267Y-96015059D01*
X196801380Y-96263698D01*
X197240318Y-96351008D01*
X201467992Y-96351008D01*
X201906930Y-96263698D01*
X202279043Y-96015059D01*
X207191051Y-91103052D01*
X207225074Y-91052132D01*
X207341645Y-90935765D01*
X207405367Y-90782306D01*
X207439690Y-90730938D01*
X207451637Y-90670876D01*
X207514803Y-90518756D01*
X207514948Y-90352585D01*
X207526999Y-90292000D01*
X207515053Y-90231944D01*
X207515197Y-90067225D01*
X207451742Y-89913653D01*
X207439690Y-89853062D01*
X207405667Y-89802143D01*
X207342767Y-89649914D01*
X207225372Y-89532314D01*
X207191051Y-89480949D01*
X207140134Y-89446927D01*
X207023765Y-89330355D01*
X207010317Y-89324771D01*
X207095008Y-88899002D01*
X207095008Y-88659094D01*
X207962500Y-87791602D01*
X207962500Y-92347846D01*
G36*
X202612893Y-117597129D02*
X202612803Y-117699775D01*
X202621100Y-117719856D01*
X179429092Y-117719856D01*
X179176108Y-117466872D01*
X179548775Y-117467197D01*
X179966086Y-117294767D01*
X180039982Y-117221000D01*
X202236764Y-117221000D01*
X202612893Y-117597129D01*
X202612893Y-117597129D01*
G37*
X202612893Y-117597129D02*
X202612803Y-117699775D01*
X202621100Y-117719856D01*
X179429092Y-117719856D01*
X179176108Y-117466872D01*
X179548775Y-117467197D01*
X179966086Y-117294767D01*
X180039982Y-117221000D01*
X202236764Y-117221000D01*
X202612893Y-117597129D01*
G36*
X191643000Y-105121554D02*
X191643000Y-110625110D01*
X191291225Y-110624803D01*
X190873914Y-110797233D01*
X190554355Y-111116235D01*
X190381197Y-111533244D01*
X190381106Y-111637658D01*
X189115764Y-112903000D01*
X188676283Y-112903000D01*
X188603765Y-112830355D01*
X188186756Y-112657197D01*
X187735225Y-112656803D01*
X187317914Y-112829233D01*
X186998355Y-113148235D01*
X186825197Y-113565244D01*
X186824803Y-114016775D01*
X186889354Y-114173000D01*
X183676283Y-114173000D01*
X183603765Y-114100355D01*
X183186756Y-113927197D01*
X182735225Y-113926803D01*
X182317914Y-114099233D01*
X181998355Y-114418235D01*
X181825197Y-114835244D01*
X181824803Y-115286775D01*
X181889354Y-115443000D01*
X180040283Y-115443000D01*
X179967765Y-115370355D01*
X179550756Y-115197197D01*
X179099225Y-115196803D01*
X178681914Y-115369233D01*
X178362355Y-115688235D01*
X178189197Y-116105244D01*
X178188870Y-116479634D01*
X175379107Y-113669871D01*
X175379108Y-113669000D01*
X182960000Y-113669000D01*
X183020060Y-113657053D01*
X183184775Y-113657197D01*
X183338346Y-113593742D01*
X183398938Y-113581690D01*
X183449857Y-113547667D01*
X183602086Y-113484767D01*
X183719686Y-113367372D01*
X183771051Y-113333051D01*
X183805073Y-113282134D01*
X183921645Y-113165765D01*
X183985367Y-113012305D01*
X184019690Y-112960938D01*
X184031637Y-112900876D01*
X184094803Y-112748756D01*
X184094948Y-112582590D01*
X184107000Y-112522000D01*
X184095053Y-112461940D01*
X184095197Y-112297225D01*
X184031742Y-112143654D01*
X184019690Y-112083062D01*
X183985667Y-112032143D01*
X183922767Y-111879914D01*
X183805372Y-111762314D01*
X183771051Y-111710949D01*
X183720134Y-111676927D01*
X183603765Y-111560355D01*
X183450305Y-111496633D01*
X183398938Y-111462310D01*
X183338876Y-111450363D01*
X183186756Y-111387197D01*
X183020590Y-111387052D01*
X182960000Y-111375000D01*
X178948168Y-111375000D01*
X183970169Y-106352999D01*
X186202133Y-106352999D01*
X186182243Y-106400900D01*
X186181758Y-106956661D01*
X186393990Y-107470303D01*
X186786630Y-107863629D01*
X187299900Y-108076757D01*
X187855661Y-108077242D01*
X188369303Y-107865010D01*
X188762629Y-107472370D01*
X188848949Y-107264488D01*
X188933990Y-107470303D01*
X189326630Y-107863629D01*
X189839900Y-108076757D01*
X190395661Y-108077242D01*
X190909303Y-107865010D01*
X191302629Y-107472370D01*
X191515757Y-106959100D01*
X191516242Y-106403339D01*
X191304010Y-105889697D01*
X190911370Y-105496371D01*
X190703488Y-105410051D01*
X190909303Y-105325010D01*
X191302629Y-104932370D01*
X191346988Y-104825542D01*
X191643000Y-105121554D01*
X191643000Y-105121554D01*
G37*
X191643000Y-105121554D02*
X191643000Y-110625110D01*
X191291225Y-110624803D01*
X190873914Y-110797233D01*
X190554355Y-111116235D01*
X190381197Y-111533244D01*
X190381106Y-111637658D01*
X189115764Y-112903000D01*
X188676283Y-112903000D01*
X188603765Y-112830355D01*
X188186756Y-112657197D01*
X187735225Y-112656803D01*
X187317914Y-112829233D01*
X186998355Y-113148235D01*
X186825197Y-113565244D01*
X186824803Y-114016775D01*
X186889354Y-114173000D01*
X183676283Y-114173000D01*
X183603765Y-114100355D01*
X183186756Y-113927197D01*
X182735225Y-113926803D01*
X182317914Y-114099233D01*
X181998355Y-114418235D01*
X181825197Y-114835244D01*
X181824803Y-115286775D01*
X181889354Y-115443000D01*
X180040283Y-115443000D01*
X179967765Y-115370355D01*
X179550756Y-115197197D01*
X179099225Y-115196803D01*
X178681914Y-115369233D01*
X178362355Y-115688235D01*
X178189197Y-116105244D01*
X178188870Y-116479634D01*
X175379107Y-113669871D01*
X175379108Y-113669000D01*
X182960000Y-113669000D01*
X183020060Y-113657053D01*
X183184775Y-113657197D01*
X183338346Y-113593742D01*
X183398938Y-113581690D01*
X183449857Y-113547667D01*
X183602086Y-113484767D01*
X183719686Y-113367372D01*
X183771051Y-113333051D01*
X183805073Y-113282134D01*
X183921645Y-113165765D01*
X183985367Y-113012305D01*
X184019690Y-112960938D01*
X184031637Y-112900876D01*
X184094803Y-112748756D01*
X184094948Y-112582590D01*
X184107000Y-112522000D01*
X184095053Y-112461940D01*
X184095197Y-112297225D01*
X184031742Y-112143654D01*
X184019690Y-112083062D01*
X183985667Y-112032143D01*
X183922767Y-111879914D01*
X183805372Y-111762314D01*
X183771051Y-111710949D01*
X183720134Y-111676927D01*
X183603765Y-111560355D01*
X183450305Y-111496633D01*
X183398938Y-111462310D01*
X183338876Y-111450363D01*
X183186756Y-111387197D01*
X183020590Y-111387052D01*
X182960000Y-111375000D01*
X178948168Y-111375000D01*
X183970169Y-106352999D01*
X186202133Y-106352999D01*
X186182243Y-106400900D01*
X186181758Y-106956661D01*
X186393990Y-107470303D01*
X186786630Y-107863629D01*
X187299900Y-108076757D01*
X187855661Y-108077242D01*
X188369303Y-107865010D01*
X188762629Y-107472370D01*
X188848949Y-107264488D01*
X188933990Y-107470303D01*
X189326630Y-107863629D01*
X189839900Y-108076757D01*
X190395661Y-108077242D01*
X190909303Y-107865010D01*
X191302629Y-107472370D01*
X191515757Y-106959100D01*
X191516242Y-106403339D01*
X191304010Y-105889697D01*
X190911370Y-105496371D01*
X190703488Y-105410051D01*
X190909303Y-105325010D01*
X191302629Y-104932370D01*
X191346988Y-104825542D01*
X191643000Y-105121554D01*
G36*
X168684172Y-79746851D02*
X168381340Y-80200070D01*
X168275000Y-80734679D01*
X168275000Y-81825321D01*
X168381340Y-82359930D01*
X168684172Y-82813149D01*
X168841930Y-82918560D01*
X167386000Y-82918560D01*
X167150683Y-82962838D01*
X166934559Y-83101910D01*
X166789569Y-83314110D01*
X166738560Y-83566000D01*
X166738560Y-85090000D01*
X166782838Y-85325317D01*
X166921910Y-85541441D01*
X167134110Y-85686431D01*
X167386000Y-85737440D01*
X168910000Y-85737440D01*
X169145317Y-85693162D01*
X169361441Y-85554090D01*
X169506431Y-85341890D01*
X169531722Y-85217000D01*
X172212000Y-85217000D01*
X172552206Y-85149329D01*
X172840618Y-84956618D01*
X174604295Y-83192941D01*
X174627285Y-83197514D01*
X174438671Y-83479794D01*
X174371000Y-83820000D01*
X174371000Y-85375761D01*
X174309498Y-85437156D01*
X174136340Y-85854165D01*
X174135999Y-86245000D01*
X151216654Y-86245000D01*
X150777716Y-86332310D01*
X150405602Y-86580949D01*
X146941276Y-90045276D01*
X146907254Y-90096193D01*
X146790682Y-90212562D01*
X146726960Y-90366022D01*
X146692637Y-90417389D01*
X146680690Y-90477451D01*
X146617524Y-90629571D01*
X146617379Y-90795742D01*
X146605328Y-90856327D01*
X146617274Y-90916383D01*
X146617130Y-91081102D01*
X146680585Y-91234674D01*
X146692637Y-91295265D01*
X146726660Y-91346184D01*
X146789560Y-91498413D01*
X146906955Y-91616013D01*
X146941276Y-91667378D01*
X146992193Y-91701400D01*
X147108562Y-91817972D01*
X147262022Y-91881694D01*
X147313389Y-91916017D01*
X147373451Y-91927964D01*
X147525571Y-91991130D01*
X147691742Y-91991275D01*
X147752327Y-92003326D01*
X147812383Y-91991380D01*
X147977102Y-91991524D01*
X148130674Y-91928069D01*
X148191265Y-91916017D01*
X148242184Y-91881994D01*
X148394413Y-91819094D01*
X148512013Y-91701699D01*
X148563378Y-91667378D01*
X151691757Y-88539000D01*
X174180940Y-88539000D01*
X174125197Y-88673244D01*
X174124803Y-89124775D01*
X174297233Y-89542086D01*
X174616235Y-89861645D01*
X175033244Y-90034803D01*
X175137658Y-90034894D01*
X176403000Y-91300236D01*
X176403000Y-100076000D01*
X176465274Y-100389071D01*
X176342756Y-100338197D01*
X175891225Y-100337803D01*
X175473914Y-100510233D01*
X175154355Y-100829235D01*
X174981197Y-101246244D01*
X174980803Y-101697775D01*
X175153233Y-102115086D01*
X175472235Y-102434645D01*
X175889244Y-102607803D01*
X176340775Y-102608197D01*
X176758086Y-102435767D01*
X176831982Y-102362000D01*
X176923764Y-102362000D01*
X177546000Y-102984236D01*
X177546000Y-105676764D01*
X174891764Y-108331000D01*
X171653285Y-108331000D01*
X171713367Y-108186305D01*
X171747690Y-108134938D01*
X171759637Y-108074876D01*
X171822803Y-107922756D01*
X171822948Y-107756590D01*
X171835000Y-107696000D01*
X171823053Y-107635940D01*
X171823197Y-107471225D01*
X171759742Y-107317654D01*
X171747690Y-107257062D01*
X171713667Y-107206143D01*
X171650767Y-107053914D01*
X171533372Y-106936314D01*
X171499051Y-106884949D01*
X171448134Y-106850927D01*
X171331765Y-106734355D01*
X171178305Y-106670633D01*
X171126938Y-106636310D01*
X171066876Y-106624363D01*
X170914756Y-106561197D01*
X170748590Y-106561052D01*
X170688000Y-106549000D01*
X170302025Y-106549000D01*
X170327327Y-106523698D01*
X170424000Y-106290309D01*
X170424000Y-105949750D01*
X170265250Y-105791000D01*
X169291000Y-105791000D01*
X169291000Y-105811000D01*
X169037000Y-105811000D01*
X169037000Y-105791000D01*
X168062750Y-105791000D01*
X167921440Y-105932310D01*
X167921440Y-105822000D01*
X167877162Y-105586683D01*
X167738090Y-105370559D01*
X167525890Y-105225569D01*
X167274000Y-105174560D01*
X165974000Y-105174560D01*
X165750090Y-105216692D01*
X165743765Y-105210355D01*
X165327946Y-105037691D01*
X167904000Y-105037691D01*
X167904000Y-105378250D01*
X168062750Y-105537000D01*
X169037000Y-105537000D01*
X169037000Y-104687750D01*
X169291000Y-104687750D01*
X169291000Y-105537000D01*
X170265250Y-105537000D01*
X170424000Y-105378250D01*
X170424000Y-105037691D01*
X170327327Y-104804302D01*
X170148699Y-104625673D01*
X169915310Y-104529000D01*
X169449750Y-104529000D01*
X169291000Y-104687750D01*
X169037000Y-104687750D01*
X168878250Y-104529000D01*
X168412690Y-104529000D01*
X168179301Y-104625673D01*
X168000673Y-104804302D01*
X167904000Y-105037691D01*
X165327946Y-105037691D01*
X165326756Y-105037197D01*
X164875225Y-105036803D01*
X164457914Y-105209233D01*
X164384018Y-105283000D01*
X157831532Y-105283000D01*
X157633473Y-105150661D01*
X157293267Y-105082990D01*
X155698176Y-105082990D01*
X153033510Y-102418324D01*
X153288490Y-102298821D01*
X153670008Y-101880839D01*
X153850971Y-102151670D01*
X154337152Y-102476526D01*
X154910641Y-102590600D01*
X154969359Y-102590600D01*
X155542848Y-102476526D01*
X156029029Y-102151670D01*
X156210000Y-101880828D01*
X156390971Y-102151670D01*
X156877152Y-102476526D01*
X157450641Y-102590600D01*
X157509359Y-102590600D01*
X158082848Y-102476526D01*
X158569029Y-102151670D01*
X158750000Y-101880828D01*
X158930971Y-102151670D01*
X159417152Y-102476526D01*
X159990641Y-102590600D01*
X160049359Y-102590600D01*
X160622848Y-102476526D01*
X161109029Y-102151670D01*
X161290000Y-101880828D01*
X161470971Y-102151670D01*
X161957152Y-102476526D01*
X162530641Y-102590600D01*
X162589359Y-102590600D01*
X163162848Y-102476526D01*
X163649029Y-102151670D01*
X163830000Y-101880828D01*
X164010971Y-102151670D01*
X164497152Y-102476526D01*
X165070641Y-102590600D01*
X165129359Y-102590600D01*
X165702848Y-102476526D01*
X166189029Y-102151670D01*
X166370000Y-101880828D01*
X166550971Y-102151670D01*
X167037152Y-102476526D01*
X167610641Y-102590600D01*
X167669359Y-102590600D01*
X168242848Y-102476526D01*
X168708442Y-102165426D01*
X168713238Y-102190917D01*
X168852310Y-102407041D01*
X169064510Y-102552031D01*
X169316400Y-102603040D01*
X171043600Y-102603040D01*
X171065000Y-102599013D01*
X171065000Y-102616000D01*
X171076947Y-102676060D01*
X171076803Y-102840775D01*
X171140258Y-102994346D01*
X171152310Y-103054938D01*
X171186333Y-103105857D01*
X171249233Y-103258086D01*
X171366628Y-103375686D01*
X171400949Y-103427051D01*
X171451866Y-103461073D01*
X171568235Y-103577645D01*
X171721695Y-103641367D01*
X171773062Y-103675690D01*
X171833124Y-103687637D01*
X171985244Y-103750803D01*
X172151410Y-103750948D01*
X172212000Y-103763000D01*
X172272060Y-103751053D01*
X172436775Y-103751197D01*
X172590346Y-103687742D01*
X172650938Y-103675690D01*
X172701857Y-103641667D01*
X172854086Y-103578767D01*
X172971686Y-103461372D01*
X173023051Y-103427051D01*
X173057073Y-103376134D01*
X173173645Y-103259765D01*
X173237367Y-103106305D01*
X173271690Y-103054938D01*
X173283637Y-102994876D01*
X173346803Y-102842756D01*
X173346948Y-102676590D01*
X173359000Y-102616000D01*
X173359000Y-99837762D01*
X173271690Y-99398824D01*
X173256376Y-99375905D01*
X173023051Y-99026710D01*
X172928662Y-98932321D01*
X173173645Y-98687765D01*
X173319682Y-98336071D01*
X173452775Y-98336187D01*
X173870086Y-98163757D01*
X174189645Y-97844755D01*
X174362803Y-97427746D01*
X174363197Y-96976215D01*
X174190767Y-96558904D01*
X173871765Y-96239345D01*
X173454756Y-96066187D01*
X173350342Y-96066096D01*
X173175628Y-95891382D01*
X173148806Y-95873460D01*
X172887216Y-95698671D01*
X172547010Y-95631000D01*
X164592000Y-95631000D01*
X164251794Y-95698671D01*
X163990204Y-95873460D01*
X163963382Y-95891382D01*
X162766190Y-97088574D01*
X162589359Y-97053400D01*
X162530641Y-97053400D01*
X161957152Y-97167474D01*
X161470971Y-97492330D01*
X161290000Y-97763172D01*
X161109029Y-97492330D01*
X160622848Y-97167474D01*
X160049359Y-97053400D01*
X159990641Y-97053400D01*
X159417152Y-97167474D01*
X158930971Y-97492330D01*
X158750000Y-97763172D01*
X158569029Y-97492330D01*
X158082848Y-97167474D01*
X157509359Y-97053400D01*
X157450641Y-97053400D01*
X156877152Y-97167474D01*
X156390971Y-97492330D01*
X156210000Y-97763172D01*
X156029029Y-97492330D01*
X155542848Y-97167474D01*
X154969359Y-97053400D01*
X154910641Y-97053400D01*
X154337152Y-97167474D01*
X153850971Y-97492330D01*
X153670000Y-97763172D01*
X153489029Y-97492330D01*
X153002848Y-97167474D01*
X152429359Y-97053400D01*
X152370641Y-97053400D01*
X151797152Y-97167474D01*
X151310971Y-97492330D01*
X150986115Y-97978511D01*
X150872041Y-98552000D01*
X150986115Y-99125489D01*
X151310971Y-99611670D01*
X151634228Y-99827664D01*
X151511510Y-99885179D01*
X151117312Y-100317053D01*
X151063108Y-100447922D01*
X146177000Y-95561814D01*
X146177000Y-82879184D01*
X146275828Y-82813149D01*
X146558000Y-82390850D01*
X146840172Y-82813149D01*
X147012887Y-82928554D01*
X146830683Y-82962838D01*
X146614559Y-83101910D01*
X146469569Y-83314110D01*
X146418560Y-83566000D01*
X146418560Y-85090000D01*
X146462838Y-85325317D01*
X146601910Y-85541441D01*
X146814110Y-85686431D01*
X147066000Y-85737440D01*
X148590000Y-85737440D01*
X148825317Y-85693162D01*
X149041441Y-85554090D01*
X149186431Y-85341890D01*
X149237440Y-85090000D01*
X149237440Y-83566000D01*
X149193162Y-83330683D01*
X149054090Y-83114559D01*
X148841890Y-82969569D01*
X148642238Y-82929138D01*
X148815828Y-82813149D01*
X149107330Y-82376887D01*
X149125941Y-82439941D01*
X149469974Y-82865630D01*
X149950723Y-83127260D01*
X150024930Y-83142220D01*
X150241000Y-83019720D01*
X150241000Y-81407000D01*
X150221000Y-81407000D01*
X150221000Y-81153000D01*
X150241000Y-81153000D01*
X150241000Y-81133000D01*
X150495000Y-81133000D01*
X150495000Y-81153000D01*
X150515000Y-81153000D01*
X150515000Y-81407000D01*
X150495000Y-81407000D01*
X150495000Y-83019720D01*
X150711070Y-83142220D01*
X150785277Y-83127260D01*
X151266026Y-82865630D01*
X151610059Y-82439941D01*
X151628670Y-82376887D01*
X151920172Y-82813149D01*
X152373391Y-83115981D01*
X152908000Y-83222321D01*
X153442609Y-83115981D01*
X153895828Y-82813149D01*
X154178000Y-82390850D01*
X154460172Y-82813149D01*
X154913391Y-83115981D01*
X155448000Y-83222321D01*
X155982609Y-83115981D01*
X156435828Y-82813149D01*
X156718000Y-82390850D01*
X157000172Y-82813149D01*
X157099000Y-82879184D01*
X157099000Y-82942457D01*
X156990683Y-82962838D01*
X156774559Y-83101910D01*
X156629569Y-83314110D01*
X156578560Y-83566000D01*
X156578560Y-85090000D01*
X156622838Y-85325317D01*
X156761910Y-85541441D01*
X156974110Y-85686431D01*
X157226000Y-85737440D01*
X158750000Y-85737440D01*
X158985317Y-85693162D01*
X159201441Y-85554090D01*
X159346431Y-85341890D01*
X159397440Y-85090000D01*
X159397440Y-83566000D01*
X159353162Y-83330683D01*
X159214090Y-83114559D01*
X159001890Y-82969569D01*
X158877000Y-82944278D01*
X158877000Y-82879184D01*
X158975828Y-82813149D01*
X159258000Y-82390850D01*
X159540172Y-82813149D01*
X159993391Y-83115981D01*
X160528000Y-83222321D01*
X161062609Y-83115981D01*
X161515828Y-82813149D01*
X161798000Y-82390850D01*
X162080172Y-82813149D01*
X162533391Y-83115981D01*
X163068000Y-83222321D01*
X163602609Y-83115981D01*
X164055828Y-82813149D01*
X164338000Y-82390850D01*
X164620172Y-82813149D01*
X165073391Y-83115981D01*
X165608000Y-83222321D01*
X166142609Y-83115981D01*
X166595828Y-82813149D01*
X166898660Y-82359930D01*
X167005000Y-81825321D01*
X167005000Y-80734679D01*
X166898660Y-80200070D01*
X166595828Y-79746851D01*
X166188975Y-79475000D01*
X169091025Y-79475000D01*
X168684172Y-79746851D01*
X168684172Y-79746851D01*
G37*
X168684172Y-79746851D02*
X168381340Y-80200070D01*
X168275000Y-80734679D01*
X168275000Y-81825321D01*
X168381340Y-82359930D01*
X168684172Y-82813149D01*
X168841930Y-82918560D01*
X167386000Y-82918560D01*
X167150683Y-82962838D01*
X166934559Y-83101910D01*
X166789569Y-83314110D01*
X166738560Y-83566000D01*
X166738560Y-85090000D01*
X166782838Y-85325317D01*
X166921910Y-85541441D01*
X167134110Y-85686431D01*
X167386000Y-85737440D01*
X168910000Y-85737440D01*
X169145317Y-85693162D01*
X169361441Y-85554090D01*
X169506431Y-85341890D01*
X169531722Y-85217000D01*
X172212000Y-85217000D01*
X172552206Y-85149329D01*
X172840618Y-84956618D01*
X174604295Y-83192941D01*
X174627285Y-83197514D01*
X174438671Y-83479794D01*
X174371000Y-83820000D01*
X174371000Y-85375761D01*
X174309498Y-85437156D01*
X174136340Y-85854165D01*
X174135999Y-86245000D01*
X151216654Y-86245000D01*
X150777716Y-86332310D01*
X150405602Y-86580949D01*
X146941276Y-90045276D01*
X146907254Y-90096193D01*
X146790682Y-90212562D01*
X146726960Y-90366022D01*
X146692637Y-90417389D01*
X146680690Y-90477451D01*
X146617524Y-90629571D01*
X146617379Y-90795742D01*
X146605328Y-90856327D01*
X146617274Y-90916383D01*
X146617130Y-91081102D01*
X146680585Y-91234674D01*
X146692637Y-91295265D01*
X146726660Y-91346184D01*
X146789560Y-91498413D01*
X146906955Y-91616013D01*
X146941276Y-91667378D01*
X146992193Y-91701400D01*
X147108562Y-91817972D01*
X147262022Y-91881694D01*
X147313389Y-91916017D01*
X147373451Y-91927964D01*
X147525571Y-91991130D01*
X147691742Y-91991275D01*
X147752327Y-92003326D01*
X147812383Y-91991380D01*
X147977102Y-91991524D01*
X148130674Y-91928069D01*
X148191265Y-91916017D01*
X148242184Y-91881994D01*
X148394413Y-91819094D01*
X148512013Y-91701699D01*
X148563378Y-91667378D01*
X151691757Y-88539000D01*
X174180940Y-88539000D01*
X174125197Y-88673244D01*
X174124803Y-89124775D01*
X174297233Y-89542086D01*
X174616235Y-89861645D01*
X175033244Y-90034803D01*
X175137658Y-90034894D01*
X176403000Y-91300236D01*
X176403000Y-100076000D01*
X176465274Y-100389071D01*
X176342756Y-100338197D01*
X175891225Y-100337803D01*
X175473914Y-100510233D01*
X175154355Y-100829235D01*
X174981197Y-101246244D01*
X174980803Y-101697775D01*
X175153233Y-102115086D01*
X175472235Y-102434645D01*
X175889244Y-102607803D01*
X176340775Y-102608197D01*
X176758086Y-102435767D01*
X176831982Y-102362000D01*
X176923764Y-102362000D01*
X177546000Y-102984236D01*
X177546000Y-105676764D01*
X174891764Y-108331000D01*
X171653285Y-108331000D01*
X171713367Y-108186305D01*
X171747690Y-108134938D01*
X171759637Y-108074876D01*
X171822803Y-107922756D01*
X171822948Y-107756590D01*
X171835000Y-107696000D01*
X171823053Y-107635940D01*
X171823197Y-107471225D01*
X171759742Y-107317654D01*
X171747690Y-107257062D01*
X171713667Y-107206143D01*
X171650767Y-107053914D01*
X171533372Y-106936314D01*
X171499051Y-106884949D01*
X171448134Y-106850927D01*
X171331765Y-106734355D01*
X171178305Y-106670633D01*
X171126938Y-106636310D01*
X171066876Y-106624363D01*
X170914756Y-106561197D01*
X170748590Y-106561052D01*
X170688000Y-106549000D01*
X170302025Y-106549000D01*
X170327327Y-106523698D01*
X170424000Y-106290309D01*
X170424000Y-105949750D01*
X170265250Y-105791000D01*
X169291000Y-105791000D01*
X169291000Y-105811000D01*
X169037000Y-105811000D01*
X169037000Y-105791000D01*
X168062750Y-105791000D01*
X167921440Y-105932310D01*
X167921440Y-105822000D01*
X167877162Y-105586683D01*
X167738090Y-105370559D01*
X167525890Y-105225569D01*
X167274000Y-105174560D01*
X165974000Y-105174560D01*
X165750090Y-105216692D01*
X165743765Y-105210355D01*
X165327946Y-105037691D01*
X167904000Y-105037691D01*
X167904000Y-105378250D01*
X168062750Y-105537000D01*
X169037000Y-105537000D01*
X169037000Y-104687750D01*
X169291000Y-104687750D01*
X169291000Y-105537000D01*
X170265250Y-105537000D01*
X170424000Y-105378250D01*
X170424000Y-105037691D01*
X170327327Y-104804302D01*
X170148699Y-104625673D01*
X169915310Y-104529000D01*
X169449750Y-104529000D01*
X169291000Y-104687750D01*
X169037000Y-104687750D01*
X168878250Y-104529000D01*
X168412690Y-104529000D01*
X168179301Y-104625673D01*
X168000673Y-104804302D01*
X167904000Y-105037691D01*
X165327946Y-105037691D01*
X165326756Y-105037197D01*
X164875225Y-105036803D01*
X164457914Y-105209233D01*
X164384018Y-105283000D01*
X157831532Y-105283000D01*
X157633473Y-105150661D01*
X157293267Y-105082990D01*
X155698176Y-105082990D01*
X153033510Y-102418324D01*
X153288490Y-102298821D01*
X153670008Y-101880839D01*
X153850971Y-102151670D01*
X154337152Y-102476526D01*
X154910641Y-102590600D01*
X154969359Y-102590600D01*
X155542848Y-102476526D01*
X156029029Y-102151670D01*
X156210000Y-101880828D01*
X156390971Y-102151670D01*
X156877152Y-102476526D01*
X157450641Y-102590600D01*
X157509359Y-102590600D01*
X158082848Y-102476526D01*
X158569029Y-102151670D01*
X158750000Y-101880828D01*
X158930971Y-102151670D01*
X159417152Y-102476526D01*
X159990641Y-102590600D01*
X160049359Y-102590600D01*
X160622848Y-102476526D01*
X161109029Y-102151670D01*
X161290000Y-101880828D01*
X161470971Y-102151670D01*
X161957152Y-102476526D01*
X162530641Y-102590600D01*
X162589359Y-102590600D01*
X163162848Y-102476526D01*
X163649029Y-102151670D01*
X163830000Y-101880828D01*
X164010971Y-102151670D01*
X164497152Y-102476526D01*
X165070641Y-102590600D01*
X165129359Y-102590600D01*
X165702848Y-102476526D01*
X166189029Y-102151670D01*
X166370000Y-101880828D01*
X166550971Y-102151670D01*
X167037152Y-102476526D01*
X167610641Y-102590600D01*
X167669359Y-102590600D01*
X168242848Y-102476526D01*
X168708442Y-102165426D01*
X168713238Y-102190917D01*
X168852310Y-102407041D01*
X169064510Y-102552031D01*
X169316400Y-102603040D01*
X171043600Y-102603040D01*
X171065000Y-102599013D01*
X171065000Y-102616000D01*
X171076947Y-102676060D01*
X171076803Y-102840775D01*
X171140258Y-102994346D01*
X171152310Y-103054938D01*
X171186333Y-103105857D01*
X171249233Y-103258086D01*
X171366628Y-103375686D01*
X171400949Y-103427051D01*
X171451866Y-103461073D01*
X171568235Y-103577645D01*
X171721695Y-103641367D01*
X171773062Y-103675690D01*
X171833124Y-103687637D01*
X171985244Y-103750803D01*
X172151410Y-103750948D01*
X172212000Y-103763000D01*
X172272060Y-103751053D01*
X172436775Y-103751197D01*
X172590346Y-103687742D01*
X172650938Y-103675690D01*
X172701857Y-103641667D01*
X172854086Y-103578767D01*
X172971686Y-103461372D01*
X173023051Y-103427051D01*
X173057073Y-103376134D01*
X173173645Y-103259765D01*
X173237367Y-103106305D01*
X173271690Y-103054938D01*
X173283637Y-102994876D01*
X173346803Y-102842756D01*
X173346948Y-102676590D01*
X173359000Y-102616000D01*
X173359000Y-99837762D01*
X173271690Y-99398824D01*
X173256376Y-99375905D01*
X173023051Y-99026710D01*
X172928662Y-98932321D01*
X173173645Y-98687765D01*
X173319682Y-98336071D01*
X173452775Y-98336187D01*
X173870086Y-98163757D01*
X174189645Y-97844755D01*
X174362803Y-97427746D01*
X174363197Y-96976215D01*
X174190767Y-96558904D01*
X173871765Y-96239345D01*
X173454756Y-96066187D01*
X173350342Y-96066096D01*
X173175628Y-95891382D01*
X173148806Y-95873460D01*
X172887216Y-95698671D01*
X172547010Y-95631000D01*
X164592000Y-95631000D01*
X164251794Y-95698671D01*
X163990204Y-95873460D01*
X163963382Y-95891382D01*
X162766190Y-97088574D01*
X162589359Y-97053400D01*
X162530641Y-97053400D01*
X161957152Y-97167474D01*
X161470971Y-97492330D01*
X161290000Y-97763172D01*
X161109029Y-97492330D01*
X160622848Y-97167474D01*
X160049359Y-97053400D01*
X159990641Y-97053400D01*
X159417152Y-97167474D01*
X158930971Y-97492330D01*
X158750000Y-97763172D01*
X158569029Y-97492330D01*
X158082848Y-97167474D01*
X157509359Y-97053400D01*
X157450641Y-97053400D01*
X156877152Y-97167474D01*
X156390971Y-97492330D01*
X156210000Y-97763172D01*
X156029029Y-97492330D01*
X155542848Y-97167474D01*
X154969359Y-97053400D01*
X154910641Y-97053400D01*
X154337152Y-97167474D01*
X153850971Y-97492330D01*
X153670000Y-97763172D01*
X153489029Y-97492330D01*
X153002848Y-97167474D01*
X152429359Y-97053400D01*
X152370641Y-97053400D01*
X151797152Y-97167474D01*
X151310971Y-97492330D01*
X150986115Y-97978511D01*
X150872041Y-98552000D01*
X150986115Y-99125489D01*
X151310971Y-99611670D01*
X151634228Y-99827664D01*
X151511510Y-99885179D01*
X151117312Y-100317053D01*
X151063108Y-100447922D01*
X146177000Y-95561814D01*
X146177000Y-82879184D01*
X146275828Y-82813149D01*
X146558000Y-82390850D01*
X146840172Y-82813149D01*
X147012887Y-82928554D01*
X146830683Y-82962838D01*
X146614559Y-83101910D01*
X146469569Y-83314110D01*
X146418560Y-83566000D01*
X146418560Y-85090000D01*
X146462838Y-85325317D01*
X146601910Y-85541441D01*
X146814110Y-85686431D01*
X147066000Y-85737440D01*
X148590000Y-85737440D01*
X148825317Y-85693162D01*
X149041441Y-85554090D01*
X149186431Y-85341890D01*
X149237440Y-85090000D01*
X149237440Y-83566000D01*
X149193162Y-83330683D01*
X149054090Y-83114559D01*
X148841890Y-82969569D01*
X148642238Y-82929138D01*
X148815828Y-82813149D01*
X149107330Y-82376887D01*
X149125941Y-82439941D01*
X149469974Y-82865630D01*
X149950723Y-83127260D01*
X150024930Y-83142220D01*
X150241000Y-83019720D01*
X150241000Y-81407000D01*
X150221000Y-81407000D01*
X150221000Y-81153000D01*
X150241000Y-81153000D01*
X150241000Y-81133000D01*
X150495000Y-81133000D01*
X150495000Y-81153000D01*
X150515000Y-81153000D01*
X150515000Y-81407000D01*
X150495000Y-81407000D01*
X150495000Y-83019720D01*
X150711070Y-83142220D01*
X150785277Y-83127260D01*
X151266026Y-82865630D01*
X151610059Y-82439941D01*
X151628670Y-82376887D01*
X151920172Y-82813149D01*
X152373391Y-83115981D01*
X152908000Y-83222321D01*
X153442609Y-83115981D01*
X153895828Y-82813149D01*
X154178000Y-82390850D01*
X154460172Y-82813149D01*
X154913391Y-83115981D01*
X155448000Y-83222321D01*
X155982609Y-83115981D01*
X156435828Y-82813149D01*
X156718000Y-82390850D01*
X157000172Y-82813149D01*
X157099000Y-82879184D01*
X157099000Y-82942457D01*
X156990683Y-82962838D01*
X156774559Y-83101910D01*
X156629569Y-83314110D01*
X156578560Y-83566000D01*
X156578560Y-85090000D01*
X156622838Y-85325317D01*
X156761910Y-85541441D01*
X156974110Y-85686431D01*
X157226000Y-85737440D01*
X158750000Y-85737440D01*
X158985317Y-85693162D01*
X159201441Y-85554090D01*
X159346431Y-85341890D01*
X159397440Y-85090000D01*
X159397440Y-83566000D01*
X159353162Y-83330683D01*
X159214090Y-83114559D01*
X159001890Y-82969569D01*
X158877000Y-82944278D01*
X158877000Y-82879184D01*
X158975828Y-82813149D01*
X159258000Y-82390850D01*
X159540172Y-82813149D01*
X159993391Y-83115981D01*
X160528000Y-83222321D01*
X161062609Y-83115981D01*
X161515828Y-82813149D01*
X161798000Y-82390850D01*
X162080172Y-82813149D01*
X162533391Y-83115981D01*
X163068000Y-83222321D01*
X163602609Y-83115981D01*
X164055828Y-82813149D01*
X164338000Y-82390850D01*
X164620172Y-82813149D01*
X165073391Y-83115981D01*
X165608000Y-83222321D01*
X166142609Y-83115981D01*
X166595828Y-82813149D01*
X166898660Y-82359930D01*
X167005000Y-81825321D01*
X167005000Y-80734679D01*
X166898660Y-80200070D01*
X166595828Y-79746851D01*
X166188975Y-79475000D01*
X169091025Y-79475000D01*
X168684172Y-79746851D01*
G36*
X152527000Y-100965000D02*
X152547000Y-100965000D01*
X152547000Y-101219000D01*
X152527000Y-101219000D01*
X152527000Y-101239000D01*
X152273000Y-101239000D01*
X152273000Y-101219000D01*
X152253000Y-101219000D01*
X152253000Y-100965000D01*
X152273000Y-100965000D01*
X152273000Y-100945000D01*
X152527000Y-100945000D01*
X152527000Y-100965000D01*
X152527000Y-100965000D01*
G37*
X152527000Y-100965000D02*
X152547000Y-100965000D01*
X152547000Y-101219000D01*
X152527000Y-101219000D01*
X152527000Y-101239000D01*
X152273000Y-101239000D01*
X152273000Y-101219000D01*
X152253000Y-101219000D01*
X152253000Y-100965000D01*
X152273000Y-100965000D01*
X152273000Y-100945000D01*
X152527000Y-100945000D01*
X152527000Y-100965000D01*
G36*
X214315748Y-81265858D02*
X214301605Y-81280000D01*
X214315748Y-81294143D01*
X214136143Y-81473748D01*
X214122000Y-81459605D01*
X212449323Y-83132282D01*
X212623055Y-83426560D01*
X212090000Y-83426560D01*
X211854683Y-83470838D01*
X211638559Y-83609910D01*
X211584519Y-83689000D01*
X211580844Y-83689000D01*
X211538090Y-83622559D01*
X211325890Y-83477569D01*
X211074000Y-83426560D01*
X209550000Y-83426560D01*
X209314683Y-83470838D01*
X209098559Y-83609910D01*
X209004964Y-83746890D01*
X208857062Y-83776310D01*
X208484949Y-84024948D01*
X205136957Y-87372941D01*
X204888318Y-87745054D01*
X204801008Y-88183992D01*
X204801008Y-88423899D01*
X204755900Y-88469008D01*
X203827000Y-88469008D01*
X203827000Y-88169750D01*
X203668250Y-88011000D01*
X202819000Y-88011000D01*
X202819000Y-88031000D01*
X202565000Y-88031000D01*
X202565000Y-88011000D01*
X202545000Y-88011000D01*
X202545000Y-87757000D01*
X202565000Y-87757000D01*
X202565000Y-86782750D01*
X202819000Y-86782750D01*
X202819000Y-87757000D01*
X203668250Y-87757000D01*
X203827000Y-87598250D01*
X203827000Y-87132690D01*
X203730327Y-86899301D01*
X203551698Y-86720673D01*
X203318309Y-86624000D01*
X202977750Y-86624000D01*
X202819000Y-86782750D01*
X202565000Y-86782750D01*
X202406250Y-86624000D01*
X202065691Y-86624000D01*
X201832302Y-86720673D01*
X201691064Y-86861910D01*
X201656090Y-86807559D01*
X201443890Y-86662569D01*
X201192000Y-86611560D01*
X200192000Y-86611560D01*
X199956683Y-86655838D01*
X199740559Y-86794910D01*
X199595569Y-87007110D01*
X199544560Y-87259000D01*
X199544560Y-87409337D01*
X198832949Y-88120949D01*
X198584310Y-88493062D01*
X198497000Y-88932000D01*
X198497000Y-92554897D01*
X197882949Y-93168949D01*
X197848927Y-93219866D01*
X197732355Y-93336235D01*
X197668633Y-93489695D01*
X197634310Y-93541062D01*
X197622363Y-93601124D01*
X197559197Y-93753244D01*
X197559068Y-93900656D01*
X196252606Y-92594194D01*
X196380905Y-92594306D01*
X196798216Y-92421876D01*
X197117775Y-92102874D01*
X197290933Y-91685865D01*
X197291327Y-91234334D01*
X197118897Y-90817023D01*
X197045130Y-90743127D01*
X197045130Y-86116140D01*
X196977459Y-85775934D01*
X196784748Y-85487522D01*
X196207107Y-84909881D01*
X196207197Y-84807235D01*
X196034767Y-84389924D01*
X195715765Y-84070365D01*
X195298756Y-83897207D01*
X194847225Y-83896813D01*
X194429914Y-84069243D01*
X194110355Y-84388245D01*
X193937197Y-84805254D01*
X193936803Y-85256785D01*
X194109233Y-85674096D01*
X194428235Y-85993655D01*
X194845244Y-86166813D01*
X194949658Y-86166904D01*
X195267130Y-86484376D01*
X195267130Y-90742826D01*
X195194485Y-90815344D01*
X195021327Y-91232353D01*
X195021213Y-91362801D01*
X194255361Y-90596949D01*
X194192326Y-90554830D01*
X194129090Y-90456559D01*
X194060994Y-90410031D01*
X194203327Y-90267698D01*
X194300000Y-90034309D01*
X194300000Y-89693750D01*
X194141250Y-89535000D01*
X193167000Y-89535000D01*
X193167000Y-89555000D01*
X192913000Y-89555000D01*
X192913000Y-89535000D01*
X190627000Y-89535000D01*
X190627000Y-89555000D01*
X190373000Y-89555000D01*
X190373000Y-89535000D01*
X189013783Y-89535000D01*
X188892642Y-89767026D01*
X188895291Y-89782791D01*
X189149268Y-90310036D01*
X189324845Y-90466907D01*
X189248683Y-90481238D01*
X189032559Y-90620310D01*
X188887569Y-90832510D01*
X188836560Y-91084400D01*
X188836560Y-92811600D01*
X188880838Y-93046917D01*
X189019910Y-93263041D01*
X189183250Y-93374647D01*
X185681823Y-96876075D01*
X185550770Y-96558904D01*
X185477003Y-96485008D01*
X185477003Y-91820243D01*
X185542129Y-91755117D01*
X185644775Y-91755207D01*
X186062086Y-91582777D01*
X186381645Y-91263775D01*
X186554803Y-90846766D01*
X186555197Y-90395235D01*
X186382767Y-89977924D01*
X186063765Y-89658365D01*
X185646756Y-89485207D01*
X185195225Y-89484813D01*
X184777914Y-89657243D01*
X184458355Y-89976245D01*
X184404080Y-90106952D01*
X184350767Y-89977924D01*
X184140000Y-89766789D01*
X184140000Y-89677750D01*
X183981250Y-89519000D01*
X183696138Y-89519000D01*
X183614756Y-89485207D01*
X183163225Y-89484813D01*
X183080486Y-89519000D01*
X183007000Y-89519000D01*
X183007000Y-89539000D01*
X182753000Y-89539000D01*
X182753000Y-89519000D01*
X181778750Y-89519000D01*
X181620000Y-89677750D01*
X181620000Y-90018309D01*
X181716673Y-90251698D01*
X181895301Y-90430327D01*
X182128690Y-90527000D01*
X182253080Y-90527000D01*
X182252803Y-90844785D01*
X182425233Y-91262096D01*
X182499000Y-91335992D01*
X182499000Y-96484707D01*
X182426355Y-96557225D01*
X182253197Y-96974234D01*
X182252803Y-97425765D01*
X182425233Y-97843076D01*
X182744235Y-98162635D01*
X183161244Y-98335793D01*
X183612775Y-98336187D01*
X183988410Y-98180977D01*
X184357675Y-98334310D01*
X184316478Y-98541419D01*
X183084949Y-99772949D01*
X183050927Y-99823866D01*
X183015129Y-99859602D01*
X182870062Y-99762671D01*
X182529856Y-99695000D01*
X180340000Y-99695000D01*
X179999794Y-99762671D01*
X179953034Y-99793915D01*
X179945354Y-99775327D01*
X179626352Y-99455768D01*
X179209343Y-99282610D01*
X179104929Y-99282519D01*
X178889010Y-99066600D01*
X178889010Y-90592226D01*
X179370918Y-90110318D01*
X179376235Y-90115645D01*
X179793244Y-90288803D01*
X180244775Y-90289197D01*
X180662086Y-90116767D01*
X180981645Y-89797765D01*
X181154803Y-89380756D01*
X181155197Y-88929225D01*
X180993959Y-88539000D01*
X181713899Y-88539000D01*
X181620000Y-88765691D01*
X181620000Y-89106250D01*
X181778750Y-89265000D01*
X182753000Y-89265000D01*
X182753000Y-89245000D01*
X183007000Y-89245000D01*
X183007000Y-89265000D01*
X183981250Y-89265000D01*
X184140000Y-89106250D01*
X184140000Y-88765691D01*
X184046101Y-88539000D01*
X184642000Y-88539000D01*
X185080938Y-88451690D01*
X185453051Y-88203051D01*
X186231051Y-87425052D01*
X186265074Y-87374132D01*
X186381645Y-87257765D01*
X186445367Y-87104306D01*
X186479690Y-87052938D01*
X186491637Y-86992876D01*
X186554803Y-86840756D01*
X186554948Y-86674585D01*
X186566999Y-86614000D01*
X186555053Y-86553944D01*
X186555197Y-86389225D01*
X186491742Y-86235653D01*
X186479690Y-86175062D01*
X186445667Y-86124143D01*
X186382767Y-85971914D01*
X186265372Y-85854314D01*
X186231051Y-85802949D01*
X186180134Y-85768927D01*
X186063765Y-85652355D01*
X186008436Y-85629380D01*
X186125441Y-85554090D01*
X186181374Y-85472230D01*
X186225910Y-85541441D01*
X186438110Y-85686431D01*
X186690000Y-85737440D01*
X188178196Y-85737440D01*
X188208661Y-85890596D01*
X188381929Y-86149910D01*
X188401372Y-86179008D01*
X188862066Y-86639702D01*
X188816655Y-86868000D01*
X188930729Y-87441489D01*
X189255585Y-87927670D01*
X189565069Y-88134461D01*
X189149268Y-88505964D01*
X188895291Y-89033209D01*
X188892642Y-89048974D01*
X189013783Y-89281000D01*
X190373000Y-89281000D01*
X190373000Y-89261000D01*
X190627000Y-89261000D01*
X190627000Y-89281000D01*
X192913000Y-89281000D01*
X192913000Y-88431750D01*
X193167000Y-88431750D01*
X193167000Y-89281000D01*
X194141250Y-89281000D01*
X194300000Y-89122250D01*
X194300000Y-88781691D01*
X194203327Y-88548302D01*
X194024699Y-88369673D01*
X193791310Y-88273000D01*
X193325750Y-88273000D01*
X193167000Y-88431750D01*
X192913000Y-88431750D01*
X192754250Y-88273000D01*
X192288690Y-88273000D01*
X192055301Y-88369673D01*
X191876673Y-88548302D01*
X191874109Y-88554493D01*
X191850732Y-88505964D01*
X191434931Y-88134461D01*
X191744415Y-87927670D01*
X192069271Y-87441489D01*
X192183345Y-86868000D01*
X192069271Y-86294511D01*
X191744415Y-85808330D01*
X191429634Y-85598000D01*
X191744415Y-85387670D01*
X191858453Y-85217000D01*
X192024000Y-85217000D01*
X192364206Y-85149329D01*
X192652618Y-84956618D01*
X194510933Y-83098303D01*
X194537391Y-83115981D01*
X195072000Y-83222321D01*
X195606609Y-83115981D01*
X196059828Y-82813149D01*
X196342000Y-82390850D01*
X196624172Y-82813149D01*
X197077391Y-83115981D01*
X197612000Y-83222321D01*
X198146609Y-83115981D01*
X198599828Y-82813149D01*
X198882000Y-82390850D01*
X199164172Y-82813149D01*
X199617391Y-83115981D01*
X200152000Y-83222321D01*
X200686609Y-83115981D01*
X201139828Y-82813149D01*
X201422000Y-82390850D01*
X201704172Y-82813149D01*
X201803000Y-82879184D01*
X201803000Y-82942457D01*
X201694683Y-82962838D01*
X201478559Y-83101910D01*
X201333569Y-83314110D01*
X201282560Y-83566000D01*
X201282560Y-85090000D01*
X201326838Y-85325317D01*
X201465910Y-85541441D01*
X201678110Y-85686431D01*
X201930000Y-85737440D01*
X203454000Y-85737440D01*
X203689317Y-85693162D01*
X203905441Y-85554090D01*
X203961374Y-85472230D01*
X204005910Y-85541441D01*
X204218110Y-85686431D01*
X204470000Y-85737440D01*
X205994000Y-85737440D01*
X206229317Y-85693162D01*
X206445441Y-85554090D01*
X206590431Y-85341890D01*
X206641440Y-85090000D01*
X206641440Y-83566000D01*
X206597162Y-83330683D01*
X206458090Y-83114559D01*
X206245890Y-82969569D01*
X206121000Y-82944278D01*
X206121000Y-82879184D01*
X206219828Y-82813149D01*
X206502000Y-82390850D01*
X206784172Y-82813149D01*
X207237391Y-83115981D01*
X207772000Y-83222321D01*
X208306609Y-83115981D01*
X208759828Y-82813149D01*
X209042000Y-82390850D01*
X209324172Y-82813149D01*
X209777391Y-83115981D01*
X210312000Y-83222321D01*
X210846609Y-83115981D01*
X211299828Y-82813149D01*
X211602660Y-82359930D01*
X211649358Y-82125163D01*
X211902270Y-82735748D01*
X212269718Y-82952677D01*
X213942395Y-81280000D01*
X213928253Y-81265858D01*
X214107858Y-81086253D01*
X214122000Y-81100395D01*
X214136143Y-81086253D01*
X214315748Y-81265858D01*
X214315748Y-81265858D01*
G37*
X214315748Y-81265858D02*
X214301605Y-81280000D01*
X214315748Y-81294143D01*
X214136143Y-81473748D01*
X214122000Y-81459605D01*
X212449323Y-83132282D01*
X212623055Y-83426560D01*
X212090000Y-83426560D01*
X211854683Y-83470838D01*
X211638559Y-83609910D01*
X211584519Y-83689000D01*
X211580844Y-83689000D01*
X211538090Y-83622559D01*
X211325890Y-83477569D01*
X211074000Y-83426560D01*
X209550000Y-83426560D01*
X209314683Y-83470838D01*
X209098559Y-83609910D01*
X209004964Y-83746890D01*
X208857062Y-83776310D01*
X208484949Y-84024948D01*
X205136957Y-87372941D01*
X204888318Y-87745054D01*
X204801008Y-88183992D01*
X204801008Y-88423899D01*
X204755900Y-88469008D01*
X203827000Y-88469008D01*
X203827000Y-88169750D01*
X203668250Y-88011000D01*
X202819000Y-88011000D01*
X202819000Y-88031000D01*
X202565000Y-88031000D01*
X202565000Y-88011000D01*
X202545000Y-88011000D01*
X202545000Y-87757000D01*
X202565000Y-87757000D01*
X202565000Y-86782750D01*
X202819000Y-86782750D01*
X202819000Y-87757000D01*
X203668250Y-87757000D01*
X203827000Y-87598250D01*
X203827000Y-87132690D01*
X203730327Y-86899301D01*
X203551698Y-86720673D01*
X203318309Y-86624000D01*
X202977750Y-86624000D01*
X202819000Y-86782750D01*
X202565000Y-86782750D01*
X202406250Y-86624000D01*
X202065691Y-86624000D01*
X201832302Y-86720673D01*
X201691064Y-86861910D01*
X201656090Y-86807559D01*
X201443890Y-86662569D01*
X201192000Y-86611560D01*
X200192000Y-86611560D01*
X199956683Y-86655838D01*
X199740559Y-86794910D01*
X199595569Y-87007110D01*
X199544560Y-87259000D01*
X199544560Y-87409337D01*
X198832949Y-88120949D01*
X198584310Y-88493062D01*
X198497000Y-88932000D01*
X198497000Y-92554897D01*
X197882949Y-93168949D01*
X197848927Y-93219866D01*
X197732355Y-93336235D01*
X197668633Y-93489695D01*
X197634310Y-93541062D01*
X197622363Y-93601124D01*
X197559197Y-93753244D01*
X197559068Y-93900656D01*
X196252606Y-92594194D01*
X196380905Y-92594306D01*
X196798216Y-92421876D01*
X197117775Y-92102874D01*
X197290933Y-91685865D01*
X197291327Y-91234334D01*
X197118897Y-90817023D01*
X197045130Y-90743127D01*
X197045130Y-86116140D01*
X196977459Y-85775934D01*
X196784748Y-85487522D01*
X196207107Y-84909881D01*
X196207197Y-84807235D01*
X196034767Y-84389924D01*
X195715765Y-84070365D01*
X195298756Y-83897207D01*
X194847225Y-83896813D01*
X194429914Y-84069243D01*
X194110355Y-84388245D01*
X193937197Y-84805254D01*
X193936803Y-85256785D01*
X194109233Y-85674096D01*
X194428235Y-85993655D01*
X194845244Y-86166813D01*
X194949658Y-86166904D01*
X195267130Y-86484376D01*
X195267130Y-90742826D01*
X195194485Y-90815344D01*
X195021327Y-91232353D01*
X195021213Y-91362801D01*
X194255361Y-90596949D01*
X194192326Y-90554830D01*
X194129090Y-90456559D01*
X194060994Y-90410031D01*
X194203327Y-90267698D01*
X194300000Y-90034309D01*
X194300000Y-89693750D01*
X194141250Y-89535000D01*
X193167000Y-89535000D01*
X193167000Y-89555000D01*
X192913000Y-89555000D01*
X192913000Y-89535000D01*
X190627000Y-89535000D01*
X190627000Y-89555000D01*
X190373000Y-89555000D01*
X190373000Y-89535000D01*
X189013783Y-89535000D01*
X188892642Y-89767026D01*
X188895291Y-89782791D01*
X189149268Y-90310036D01*
X189324845Y-90466907D01*
X189248683Y-90481238D01*
X189032559Y-90620310D01*
X188887569Y-90832510D01*
X188836560Y-91084400D01*
X188836560Y-92811600D01*
X188880838Y-93046917D01*
X189019910Y-93263041D01*
X189183250Y-93374647D01*
X185681823Y-96876075D01*
X185550770Y-96558904D01*
X185477003Y-96485008D01*
X185477003Y-91820243D01*
X185542129Y-91755117D01*
X185644775Y-91755207D01*
X186062086Y-91582777D01*
X186381645Y-91263775D01*
X186554803Y-90846766D01*
X186555197Y-90395235D01*
X186382767Y-89977924D01*
X186063765Y-89658365D01*
X185646756Y-89485207D01*
X185195225Y-89484813D01*
X184777914Y-89657243D01*
X184458355Y-89976245D01*
X184404080Y-90106952D01*
X184350767Y-89977924D01*
X184140000Y-89766789D01*
X184140000Y-89677750D01*
X183981250Y-89519000D01*
X183696138Y-89519000D01*
X183614756Y-89485207D01*
X183163225Y-89484813D01*
X183080486Y-89519000D01*
X183007000Y-89519000D01*
X183007000Y-89539000D01*
X182753000Y-89539000D01*
X182753000Y-89519000D01*
X181778750Y-89519000D01*
X181620000Y-89677750D01*
X181620000Y-90018309D01*
X181716673Y-90251698D01*
X181895301Y-90430327D01*
X182128690Y-90527000D01*
X182253080Y-90527000D01*
X182252803Y-90844785D01*
X182425233Y-91262096D01*
X182499000Y-91335992D01*
X182499000Y-96484707D01*
X182426355Y-96557225D01*
X182253197Y-96974234D01*
X182252803Y-97425765D01*
X182425233Y-97843076D01*
X182744235Y-98162635D01*
X183161244Y-98335793D01*
X183612775Y-98336187D01*
X183988410Y-98180977D01*
X184357675Y-98334310D01*
X184316478Y-98541419D01*
X183084949Y-99772949D01*
X183050927Y-99823866D01*
X183015129Y-99859602D01*
X182870062Y-99762671D01*
X182529856Y-99695000D01*
X180340000Y-99695000D01*
X179999794Y-99762671D01*
X179953034Y-99793915D01*
X179945354Y-99775327D01*
X179626352Y-99455768D01*
X179209343Y-99282610D01*
X179104929Y-99282519D01*
X178889010Y-99066600D01*
X178889010Y-90592226D01*
X179370918Y-90110318D01*
X179376235Y-90115645D01*
X179793244Y-90288803D01*
X180244775Y-90289197D01*
X180662086Y-90116767D01*
X180981645Y-89797765D01*
X181154803Y-89380756D01*
X181155197Y-88929225D01*
X180993959Y-88539000D01*
X181713899Y-88539000D01*
X181620000Y-88765691D01*
X181620000Y-89106250D01*
X181778750Y-89265000D01*
X182753000Y-89265000D01*
X182753000Y-89245000D01*
X183007000Y-89245000D01*
X183007000Y-89265000D01*
X183981250Y-89265000D01*
X184140000Y-89106250D01*
X184140000Y-88765691D01*
X184046101Y-88539000D01*
X184642000Y-88539000D01*
X185080938Y-88451690D01*
X185453051Y-88203051D01*
X186231051Y-87425052D01*
X186265074Y-87374132D01*
X186381645Y-87257765D01*
X186445367Y-87104306D01*
X186479690Y-87052938D01*
X186491637Y-86992876D01*
X186554803Y-86840756D01*
X186554948Y-86674585D01*
X186566999Y-86614000D01*
X186555053Y-86553944D01*
X186555197Y-86389225D01*
X186491742Y-86235653D01*
X186479690Y-86175062D01*
X186445667Y-86124143D01*
X186382767Y-85971914D01*
X186265372Y-85854314D01*
X186231051Y-85802949D01*
X186180134Y-85768927D01*
X186063765Y-85652355D01*
X186008436Y-85629380D01*
X186125441Y-85554090D01*
X186181374Y-85472230D01*
X186225910Y-85541441D01*
X186438110Y-85686431D01*
X186690000Y-85737440D01*
X188178196Y-85737440D01*
X188208661Y-85890596D01*
X188381929Y-86149910D01*
X188401372Y-86179008D01*
X188862066Y-86639702D01*
X188816655Y-86868000D01*
X188930729Y-87441489D01*
X189255585Y-87927670D01*
X189565069Y-88134461D01*
X189149268Y-88505964D01*
X188895291Y-89033209D01*
X188892642Y-89048974D01*
X189013783Y-89281000D01*
X190373000Y-89281000D01*
X190373000Y-89261000D01*
X190627000Y-89261000D01*
X190627000Y-89281000D01*
X192913000Y-89281000D01*
X192913000Y-88431750D01*
X193167000Y-88431750D01*
X193167000Y-89281000D01*
X194141250Y-89281000D01*
X194300000Y-89122250D01*
X194300000Y-88781691D01*
X194203327Y-88548302D01*
X194024699Y-88369673D01*
X193791310Y-88273000D01*
X193325750Y-88273000D01*
X193167000Y-88431750D01*
X192913000Y-88431750D01*
X192754250Y-88273000D01*
X192288690Y-88273000D01*
X192055301Y-88369673D01*
X191876673Y-88548302D01*
X191874109Y-88554493D01*
X191850732Y-88505964D01*
X191434931Y-88134461D01*
X191744415Y-87927670D01*
X192069271Y-87441489D01*
X192183345Y-86868000D01*
X192069271Y-86294511D01*
X191744415Y-85808330D01*
X191429634Y-85598000D01*
X191744415Y-85387670D01*
X191858453Y-85217000D01*
X192024000Y-85217000D01*
X192364206Y-85149329D01*
X192652618Y-84956618D01*
X194510933Y-83098303D01*
X194537391Y-83115981D01*
X195072000Y-83222321D01*
X195606609Y-83115981D01*
X196059828Y-82813149D01*
X196342000Y-82390850D01*
X196624172Y-82813149D01*
X197077391Y-83115981D01*
X197612000Y-83222321D01*
X198146609Y-83115981D01*
X198599828Y-82813149D01*
X198882000Y-82390850D01*
X199164172Y-82813149D01*
X199617391Y-83115981D01*
X200152000Y-83222321D01*
X200686609Y-83115981D01*
X201139828Y-82813149D01*
X201422000Y-82390850D01*
X201704172Y-82813149D01*
X201803000Y-82879184D01*
X201803000Y-82942457D01*
X201694683Y-82962838D01*
X201478559Y-83101910D01*
X201333569Y-83314110D01*
X201282560Y-83566000D01*
X201282560Y-85090000D01*
X201326838Y-85325317D01*
X201465910Y-85541441D01*
X201678110Y-85686431D01*
X201930000Y-85737440D01*
X203454000Y-85737440D01*
X203689317Y-85693162D01*
X203905441Y-85554090D01*
X203961374Y-85472230D01*
X204005910Y-85541441D01*
X204218110Y-85686431D01*
X204470000Y-85737440D01*
X205994000Y-85737440D01*
X206229317Y-85693162D01*
X206445441Y-85554090D01*
X206590431Y-85341890D01*
X206641440Y-85090000D01*
X206641440Y-83566000D01*
X206597162Y-83330683D01*
X206458090Y-83114559D01*
X206245890Y-82969569D01*
X206121000Y-82944278D01*
X206121000Y-82879184D01*
X206219828Y-82813149D01*
X206502000Y-82390850D01*
X206784172Y-82813149D01*
X207237391Y-83115981D01*
X207772000Y-83222321D01*
X208306609Y-83115981D01*
X208759828Y-82813149D01*
X209042000Y-82390850D01*
X209324172Y-82813149D01*
X209777391Y-83115981D01*
X210312000Y-83222321D01*
X210846609Y-83115981D01*
X211299828Y-82813149D01*
X211602660Y-82359930D01*
X211649358Y-82125163D01*
X211902270Y-82735748D01*
X212269718Y-82952677D01*
X213942395Y-81280000D01*
X213928253Y-81265858D01*
X214107858Y-81086253D01*
X214122000Y-81100395D01*
X214136143Y-81086253D01*
X214315748Y-81265858D01*
G36*
X183924172Y-82813149D02*
X184023000Y-82879184D01*
X184023000Y-82942457D01*
X183914683Y-82962838D01*
X183698559Y-83101910D01*
X183553569Y-83314110D01*
X183502560Y-83566000D01*
X183502560Y-85090000D01*
X183546838Y-85325317D01*
X183685910Y-85541441D01*
X183898110Y-85686431D01*
X184150000Y-85737440D01*
X184691556Y-85737440D01*
X184660316Y-85768626D01*
X184608948Y-85802949D01*
X184166898Y-86245000D01*
X183507173Y-86245000D01*
X183505000Y-86244560D01*
X182255000Y-86244560D01*
X182252662Y-86245000D01*
X176406001Y-86245000D01*
X176406340Y-85856146D01*
X176233910Y-85438835D01*
X176149000Y-85353777D01*
X176149000Y-84188236D01*
X177144295Y-83192941D01*
X177292000Y-83222321D01*
X177826609Y-83115981D01*
X178279828Y-82813149D01*
X178562000Y-82390850D01*
X178844172Y-82813149D01*
X179297391Y-83115981D01*
X179832000Y-83222321D01*
X180366609Y-83115981D01*
X180819828Y-82813149D01*
X181102000Y-82390850D01*
X181384172Y-82813149D01*
X181837391Y-83115981D01*
X182372000Y-83222321D01*
X182906609Y-83115981D01*
X183359828Y-82813149D01*
X183642000Y-82390850D01*
X183924172Y-82813149D01*
X183924172Y-82813149D01*
G37*
X183924172Y-82813149D02*
X184023000Y-82879184D01*
X184023000Y-82942457D01*
X183914683Y-82962838D01*
X183698559Y-83101910D01*
X183553569Y-83314110D01*
X183502560Y-83566000D01*
X183502560Y-85090000D01*
X183546838Y-85325317D01*
X183685910Y-85541441D01*
X183898110Y-85686431D01*
X184150000Y-85737440D01*
X184691556Y-85737440D01*
X184660316Y-85768626D01*
X184608948Y-85802949D01*
X184166898Y-86245000D01*
X183507173Y-86245000D01*
X183505000Y-86244560D01*
X182255000Y-86244560D01*
X182252662Y-86245000D01*
X176406001Y-86245000D01*
X176406340Y-85856146D01*
X176233910Y-85438835D01*
X176149000Y-85353777D01*
X176149000Y-84188236D01*
X177144295Y-83192941D01*
X177292000Y-83222321D01*
X177826609Y-83115981D01*
X178279828Y-82813149D01*
X178562000Y-82390850D01*
X178844172Y-82813149D01*
X179297391Y-83115981D01*
X179832000Y-83222321D01*
X180366609Y-83115981D01*
X180819828Y-82813149D01*
X181102000Y-82390850D01*
X181384172Y-82813149D01*
X181837391Y-83115981D01*
X182372000Y-83222321D01*
X182906609Y-83115981D01*
X183359828Y-82813149D01*
X183642000Y-82390850D01*
X183924172Y-82813149D01*
M02*
