G04 #@! TF.FileFunction,Copper,L1,Top,Signal*
%FSLAX46Y46*%
G04 Gerber Fmt 4.6, Leading zero omitted, Abs format (unit mm)*
G04 Created by KiCad (PCBNEW 4.0.2-4+6225~38~ubuntu14.04.1-stable) date Fri 18 Mar 2016 20:16:10 GMT*
%MOMM*%
G01*
G04 APERTURE LIST*
%ADD10C,0.100000*%
%ADD11R,1.000000X1.250000*%
%ADD12R,1.800860X1.597660*%
%ADD13R,3.500000X1.500000*%
%ADD14R,2.032000X1.727200*%
%ADD15O,2.032000X1.727200*%
%ADD16R,1.727200X1.727200*%
%ADD17O,1.727200X1.727200*%
%ADD18R,1.524000X1.524000*%
%ADD19R,0.800100X0.800100*%
%ADD20R,0.700000X1.300000*%
%ADD21R,1.300000X0.700000*%
%ADD22R,1.550000X0.600000*%
%ADD23R,0.450000X1.450000*%
%ADD24R,1.300000X1.900000*%
%ADD25R,1.778000X1.778000*%
%ADD26C,1.778000*%
%ADD27C,1.800000*%
%ADD28C,2.100000*%
%ADD29O,1.524000X2.540000*%
%ADD30C,3.937000*%
%ADD31C,1.524000*%
%ADD32R,0.900000X0.900000*%
%ADD33C,1.000000*%
%ADD34C,1.024000*%
%ADD35C,0.508000*%
%ADD36C,0.381000*%
%ADD37C,0.254000*%
%ADD38C,0.762000*%
G04 APERTURE END LIST*
D10*
D11*
X179816000Y-106172000D03*
X177816000Y-106172000D03*
X139700000Y-90424000D03*
X141700000Y-90424000D03*
X202152000Y-96520000D03*
X200152000Y-96520000D03*
D12*
X139192000Y-87779860D03*
X139192000Y-84940140D03*
D13*
X137200000Y-120015000D03*
X142240000Y-118745000D03*
X137240000Y-117475000D03*
X142240000Y-116205000D03*
X137240000Y-114935000D03*
X142240000Y-113665000D03*
X137240000Y-112395000D03*
X142240000Y-111125000D03*
X137200000Y-109855000D03*
X142240000Y-108585000D03*
X137200000Y-107315000D03*
X142280000Y-106045000D03*
X137200000Y-104775000D03*
X142280000Y-103505000D03*
X182960000Y-120142000D03*
X187960000Y-118872000D03*
X182960000Y-117602000D03*
X187960000Y-116332000D03*
X182960000Y-115062000D03*
X187960000Y-113792000D03*
X182960000Y-112522000D03*
X187960000Y-111252000D03*
X203748000Y-120015000D03*
X208748000Y-118745000D03*
X203748000Y-117475000D03*
X208748000Y-116205000D03*
X203748000Y-114935000D03*
X208748000Y-113665000D03*
X160060000Y-120142000D03*
X165060000Y-118872000D03*
X160060000Y-117602000D03*
X165060000Y-116332000D03*
X160060000Y-115062000D03*
X165060000Y-113792000D03*
X160060000Y-112522000D03*
X165060000Y-111252000D03*
X160020000Y-109982000D03*
X165060000Y-108712000D03*
X160020000Y-107442000D03*
X165100000Y-106172000D03*
D14*
X190500000Y-91948000D03*
D15*
X190500000Y-89408000D03*
X190500000Y-86868000D03*
X190500000Y-84328000D03*
D16*
X170180000Y-101092000D03*
D17*
X170180000Y-98552000D03*
X167640000Y-101092000D03*
X167640000Y-98552000D03*
X165100000Y-101092000D03*
X165100000Y-98552000D03*
X162560000Y-101092000D03*
X162560000Y-98552000D03*
X160020000Y-101092000D03*
X160020000Y-98552000D03*
X157480000Y-101092000D03*
X157480000Y-98552000D03*
X154940000Y-101092000D03*
X154940000Y-98552000D03*
X152400000Y-101092000D03*
X152400000Y-98552000D03*
D18*
X207772000Y-126492000D03*
X210312000Y-126492000D03*
X212852000Y-126492000D03*
X215392000Y-126492000D03*
X215392000Y-120396000D03*
X215392000Y-117856000D03*
X212852000Y-117856000D03*
X215392000Y-115316000D03*
X212852000Y-115316000D03*
X215392000Y-112776000D03*
X212852000Y-112776000D03*
X147828000Y-84328000D03*
X157988000Y-84328000D03*
X168148000Y-84328000D03*
X184912000Y-84328000D03*
X187452000Y-84328000D03*
X202692000Y-84328000D03*
X205232000Y-84328000D03*
X210312000Y-87376000D03*
X212852000Y-87376000D03*
X215392000Y-87376000D03*
X212852000Y-89916000D03*
X215392000Y-89916000D03*
X212852000Y-92456000D03*
X215392000Y-92456000D03*
X212852000Y-94996000D03*
X215392000Y-94996000D03*
X212852000Y-97536000D03*
X210312000Y-89916000D03*
X210312000Y-94996000D03*
X210312000Y-92456000D03*
X210312000Y-84836000D03*
X212852000Y-84836000D03*
X215392000Y-84836000D03*
X212852000Y-102616000D03*
X215392000Y-102616000D03*
X210312000Y-102616000D03*
D19*
X144206000Y-86375240D03*
X142306000Y-86375240D03*
X143256000Y-88374220D03*
X143698000Y-92489020D03*
X141798000Y-92489020D03*
X142748000Y-94488000D03*
X208214000Y-93472000D03*
X206314000Y-93472000D03*
X207264000Y-95470980D03*
D20*
X137292000Y-100076000D03*
X139192000Y-100076000D03*
X172344000Y-106680000D03*
X174244000Y-106680000D03*
D21*
X146304000Y-86426000D03*
X146304000Y-88326000D03*
D20*
X138308000Y-94488000D03*
X140208000Y-94488000D03*
X197744000Y-86868000D03*
X199644000Y-86868000D03*
X197744000Y-89408000D03*
X199644000Y-89408000D03*
D21*
X207264000Y-91882000D03*
X207264000Y-89982000D03*
D20*
X203840000Y-97028000D03*
X205740000Y-97028000D03*
X200594000Y-93980000D03*
X198694000Y-93980000D03*
D22*
X176116000Y-100203000D03*
X176116000Y-101473000D03*
X176116000Y-102743000D03*
X176116000Y-104013000D03*
X181516000Y-104013000D03*
X181516000Y-102743000D03*
X181516000Y-101473000D03*
X181516000Y-100203000D03*
D23*
X204175000Y-88732000D03*
X203525000Y-88732000D03*
X202875000Y-88732000D03*
X202225000Y-88732000D03*
X202225000Y-93132000D03*
X202875000Y-93132000D03*
X203525000Y-93132000D03*
X204175000Y-93132000D03*
D22*
X180020000Y-86614000D03*
X180020000Y-87884000D03*
X180020000Y-89154000D03*
X180020000Y-90424000D03*
X185420000Y-90424000D03*
X185420000Y-89154000D03*
X185420000Y-87884000D03*
X185420000Y-86614000D03*
D24*
X176994000Y-85776000D03*
X171494000Y-85776000D03*
X171494000Y-88976000D03*
X176994000Y-88976000D03*
D25*
X128016000Y-86360000D03*
D26*
X133096000Y-86360000D03*
D27*
X130282000Y-100004000D03*
X130282000Y-95504000D03*
D28*
X127782000Y-101254000D03*
X127782000Y-94254000D03*
D18*
X210312000Y-123698000D03*
X212852000Y-123698000D03*
X215392000Y-123698000D03*
D29*
X192532000Y-81280000D03*
X195072000Y-81280000D03*
X197612000Y-81280000D03*
X200152000Y-81280000D03*
X202692000Y-81280000D03*
X205232000Y-81280000D03*
X207772000Y-81280000D03*
X210312000Y-81280000D03*
X215392000Y-129540000D03*
X212852000Y-129540000D03*
X210312000Y-129540000D03*
X207772000Y-129540000D03*
X197612000Y-129540000D03*
X192532000Y-129540000D03*
X189992000Y-129540000D03*
X200152000Y-129540000D03*
X202692000Y-129540000D03*
X205232000Y-129540000D03*
X187452000Y-129540000D03*
X184912000Y-129540000D03*
X182372000Y-129540000D03*
X174752000Y-129540000D03*
X177292000Y-129540000D03*
X179832000Y-129540000D03*
X169672000Y-129540000D03*
X167132000Y-129540000D03*
X164592000Y-129540000D03*
X159512000Y-129540000D03*
X156972000Y-129540000D03*
X187452000Y-81280000D03*
X184912000Y-81280000D03*
X182372000Y-81280000D03*
X179832000Y-81280000D03*
X177292000Y-81280000D03*
X174752000Y-81280000D03*
X172212000Y-81280000D03*
X169672000Y-81280000D03*
X165608000Y-81280000D03*
X163068000Y-81280000D03*
X160528000Y-81280000D03*
X157988000Y-81280000D03*
X155448000Y-81280000D03*
X152908000Y-81280000D03*
X150368000Y-81280000D03*
X147828000Y-81280000D03*
X162052000Y-129540000D03*
D30*
X220472000Y-129540000D03*
X214122000Y-81280000D03*
X139192000Y-81280000D03*
X137922000Y-129540000D03*
D31*
X217932000Y-83820000D03*
X220472000Y-83820000D03*
X217932000Y-86360000D03*
X220472000Y-86360000D03*
X217932000Y-88900000D03*
X220472000Y-88900000D03*
X217932000Y-91440000D03*
X220472000Y-91440000D03*
X217932000Y-81280000D03*
X220472000Y-81280000D03*
X220472000Y-93980000D03*
X217932000Y-93980000D03*
X217932000Y-96520000D03*
X220472000Y-96520000D03*
X217932000Y-99060000D03*
X220472000Y-99060000D03*
X217932000Y-101600000D03*
X220472000Y-101600000D03*
X217932000Y-104140000D03*
X220472000Y-104140000D03*
X217932000Y-106680000D03*
X220472000Y-106680000D03*
X217932000Y-109220000D03*
X220472000Y-109220000D03*
X217932000Y-111760000D03*
X220472000Y-111760000D03*
X217932000Y-114300000D03*
X220472000Y-114300000D03*
X217932000Y-116840000D03*
X220472000Y-116840000D03*
X217932000Y-119380000D03*
X220472000Y-119380000D03*
X217932000Y-121920000D03*
X220472000Y-121920000D03*
X217932000Y-124460000D03*
X220472000Y-124460000D03*
D29*
X145288000Y-81280000D03*
X142748000Y-81280000D03*
D31*
X187579000Y-101600000D03*
X190119000Y-101600000D03*
X187579000Y-104140000D03*
X187579000Y-106680000D03*
X190119000Y-104140000D03*
X190119000Y-106680000D03*
D29*
X154432000Y-129540000D03*
X151892000Y-129540000D03*
D18*
X192532000Y-126492000D03*
D19*
X197119240Y-111826000D03*
X197119240Y-113726000D03*
X199118220Y-112776000D03*
D21*
X195326000Y-111826000D03*
X195326000Y-113726000D03*
D20*
X197170000Y-109474000D03*
X199070000Y-109474000D03*
D32*
X200367000Y-110998000D03*
X202477000Y-110998000D03*
D33*
X170942000Y-107188000D03*
X171196000Y-109170002D03*
X197104000Y-108204000D03*
X139192000Y-87779860D03*
X136144000Y-94996000D03*
X137292000Y-100076000D03*
X151384000Y-107188000D03*
X156972000Y-113792000D03*
X168148000Y-120396000D03*
X179816000Y-106172000D03*
X206380000Y-90292000D03*
X183896000Y-100584000D03*
X196342000Y-113792000D03*
X206248000Y-93472000D03*
X207772000Y-88806020D03*
X200152000Y-96520000D03*
X207772000Y-109220000D03*
X195072000Y-129794000D03*
X182372000Y-85344000D03*
X195072000Y-117348000D03*
X192024000Y-120396000D03*
X173228000Y-120660027D03*
X184404000Y-110236000D03*
X176276000Y-114300000D03*
X168148000Y-103632000D03*
X147828000Y-123952000D03*
X155816536Y-120027464D03*
X151892000Y-116332000D03*
X146304000Y-89408000D03*
X141793990Y-92489020D03*
X169672000Y-121920000D03*
X159004000Y-103124000D03*
X208748000Y-113665000D03*
X175260000Y-90424000D03*
X180020000Y-90424000D03*
X176116000Y-104013000D03*
X204724000Y-88392000D03*
X147752327Y-90856327D03*
X139700000Y-90424000D03*
X137668000Y-93848000D03*
X142748000Y-99568000D03*
X140208000Y-97028000D03*
X162052000Y-122428000D03*
X185420000Y-86614000D03*
X198694000Y-93980000D03*
X199644000Y-90424000D03*
X182960000Y-115062000D03*
X176116000Y-101473000D03*
X137240000Y-117475000D03*
X186436000Y-105410000D03*
X137240000Y-114935000D03*
X181516000Y-104013000D03*
X174244000Y-125476000D03*
X175260000Y-126492000D03*
X149352000Y-106172000D03*
X142280000Y-106045000D03*
X149352000Y-104648000D03*
X142280000Y-103505000D03*
X193040000Y-114792000D03*
X175260000Y-88900000D03*
X175271143Y-86080921D03*
X193040000Y-102108000D03*
X195072000Y-85032010D03*
X196156130Y-91459109D03*
X193040000Y-92797452D03*
X187960000Y-113792000D03*
X191516000Y-111760000D03*
X182960000Y-112522000D03*
X172212000Y-102616000D03*
X171171742Y-118872000D03*
X203748000Y-120015000D03*
X197612000Y-119888000D03*
X189992000Y-125476000D03*
X178982587Y-100417413D03*
X180020000Y-89154000D03*
X203748000Y-117475000D03*
X179324000Y-116332000D03*
X160060000Y-115062000D03*
X165060000Y-113792000D03*
X168918246Y-117085754D03*
X169766775Y-116237225D03*
X160020000Y-107442000D03*
X165100000Y-105918000D03*
X172212000Y-98044000D03*
X185420000Y-90620010D03*
X184588003Y-97200990D03*
X173228000Y-97200990D03*
X183388000Y-97200990D03*
X183388000Y-90620010D03*
X208214000Y-93472000D03*
X174244000Y-113792000D03*
X193468198Y-98631802D03*
X195367884Y-99272116D03*
X197967556Y-100228444D03*
X137200000Y-120015000D03*
X180340000Y-110744000D03*
X181516000Y-102743000D03*
X144780000Y-128016000D03*
X143764000Y-122936000D03*
X155956000Y-108204000D03*
X142240000Y-108585000D03*
X203708000Y-115062000D03*
X200152000Y-112776000D03*
X202946000Y-111506000D03*
X198374000Y-111252000D03*
D34*
X171196000Y-107442000D02*
X171196000Y-108204000D01*
X170942000Y-107188000D02*
X171196000Y-107442000D01*
X171196000Y-109170002D02*
X171196000Y-108966000D01*
D35*
X197170000Y-108270000D02*
X197170000Y-109474000D01*
X197104000Y-108204000D02*
X197170000Y-108270000D01*
D34*
X136144000Y-97254000D02*
X136144000Y-94996000D01*
X137292000Y-100076000D02*
X137292000Y-98402000D01*
X137292000Y-98402000D02*
X136144000Y-97254000D01*
X151772967Y-108592967D02*
X151772967Y-107576967D01*
X151772967Y-107576967D02*
X151384000Y-107188000D01*
X156972000Y-113792000D02*
X151772967Y-108592967D01*
X171196000Y-110186010D02*
X172395752Y-111385762D01*
X172395752Y-111385762D02*
X172395752Y-119379001D01*
X172395752Y-119379001D02*
X171378753Y-120396000D01*
X171378753Y-120396000D02*
X168148000Y-120396000D01*
X210312000Y-92456000D02*
X210312000Y-94996000D01*
X210312000Y-89916000D02*
X210312000Y-92456000D01*
X207772000Y-90424000D02*
X208018000Y-90424000D01*
X208018000Y-90424000D02*
X208526000Y-89916000D01*
X208526000Y-89916000D02*
X210312000Y-89916000D01*
X207330000Y-89982000D02*
X207772000Y-90424000D01*
X207264000Y-89982000D02*
X207330000Y-89982000D01*
X179816000Y-106172000D02*
X181713602Y-106172000D01*
X183896000Y-103989602D02*
X183896000Y-101291106D01*
X181713602Y-106172000D02*
X183896000Y-103989602D01*
X183896000Y-101291106D02*
X183896000Y-100584000D01*
X171196000Y-108204000D02*
X171196000Y-107828000D01*
X171196000Y-107828000D02*
X172344000Y-106680000D01*
X171196000Y-108966000D02*
X171196000Y-108204000D01*
X171196000Y-110186010D02*
X171196000Y-108966000D01*
D36*
X206380000Y-90292000D02*
X203979000Y-90292000D01*
X203979000Y-90292000D02*
X203525000Y-89838000D01*
X203525000Y-89838000D02*
X203525000Y-88732000D01*
D34*
X207264000Y-89982000D02*
X206690000Y-89982000D01*
X206690000Y-89982000D02*
X206380000Y-90292000D01*
X179816000Y-106172000D02*
X179816000Y-101600000D01*
D35*
X181516000Y-100203000D02*
X181041000Y-100203000D01*
X181041000Y-100203000D02*
X179816000Y-101428000D01*
X179816000Y-101428000D02*
X179816000Y-101600000D01*
X182626000Y-100584000D02*
X183896000Y-100584000D01*
X181516000Y-100203000D02*
X182245000Y-100203000D01*
X182245000Y-100203000D02*
X182626000Y-100584000D01*
D34*
X204724000Y-88392000D02*
X207357980Y-88392000D01*
X207357980Y-88392000D02*
X207772000Y-88806020D01*
D35*
X197119240Y-113726000D02*
X197612000Y-114218760D01*
X197612000Y-114218760D02*
X197612000Y-114808000D01*
X202184000Y-112776000D02*
X200152000Y-114808000D01*
X200152000Y-114808000D02*
X197612000Y-114808000D01*
X196088000Y-127000000D02*
X195072000Y-128016000D01*
X208748000Y-120003000D02*
X201751000Y-127000000D01*
X208748000Y-118745000D02*
X208748000Y-120003000D01*
X201751000Y-127000000D02*
X196088000Y-127000000D01*
X195072000Y-128016000D02*
X195072000Y-129794000D01*
D34*
X215392000Y-123698000D02*
X217170000Y-123698000D01*
X217170000Y-123698000D02*
X217932000Y-124460000D01*
X212852000Y-123698000D02*
X215392000Y-123698000D01*
X210312000Y-123698000D02*
X212852000Y-123698000D01*
X208748000Y-118745000D02*
X208748000Y-122134000D01*
X208748000Y-122134000D02*
X210312000Y-123698000D01*
D35*
X182372000Y-89355000D02*
X182372000Y-85344000D01*
X180020000Y-90424000D02*
X181303000Y-90424000D01*
X181303000Y-90424000D02*
X182372000Y-89355000D01*
X195072000Y-117348000D02*
X192024000Y-120396000D01*
X197612000Y-114808000D02*
X195072000Y-117348000D01*
X205601000Y-112776000D02*
X202184000Y-112776000D01*
X208748000Y-113665000D02*
X206490000Y-113665000D01*
X206490000Y-113665000D02*
X205601000Y-112776000D01*
D34*
X172476027Y-121412000D02*
X175768000Y-118120027D01*
X171968027Y-121920000D02*
X172476027Y-121412000D01*
D35*
X172476027Y-121412000D02*
X173228000Y-120660027D01*
D34*
X175768000Y-114300000D02*
X175768000Y-107355000D01*
X175768000Y-118120027D02*
X175768000Y-114300000D01*
D35*
X175768000Y-114300000D02*
X176276000Y-114300000D01*
D37*
X151892000Y-116332000D02*
X155587464Y-120027464D01*
X155587464Y-120027464D02*
X155816536Y-120027464D01*
D34*
X141700000Y-90424000D02*
X141700000Y-86981240D01*
X141700000Y-86981240D02*
X142306000Y-86375240D01*
X146304000Y-89408000D02*
X145288000Y-90424000D01*
X145288000Y-90424000D02*
X141700000Y-90424000D01*
X141793990Y-92489020D02*
X141793990Y-90517990D01*
X141793990Y-90517990D02*
X141700000Y-90424000D01*
X176116000Y-105337000D02*
X176116000Y-107007000D01*
X176116000Y-107007000D02*
X175768000Y-107355000D01*
X175768000Y-107355000D02*
X176951000Y-106172000D01*
X169672000Y-121920000D02*
X171968027Y-121920000D01*
X159004000Y-103124000D02*
X154432000Y-103124000D01*
X154432000Y-103124000D02*
X152400000Y-101092000D01*
X175768000Y-90759893D02*
X175595893Y-90759893D01*
X175595893Y-90759893D02*
X175260000Y-90424000D01*
X180020000Y-90424000D02*
X179301913Y-90424000D01*
X179301913Y-90424000D02*
X178966020Y-90759893D01*
X178966020Y-90759893D02*
X175768000Y-90759893D01*
X176116000Y-104013000D02*
X176116000Y-105337000D01*
X176116000Y-105337000D02*
X176951000Y-106172000D01*
X176951000Y-106172000D02*
X177803991Y-106172000D01*
D36*
X204175000Y-88732000D02*
X204384000Y-88732000D01*
X204384000Y-88732000D02*
X204724000Y-88392000D01*
D34*
X190655000Y-89154000D02*
X190180000Y-89154000D01*
X220472000Y-124460000D02*
X217932000Y-124460000D01*
X220472000Y-129540000D02*
X220472000Y-124460000D01*
X208748000Y-116205000D02*
X208748000Y-118745000D01*
X208748000Y-113665000D02*
X208748000Y-116205000D01*
X128016000Y-86360000D02*
X130180000Y-86360000D01*
X130180000Y-86360000D02*
X137668000Y-93848000D01*
X140208000Y-97028000D02*
X142289702Y-97028000D01*
X142289702Y-97028000D02*
X144321991Y-94995711D01*
X144321991Y-94995711D02*
X144321991Y-94286663D01*
X144321991Y-94286663D02*
X147752327Y-90856327D01*
X138308000Y-94488000D02*
X137668000Y-93848000D01*
X145288000Y-102108000D02*
X145288000Y-111806856D01*
X145288000Y-111806856D02*
X154893144Y-121412000D01*
X154893144Y-121412000D02*
X156464000Y-121412000D01*
X142748000Y-99568000D02*
X145288000Y-102108000D01*
X138308000Y-94488000D02*
X138308000Y-95128000D01*
X138308000Y-95128000D02*
X140208000Y-97028000D01*
D38*
X156721515Y-121412000D02*
X156464000Y-121412000D01*
X157922777Y-122428000D02*
X157737515Y-122428000D01*
X157737515Y-122428000D02*
X156721515Y-121412000D01*
D34*
X162052000Y-122428000D02*
X157922777Y-122428000D01*
X195580000Y-86360000D02*
X196596000Y-85344000D01*
X196596000Y-85344000D02*
X199136000Y-85344000D01*
X192372649Y-86360000D02*
X195580000Y-86360000D01*
X191610649Y-85598000D02*
X192372649Y-86360000D01*
D36*
X189223544Y-85582110D02*
X191610649Y-85598000D01*
X189157664Y-85647990D02*
X189223544Y-85582110D01*
D34*
X185420000Y-86614000D02*
X188191654Y-86614000D01*
X188191654Y-86614000D02*
X189157664Y-85647990D01*
X199644000Y-89408000D02*
X199644000Y-90424000D01*
X199644000Y-85852000D02*
X199136000Y-85344000D01*
X199644000Y-86868000D02*
X199644000Y-85852000D01*
X199644000Y-89408000D02*
X199644000Y-86868000D01*
D35*
X146304000Y-86426000D02*
X146304000Y-85568000D01*
X146304000Y-85568000D02*
X145676140Y-84940140D01*
X145676140Y-84940140D02*
X140600430Y-84940140D01*
X140600430Y-84940140D02*
X139192000Y-84940140D01*
X142240000Y-118745000D02*
X144778724Y-118745000D01*
X144778724Y-118745000D02*
X150963685Y-124929961D01*
X150963685Y-124929961D02*
X156054764Y-124929961D01*
X173736000Y-124521999D02*
X177861999Y-124521999D01*
X156054764Y-124929961D02*
X156816763Y-125691960D01*
X156816763Y-125691960D02*
X172566039Y-125691960D01*
X172566039Y-125691960D02*
X173736000Y-124521999D01*
X177861999Y-124521999D02*
X182372000Y-129032000D01*
X182372000Y-129032000D02*
X182372000Y-129540000D01*
X142240000Y-116205000D02*
X143240000Y-116205000D01*
X143240000Y-116205000D02*
X151256952Y-124221952D01*
X151256952Y-124221952D02*
X156348031Y-124221952D01*
X157094079Y-124968000D02*
X172288723Y-124968000D01*
X172288723Y-124968000D02*
X173442734Y-123813989D01*
X156348031Y-124221952D02*
X157094079Y-124968000D01*
X184912000Y-129032000D02*
X184912000Y-129540000D01*
X173442734Y-123813989D02*
X179693989Y-123813989D01*
X179693989Y-123813989D02*
X184912000Y-129032000D01*
X190119000Y-104140000D02*
X188849000Y-105410000D01*
X188849000Y-105410000D02*
X186436000Y-105410000D01*
X191335001Y-107696000D02*
X191335001Y-105356001D01*
X190500000Y-114792000D02*
X190500000Y-108531001D01*
X190500000Y-108531001D02*
X191335001Y-107696000D01*
X187960000Y-116332000D02*
X188960000Y-116332000D01*
X188960000Y-116332000D02*
X190500000Y-114792000D01*
X190880999Y-104901999D02*
X190119000Y-104140000D01*
X191335001Y-105356001D02*
X190880999Y-104901999D01*
X142240000Y-113665000D02*
X143240000Y-113665000D01*
X143240000Y-113665000D02*
X153088942Y-123513942D01*
X153088942Y-123513942D02*
X156641298Y-123513942D01*
X156641298Y-123513942D02*
X157387345Y-124259990D01*
X173149468Y-123105979D02*
X181525979Y-123105979D01*
X157387345Y-124259990D02*
X171995457Y-124259990D01*
X171995457Y-124259990D02*
X173149468Y-123105979D01*
X181525979Y-123105979D02*
X187452000Y-129032000D01*
X187452000Y-129032000D02*
X187452000Y-129540000D01*
X145288000Y-95504000D02*
X140716000Y-100076000D01*
X140716000Y-100076000D02*
X139192000Y-100076000D01*
X145288000Y-94686798D02*
X145288000Y-95504000D01*
X156970788Y-83004010D02*
X145288000Y-94686798D01*
X139192000Y-100076000D02*
X139501202Y-100076000D01*
X139501202Y-100076000D02*
X139700000Y-100274798D01*
X160528000Y-81280000D02*
X160528000Y-81788000D01*
X160528000Y-81788000D02*
X159311990Y-83004010D01*
X159311990Y-83004010D02*
X156970788Y-83004010D01*
X139404001Y-100570797D02*
X139404001Y-102403999D01*
X137240000Y-112395000D02*
X138240000Y-112395000D01*
D36*
X138240000Y-112395000D02*
X139404001Y-111230999D01*
X139404001Y-111230999D02*
X139404001Y-102403999D01*
D35*
X142240000Y-111125000D02*
X143240000Y-111125000D01*
X143240000Y-111125000D02*
X154920932Y-122805932D01*
X154920932Y-122805932D02*
X156934565Y-122805932D01*
X157680612Y-123551980D02*
X171702191Y-123551980D01*
X156934565Y-122805932D02*
X157680612Y-123551980D01*
X171702191Y-123551980D02*
X172856202Y-122397969D01*
X172856202Y-122397969D02*
X183357969Y-122397969D01*
X183357969Y-122397969D02*
X189992000Y-129032000D01*
X189992000Y-129032000D02*
X189992000Y-129540000D01*
X174244000Y-125476000D02*
X173320030Y-126399970D01*
X134942000Y-109855000D02*
X137200000Y-109855000D01*
X173320030Y-126399970D02*
X156523496Y-126399970D01*
X132080000Y-112717000D02*
X134942000Y-109855000D01*
X156523496Y-126399970D02*
X155761497Y-125637971D01*
X132080000Y-121920000D02*
X132080000Y-112717000D01*
X155761497Y-125637971D02*
X135797971Y-125637971D01*
X135797971Y-125637971D02*
X132080000Y-121920000D01*
X177292000Y-129540000D02*
X177292000Y-129032000D01*
X175260000Y-126492000D02*
X174644020Y-127107980D01*
X174644020Y-127107980D02*
X156230230Y-127107980D01*
X156230230Y-127107980D02*
X155468231Y-126345981D01*
X155468231Y-126345981D02*
X135504704Y-126345981D01*
X135504704Y-126345981D02*
X131371990Y-122213266D01*
X131371990Y-122213266D02*
X131371990Y-112423733D01*
X131371990Y-112423733D02*
X136480724Y-107315000D01*
X136480724Y-107315000D02*
X137200000Y-107315000D01*
X149352000Y-106172000D02*
X150368000Y-105156000D01*
X150368000Y-105156000D02*
X150368000Y-97632674D01*
X150368000Y-97632674D02*
X157776684Y-90223990D01*
X157776684Y-90223990D02*
X167828808Y-90223990D01*
X167828808Y-90223990D02*
X170676798Y-87376000D01*
X170676798Y-87376000D02*
X172212000Y-87376000D01*
X182372000Y-81788000D02*
X182372000Y-81280000D01*
X172212000Y-87376000D02*
X172720000Y-86868000D01*
X174931491Y-84420030D02*
X175731531Y-83619990D01*
X172720000Y-86868000D02*
X172720000Y-84836000D01*
X172720000Y-84836000D02*
X173135970Y-84420030D01*
X175731531Y-83619990D02*
X180540010Y-83619990D01*
X173135970Y-84420030D02*
X174931491Y-84420030D01*
X180540010Y-83619990D02*
X182372000Y-81788000D01*
X137200000Y-104775000D02*
X136200000Y-104775000D01*
X179832000Y-129032000D02*
X179832000Y-129540000D01*
X136200000Y-104775000D02*
X130663980Y-110311020D01*
X135211437Y-127053991D02*
X155174965Y-127053991D01*
X130663980Y-110311020D02*
X130663980Y-122506533D01*
X130663980Y-122506533D02*
X135211437Y-127053991D01*
X155174965Y-127053991D02*
X155936963Y-127815990D01*
X155936963Y-127815990D02*
X178615990Y-127815990D01*
X178615990Y-127815990D02*
X179832000Y-129032000D01*
X149352000Y-104648000D02*
X149352000Y-97647397D01*
X171140778Y-83712020D02*
X174351980Y-83712020D01*
X149352000Y-97647397D02*
X157591397Y-89408000D01*
X157591397Y-89408000D02*
X165444798Y-89408000D01*
X165444798Y-89408000D02*
X171140778Y-83712020D01*
X174351980Y-83712020D02*
X174752000Y-83312000D01*
D36*
X175128047Y-83312000D02*
X174752000Y-83312000D01*
X179832000Y-81280000D02*
X179832000Y-81788000D01*
X179832000Y-81788000D02*
X178679490Y-82940510D01*
X178679490Y-82940510D02*
X175499537Y-82940510D01*
X175499537Y-82940510D02*
X175128047Y-83312000D01*
D35*
X179832000Y-81280000D02*
X179832000Y-81589202D01*
D34*
X187960000Y-111252000D02*
X187960000Y-108839000D01*
X187960000Y-108839000D02*
X190119000Y-106680000D01*
D38*
X185420000Y-118682000D02*
X185420000Y-112792000D01*
X185420000Y-112792000D02*
X186960000Y-111252000D01*
X186960000Y-111252000D02*
X187960000Y-111252000D01*
D35*
X182960000Y-120142000D02*
X183960000Y-120142000D01*
D38*
X183960000Y-120142000D02*
X185420000Y-118682000D01*
D35*
X188960000Y-118872000D02*
X193040000Y-114792000D01*
X175271143Y-86080921D02*
X175271143Y-88888857D01*
X175271143Y-88888857D02*
X175260000Y-88900000D01*
X187960000Y-118872000D02*
X188960000Y-118872000D01*
X192532000Y-102616000D02*
X193040000Y-102108000D01*
X195072000Y-85032010D02*
X195726020Y-84377990D01*
X195726020Y-84377990D02*
X197562010Y-84377990D01*
X197562010Y-84377990D02*
X200152000Y-81788000D01*
X200152000Y-81788000D02*
X200152000Y-81280000D01*
X194397452Y-91440000D02*
X196137021Y-91440000D01*
X196137021Y-91440000D02*
X196156130Y-91459109D01*
X193040000Y-92797452D02*
X194397452Y-91440000D01*
X191516000Y-111760000D02*
X192532000Y-110744000D01*
X192532000Y-110744000D02*
X192532000Y-102616000D01*
D34*
X169463990Y-111043990D02*
X169463990Y-105364010D01*
X189992000Y-125476000D02*
X191262000Y-124206000D01*
X191262000Y-124206000D02*
X193294000Y-124206000D01*
X193294000Y-124206000D02*
X197612000Y-119888000D01*
X171171742Y-112751742D02*
X171171742Y-118872000D01*
X169463990Y-105364010D02*
X172212000Y-102616000D01*
X171171742Y-112751742D02*
X169463990Y-111043990D01*
D35*
X178982587Y-100417413D02*
X176657000Y-102743000D01*
X176657000Y-102743000D02*
X176116000Y-102743000D01*
X177480000Y-109220000D02*
X177480000Y-114488000D01*
X176116000Y-102743000D02*
X176591000Y-102743000D01*
X176591000Y-102743000D02*
X178770001Y-104922001D01*
X178770001Y-104922001D02*
X178770001Y-107929999D01*
X178770001Y-107929999D02*
X177480000Y-109220000D01*
X177480000Y-114488000D02*
X179324000Y-116332000D01*
X165608000Y-81280000D02*
X165608000Y-81788000D01*
X165608000Y-81788000D02*
X160821266Y-86574734D01*
X160821266Y-86574734D02*
X155726541Y-86574734D01*
X155726541Y-86574734D02*
X146981979Y-95319296D01*
X146981979Y-95319296D02*
X146981979Y-108842457D01*
X146981979Y-108842457D02*
X158281522Y-120142000D01*
X158281522Y-120142000D02*
X160060000Y-120142000D01*
X159060000Y-120142000D02*
X160060000Y-120142000D01*
X163068000Y-81280000D02*
X163068000Y-83326724D01*
X163068000Y-83326724D02*
X160528000Y-85866724D01*
X160528000Y-85866724D02*
X155433274Y-85866724D01*
X155433274Y-85866724D02*
X146273969Y-95026029D01*
X146273969Y-95026029D02*
X146273969Y-109135724D01*
X146273969Y-109135724D02*
X157480000Y-120341755D01*
X157480000Y-120341755D02*
X157480000Y-120879202D01*
X157480000Y-120879202D02*
X157946799Y-121346001D01*
X157946799Y-121346001D02*
X163843999Y-121346001D01*
X165060000Y-120130000D02*
X165060000Y-118872000D01*
X163843999Y-121346001D02*
X165060000Y-120130000D01*
X160060000Y-117602000D02*
X159282798Y-117602000D01*
X167112963Y-83004010D02*
X170995990Y-83004010D01*
X159282798Y-117602000D02*
X148397999Y-106717201D01*
X148397999Y-106717201D02*
X148397999Y-95950001D01*
X156357246Y-87990754D02*
X162126219Y-87990754D01*
X148397999Y-95950001D02*
X156357246Y-87990754D01*
X162126219Y-87990754D02*
X167112963Y-83004010D01*
X170995990Y-83004010D02*
X172212000Y-81788000D01*
X172212000Y-81788000D02*
X172212000Y-81280000D01*
X162560000Y-118419202D02*
X162173201Y-118806001D01*
X165060000Y-116332000D02*
X162802000Y-116332000D01*
X162802000Y-116332000D02*
X162560000Y-116574000D01*
X162560000Y-116574000D02*
X162560000Y-118419202D01*
X162173201Y-118806001D02*
X157946799Y-118806001D01*
X157946799Y-118806001D02*
X147689989Y-108549191D01*
X161832953Y-87282744D02*
X167835697Y-81280000D01*
X147689989Y-108549191D02*
X147689989Y-95612563D01*
X147689989Y-95612563D02*
X156019808Y-87282744D01*
X156019808Y-87282744D02*
X161832953Y-87282744D01*
X167835697Y-81280000D02*
X169672000Y-81280000D01*
X167107202Y-112522000D02*
X168571117Y-113985915D01*
X168571117Y-113985915D02*
X168571117Y-116738625D01*
X168571117Y-116738625D02*
X168918246Y-117085754D01*
X160060000Y-112522000D02*
X167107202Y-112522000D01*
X169672000Y-113606000D02*
X169672000Y-116142450D01*
X169672000Y-116142450D02*
X169766775Y-116237225D01*
X165060000Y-111252000D02*
X167318000Y-111252000D01*
X167318000Y-111252000D02*
X169672000Y-113606000D01*
X160020000Y-109982000D02*
X156322078Y-109982000D01*
X175224758Y-85128040D02*
X176024798Y-84328000D01*
X182570798Y-84328000D02*
X183894788Y-83004010D01*
X195887990Y-83004010D02*
X197612000Y-81280000D01*
X156322078Y-109982000D02*
X154940000Y-108599922D01*
X158069950Y-90932000D02*
X172212000Y-90932000D01*
X154940000Y-108599922D02*
X154940000Y-106473601D01*
X154940000Y-106473601D02*
X151082399Y-102616000D01*
X174459960Y-85128040D02*
X175224758Y-85128040D01*
X176024798Y-84328000D02*
X182570798Y-84328000D01*
X151082399Y-102616000D02*
X151082399Y-97919551D01*
X151082399Y-97919551D02*
X158069950Y-90932000D01*
X183894788Y-83004010D02*
X195887990Y-83004010D01*
X172212000Y-90932000D02*
X173428009Y-89715991D01*
X173428009Y-89715991D02*
X173428009Y-86159991D01*
X173428009Y-86159991D02*
X174459960Y-85128040D01*
X165100000Y-105918000D02*
X165100000Y-106172000D01*
X190180000Y-86614000D02*
X189557798Y-86614000D01*
X183785009Y-98154991D02*
X172322991Y-98154991D01*
X172322991Y-98154991D02*
X172212000Y-98044000D01*
X183785009Y-98154991D02*
X184588003Y-97351997D01*
X184588003Y-97351997D02*
X184588003Y-97200990D01*
D36*
X185420000Y-90424000D02*
X189590021Y-90424000D01*
X189590021Y-90424000D02*
X189828131Y-90662110D01*
X189828131Y-90662110D02*
X195758890Y-90662110D01*
X195758890Y-90662110D02*
X197013000Y-89408000D01*
X197013000Y-89408000D02*
X197744000Y-89408000D01*
X197490000Y-89154000D02*
X197744000Y-89408000D01*
X198628000Y-92456000D02*
X197744000Y-91572000D01*
X197744000Y-91572000D02*
X197744000Y-89408000D01*
X200854328Y-92456000D02*
X198628000Y-92456000D01*
X202225000Y-93132000D02*
X201530328Y-93132000D01*
X201530328Y-93132000D02*
X200854328Y-92456000D01*
D35*
X183388000Y-97200990D02*
X173228000Y-97200990D01*
X185420000Y-89154000D02*
X184854010Y-89154000D01*
X184854010Y-89154000D02*
X183388000Y-90620010D01*
D36*
X185420000Y-89154000D02*
X185895000Y-89154000D01*
X185895000Y-89154000D02*
X186926890Y-88122110D01*
X186926890Y-88122110D02*
X195758890Y-88122110D01*
X195758890Y-88122110D02*
X197013000Y-86868000D01*
X197013000Y-86868000D02*
X197744000Y-86868000D01*
X198120000Y-87544000D02*
X197744000Y-87168000D01*
X198628000Y-88052000D02*
X198120000Y-87544000D01*
X197744000Y-86868000D02*
X197744000Y-87244000D01*
X198460000Y-87884000D02*
X198628000Y-88052000D01*
X198628000Y-90932000D02*
X198628000Y-88052000D01*
X197744000Y-87168000D02*
X197744000Y-86868000D01*
X199136000Y-91440000D02*
X198628000Y-90932000D01*
X202289000Y-91440000D02*
X199136000Y-91440000D01*
X202875000Y-93132000D02*
X202875000Y-92026000D01*
X202875000Y-92026000D02*
X202289000Y-91440000D01*
D35*
X147828000Y-81280000D02*
X147828000Y-84328000D01*
X212852000Y-87376000D02*
X214068001Y-86159999D01*
X216854370Y-86360000D02*
X217932000Y-86360000D01*
X214068001Y-86159999D02*
X216654369Y-86159999D01*
X216654369Y-86159999D02*
X216854370Y-86360000D01*
X220472000Y-86360000D02*
X219148001Y-87683999D01*
X219148001Y-87683999D02*
X216969999Y-87683999D01*
X216969999Y-87683999D02*
X216662000Y-87376000D01*
X216662000Y-87376000D02*
X215392000Y-87376000D01*
X217932000Y-88900000D02*
X216717202Y-88900000D01*
X216717202Y-88900000D02*
X216517201Y-88699999D01*
X216517201Y-88699999D02*
X214068001Y-88699999D01*
X214068001Y-88699999D02*
X212852000Y-89916000D01*
X144287240Y-86375240D02*
X145303240Y-87391240D01*
X145303240Y-87391240D02*
X147304760Y-87391240D01*
X144206000Y-86375240D02*
X144287240Y-86375240D01*
X152908000Y-81280000D02*
X152908000Y-81788000D01*
X152908000Y-81788000D02*
X147304760Y-87391240D01*
X143256000Y-88374220D02*
X146255780Y-88374220D01*
X146255780Y-88374220D02*
X146304000Y-88326000D01*
X143698000Y-92489020D02*
X144606050Y-92489020D01*
X144606050Y-92489020D02*
X155448000Y-81647070D01*
X155448000Y-81647070D02*
X155448000Y-81280000D01*
X140208000Y-94488000D02*
X140208000Y-93472000D01*
X140208000Y-93472000D02*
X133984999Y-87248999D01*
X133984999Y-87248999D02*
X133096000Y-86360000D01*
X140208000Y-94488000D02*
X142748000Y-94488000D01*
X208214000Y-93472000D02*
X208214000Y-92832000D01*
X208214000Y-92832000D02*
X207264000Y-91882000D01*
X208214000Y-93472000D02*
X208280000Y-93472000D01*
D36*
X206248000Y-95470980D02*
X206013980Y-95470980D01*
X207264000Y-95470980D02*
X206248000Y-95470980D01*
X205740000Y-96520000D02*
X205740000Y-96012000D01*
X205740000Y-96012000D02*
X205740000Y-95197000D01*
X206248000Y-95504000D02*
X205740000Y-96012000D01*
X206248000Y-95470980D02*
X206248000Y-95504000D01*
X206013980Y-95470980D02*
X205740000Y-95197000D01*
X204175000Y-93632000D02*
X205740000Y-95197000D01*
X204175000Y-93132000D02*
X204175000Y-93632000D01*
D35*
X174244000Y-106680000D02*
X174244000Y-113792000D01*
X174244000Y-100792000D02*
X174244000Y-106680000D01*
X176116000Y-100203000D02*
X174833000Y-100203000D01*
X174833000Y-100203000D02*
X174244000Y-100792000D01*
D36*
X202289000Y-90424000D02*
X201676000Y-90424000D01*
X201676000Y-90424000D02*
X201168000Y-89916000D01*
X202875000Y-88732000D02*
X202875000Y-89838000D01*
X202875000Y-89838000D02*
X202289000Y-90424000D01*
X201168000Y-87376000D02*
X201168000Y-89916000D01*
X202257010Y-86286990D02*
X201168000Y-87376000D01*
X207772000Y-84328000D02*
X205813010Y-86286990D01*
X205813010Y-86286990D02*
X202257010Y-86286990D01*
X207772000Y-81280000D02*
X207772000Y-84328000D01*
X202225000Y-87626000D02*
X202983000Y-86931500D01*
X210312000Y-81280000D02*
X208416510Y-83175490D01*
X208416510Y-83175490D02*
X208416509Y-84594965D01*
X208416509Y-84594965D02*
X206079974Y-86931500D01*
X206079974Y-86931500D02*
X202983000Y-86931500D01*
X202225000Y-88732000D02*
X202225000Y-87626000D01*
X162560000Y-101092000D02*
X163845899Y-99806101D01*
X163845899Y-99806101D02*
X163845899Y-97950031D01*
X163845899Y-97950031D02*
X166066458Y-95729472D01*
X185265806Y-95729472D02*
X187297804Y-97761470D01*
X166066458Y-95729472D02*
X185265806Y-95729472D01*
X187297804Y-97761470D02*
X192597866Y-97761470D01*
X192597866Y-97761470D02*
X193468198Y-98631802D01*
X160020000Y-101092000D02*
X161305899Y-99806101D01*
X185506466Y-95148460D02*
X187538466Y-97180460D01*
X161305899Y-99806101D02*
X161305899Y-97950031D01*
X161305899Y-97950031D02*
X164107470Y-95148460D01*
X193276228Y-97180460D02*
X195367884Y-99272116D01*
X164107470Y-95148460D02*
X185506466Y-95148460D01*
X187538466Y-97180460D02*
X193276228Y-97180460D01*
X157480000Y-101092000D02*
X158765899Y-99806101D01*
X194188811Y-96012000D02*
X197967556Y-99790745D01*
X158765899Y-99806101D02*
X158765899Y-97950031D01*
X158765899Y-97950031D02*
X162729489Y-93986441D01*
X188013350Y-96012000D02*
X194188811Y-96012000D01*
X162729489Y-93986441D02*
X185987791Y-93986441D01*
X185987791Y-93986441D02*
X188013350Y-96012000D01*
X197967556Y-99790745D02*
X197967556Y-100228444D01*
X217932000Y-101600000D02*
X216602902Y-101600000D01*
X200912155Y-101092000D02*
X194670137Y-94849982D01*
X216602902Y-101600000D02*
X216094902Y-101092000D01*
X216094902Y-101092000D02*
X200912155Y-101092000D01*
X161351509Y-92824421D02*
X156225899Y-97950031D01*
X194670137Y-94849982D02*
X188494676Y-94849982D01*
X156225899Y-99806101D02*
X154940000Y-101092000D01*
X188494676Y-94849982D02*
X186469115Y-92824421D01*
X186469115Y-92824421D02*
X161351509Y-92824421D01*
X156225899Y-97950031D02*
X156225899Y-99806101D01*
X216597797Y-98688501D02*
X200152000Y-98688501D01*
X195151461Y-93687962D02*
X200152000Y-98688501D01*
X220472000Y-101600000D02*
X219084501Y-100212501D01*
X219084501Y-100212501D02*
X219084501Y-98506799D01*
X219084501Y-98506799D02*
X218485201Y-97907499D01*
X218485201Y-97907499D02*
X217378799Y-97907499D01*
X217378799Y-97907499D02*
X216597797Y-98688501D01*
X188976000Y-93687962D02*
X195151461Y-93687962D01*
X186950441Y-91662403D02*
X188976000Y-93687962D01*
X160870185Y-91662403D02*
X186950441Y-91662403D01*
X155234687Y-97297899D02*
X153654101Y-97297899D01*
X153654101Y-97297899D02*
X152400000Y-98552000D01*
X160870185Y-91662403D02*
X155234687Y-97297899D01*
X200854328Y-100212501D02*
X218250203Y-100212501D01*
X194910799Y-94268972D02*
X200854328Y-100212501D01*
X218250203Y-100212501D02*
X219084501Y-101046799D01*
X219084501Y-101046799D02*
X219084501Y-102987499D01*
X217932000Y-104140000D02*
X219084501Y-102987499D01*
X219084501Y-102987499D02*
X218693999Y-103378001D01*
X218693999Y-103378001D02*
X217932000Y-104140000D01*
X188735338Y-94268972D02*
X194910799Y-94268972D01*
X154940000Y-98552000D02*
X154940000Y-98414258D01*
X154940000Y-98414258D02*
X161110846Y-92243412D01*
X161110846Y-92243412D02*
X186709778Y-92243412D01*
X186709778Y-92243412D02*
X188735338Y-94268972D01*
X220472000Y-104140000D02*
X219319499Y-105292501D01*
X219319499Y-105292501D02*
X204290984Y-105292501D01*
X204290984Y-105292501D02*
X194429474Y-95430991D01*
X186228453Y-93405431D02*
X162488827Y-93405431D01*
X194429474Y-95430991D02*
X188254013Y-95430991D01*
X188254013Y-95430991D02*
X186228453Y-93405431D01*
X162488827Y-93405431D02*
X158184890Y-97709368D01*
X158184890Y-97709368D02*
X158184889Y-97847111D01*
X158184889Y-97847111D02*
X157480000Y-98552000D01*
X197077055Y-100655885D02*
X203101170Y-106680000D01*
X203101170Y-106680000D02*
X217932000Y-106680000D01*
X160020000Y-98552000D02*
X160020000Y-98414258D01*
X160020000Y-98414258D02*
X163866808Y-94567450D01*
X163866808Y-94567450D02*
X185747128Y-94567450D01*
X185747128Y-94567450D02*
X187779129Y-96599451D01*
X187779129Y-96599451D02*
X193954590Y-96599451D01*
X193954590Y-96599451D02*
X197077055Y-99721916D01*
X197077055Y-99721916D02*
X197077055Y-100655885D01*
X165100000Y-101092000D02*
X165100000Y-100076000D01*
X165100000Y-100076000D02*
X165369899Y-99806101D01*
X165369899Y-99806101D02*
X165701969Y-99806101D01*
X165701969Y-99806101D02*
X166354101Y-99153969D01*
X166354101Y-99153969D02*
X166354101Y-97981829D01*
X187057141Y-98342479D02*
X191860934Y-98342480D01*
X166354101Y-97981829D02*
X168025450Y-96310480D01*
X168025450Y-96310480D02*
X185025142Y-96310480D01*
X185025142Y-96310480D02*
X187057141Y-98342479D01*
X219319499Y-107832501D02*
X220472000Y-106680000D01*
X191860934Y-98342480D02*
X193548000Y-100029546D01*
X193548000Y-100029546D02*
X194889045Y-100029546D01*
X194889045Y-100029546D02*
X202692000Y-107832501D01*
X202692000Y-107832501D02*
X219319499Y-107832501D01*
X217932000Y-111760000D02*
X216408000Y-110236000D01*
X216408000Y-110236000D02*
X204273827Y-110236000D01*
X167640000Y-101092000D02*
X168925899Y-99806101D01*
X194648383Y-100610556D02*
X204273827Y-110236000D01*
X193307338Y-100610556D02*
X194648383Y-100610556D01*
X191620272Y-98923490D02*
X193307338Y-100610556D01*
X174379364Y-98923490D02*
X191620272Y-98923490D01*
X173496753Y-99806101D02*
X174379364Y-98923490D01*
X168925899Y-99806101D02*
X173496753Y-99806101D01*
X217394451Y-113000451D02*
X219231549Y-113000451D01*
X219231549Y-113000451D02*
X220472000Y-111760000D01*
X204216000Y-110998000D02*
X215900000Y-110998000D01*
X216662000Y-112268000D02*
X217394451Y-113000451D01*
X216662000Y-111760000D02*
X216662000Y-112268000D01*
X215900000Y-110998000D02*
X216662000Y-111760000D01*
X204216000Y-110998000D02*
X204214155Y-110998000D01*
X170180000Y-101092000D02*
X173032526Y-101092000D01*
X193066676Y-101191566D02*
X194407721Y-101191566D01*
X174612027Y-99512499D02*
X191387609Y-99512499D01*
X191387609Y-99512499D02*
X193066676Y-101191566D01*
X173032526Y-101092000D02*
X174612027Y-99512499D01*
X194407721Y-101191566D02*
X204214155Y-110998000D01*
D35*
X187579000Y-104140000D02*
X186182000Y-104140000D01*
X180340000Y-109982000D02*
X180340000Y-110744000D01*
X180340000Y-110744000D02*
X180340000Y-116840000D01*
X186182000Y-104140000D02*
X180340000Y-109982000D01*
X181102000Y-117602000D02*
X180340000Y-116840000D01*
X182960000Y-117602000D02*
X181102000Y-117602000D01*
X143764000Y-122936000D02*
X142748000Y-122936000D01*
X142748000Y-122936000D02*
X139700000Y-119888000D01*
X155648010Y-128724010D02*
X155648010Y-128528313D01*
X154935687Y-127815990D02*
X145687116Y-127815990D01*
X155648010Y-128528313D02*
X154935687Y-127815990D01*
X145687116Y-127815990D02*
X145487106Y-128016000D01*
X145487106Y-128016000D02*
X144780000Y-128016000D01*
X156972000Y-129540000D02*
X156464000Y-129540000D01*
X156464000Y-129540000D02*
X155648010Y-128724010D01*
X156972000Y-129032000D02*
X156972000Y-129540000D01*
D36*
X139700000Y-117348000D02*
X139700000Y-119888000D01*
X163908070Y-104140000D02*
X160020000Y-104140000D01*
X160020000Y-104140000D02*
X155956000Y-108204000D01*
X167640000Y-98552000D02*
X166935111Y-99256889D01*
X166354101Y-100521829D02*
X166354101Y-101693969D01*
X166935111Y-99256889D02*
X166935111Y-99940819D01*
X166935111Y-99940819D02*
X166354101Y-100521829D01*
X166354101Y-101693969D02*
X163908070Y-104140000D01*
X139700000Y-112045011D02*
X139700000Y-117348000D01*
X139985011Y-109839989D02*
X139985011Y-111760000D01*
X139985011Y-111760000D02*
X139700000Y-112045011D01*
X142240000Y-108585000D02*
X141240000Y-108585000D01*
X141240000Y-108585000D02*
X139985011Y-109839989D01*
D35*
X180020000Y-86614000D02*
X177832000Y-86614000D01*
X177832000Y-86614000D02*
X176994000Y-85776000D01*
X180020000Y-87884000D02*
X178086000Y-87884000D01*
X178086000Y-87884000D02*
X176994000Y-88976000D01*
D36*
X203033000Y-96520000D02*
X203332000Y-96520000D01*
X203332000Y-96520000D02*
X203525000Y-96713000D01*
X203525000Y-96028000D02*
X203525000Y-96713000D01*
X203525000Y-96713000D02*
X203840000Y-97028000D01*
X203525000Y-94488000D02*
X203525000Y-96028000D01*
X200594000Y-93980000D02*
X200594000Y-94962000D01*
X200594000Y-94962000D02*
X202152000Y-96520000D01*
X203525000Y-93132000D02*
X203525000Y-94488000D01*
X200594000Y-93980000D02*
X201325000Y-93980000D01*
X201325000Y-93980000D02*
X201833000Y-94488000D01*
X201833000Y-94488000D02*
X203525000Y-94488000D01*
X202152000Y-96520000D02*
X203033000Y-96520000D01*
X203033000Y-96520000D02*
X203525000Y-96028000D01*
D35*
X199118220Y-112776000D02*
X200152000Y-112776000D01*
X203708000Y-115062000D02*
X203708000Y-114975000D01*
X203708000Y-114975000D02*
X203748000Y-114935000D01*
X199118220Y-112776000D02*
X200367000Y-111527220D01*
X200367000Y-111527220D02*
X200367000Y-110998000D01*
X202477000Y-110998000D02*
X202946000Y-111467000D01*
X202946000Y-111467000D02*
X202946000Y-111506000D01*
X199070000Y-109474000D02*
X200953000Y-109474000D01*
X200953000Y-109474000D02*
X202477000Y-110998000D01*
X192532000Y-126492000D02*
X192532000Y-129540000D01*
X197693240Y-111252000D02*
X197119240Y-111826000D01*
X197693240Y-111252000D02*
X198374000Y-111252000D01*
X195326000Y-111826000D02*
X197119240Y-111826000D01*
D37*
G36*
X137226936Y-79494544D02*
X137339716Y-79607324D01*
X136972270Y-79824252D01*
X136584147Y-80784518D01*
X136593045Y-81820216D01*
X136972270Y-82735748D01*
X137339718Y-82952677D01*
X139012395Y-81280000D01*
X138998253Y-81265858D01*
X139177858Y-81086253D01*
X139192000Y-81100395D01*
X139206143Y-81086253D01*
X139385748Y-81265858D01*
X139371605Y-81280000D01*
X141044282Y-82952677D01*
X141411730Y-82735748D01*
X141523568Y-82459047D01*
X141760172Y-82813149D01*
X142213391Y-83115981D01*
X142748000Y-83222321D01*
X143282609Y-83115981D01*
X143735828Y-82813149D01*
X144018000Y-82390850D01*
X144300172Y-82813149D01*
X144753391Y-83115981D01*
X145288000Y-83222321D01*
X145822609Y-83115981D01*
X146275828Y-82813149D01*
X146558000Y-82390850D01*
X146840172Y-82813149D01*
X146939000Y-82879184D01*
X146939000Y-82942457D01*
X146830683Y-82962838D01*
X146614559Y-83101910D01*
X146469569Y-83314110D01*
X146418560Y-83566000D01*
X146418560Y-84425324D01*
X146304758Y-84311522D01*
X146256175Y-84279060D01*
X146016346Y-84118811D01*
X145676140Y-84051140D01*
X140722903Y-84051140D01*
X140695592Y-83905993D01*
X140556520Y-83689869D01*
X140417701Y-83595018D01*
X140647748Y-83499730D01*
X140864677Y-83132282D01*
X139192000Y-81459605D01*
X137519323Y-83132282D01*
X137736252Y-83499730D01*
X137969469Y-83593992D01*
X137840129Y-83677220D01*
X137695139Y-83889420D01*
X137644130Y-84141310D01*
X137644130Y-85738970D01*
X137688408Y-85974287D01*
X137827480Y-86190411D01*
X138039680Y-86335401D01*
X138156366Y-86359030D01*
X138056253Y-86377868D01*
X137840129Y-86516940D01*
X137695139Y-86729140D01*
X137644130Y-86981030D01*
X137644130Y-88578690D01*
X137688408Y-88814007D01*
X137827480Y-89030131D01*
X138039680Y-89175121D01*
X138291570Y-89226130D01*
X138917608Y-89226130D01*
X138748559Y-89334910D01*
X138603569Y-89547110D01*
X138552560Y-89799000D01*
X138552560Y-90559324D01*
X134619768Y-86626532D01*
X134620264Y-86058188D01*
X134388738Y-85497851D01*
X133960404Y-85068769D01*
X133400472Y-84836265D01*
X132794188Y-84835736D01*
X132233851Y-85067262D01*
X131804769Y-85495596D01*
X131572265Y-86055528D01*
X131572200Y-86130098D01*
X130991051Y-85548949D01*
X130618938Y-85300310D01*
X130180000Y-85213000D01*
X129493566Y-85213000D01*
X129369090Y-85019559D01*
X129156890Y-84874569D01*
X128905000Y-84823560D01*
X127127000Y-84823560D01*
X126891683Y-84867838D01*
X126675559Y-85006910D01*
X126530569Y-85219110D01*
X126479560Y-85471000D01*
X126479560Y-87249000D01*
X126523838Y-87484317D01*
X126662910Y-87700441D01*
X126875110Y-87845431D01*
X127127000Y-87896440D01*
X128905000Y-87896440D01*
X129140317Y-87852162D01*
X129356441Y-87713090D01*
X129497256Y-87507000D01*
X129704898Y-87507000D01*
X136058822Y-93860925D01*
X135919225Y-93860803D01*
X135765654Y-93924258D01*
X135705062Y-93936310D01*
X135654143Y-93970333D01*
X135501914Y-94033233D01*
X135384314Y-94150628D01*
X135332949Y-94184949D01*
X135298927Y-94235866D01*
X135182355Y-94352235D01*
X135118633Y-94505695D01*
X135084310Y-94557062D01*
X135072363Y-94617124D01*
X135009197Y-94769244D01*
X135009052Y-94935410D01*
X134997000Y-94996000D01*
X134997000Y-97254000D01*
X135079779Y-97670157D01*
X135084310Y-97692938D01*
X135332949Y-98065051D01*
X136145000Y-98877103D01*
X136145000Y-100076000D01*
X136156947Y-100136060D01*
X136156803Y-100300775D01*
X136220258Y-100454346D01*
X136232310Y-100514938D01*
X136266333Y-100565857D01*
X136294560Y-100634171D01*
X136294560Y-100726000D01*
X136338838Y-100961317D01*
X136477910Y-101177441D01*
X136690110Y-101322431D01*
X136942000Y-101373440D01*
X137642000Y-101373440D01*
X137877317Y-101329162D01*
X138093441Y-101190090D01*
X138238431Y-100977890D01*
X138241081Y-100964803D01*
X138377910Y-101177441D01*
X138515001Y-101271111D01*
X138515001Y-102403999D01*
X138578501Y-102723236D01*
X138578501Y-103377560D01*
X135450000Y-103377560D01*
X135214683Y-103421838D01*
X134998559Y-103560910D01*
X134853569Y-103773110D01*
X134802560Y-104025000D01*
X134802560Y-104915204D01*
X130035362Y-109682402D01*
X129842651Y-109970814D01*
X129774980Y-110311020D01*
X129774980Y-122506533D01*
X129842651Y-122846739D01*
X129984480Y-123059001D01*
X130035362Y-123135151D01*
X134582819Y-127682609D01*
X134871231Y-127875320D01*
X135211437Y-127942991D01*
X135941547Y-127942991D01*
X135702270Y-128084252D01*
X135314147Y-129044518D01*
X135323045Y-130080216D01*
X135702270Y-130995748D01*
X136069716Y-131212676D01*
X135956936Y-131325456D01*
X135976480Y-131345000D01*
X125703000Y-131345000D01*
X125703000Y-101587697D01*
X126096708Y-101587697D01*
X126352694Y-102207229D01*
X126826278Y-102681640D01*
X127445362Y-102938707D01*
X128115697Y-102939292D01*
X128735229Y-102683306D01*
X129209640Y-102209722D01*
X129466707Y-101590638D01*
X129466937Y-101327630D01*
X129975330Y-101538733D01*
X130585991Y-101539265D01*
X131150371Y-101306068D01*
X131582551Y-100874643D01*
X131816733Y-100310670D01*
X131817265Y-99700009D01*
X131584068Y-99135629D01*
X131152643Y-98703449D01*
X130588670Y-98469267D01*
X129978009Y-98468735D01*
X129413629Y-98701932D01*
X128981449Y-99133357D01*
X128747267Y-99697330D01*
X128747146Y-99835801D01*
X128737722Y-99826360D01*
X128118638Y-99569293D01*
X127448303Y-99568708D01*
X126828771Y-99824694D01*
X126354360Y-100298278D01*
X126097293Y-100917362D01*
X126096708Y-101587697D01*
X125703000Y-101587697D01*
X125703000Y-96584159D01*
X129381446Y-96584159D01*
X129467852Y-96840643D01*
X130041336Y-97050458D01*
X130651460Y-97024839D01*
X131096148Y-96840643D01*
X131182554Y-96584159D01*
X130282000Y-95683605D01*
X129381446Y-96584159D01*
X125703000Y-96584159D01*
X125703000Y-94587697D01*
X126096708Y-94587697D01*
X126352694Y-95207229D01*
X126826278Y-95681640D01*
X127445362Y-95938707D01*
X128115697Y-95939292D01*
X128735229Y-95683306D01*
X128752454Y-95666111D01*
X128761161Y-95873460D01*
X128945357Y-96318148D01*
X129201841Y-96404554D01*
X130102395Y-95504000D01*
X130461605Y-95504000D01*
X131362159Y-96404554D01*
X131618643Y-96318148D01*
X131828458Y-95744664D01*
X131802839Y-95134540D01*
X131618643Y-94689852D01*
X131362159Y-94603446D01*
X130461605Y-95504000D01*
X130102395Y-95504000D01*
X130088253Y-95489858D01*
X130267858Y-95310253D01*
X130282000Y-95324395D01*
X131182554Y-94423841D01*
X131096148Y-94167357D01*
X130522664Y-93957542D01*
X129912540Y-93983161D01*
X129467852Y-94167357D01*
X129467074Y-94169665D01*
X129467292Y-93920303D01*
X129211306Y-93300771D01*
X128737722Y-92826360D01*
X128118638Y-92569293D01*
X127448303Y-92568708D01*
X126828771Y-92824694D01*
X126354360Y-93298278D01*
X126097293Y-93917362D01*
X126096708Y-94587697D01*
X125703000Y-94587697D01*
X125703000Y-79475000D01*
X137246480Y-79475000D01*
X137226936Y-79494544D01*
X137226936Y-79494544D01*
G37*
X137226936Y-79494544D02*
X137339716Y-79607324D01*
X136972270Y-79824252D01*
X136584147Y-80784518D01*
X136593045Y-81820216D01*
X136972270Y-82735748D01*
X137339718Y-82952677D01*
X139012395Y-81280000D01*
X138998253Y-81265858D01*
X139177858Y-81086253D01*
X139192000Y-81100395D01*
X139206143Y-81086253D01*
X139385748Y-81265858D01*
X139371605Y-81280000D01*
X141044282Y-82952677D01*
X141411730Y-82735748D01*
X141523568Y-82459047D01*
X141760172Y-82813149D01*
X142213391Y-83115981D01*
X142748000Y-83222321D01*
X143282609Y-83115981D01*
X143735828Y-82813149D01*
X144018000Y-82390850D01*
X144300172Y-82813149D01*
X144753391Y-83115981D01*
X145288000Y-83222321D01*
X145822609Y-83115981D01*
X146275828Y-82813149D01*
X146558000Y-82390850D01*
X146840172Y-82813149D01*
X146939000Y-82879184D01*
X146939000Y-82942457D01*
X146830683Y-82962838D01*
X146614559Y-83101910D01*
X146469569Y-83314110D01*
X146418560Y-83566000D01*
X146418560Y-84425324D01*
X146304758Y-84311522D01*
X146256175Y-84279060D01*
X146016346Y-84118811D01*
X145676140Y-84051140D01*
X140722903Y-84051140D01*
X140695592Y-83905993D01*
X140556520Y-83689869D01*
X140417701Y-83595018D01*
X140647748Y-83499730D01*
X140864677Y-83132282D01*
X139192000Y-81459605D01*
X137519323Y-83132282D01*
X137736252Y-83499730D01*
X137969469Y-83593992D01*
X137840129Y-83677220D01*
X137695139Y-83889420D01*
X137644130Y-84141310D01*
X137644130Y-85738970D01*
X137688408Y-85974287D01*
X137827480Y-86190411D01*
X138039680Y-86335401D01*
X138156366Y-86359030D01*
X138056253Y-86377868D01*
X137840129Y-86516940D01*
X137695139Y-86729140D01*
X137644130Y-86981030D01*
X137644130Y-88578690D01*
X137688408Y-88814007D01*
X137827480Y-89030131D01*
X138039680Y-89175121D01*
X138291570Y-89226130D01*
X138917608Y-89226130D01*
X138748559Y-89334910D01*
X138603569Y-89547110D01*
X138552560Y-89799000D01*
X138552560Y-90559324D01*
X134619768Y-86626532D01*
X134620264Y-86058188D01*
X134388738Y-85497851D01*
X133960404Y-85068769D01*
X133400472Y-84836265D01*
X132794188Y-84835736D01*
X132233851Y-85067262D01*
X131804769Y-85495596D01*
X131572265Y-86055528D01*
X131572200Y-86130098D01*
X130991051Y-85548949D01*
X130618938Y-85300310D01*
X130180000Y-85213000D01*
X129493566Y-85213000D01*
X129369090Y-85019559D01*
X129156890Y-84874569D01*
X128905000Y-84823560D01*
X127127000Y-84823560D01*
X126891683Y-84867838D01*
X126675559Y-85006910D01*
X126530569Y-85219110D01*
X126479560Y-85471000D01*
X126479560Y-87249000D01*
X126523838Y-87484317D01*
X126662910Y-87700441D01*
X126875110Y-87845431D01*
X127127000Y-87896440D01*
X128905000Y-87896440D01*
X129140317Y-87852162D01*
X129356441Y-87713090D01*
X129497256Y-87507000D01*
X129704898Y-87507000D01*
X136058822Y-93860925D01*
X135919225Y-93860803D01*
X135765654Y-93924258D01*
X135705062Y-93936310D01*
X135654143Y-93970333D01*
X135501914Y-94033233D01*
X135384314Y-94150628D01*
X135332949Y-94184949D01*
X135298927Y-94235866D01*
X135182355Y-94352235D01*
X135118633Y-94505695D01*
X135084310Y-94557062D01*
X135072363Y-94617124D01*
X135009197Y-94769244D01*
X135009052Y-94935410D01*
X134997000Y-94996000D01*
X134997000Y-97254000D01*
X135079779Y-97670157D01*
X135084310Y-97692938D01*
X135332949Y-98065051D01*
X136145000Y-98877103D01*
X136145000Y-100076000D01*
X136156947Y-100136060D01*
X136156803Y-100300775D01*
X136220258Y-100454346D01*
X136232310Y-100514938D01*
X136266333Y-100565857D01*
X136294560Y-100634171D01*
X136294560Y-100726000D01*
X136338838Y-100961317D01*
X136477910Y-101177441D01*
X136690110Y-101322431D01*
X136942000Y-101373440D01*
X137642000Y-101373440D01*
X137877317Y-101329162D01*
X138093441Y-101190090D01*
X138238431Y-100977890D01*
X138241081Y-100964803D01*
X138377910Y-101177441D01*
X138515001Y-101271111D01*
X138515001Y-102403999D01*
X138578501Y-102723236D01*
X138578501Y-103377560D01*
X135450000Y-103377560D01*
X135214683Y-103421838D01*
X134998559Y-103560910D01*
X134853569Y-103773110D01*
X134802560Y-104025000D01*
X134802560Y-104915204D01*
X130035362Y-109682402D01*
X129842651Y-109970814D01*
X129774980Y-110311020D01*
X129774980Y-122506533D01*
X129842651Y-122846739D01*
X129984480Y-123059001D01*
X130035362Y-123135151D01*
X134582819Y-127682609D01*
X134871231Y-127875320D01*
X135211437Y-127942991D01*
X135941547Y-127942991D01*
X135702270Y-128084252D01*
X135314147Y-129044518D01*
X135323045Y-130080216D01*
X135702270Y-130995748D01*
X136069716Y-131212676D01*
X135956936Y-131325456D01*
X135976480Y-131345000D01*
X125703000Y-131345000D01*
X125703000Y-101587697D01*
X126096708Y-101587697D01*
X126352694Y-102207229D01*
X126826278Y-102681640D01*
X127445362Y-102938707D01*
X128115697Y-102939292D01*
X128735229Y-102683306D01*
X129209640Y-102209722D01*
X129466707Y-101590638D01*
X129466937Y-101327630D01*
X129975330Y-101538733D01*
X130585991Y-101539265D01*
X131150371Y-101306068D01*
X131582551Y-100874643D01*
X131816733Y-100310670D01*
X131817265Y-99700009D01*
X131584068Y-99135629D01*
X131152643Y-98703449D01*
X130588670Y-98469267D01*
X129978009Y-98468735D01*
X129413629Y-98701932D01*
X128981449Y-99133357D01*
X128747267Y-99697330D01*
X128747146Y-99835801D01*
X128737722Y-99826360D01*
X128118638Y-99569293D01*
X127448303Y-99568708D01*
X126828771Y-99824694D01*
X126354360Y-100298278D01*
X126097293Y-100917362D01*
X126096708Y-101587697D01*
X125703000Y-101587697D01*
X125703000Y-96584159D01*
X129381446Y-96584159D01*
X129467852Y-96840643D01*
X130041336Y-97050458D01*
X130651460Y-97024839D01*
X131096148Y-96840643D01*
X131182554Y-96584159D01*
X130282000Y-95683605D01*
X129381446Y-96584159D01*
X125703000Y-96584159D01*
X125703000Y-94587697D01*
X126096708Y-94587697D01*
X126352694Y-95207229D01*
X126826278Y-95681640D01*
X127445362Y-95938707D01*
X128115697Y-95939292D01*
X128735229Y-95683306D01*
X128752454Y-95666111D01*
X128761161Y-95873460D01*
X128945357Y-96318148D01*
X129201841Y-96404554D01*
X130102395Y-95504000D01*
X130461605Y-95504000D01*
X131362159Y-96404554D01*
X131618643Y-96318148D01*
X131828458Y-95744664D01*
X131802839Y-95134540D01*
X131618643Y-94689852D01*
X131362159Y-94603446D01*
X130461605Y-95504000D01*
X130102395Y-95504000D01*
X130088253Y-95489858D01*
X130267858Y-95310253D01*
X130282000Y-95324395D01*
X131182554Y-94423841D01*
X131096148Y-94167357D01*
X130522664Y-93957542D01*
X129912540Y-93983161D01*
X129467852Y-94167357D01*
X129467074Y-94169665D01*
X129467292Y-93920303D01*
X129211306Y-93300771D01*
X128737722Y-92826360D01*
X128118638Y-92569293D01*
X127448303Y-92568708D01*
X126828771Y-92824694D01*
X126354360Y-93298278D01*
X126097293Y-93917362D01*
X126096708Y-94587697D01*
X125703000Y-94587697D01*
X125703000Y-79475000D01*
X137246480Y-79475000D01*
X137226936Y-79494544D01*
G36*
X222277000Y-80314447D02*
X222277000Y-127594480D01*
X222257456Y-127574936D01*
X222144676Y-127687716D01*
X221927748Y-127320270D01*
X220967482Y-126932147D01*
X219931784Y-126941045D01*
X219016252Y-127320270D01*
X218799323Y-127687718D01*
X220472000Y-129360395D01*
X220486143Y-129346253D01*
X220665748Y-129525858D01*
X220651605Y-129540000D01*
X220665748Y-129554143D01*
X220486143Y-129733748D01*
X220472000Y-129719605D01*
X220457858Y-129733748D01*
X220278253Y-129554143D01*
X220292395Y-129540000D01*
X218619718Y-127867323D01*
X218252270Y-128084252D01*
X217864147Y-129044518D01*
X217873045Y-130080216D01*
X218252270Y-130995748D01*
X218619716Y-131212676D01*
X218506936Y-131325456D01*
X218526480Y-131345000D01*
X215972975Y-131345000D01*
X216379828Y-131073149D01*
X216682660Y-130619930D01*
X216789000Y-130085321D01*
X216789000Y-128994679D01*
X216682660Y-128460070D01*
X216379828Y-128006851D01*
X216207113Y-127891446D01*
X216389317Y-127857162D01*
X216605441Y-127718090D01*
X216750431Y-127505890D01*
X216801440Y-127254000D01*
X216801440Y-125730000D01*
X216757162Y-125494683D01*
X216722112Y-125440213D01*
X217131392Y-125440213D01*
X217200857Y-125682397D01*
X217724302Y-125869144D01*
X218279368Y-125841362D01*
X218663143Y-125682397D01*
X218732608Y-125440213D01*
X219671392Y-125440213D01*
X219740857Y-125682397D01*
X220264302Y-125869144D01*
X220819368Y-125841362D01*
X221203143Y-125682397D01*
X221272608Y-125440213D01*
X220472000Y-124639605D01*
X219671392Y-125440213D01*
X218732608Y-125440213D01*
X217932000Y-124639605D01*
X217131392Y-125440213D01*
X216722112Y-125440213D01*
X216618090Y-125278559D01*
X216405890Y-125133569D01*
X216215431Y-125095000D01*
X216280309Y-125095000D01*
X216513698Y-124998327D01*
X216595749Y-124916276D01*
X216709603Y-125191143D01*
X216951787Y-125260608D01*
X217752395Y-124460000D01*
X218111605Y-124460000D01*
X218912213Y-125260608D01*
X219154397Y-125191143D01*
X219198453Y-125067656D01*
X219249603Y-125191143D01*
X219491787Y-125260608D01*
X220292395Y-124460000D01*
X220651605Y-124460000D01*
X221452213Y-125260608D01*
X221694397Y-125191143D01*
X221881144Y-124667698D01*
X221853362Y-124112632D01*
X221694397Y-123728857D01*
X221452213Y-123659392D01*
X220651605Y-124460000D01*
X220292395Y-124460000D01*
X219491787Y-123659392D01*
X219249603Y-123728857D01*
X219205547Y-123852344D01*
X219154397Y-123728857D01*
X218912213Y-123659392D01*
X218111605Y-124460000D01*
X217752395Y-124460000D01*
X216951787Y-123659392D01*
X216709603Y-123728857D01*
X216663456Y-123858206D01*
X216630250Y-123825000D01*
X215519000Y-123825000D01*
X215519000Y-123845000D01*
X215265000Y-123845000D01*
X215265000Y-123825000D01*
X214153750Y-123825000D01*
X214122000Y-123856750D01*
X214090250Y-123825000D01*
X212979000Y-123825000D01*
X212979000Y-123845000D01*
X212725000Y-123845000D01*
X212725000Y-123825000D01*
X211613750Y-123825000D01*
X211582000Y-123856750D01*
X211550250Y-123825000D01*
X210439000Y-123825000D01*
X210439000Y-123845000D01*
X210185000Y-123845000D01*
X210185000Y-123825000D01*
X209073750Y-123825000D01*
X208915000Y-123983750D01*
X208915000Y-124586310D01*
X209011673Y-124819699D01*
X209190302Y-124998327D01*
X209423691Y-125095000D01*
X209483887Y-125095000D01*
X209314683Y-125126838D01*
X209098559Y-125265910D01*
X209042626Y-125347770D01*
X208998090Y-125278559D01*
X208785890Y-125133569D01*
X208534000Y-125082560D01*
X207010000Y-125082560D01*
X206774683Y-125126838D01*
X206558559Y-125265910D01*
X206413569Y-125478110D01*
X206362560Y-125730000D01*
X206362560Y-127254000D01*
X206406838Y-127489317D01*
X206545910Y-127705441D01*
X206758110Y-127850431D01*
X206957762Y-127890862D01*
X206784172Y-128006851D01*
X206502000Y-128429150D01*
X206219828Y-128006851D01*
X205766609Y-127704019D01*
X205232000Y-127597679D01*
X204697391Y-127704019D01*
X204244172Y-128006851D01*
X203962000Y-128429150D01*
X203679828Y-128006851D01*
X203226609Y-127704019D01*
X202692000Y-127597679D01*
X202157391Y-127704019D01*
X201704172Y-128006851D01*
X201422000Y-128429150D01*
X201139828Y-128006851D01*
X200686609Y-127704019D01*
X200152000Y-127597679D01*
X199617391Y-127704019D01*
X199164172Y-128006851D01*
X198882000Y-128429150D01*
X198599828Y-128006851D01*
X198146609Y-127704019D01*
X197612000Y-127597679D01*
X197077391Y-127704019D01*
X196624172Y-128006851D01*
X196321340Y-128460070D01*
X196215000Y-128994679D01*
X196215000Y-130085321D01*
X196321340Y-130619930D01*
X196624172Y-131073149D01*
X197031025Y-131345000D01*
X193112975Y-131345000D01*
X193519828Y-131073149D01*
X193822660Y-130619930D01*
X193929000Y-130085321D01*
X193929000Y-128994679D01*
X193822660Y-128460070D01*
X193519828Y-128006851D01*
X193421000Y-127940816D01*
X193421000Y-127877543D01*
X193529317Y-127857162D01*
X193745441Y-127718090D01*
X193890431Y-127505890D01*
X193941440Y-127254000D01*
X193941440Y-125730000D01*
X193897162Y-125494683D01*
X193758090Y-125278559D01*
X193736132Y-125263556D01*
X194105051Y-125017051D01*
X196312412Y-122809690D01*
X208915000Y-122809690D01*
X208915000Y-123412250D01*
X209073750Y-123571000D01*
X210185000Y-123571000D01*
X210185000Y-122459750D01*
X210439000Y-122459750D01*
X210439000Y-123571000D01*
X211550250Y-123571000D01*
X211582000Y-123539250D01*
X211613750Y-123571000D01*
X212725000Y-123571000D01*
X212725000Y-122459750D01*
X212979000Y-122459750D01*
X212979000Y-123571000D01*
X214090250Y-123571000D01*
X214122000Y-123539250D01*
X214153750Y-123571000D01*
X215265000Y-123571000D01*
X215265000Y-122459750D01*
X215106250Y-122301000D01*
X214503691Y-122301000D01*
X214270302Y-122397673D01*
X214122000Y-122545974D01*
X213973698Y-122397673D01*
X213740309Y-122301000D01*
X213137750Y-122301000D01*
X212979000Y-122459750D01*
X212725000Y-122459750D01*
X212566250Y-122301000D01*
X211963691Y-122301000D01*
X211730302Y-122397673D01*
X211582000Y-122545974D01*
X211433698Y-122397673D01*
X211200309Y-122301000D01*
X210597750Y-122301000D01*
X210439000Y-122459750D01*
X210185000Y-122459750D01*
X210026250Y-122301000D01*
X209423691Y-122301000D01*
X209190302Y-122397673D01*
X209011673Y-122576301D01*
X208915000Y-122809690D01*
X196312412Y-122809690D01*
X198423051Y-120699052D01*
X198457074Y-120648132D01*
X198573645Y-120531765D01*
X198637367Y-120378306D01*
X198671690Y-120326938D01*
X198683637Y-120266876D01*
X198746803Y-120114756D01*
X198746948Y-119948585D01*
X198758999Y-119888000D01*
X198747053Y-119827944D01*
X198747197Y-119663225D01*
X198683742Y-119509653D01*
X198671690Y-119449062D01*
X198637667Y-119398143D01*
X198574767Y-119245914D01*
X198457372Y-119128314D01*
X198423051Y-119076949D01*
X198372134Y-119042927D01*
X198255765Y-118926355D01*
X198102305Y-118862633D01*
X198050938Y-118828310D01*
X197990876Y-118816363D01*
X197838756Y-118753197D01*
X197672585Y-118753052D01*
X197612000Y-118741001D01*
X197551944Y-118752947D01*
X197387225Y-118752803D01*
X197233653Y-118816258D01*
X197173062Y-118828310D01*
X197122143Y-118862333D01*
X196969914Y-118925233D01*
X196852316Y-119042626D01*
X196800948Y-119076949D01*
X192818898Y-123059000D01*
X191262000Y-123059000D01*
X190823932Y-123146137D01*
X190823062Y-123146310D01*
X190450948Y-123394949D01*
X189180949Y-124664949D01*
X189146927Y-124715866D01*
X189030355Y-124832235D01*
X188966633Y-124985695D01*
X188932310Y-125037062D01*
X188920363Y-125097124D01*
X188857197Y-125249244D01*
X188857052Y-125415415D01*
X188845001Y-125476000D01*
X188856947Y-125536056D01*
X188856803Y-125700775D01*
X188920258Y-125854347D01*
X188932310Y-125914938D01*
X188966333Y-125965857D01*
X189029233Y-126118086D01*
X189146628Y-126235686D01*
X189180949Y-126287051D01*
X189231866Y-126321073D01*
X189348235Y-126437645D01*
X189501695Y-126501367D01*
X189553062Y-126535690D01*
X189613124Y-126547637D01*
X189765244Y-126610803D01*
X189931415Y-126610948D01*
X189992000Y-126622999D01*
X190052056Y-126611053D01*
X190216775Y-126611197D01*
X190370347Y-126547742D01*
X190430938Y-126535690D01*
X190481857Y-126501667D01*
X190634086Y-126438767D01*
X190751686Y-126321372D01*
X190803051Y-126287051D01*
X191122560Y-125967542D01*
X191122560Y-127254000D01*
X191166838Y-127489317D01*
X191305910Y-127705441D01*
X191518110Y-127850431D01*
X191643000Y-127875722D01*
X191643000Y-127940816D01*
X191544172Y-128006851D01*
X191262000Y-128429150D01*
X190979828Y-128006851D01*
X190526609Y-127704019D01*
X189992000Y-127597679D01*
X189844295Y-127627059D01*
X183986587Y-121769351D01*
X183897133Y-121709580D01*
X183698175Y-121576640D01*
X183511157Y-121539440D01*
X184710000Y-121539440D01*
X184945317Y-121495162D01*
X185161441Y-121356090D01*
X185306431Y-121143890D01*
X185357440Y-120892000D01*
X185357440Y-120181400D01*
X185636080Y-119902761D01*
X185745910Y-120073441D01*
X185958110Y-120218431D01*
X186210000Y-120269440D01*
X189710000Y-120269440D01*
X189945317Y-120225162D01*
X190161441Y-120086090D01*
X190306431Y-119873890D01*
X190357440Y-119622000D01*
X190357440Y-118731796D01*
X193162129Y-115927107D01*
X193264775Y-115927197D01*
X193682086Y-115754767D01*
X194001645Y-115435765D01*
X194174803Y-115018756D01*
X194175197Y-114567225D01*
X194002767Y-114149914D01*
X193864844Y-114011750D01*
X194041000Y-114011750D01*
X194041000Y-114202309D01*
X194137673Y-114435698D01*
X194316301Y-114614327D01*
X194549690Y-114711000D01*
X195040250Y-114711000D01*
X195199000Y-114552250D01*
X195199000Y-113853000D01*
X195453000Y-113853000D01*
X195453000Y-114552250D01*
X195611750Y-114711000D01*
X196102310Y-114711000D01*
X196317132Y-114622018D01*
X196359491Y-114664377D01*
X196592880Y-114761050D01*
X196833490Y-114761050D01*
X196992240Y-114602300D01*
X196992240Y-113853000D01*
X197246240Y-113853000D01*
X197246240Y-114602300D01*
X197404990Y-114761050D01*
X197645600Y-114761050D01*
X197878989Y-114664377D01*
X198057617Y-114485748D01*
X198154290Y-114252359D01*
X198154290Y-114185000D01*
X201350560Y-114185000D01*
X201350560Y-115685000D01*
X201394838Y-115920317D01*
X201533910Y-116136441D01*
X201633860Y-116204734D01*
X201546559Y-116260910D01*
X201401569Y-116473110D01*
X201350560Y-116725000D01*
X201350560Y-118225000D01*
X201394838Y-118460317D01*
X201533910Y-118676441D01*
X201633860Y-118744734D01*
X201546559Y-118800910D01*
X201401569Y-119013110D01*
X201350560Y-119265000D01*
X201350560Y-120765000D01*
X201394838Y-121000317D01*
X201533910Y-121216441D01*
X201746110Y-121361431D01*
X201998000Y-121412440D01*
X205498000Y-121412440D01*
X205733317Y-121368162D01*
X205949441Y-121229090D01*
X206094431Y-121016890D01*
X206145440Y-120765000D01*
X206145440Y-119265000D01*
X206101363Y-119030750D01*
X206363000Y-119030750D01*
X206363000Y-119621309D01*
X206459673Y-119854698D01*
X206638301Y-120033327D01*
X206871690Y-120130000D01*
X208462250Y-120130000D01*
X208621000Y-119971250D01*
X208621000Y-118872000D01*
X208875000Y-118872000D01*
X208875000Y-119971250D01*
X209033750Y-120130000D01*
X210624310Y-120130000D01*
X210857699Y-120033327D01*
X211036327Y-119854698D01*
X211133000Y-119621309D01*
X211133000Y-119030750D01*
X210974250Y-118872000D01*
X208875000Y-118872000D01*
X208621000Y-118872000D01*
X206521750Y-118872000D01*
X206363000Y-119030750D01*
X206101363Y-119030750D01*
X206101162Y-119029683D01*
X205962090Y-118813559D01*
X205862140Y-118745266D01*
X205949441Y-118689090D01*
X206094431Y-118476890D01*
X206145440Y-118225000D01*
X206145440Y-116725000D01*
X206101363Y-116490750D01*
X206363000Y-116490750D01*
X206363000Y-117081309D01*
X206459673Y-117314698D01*
X206619974Y-117475000D01*
X206459673Y-117635302D01*
X206363000Y-117868691D01*
X206363000Y-118459250D01*
X206521750Y-118618000D01*
X208621000Y-118618000D01*
X208621000Y-117518750D01*
X208577250Y-117475000D01*
X208621000Y-117431250D01*
X208621000Y-116332000D01*
X208875000Y-116332000D01*
X208875000Y-117431250D01*
X208918750Y-117475000D01*
X208875000Y-117518750D01*
X208875000Y-118618000D01*
X210974250Y-118618000D01*
X211133000Y-118459250D01*
X211133000Y-117868691D01*
X211036327Y-117635302D01*
X210876026Y-117475000D01*
X211036327Y-117314698D01*
X211133000Y-117081309D01*
X211133000Y-116490750D01*
X210974250Y-116332000D01*
X208875000Y-116332000D01*
X208621000Y-116332000D01*
X206521750Y-116332000D01*
X206363000Y-116490750D01*
X206101363Y-116490750D01*
X206101162Y-116489683D01*
X205962090Y-116273559D01*
X205862140Y-116205266D01*
X205949441Y-116149090D01*
X206094431Y-115936890D01*
X206145440Y-115685000D01*
X206145440Y-114185000D01*
X206101363Y-113950750D01*
X206363000Y-113950750D01*
X206363000Y-114541309D01*
X206459673Y-114774698D01*
X206619974Y-114935000D01*
X206459673Y-115095302D01*
X206363000Y-115328691D01*
X206363000Y-115919250D01*
X206521750Y-116078000D01*
X208621000Y-116078000D01*
X208621000Y-114978750D01*
X208577250Y-114935000D01*
X208621000Y-114891250D01*
X208621000Y-113792000D01*
X208875000Y-113792000D01*
X208875000Y-114891250D01*
X208918750Y-114935000D01*
X208875000Y-114978750D01*
X208875000Y-116078000D01*
X210974250Y-116078000D01*
X211133000Y-115919250D01*
X211133000Y-115328691D01*
X211036327Y-115095302D01*
X210876026Y-114935000D01*
X211036327Y-114774698D01*
X211133000Y-114541309D01*
X211133000Y-113950750D01*
X210974250Y-113792000D01*
X208875000Y-113792000D01*
X208621000Y-113792000D01*
X206521750Y-113792000D01*
X206363000Y-113950750D01*
X206101363Y-113950750D01*
X206101162Y-113949683D01*
X205962090Y-113733559D01*
X205749890Y-113588569D01*
X205498000Y-113537560D01*
X201998000Y-113537560D01*
X201762683Y-113581838D01*
X201546559Y-113720910D01*
X201401569Y-113933110D01*
X201350560Y-114185000D01*
X198154290Y-114185000D01*
X198154290Y-114011750D01*
X197995540Y-113853000D01*
X197246240Y-113853000D01*
X196992240Y-113853000D01*
X195453000Y-113853000D01*
X195199000Y-113853000D01*
X194199750Y-113853000D01*
X194041000Y-114011750D01*
X193864844Y-114011750D01*
X193683765Y-113830355D01*
X193266756Y-113657197D01*
X192815225Y-113656803D01*
X192397914Y-113829233D01*
X192078355Y-114148235D01*
X191905197Y-114565244D01*
X191905106Y-114669658D01*
X190357440Y-116217324D01*
X190357440Y-116191796D01*
X191128618Y-115420618D01*
X191321329Y-115132206D01*
X191389000Y-114792000D01*
X191389000Y-112894890D01*
X191740775Y-112895197D01*
X192158086Y-112722767D01*
X192477645Y-112403765D01*
X192650803Y-111986756D01*
X192650894Y-111882342D01*
X193160618Y-111372618D01*
X193199849Y-111313905D01*
X193353329Y-111084206D01*
X193421000Y-110744000D01*
X193421000Y-103178646D01*
X193682086Y-103070767D01*
X194001645Y-102751765D01*
X194174803Y-102334756D01*
X194174985Y-102126264D01*
X200633721Y-108585000D01*
X200020792Y-108585000D01*
X199884090Y-108372559D01*
X199671890Y-108227569D01*
X199420000Y-108176560D01*
X198720000Y-108176560D01*
X198484683Y-108220838D01*
X198268559Y-108359910D01*
X198238827Y-108403424D01*
X198239197Y-107979225D01*
X198066767Y-107561914D01*
X197747765Y-107242355D01*
X197330756Y-107069197D01*
X196879225Y-107068803D01*
X196461914Y-107241233D01*
X196142355Y-107560235D01*
X195969197Y-107977244D01*
X195968803Y-108428775D01*
X196141233Y-108846086D01*
X196172560Y-108877468D01*
X196172560Y-110124000D01*
X196216838Y-110359317D01*
X196355910Y-110575441D01*
X196568110Y-110720431D01*
X196820000Y-110771440D01*
X196916564Y-110771440D01*
X196909494Y-110778510D01*
X196719190Y-110778510D01*
X196483873Y-110822788D01*
X196309246Y-110935157D01*
X196227890Y-110879569D01*
X195976000Y-110828560D01*
X194676000Y-110828560D01*
X194440683Y-110872838D01*
X194224559Y-111011910D01*
X194079569Y-111224110D01*
X194028560Y-111476000D01*
X194028560Y-112176000D01*
X194072838Y-112411317D01*
X194211910Y-112627441D01*
X194424110Y-112772431D01*
X194457490Y-112779191D01*
X194316301Y-112837673D01*
X194137673Y-113016302D01*
X194041000Y-113249691D01*
X194041000Y-113440250D01*
X194199750Y-113599000D01*
X195199000Y-113599000D01*
X195199000Y-113579000D01*
X195453000Y-113579000D01*
X195453000Y-113599000D01*
X196992240Y-113599000D01*
X196992240Y-113579000D01*
X197246240Y-113579000D01*
X197246240Y-113599000D01*
X197995540Y-113599000D01*
X198141697Y-113452843D01*
X198254080Y-113627491D01*
X198466280Y-113772481D01*
X198718170Y-113823490D01*
X199518270Y-113823490D01*
X199653633Y-113798020D01*
X199925244Y-113910803D01*
X200376775Y-113911197D01*
X200794086Y-113738767D01*
X201113645Y-113419765D01*
X201286803Y-113002756D01*
X201286989Y-112788691D01*
X206363000Y-112788691D01*
X206363000Y-113379250D01*
X206521750Y-113538000D01*
X208621000Y-113538000D01*
X208621000Y-112438750D01*
X208875000Y-112438750D01*
X208875000Y-113538000D01*
X210974250Y-113538000D01*
X211133000Y-113379250D01*
X211133000Y-112788691D01*
X211036327Y-112555302D01*
X210857699Y-112376673D01*
X210624310Y-112280000D01*
X209033750Y-112280000D01*
X208875000Y-112438750D01*
X208621000Y-112438750D01*
X208462250Y-112280000D01*
X206871690Y-112280000D01*
X206638301Y-112376673D01*
X206459673Y-112555302D01*
X206363000Y-112788691D01*
X201286989Y-112788691D01*
X201287197Y-112551225D01*
X201114767Y-112133914D01*
X201052168Y-112071206D01*
X201188330Y-111867425D01*
X201256000Y-111527220D01*
X201256000Y-111478448D01*
X201258431Y-111474890D01*
X201309440Y-111223000D01*
X201309440Y-111087676D01*
X201555372Y-111333608D01*
X201578838Y-111458317D01*
X201717910Y-111674441D01*
X201814912Y-111740720D01*
X201983233Y-112148086D01*
X202302235Y-112467645D01*
X202719244Y-112640803D01*
X203170775Y-112641197D01*
X203588086Y-112468767D01*
X203907645Y-112149765D01*
X204056171Y-111792076D01*
X204214155Y-111823501D01*
X204214160Y-111823500D01*
X211481137Y-111823500D01*
X211442560Y-112014000D01*
X211442560Y-113538000D01*
X211486838Y-113773317D01*
X211625910Y-113989441D01*
X211707770Y-114045374D01*
X211638559Y-114089910D01*
X211493569Y-114302110D01*
X211442560Y-114554000D01*
X211442560Y-116078000D01*
X211486838Y-116313317D01*
X211625910Y-116529441D01*
X211707770Y-116585374D01*
X211638559Y-116629910D01*
X211493569Y-116842110D01*
X211442560Y-117094000D01*
X211442560Y-118618000D01*
X211486838Y-118853317D01*
X211625910Y-119069441D01*
X211838110Y-119214431D01*
X212090000Y-119265440D01*
X213614000Y-119265440D01*
X213849317Y-119221162D01*
X214065441Y-119082090D01*
X214121374Y-119000230D01*
X214165910Y-119069441D01*
X214247770Y-119125374D01*
X214178559Y-119169910D01*
X214033569Y-119382110D01*
X213982560Y-119634000D01*
X213982560Y-121158000D01*
X214026838Y-121393317D01*
X214165910Y-121609441D01*
X214378110Y-121754431D01*
X214630000Y-121805440D01*
X216154000Y-121805440D01*
X216389317Y-121761162D01*
X216535220Y-121667276D01*
X216534758Y-122196661D01*
X216691125Y-122575099D01*
X216513698Y-122397673D01*
X216280309Y-122301000D01*
X215677750Y-122301000D01*
X215519000Y-122459750D01*
X215519000Y-123571000D01*
X216630250Y-123571000D01*
X216789000Y-123412250D01*
X216789000Y-122809690D01*
X216748430Y-122711746D01*
X217139630Y-123103629D01*
X217331727Y-123183395D01*
X217200857Y-123237603D01*
X217131392Y-123479787D01*
X217932000Y-124280395D01*
X218732608Y-123479787D01*
X218663143Y-123237603D01*
X218522682Y-123187491D01*
X218722303Y-123105010D01*
X219115629Y-122712370D01*
X219201949Y-122504488D01*
X219286990Y-122710303D01*
X219679630Y-123103629D01*
X219871727Y-123183395D01*
X219740857Y-123237603D01*
X219671392Y-123479787D01*
X220472000Y-124280395D01*
X221272608Y-123479787D01*
X221203143Y-123237603D01*
X221062682Y-123187491D01*
X221262303Y-123105010D01*
X221655629Y-122712370D01*
X221868757Y-122199100D01*
X221869242Y-121643339D01*
X221657010Y-121129697D01*
X221264370Y-120736371D01*
X221056488Y-120650051D01*
X221262303Y-120565010D01*
X221655629Y-120172370D01*
X221868757Y-119659100D01*
X221869242Y-119103339D01*
X221657010Y-118589697D01*
X221264370Y-118196371D01*
X221056488Y-118110051D01*
X221262303Y-118025010D01*
X221655629Y-117632370D01*
X221868757Y-117119100D01*
X221869242Y-116563339D01*
X221657010Y-116049697D01*
X221264370Y-115656371D01*
X221056488Y-115570051D01*
X221262303Y-115485010D01*
X221655629Y-115092370D01*
X221868757Y-114579100D01*
X221869242Y-114023339D01*
X221657010Y-113509697D01*
X221264370Y-113116371D01*
X221056488Y-113030051D01*
X221262303Y-112945010D01*
X221655629Y-112552370D01*
X221868757Y-112039100D01*
X221869242Y-111483339D01*
X221657010Y-110969697D01*
X221264370Y-110576371D01*
X221056488Y-110490051D01*
X221262303Y-110405010D01*
X221655629Y-110012370D01*
X221868757Y-109499100D01*
X221869242Y-108943339D01*
X221657010Y-108429697D01*
X221264370Y-108036371D01*
X221056488Y-107950051D01*
X221262303Y-107865010D01*
X221655629Y-107472370D01*
X221868757Y-106959100D01*
X221869242Y-106403339D01*
X221657010Y-105889697D01*
X221264370Y-105496371D01*
X221056488Y-105410051D01*
X221262303Y-105325010D01*
X221655629Y-104932370D01*
X221868757Y-104419100D01*
X221869242Y-103863339D01*
X221657010Y-103349697D01*
X221264370Y-102956371D01*
X221056488Y-102870051D01*
X221262303Y-102785010D01*
X221655629Y-102392370D01*
X221868757Y-101879100D01*
X221869242Y-101323339D01*
X221657010Y-100809697D01*
X221264370Y-100416371D01*
X221056488Y-100330051D01*
X221262303Y-100245010D01*
X221655629Y-99852370D01*
X221868757Y-99339100D01*
X221869242Y-98783339D01*
X221657010Y-98269697D01*
X221264370Y-97876371D01*
X221056488Y-97790051D01*
X221262303Y-97705010D01*
X221655629Y-97312370D01*
X221868757Y-96799100D01*
X221869242Y-96243339D01*
X221657010Y-95729697D01*
X221264370Y-95336371D01*
X221056488Y-95250051D01*
X221262303Y-95165010D01*
X221655629Y-94772370D01*
X221868757Y-94259100D01*
X221869242Y-93703339D01*
X221657010Y-93189697D01*
X221264370Y-92796371D01*
X221056488Y-92710051D01*
X221262303Y-92625010D01*
X221655629Y-92232370D01*
X221868757Y-91719100D01*
X221869242Y-91163339D01*
X221657010Y-90649697D01*
X221264370Y-90256371D01*
X221056488Y-90170051D01*
X221262303Y-90085010D01*
X221655629Y-89692370D01*
X221868757Y-89179100D01*
X221869242Y-88623339D01*
X221657010Y-88109697D01*
X221264370Y-87716371D01*
X221056488Y-87630051D01*
X221262303Y-87545010D01*
X221655629Y-87152370D01*
X221868757Y-86639100D01*
X221869242Y-86083339D01*
X221657010Y-85569697D01*
X221264370Y-85176371D01*
X221056488Y-85090051D01*
X221262303Y-85005010D01*
X221655629Y-84612370D01*
X221868757Y-84099100D01*
X221869242Y-83543339D01*
X221657010Y-83029697D01*
X221264370Y-82636371D01*
X221056488Y-82550051D01*
X221262303Y-82465010D01*
X221655629Y-82072370D01*
X221868757Y-81559100D01*
X221869242Y-81003339D01*
X221657010Y-80489697D01*
X221264370Y-80096371D01*
X220751100Y-79883243D01*
X220195339Y-79882758D01*
X219681697Y-80094990D01*
X219288371Y-80487630D01*
X219202051Y-80695512D01*
X219117010Y-80489697D01*
X218724370Y-80096371D01*
X218211100Y-79883243D01*
X217655339Y-79882758D01*
X217141697Y-80094990D01*
X216748371Y-80487630D01*
X216682359Y-80646605D01*
X216341730Y-79824252D01*
X215974284Y-79607324D01*
X216087064Y-79494544D01*
X216067520Y-79475000D01*
X221437554Y-79475000D01*
X222277000Y-80314447D01*
X222277000Y-80314447D01*
G37*
X222277000Y-80314447D02*
X222277000Y-127594480D01*
X222257456Y-127574936D01*
X222144676Y-127687716D01*
X221927748Y-127320270D01*
X220967482Y-126932147D01*
X219931784Y-126941045D01*
X219016252Y-127320270D01*
X218799323Y-127687718D01*
X220472000Y-129360395D01*
X220486143Y-129346253D01*
X220665748Y-129525858D01*
X220651605Y-129540000D01*
X220665748Y-129554143D01*
X220486143Y-129733748D01*
X220472000Y-129719605D01*
X220457858Y-129733748D01*
X220278253Y-129554143D01*
X220292395Y-129540000D01*
X218619718Y-127867323D01*
X218252270Y-128084252D01*
X217864147Y-129044518D01*
X217873045Y-130080216D01*
X218252270Y-130995748D01*
X218619716Y-131212676D01*
X218506936Y-131325456D01*
X218526480Y-131345000D01*
X215972975Y-131345000D01*
X216379828Y-131073149D01*
X216682660Y-130619930D01*
X216789000Y-130085321D01*
X216789000Y-128994679D01*
X216682660Y-128460070D01*
X216379828Y-128006851D01*
X216207113Y-127891446D01*
X216389317Y-127857162D01*
X216605441Y-127718090D01*
X216750431Y-127505890D01*
X216801440Y-127254000D01*
X216801440Y-125730000D01*
X216757162Y-125494683D01*
X216722112Y-125440213D01*
X217131392Y-125440213D01*
X217200857Y-125682397D01*
X217724302Y-125869144D01*
X218279368Y-125841362D01*
X218663143Y-125682397D01*
X218732608Y-125440213D01*
X219671392Y-125440213D01*
X219740857Y-125682397D01*
X220264302Y-125869144D01*
X220819368Y-125841362D01*
X221203143Y-125682397D01*
X221272608Y-125440213D01*
X220472000Y-124639605D01*
X219671392Y-125440213D01*
X218732608Y-125440213D01*
X217932000Y-124639605D01*
X217131392Y-125440213D01*
X216722112Y-125440213D01*
X216618090Y-125278559D01*
X216405890Y-125133569D01*
X216215431Y-125095000D01*
X216280309Y-125095000D01*
X216513698Y-124998327D01*
X216595749Y-124916276D01*
X216709603Y-125191143D01*
X216951787Y-125260608D01*
X217752395Y-124460000D01*
X218111605Y-124460000D01*
X218912213Y-125260608D01*
X219154397Y-125191143D01*
X219198453Y-125067656D01*
X219249603Y-125191143D01*
X219491787Y-125260608D01*
X220292395Y-124460000D01*
X220651605Y-124460000D01*
X221452213Y-125260608D01*
X221694397Y-125191143D01*
X221881144Y-124667698D01*
X221853362Y-124112632D01*
X221694397Y-123728857D01*
X221452213Y-123659392D01*
X220651605Y-124460000D01*
X220292395Y-124460000D01*
X219491787Y-123659392D01*
X219249603Y-123728857D01*
X219205547Y-123852344D01*
X219154397Y-123728857D01*
X218912213Y-123659392D01*
X218111605Y-124460000D01*
X217752395Y-124460000D01*
X216951787Y-123659392D01*
X216709603Y-123728857D01*
X216663456Y-123858206D01*
X216630250Y-123825000D01*
X215519000Y-123825000D01*
X215519000Y-123845000D01*
X215265000Y-123845000D01*
X215265000Y-123825000D01*
X214153750Y-123825000D01*
X214122000Y-123856750D01*
X214090250Y-123825000D01*
X212979000Y-123825000D01*
X212979000Y-123845000D01*
X212725000Y-123845000D01*
X212725000Y-123825000D01*
X211613750Y-123825000D01*
X211582000Y-123856750D01*
X211550250Y-123825000D01*
X210439000Y-123825000D01*
X210439000Y-123845000D01*
X210185000Y-123845000D01*
X210185000Y-123825000D01*
X209073750Y-123825000D01*
X208915000Y-123983750D01*
X208915000Y-124586310D01*
X209011673Y-124819699D01*
X209190302Y-124998327D01*
X209423691Y-125095000D01*
X209483887Y-125095000D01*
X209314683Y-125126838D01*
X209098559Y-125265910D01*
X209042626Y-125347770D01*
X208998090Y-125278559D01*
X208785890Y-125133569D01*
X208534000Y-125082560D01*
X207010000Y-125082560D01*
X206774683Y-125126838D01*
X206558559Y-125265910D01*
X206413569Y-125478110D01*
X206362560Y-125730000D01*
X206362560Y-127254000D01*
X206406838Y-127489317D01*
X206545910Y-127705441D01*
X206758110Y-127850431D01*
X206957762Y-127890862D01*
X206784172Y-128006851D01*
X206502000Y-128429150D01*
X206219828Y-128006851D01*
X205766609Y-127704019D01*
X205232000Y-127597679D01*
X204697391Y-127704019D01*
X204244172Y-128006851D01*
X203962000Y-128429150D01*
X203679828Y-128006851D01*
X203226609Y-127704019D01*
X202692000Y-127597679D01*
X202157391Y-127704019D01*
X201704172Y-128006851D01*
X201422000Y-128429150D01*
X201139828Y-128006851D01*
X200686609Y-127704019D01*
X200152000Y-127597679D01*
X199617391Y-127704019D01*
X199164172Y-128006851D01*
X198882000Y-128429150D01*
X198599828Y-128006851D01*
X198146609Y-127704019D01*
X197612000Y-127597679D01*
X197077391Y-127704019D01*
X196624172Y-128006851D01*
X196321340Y-128460070D01*
X196215000Y-128994679D01*
X196215000Y-130085321D01*
X196321340Y-130619930D01*
X196624172Y-131073149D01*
X197031025Y-131345000D01*
X193112975Y-131345000D01*
X193519828Y-131073149D01*
X193822660Y-130619930D01*
X193929000Y-130085321D01*
X193929000Y-128994679D01*
X193822660Y-128460070D01*
X193519828Y-128006851D01*
X193421000Y-127940816D01*
X193421000Y-127877543D01*
X193529317Y-127857162D01*
X193745441Y-127718090D01*
X193890431Y-127505890D01*
X193941440Y-127254000D01*
X193941440Y-125730000D01*
X193897162Y-125494683D01*
X193758090Y-125278559D01*
X193736132Y-125263556D01*
X194105051Y-125017051D01*
X196312412Y-122809690D01*
X208915000Y-122809690D01*
X208915000Y-123412250D01*
X209073750Y-123571000D01*
X210185000Y-123571000D01*
X210185000Y-122459750D01*
X210439000Y-122459750D01*
X210439000Y-123571000D01*
X211550250Y-123571000D01*
X211582000Y-123539250D01*
X211613750Y-123571000D01*
X212725000Y-123571000D01*
X212725000Y-122459750D01*
X212979000Y-122459750D01*
X212979000Y-123571000D01*
X214090250Y-123571000D01*
X214122000Y-123539250D01*
X214153750Y-123571000D01*
X215265000Y-123571000D01*
X215265000Y-122459750D01*
X215106250Y-122301000D01*
X214503691Y-122301000D01*
X214270302Y-122397673D01*
X214122000Y-122545974D01*
X213973698Y-122397673D01*
X213740309Y-122301000D01*
X213137750Y-122301000D01*
X212979000Y-122459750D01*
X212725000Y-122459750D01*
X212566250Y-122301000D01*
X211963691Y-122301000D01*
X211730302Y-122397673D01*
X211582000Y-122545974D01*
X211433698Y-122397673D01*
X211200309Y-122301000D01*
X210597750Y-122301000D01*
X210439000Y-122459750D01*
X210185000Y-122459750D01*
X210026250Y-122301000D01*
X209423691Y-122301000D01*
X209190302Y-122397673D01*
X209011673Y-122576301D01*
X208915000Y-122809690D01*
X196312412Y-122809690D01*
X198423051Y-120699052D01*
X198457074Y-120648132D01*
X198573645Y-120531765D01*
X198637367Y-120378306D01*
X198671690Y-120326938D01*
X198683637Y-120266876D01*
X198746803Y-120114756D01*
X198746948Y-119948585D01*
X198758999Y-119888000D01*
X198747053Y-119827944D01*
X198747197Y-119663225D01*
X198683742Y-119509653D01*
X198671690Y-119449062D01*
X198637667Y-119398143D01*
X198574767Y-119245914D01*
X198457372Y-119128314D01*
X198423051Y-119076949D01*
X198372134Y-119042927D01*
X198255765Y-118926355D01*
X198102305Y-118862633D01*
X198050938Y-118828310D01*
X197990876Y-118816363D01*
X197838756Y-118753197D01*
X197672585Y-118753052D01*
X197612000Y-118741001D01*
X197551944Y-118752947D01*
X197387225Y-118752803D01*
X197233653Y-118816258D01*
X197173062Y-118828310D01*
X197122143Y-118862333D01*
X196969914Y-118925233D01*
X196852316Y-119042626D01*
X196800948Y-119076949D01*
X192818898Y-123059000D01*
X191262000Y-123059000D01*
X190823932Y-123146137D01*
X190823062Y-123146310D01*
X190450948Y-123394949D01*
X189180949Y-124664949D01*
X189146927Y-124715866D01*
X189030355Y-124832235D01*
X188966633Y-124985695D01*
X188932310Y-125037062D01*
X188920363Y-125097124D01*
X188857197Y-125249244D01*
X188857052Y-125415415D01*
X188845001Y-125476000D01*
X188856947Y-125536056D01*
X188856803Y-125700775D01*
X188920258Y-125854347D01*
X188932310Y-125914938D01*
X188966333Y-125965857D01*
X189029233Y-126118086D01*
X189146628Y-126235686D01*
X189180949Y-126287051D01*
X189231866Y-126321073D01*
X189348235Y-126437645D01*
X189501695Y-126501367D01*
X189553062Y-126535690D01*
X189613124Y-126547637D01*
X189765244Y-126610803D01*
X189931415Y-126610948D01*
X189992000Y-126622999D01*
X190052056Y-126611053D01*
X190216775Y-126611197D01*
X190370347Y-126547742D01*
X190430938Y-126535690D01*
X190481857Y-126501667D01*
X190634086Y-126438767D01*
X190751686Y-126321372D01*
X190803051Y-126287051D01*
X191122560Y-125967542D01*
X191122560Y-127254000D01*
X191166838Y-127489317D01*
X191305910Y-127705441D01*
X191518110Y-127850431D01*
X191643000Y-127875722D01*
X191643000Y-127940816D01*
X191544172Y-128006851D01*
X191262000Y-128429150D01*
X190979828Y-128006851D01*
X190526609Y-127704019D01*
X189992000Y-127597679D01*
X189844295Y-127627059D01*
X183986587Y-121769351D01*
X183897133Y-121709580D01*
X183698175Y-121576640D01*
X183511157Y-121539440D01*
X184710000Y-121539440D01*
X184945317Y-121495162D01*
X185161441Y-121356090D01*
X185306431Y-121143890D01*
X185357440Y-120892000D01*
X185357440Y-120181400D01*
X185636080Y-119902761D01*
X185745910Y-120073441D01*
X185958110Y-120218431D01*
X186210000Y-120269440D01*
X189710000Y-120269440D01*
X189945317Y-120225162D01*
X190161441Y-120086090D01*
X190306431Y-119873890D01*
X190357440Y-119622000D01*
X190357440Y-118731796D01*
X193162129Y-115927107D01*
X193264775Y-115927197D01*
X193682086Y-115754767D01*
X194001645Y-115435765D01*
X194174803Y-115018756D01*
X194175197Y-114567225D01*
X194002767Y-114149914D01*
X193864844Y-114011750D01*
X194041000Y-114011750D01*
X194041000Y-114202309D01*
X194137673Y-114435698D01*
X194316301Y-114614327D01*
X194549690Y-114711000D01*
X195040250Y-114711000D01*
X195199000Y-114552250D01*
X195199000Y-113853000D01*
X195453000Y-113853000D01*
X195453000Y-114552250D01*
X195611750Y-114711000D01*
X196102310Y-114711000D01*
X196317132Y-114622018D01*
X196359491Y-114664377D01*
X196592880Y-114761050D01*
X196833490Y-114761050D01*
X196992240Y-114602300D01*
X196992240Y-113853000D01*
X197246240Y-113853000D01*
X197246240Y-114602300D01*
X197404990Y-114761050D01*
X197645600Y-114761050D01*
X197878989Y-114664377D01*
X198057617Y-114485748D01*
X198154290Y-114252359D01*
X198154290Y-114185000D01*
X201350560Y-114185000D01*
X201350560Y-115685000D01*
X201394838Y-115920317D01*
X201533910Y-116136441D01*
X201633860Y-116204734D01*
X201546559Y-116260910D01*
X201401569Y-116473110D01*
X201350560Y-116725000D01*
X201350560Y-118225000D01*
X201394838Y-118460317D01*
X201533910Y-118676441D01*
X201633860Y-118744734D01*
X201546559Y-118800910D01*
X201401569Y-119013110D01*
X201350560Y-119265000D01*
X201350560Y-120765000D01*
X201394838Y-121000317D01*
X201533910Y-121216441D01*
X201746110Y-121361431D01*
X201998000Y-121412440D01*
X205498000Y-121412440D01*
X205733317Y-121368162D01*
X205949441Y-121229090D01*
X206094431Y-121016890D01*
X206145440Y-120765000D01*
X206145440Y-119265000D01*
X206101363Y-119030750D01*
X206363000Y-119030750D01*
X206363000Y-119621309D01*
X206459673Y-119854698D01*
X206638301Y-120033327D01*
X206871690Y-120130000D01*
X208462250Y-120130000D01*
X208621000Y-119971250D01*
X208621000Y-118872000D01*
X208875000Y-118872000D01*
X208875000Y-119971250D01*
X209033750Y-120130000D01*
X210624310Y-120130000D01*
X210857699Y-120033327D01*
X211036327Y-119854698D01*
X211133000Y-119621309D01*
X211133000Y-119030750D01*
X210974250Y-118872000D01*
X208875000Y-118872000D01*
X208621000Y-118872000D01*
X206521750Y-118872000D01*
X206363000Y-119030750D01*
X206101363Y-119030750D01*
X206101162Y-119029683D01*
X205962090Y-118813559D01*
X205862140Y-118745266D01*
X205949441Y-118689090D01*
X206094431Y-118476890D01*
X206145440Y-118225000D01*
X206145440Y-116725000D01*
X206101363Y-116490750D01*
X206363000Y-116490750D01*
X206363000Y-117081309D01*
X206459673Y-117314698D01*
X206619974Y-117475000D01*
X206459673Y-117635302D01*
X206363000Y-117868691D01*
X206363000Y-118459250D01*
X206521750Y-118618000D01*
X208621000Y-118618000D01*
X208621000Y-117518750D01*
X208577250Y-117475000D01*
X208621000Y-117431250D01*
X208621000Y-116332000D01*
X208875000Y-116332000D01*
X208875000Y-117431250D01*
X208918750Y-117475000D01*
X208875000Y-117518750D01*
X208875000Y-118618000D01*
X210974250Y-118618000D01*
X211133000Y-118459250D01*
X211133000Y-117868691D01*
X211036327Y-117635302D01*
X210876026Y-117475000D01*
X211036327Y-117314698D01*
X211133000Y-117081309D01*
X211133000Y-116490750D01*
X210974250Y-116332000D01*
X208875000Y-116332000D01*
X208621000Y-116332000D01*
X206521750Y-116332000D01*
X206363000Y-116490750D01*
X206101363Y-116490750D01*
X206101162Y-116489683D01*
X205962090Y-116273559D01*
X205862140Y-116205266D01*
X205949441Y-116149090D01*
X206094431Y-115936890D01*
X206145440Y-115685000D01*
X206145440Y-114185000D01*
X206101363Y-113950750D01*
X206363000Y-113950750D01*
X206363000Y-114541309D01*
X206459673Y-114774698D01*
X206619974Y-114935000D01*
X206459673Y-115095302D01*
X206363000Y-115328691D01*
X206363000Y-115919250D01*
X206521750Y-116078000D01*
X208621000Y-116078000D01*
X208621000Y-114978750D01*
X208577250Y-114935000D01*
X208621000Y-114891250D01*
X208621000Y-113792000D01*
X208875000Y-113792000D01*
X208875000Y-114891250D01*
X208918750Y-114935000D01*
X208875000Y-114978750D01*
X208875000Y-116078000D01*
X210974250Y-116078000D01*
X211133000Y-115919250D01*
X211133000Y-115328691D01*
X211036327Y-115095302D01*
X210876026Y-114935000D01*
X211036327Y-114774698D01*
X211133000Y-114541309D01*
X211133000Y-113950750D01*
X210974250Y-113792000D01*
X208875000Y-113792000D01*
X208621000Y-113792000D01*
X206521750Y-113792000D01*
X206363000Y-113950750D01*
X206101363Y-113950750D01*
X206101162Y-113949683D01*
X205962090Y-113733559D01*
X205749890Y-113588569D01*
X205498000Y-113537560D01*
X201998000Y-113537560D01*
X201762683Y-113581838D01*
X201546559Y-113720910D01*
X201401569Y-113933110D01*
X201350560Y-114185000D01*
X198154290Y-114185000D01*
X198154290Y-114011750D01*
X197995540Y-113853000D01*
X197246240Y-113853000D01*
X196992240Y-113853000D01*
X195453000Y-113853000D01*
X195199000Y-113853000D01*
X194199750Y-113853000D01*
X194041000Y-114011750D01*
X193864844Y-114011750D01*
X193683765Y-113830355D01*
X193266756Y-113657197D01*
X192815225Y-113656803D01*
X192397914Y-113829233D01*
X192078355Y-114148235D01*
X191905197Y-114565244D01*
X191905106Y-114669658D01*
X190357440Y-116217324D01*
X190357440Y-116191796D01*
X191128618Y-115420618D01*
X191321329Y-115132206D01*
X191389000Y-114792000D01*
X191389000Y-112894890D01*
X191740775Y-112895197D01*
X192158086Y-112722767D01*
X192477645Y-112403765D01*
X192650803Y-111986756D01*
X192650894Y-111882342D01*
X193160618Y-111372618D01*
X193199849Y-111313905D01*
X193353329Y-111084206D01*
X193421000Y-110744000D01*
X193421000Y-103178646D01*
X193682086Y-103070767D01*
X194001645Y-102751765D01*
X194174803Y-102334756D01*
X194174985Y-102126264D01*
X200633721Y-108585000D01*
X200020792Y-108585000D01*
X199884090Y-108372559D01*
X199671890Y-108227569D01*
X199420000Y-108176560D01*
X198720000Y-108176560D01*
X198484683Y-108220838D01*
X198268559Y-108359910D01*
X198238827Y-108403424D01*
X198239197Y-107979225D01*
X198066767Y-107561914D01*
X197747765Y-107242355D01*
X197330756Y-107069197D01*
X196879225Y-107068803D01*
X196461914Y-107241233D01*
X196142355Y-107560235D01*
X195969197Y-107977244D01*
X195968803Y-108428775D01*
X196141233Y-108846086D01*
X196172560Y-108877468D01*
X196172560Y-110124000D01*
X196216838Y-110359317D01*
X196355910Y-110575441D01*
X196568110Y-110720431D01*
X196820000Y-110771440D01*
X196916564Y-110771440D01*
X196909494Y-110778510D01*
X196719190Y-110778510D01*
X196483873Y-110822788D01*
X196309246Y-110935157D01*
X196227890Y-110879569D01*
X195976000Y-110828560D01*
X194676000Y-110828560D01*
X194440683Y-110872838D01*
X194224559Y-111011910D01*
X194079569Y-111224110D01*
X194028560Y-111476000D01*
X194028560Y-112176000D01*
X194072838Y-112411317D01*
X194211910Y-112627441D01*
X194424110Y-112772431D01*
X194457490Y-112779191D01*
X194316301Y-112837673D01*
X194137673Y-113016302D01*
X194041000Y-113249691D01*
X194041000Y-113440250D01*
X194199750Y-113599000D01*
X195199000Y-113599000D01*
X195199000Y-113579000D01*
X195453000Y-113579000D01*
X195453000Y-113599000D01*
X196992240Y-113599000D01*
X196992240Y-113579000D01*
X197246240Y-113579000D01*
X197246240Y-113599000D01*
X197995540Y-113599000D01*
X198141697Y-113452843D01*
X198254080Y-113627491D01*
X198466280Y-113772481D01*
X198718170Y-113823490D01*
X199518270Y-113823490D01*
X199653633Y-113798020D01*
X199925244Y-113910803D01*
X200376775Y-113911197D01*
X200794086Y-113738767D01*
X201113645Y-113419765D01*
X201286803Y-113002756D01*
X201286989Y-112788691D01*
X206363000Y-112788691D01*
X206363000Y-113379250D01*
X206521750Y-113538000D01*
X208621000Y-113538000D01*
X208621000Y-112438750D01*
X208875000Y-112438750D01*
X208875000Y-113538000D01*
X210974250Y-113538000D01*
X211133000Y-113379250D01*
X211133000Y-112788691D01*
X211036327Y-112555302D01*
X210857699Y-112376673D01*
X210624310Y-112280000D01*
X209033750Y-112280000D01*
X208875000Y-112438750D01*
X208621000Y-112438750D01*
X208462250Y-112280000D01*
X206871690Y-112280000D01*
X206638301Y-112376673D01*
X206459673Y-112555302D01*
X206363000Y-112788691D01*
X201286989Y-112788691D01*
X201287197Y-112551225D01*
X201114767Y-112133914D01*
X201052168Y-112071206D01*
X201188330Y-111867425D01*
X201256000Y-111527220D01*
X201256000Y-111478448D01*
X201258431Y-111474890D01*
X201309440Y-111223000D01*
X201309440Y-111087676D01*
X201555372Y-111333608D01*
X201578838Y-111458317D01*
X201717910Y-111674441D01*
X201814912Y-111740720D01*
X201983233Y-112148086D01*
X202302235Y-112467645D01*
X202719244Y-112640803D01*
X203170775Y-112641197D01*
X203588086Y-112468767D01*
X203907645Y-112149765D01*
X204056171Y-111792076D01*
X204214155Y-111823501D01*
X204214160Y-111823500D01*
X211481137Y-111823500D01*
X211442560Y-112014000D01*
X211442560Y-113538000D01*
X211486838Y-113773317D01*
X211625910Y-113989441D01*
X211707770Y-114045374D01*
X211638559Y-114089910D01*
X211493569Y-114302110D01*
X211442560Y-114554000D01*
X211442560Y-116078000D01*
X211486838Y-116313317D01*
X211625910Y-116529441D01*
X211707770Y-116585374D01*
X211638559Y-116629910D01*
X211493569Y-116842110D01*
X211442560Y-117094000D01*
X211442560Y-118618000D01*
X211486838Y-118853317D01*
X211625910Y-119069441D01*
X211838110Y-119214431D01*
X212090000Y-119265440D01*
X213614000Y-119265440D01*
X213849317Y-119221162D01*
X214065441Y-119082090D01*
X214121374Y-119000230D01*
X214165910Y-119069441D01*
X214247770Y-119125374D01*
X214178559Y-119169910D01*
X214033569Y-119382110D01*
X213982560Y-119634000D01*
X213982560Y-121158000D01*
X214026838Y-121393317D01*
X214165910Y-121609441D01*
X214378110Y-121754431D01*
X214630000Y-121805440D01*
X216154000Y-121805440D01*
X216389317Y-121761162D01*
X216535220Y-121667276D01*
X216534758Y-122196661D01*
X216691125Y-122575099D01*
X216513698Y-122397673D01*
X216280309Y-122301000D01*
X215677750Y-122301000D01*
X215519000Y-122459750D01*
X215519000Y-123571000D01*
X216630250Y-123571000D01*
X216789000Y-123412250D01*
X216789000Y-122809690D01*
X216748430Y-122711746D01*
X217139630Y-123103629D01*
X217331727Y-123183395D01*
X217200857Y-123237603D01*
X217131392Y-123479787D01*
X217932000Y-124280395D01*
X218732608Y-123479787D01*
X218663143Y-123237603D01*
X218522682Y-123187491D01*
X218722303Y-123105010D01*
X219115629Y-122712370D01*
X219201949Y-122504488D01*
X219286990Y-122710303D01*
X219679630Y-123103629D01*
X219871727Y-123183395D01*
X219740857Y-123237603D01*
X219671392Y-123479787D01*
X220472000Y-124280395D01*
X221272608Y-123479787D01*
X221203143Y-123237603D01*
X221062682Y-123187491D01*
X221262303Y-123105010D01*
X221655629Y-122712370D01*
X221868757Y-122199100D01*
X221869242Y-121643339D01*
X221657010Y-121129697D01*
X221264370Y-120736371D01*
X221056488Y-120650051D01*
X221262303Y-120565010D01*
X221655629Y-120172370D01*
X221868757Y-119659100D01*
X221869242Y-119103339D01*
X221657010Y-118589697D01*
X221264370Y-118196371D01*
X221056488Y-118110051D01*
X221262303Y-118025010D01*
X221655629Y-117632370D01*
X221868757Y-117119100D01*
X221869242Y-116563339D01*
X221657010Y-116049697D01*
X221264370Y-115656371D01*
X221056488Y-115570051D01*
X221262303Y-115485010D01*
X221655629Y-115092370D01*
X221868757Y-114579100D01*
X221869242Y-114023339D01*
X221657010Y-113509697D01*
X221264370Y-113116371D01*
X221056488Y-113030051D01*
X221262303Y-112945010D01*
X221655629Y-112552370D01*
X221868757Y-112039100D01*
X221869242Y-111483339D01*
X221657010Y-110969697D01*
X221264370Y-110576371D01*
X221056488Y-110490051D01*
X221262303Y-110405010D01*
X221655629Y-110012370D01*
X221868757Y-109499100D01*
X221869242Y-108943339D01*
X221657010Y-108429697D01*
X221264370Y-108036371D01*
X221056488Y-107950051D01*
X221262303Y-107865010D01*
X221655629Y-107472370D01*
X221868757Y-106959100D01*
X221869242Y-106403339D01*
X221657010Y-105889697D01*
X221264370Y-105496371D01*
X221056488Y-105410051D01*
X221262303Y-105325010D01*
X221655629Y-104932370D01*
X221868757Y-104419100D01*
X221869242Y-103863339D01*
X221657010Y-103349697D01*
X221264370Y-102956371D01*
X221056488Y-102870051D01*
X221262303Y-102785010D01*
X221655629Y-102392370D01*
X221868757Y-101879100D01*
X221869242Y-101323339D01*
X221657010Y-100809697D01*
X221264370Y-100416371D01*
X221056488Y-100330051D01*
X221262303Y-100245010D01*
X221655629Y-99852370D01*
X221868757Y-99339100D01*
X221869242Y-98783339D01*
X221657010Y-98269697D01*
X221264370Y-97876371D01*
X221056488Y-97790051D01*
X221262303Y-97705010D01*
X221655629Y-97312370D01*
X221868757Y-96799100D01*
X221869242Y-96243339D01*
X221657010Y-95729697D01*
X221264370Y-95336371D01*
X221056488Y-95250051D01*
X221262303Y-95165010D01*
X221655629Y-94772370D01*
X221868757Y-94259100D01*
X221869242Y-93703339D01*
X221657010Y-93189697D01*
X221264370Y-92796371D01*
X221056488Y-92710051D01*
X221262303Y-92625010D01*
X221655629Y-92232370D01*
X221868757Y-91719100D01*
X221869242Y-91163339D01*
X221657010Y-90649697D01*
X221264370Y-90256371D01*
X221056488Y-90170051D01*
X221262303Y-90085010D01*
X221655629Y-89692370D01*
X221868757Y-89179100D01*
X221869242Y-88623339D01*
X221657010Y-88109697D01*
X221264370Y-87716371D01*
X221056488Y-87630051D01*
X221262303Y-87545010D01*
X221655629Y-87152370D01*
X221868757Y-86639100D01*
X221869242Y-86083339D01*
X221657010Y-85569697D01*
X221264370Y-85176371D01*
X221056488Y-85090051D01*
X221262303Y-85005010D01*
X221655629Y-84612370D01*
X221868757Y-84099100D01*
X221869242Y-83543339D01*
X221657010Y-83029697D01*
X221264370Y-82636371D01*
X221056488Y-82550051D01*
X221262303Y-82465010D01*
X221655629Y-82072370D01*
X221868757Y-81559100D01*
X221869242Y-81003339D01*
X221657010Y-80489697D01*
X221264370Y-80096371D01*
X220751100Y-79883243D01*
X220195339Y-79882758D01*
X219681697Y-80094990D01*
X219288371Y-80487630D01*
X219202051Y-80695512D01*
X219117010Y-80489697D01*
X218724370Y-80096371D01*
X218211100Y-79883243D01*
X217655339Y-79882758D01*
X217141697Y-80094990D01*
X216748371Y-80487630D01*
X216682359Y-80646605D01*
X216341730Y-79824252D01*
X215974284Y-79607324D01*
X216087064Y-79494544D01*
X216067520Y-79475000D01*
X221437554Y-79475000D01*
X222277000Y-80314447D01*
G36*
X138115748Y-129525858D02*
X138101605Y-129540000D01*
X138115748Y-129554143D01*
X137936143Y-129733748D01*
X137922000Y-129719605D01*
X137907858Y-129733748D01*
X137728253Y-129554143D01*
X137742395Y-129540000D01*
X137728253Y-129525858D01*
X137907858Y-129346253D01*
X137922000Y-129360395D01*
X137936143Y-129346253D01*
X138115748Y-129525858D01*
X138115748Y-129525858D01*
G37*
X138115748Y-129525858D02*
X138101605Y-129540000D01*
X138115748Y-129554143D01*
X137936143Y-129733748D01*
X137922000Y-129719605D01*
X137907858Y-129733748D01*
X137728253Y-129554143D01*
X137742395Y-129540000D01*
X137728253Y-129525858D01*
X137907858Y-129346253D01*
X137922000Y-129360395D01*
X137936143Y-129346253D01*
X138115748Y-129525858D01*
G36*
X164719000Y-129413000D02*
X167005000Y-129413000D01*
X167005000Y-129393000D01*
X167259000Y-129393000D01*
X167259000Y-129413000D01*
X167279000Y-129413000D01*
X167279000Y-129667000D01*
X167259000Y-129667000D01*
X167259000Y-129687000D01*
X167005000Y-129687000D01*
X167005000Y-129667000D01*
X164719000Y-129667000D01*
X164719000Y-129687000D01*
X164465000Y-129687000D01*
X164465000Y-129667000D01*
X164445000Y-129667000D01*
X164445000Y-129413000D01*
X164465000Y-129413000D01*
X164465000Y-129393000D01*
X164719000Y-129393000D01*
X164719000Y-129413000D01*
X164719000Y-129413000D01*
G37*
X164719000Y-129413000D02*
X167005000Y-129413000D01*
X167005000Y-129393000D01*
X167259000Y-129393000D01*
X167259000Y-129413000D01*
X167279000Y-129413000D01*
X167279000Y-129667000D01*
X167259000Y-129667000D01*
X167259000Y-129687000D01*
X167005000Y-129687000D01*
X167005000Y-129667000D01*
X164719000Y-129667000D01*
X164719000Y-129687000D01*
X164465000Y-129687000D01*
X164465000Y-129667000D01*
X164445000Y-129667000D01*
X164445000Y-129413000D01*
X164465000Y-129413000D01*
X164465000Y-129393000D01*
X164719000Y-129393000D01*
X164719000Y-129413000D01*
G36*
X135105260Y-111137989D02*
X135038559Y-111180910D01*
X134893569Y-111393110D01*
X134842560Y-111645000D01*
X134842560Y-113145000D01*
X134886838Y-113380317D01*
X135025910Y-113596441D01*
X135125860Y-113664734D01*
X135038559Y-113720910D01*
X134893569Y-113933110D01*
X134842560Y-114185000D01*
X134842560Y-115685000D01*
X134886838Y-115920317D01*
X135025910Y-116136441D01*
X135125860Y-116204734D01*
X135038559Y-116260910D01*
X134893569Y-116473110D01*
X134842560Y-116725000D01*
X134842560Y-118225000D01*
X134886838Y-118460317D01*
X135025910Y-118676441D01*
X135106459Y-118731478D01*
X134998559Y-118800910D01*
X134853569Y-119013110D01*
X134802560Y-119265000D01*
X134802560Y-120765000D01*
X134846838Y-121000317D01*
X134985910Y-121216441D01*
X135198110Y-121361431D01*
X135450000Y-121412440D01*
X138950000Y-121412440D01*
X139185317Y-121368162D01*
X139401441Y-121229090D01*
X139546431Y-121016890D01*
X139550679Y-120995915D01*
X142119382Y-123564618D01*
X142407794Y-123757329D01*
X142748000Y-123825000D01*
X143047717Y-123825000D01*
X143120235Y-123897645D01*
X143537244Y-124070803D01*
X143988775Y-124071197D01*
X144406086Y-123898767D01*
X144725645Y-123579765D01*
X144898803Y-123162756D01*
X144899197Y-122711225D01*
X144726767Y-122293914D01*
X144407765Y-121974355D01*
X143990756Y-121801197D01*
X143539225Y-121800803D01*
X143121914Y-121973233D01*
X143082157Y-122012921D01*
X141211676Y-120142440D01*
X143990000Y-120142440D01*
X144225317Y-120098162D01*
X144441441Y-119959090D01*
X144560837Y-119784349D01*
X149525459Y-124748971D01*
X136166207Y-124748971D01*
X132969000Y-121551764D01*
X132969000Y-113085236D01*
X134992971Y-111061265D01*
X135105260Y-111137989D01*
X135105260Y-111137989D01*
G37*
X135105260Y-111137989D02*
X135038559Y-111180910D01*
X134893569Y-111393110D01*
X134842560Y-111645000D01*
X134842560Y-113145000D01*
X134886838Y-113380317D01*
X135025910Y-113596441D01*
X135125860Y-113664734D01*
X135038559Y-113720910D01*
X134893569Y-113933110D01*
X134842560Y-114185000D01*
X134842560Y-115685000D01*
X134886838Y-115920317D01*
X135025910Y-116136441D01*
X135125860Y-116204734D01*
X135038559Y-116260910D01*
X134893569Y-116473110D01*
X134842560Y-116725000D01*
X134842560Y-118225000D01*
X134886838Y-118460317D01*
X135025910Y-118676441D01*
X135106459Y-118731478D01*
X134998559Y-118800910D01*
X134853569Y-119013110D01*
X134802560Y-119265000D01*
X134802560Y-120765000D01*
X134846838Y-121000317D01*
X134985910Y-121216441D01*
X135198110Y-121361431D01*
X135450000Y-121412440D01*
X138950000Y-121412440D01*
X139185317Y-121368162D01*
X139401441Y-121229090D01*
X139546431Y-121016890D01*
X139550679Y-120995915D01*
X142119382Y-123564618D01*
X142407794Y-123757329D01*
X142748000Y-123825000D01*
X143047717Y-123825000D01*
X143120235Y-123897645D01*
X143537244Y-124070803D01*
X143988775Y-124071197D01*
X144406086Y-123898767D01*
X144725645Y-123579765D01*
X144898803Y-123162756D01*
X144899197Y-122711225D01*
X144726767Y-122293914D01*
X144407765Y-121974355D01*
X143990756Y-121801197D01*
X143539225Y-121800803D01*
X143121914Y-121973233D01*
X143082157Y-122012921D01*
X141211676Y-120142440D01*
X143990000Y-120142440D01*
X144225317Y-120098162D01*
X144441441Y-119959090D01*
X144560837Y-119784349D01*
X149525459Y-124748971D01*
X136166207Y-124748971D01*
X132969000Y-121551764D01*
X132969000Y-113085236D01*
X134992971Y-111061265D01*
X135105260Y-111137989D01*
G36*
X176243000Y-103886000D02*
X176263000Y-103886000D01*
X176263000Y-104140000D01*
X176243000Y-104140000D01*
X176243000Y-104789250D01*
X176401750Y-104948000D01*
X177017309Y-104948000D01*
X177250698Y-104851327D01*
X177346395Y-104755631D01*
X177502764Y-104912000D01*
X177189691Y-104912000D01*
X176956302Y-105008673D01*
X176777673Y-105187301D01*
X176681000Y-105420690D01*
X176681000Y-105886250D01*
X176839750Y-106045000D01*
X177689000Y-106045000D01*
X177689000Y-106025000D01*
X177881001Y-106025000D01*
X177881001Y-107561763D01*
X176851382Y-108591382D01*
X176658671Y-108879794D01*
X176591000Y-109220000D01*
X176591000Y-114488000D01*
X176658671Y-114828206D01*
X176781098Y-115011431D01*
X176851382Y-115116618D01*
X178188893Y-116454129D01*
X178188803Y-116556775D01*
X178361233Y-116974086D01*
X178680235Y-117293645D01*
X179097244Y-117466803D01*
X179548775Y-117467197D01*
X179675457Y-117414853D01*
X179703401Y-117456673D01*
X179711382Y-117468618D01*
X180473382Y-118230618D01*
X180562560Y-118290205D01*
X180562560Y-118352000D01*
X180606838Y-118587317D01*
X180745910Y-118803441D01*
X180845860Y-118871734D01*
X180758559Y-118927910D01*
X180613569Y-119140110D01*
X180562560Y-119392000D01*
X180562560Y-120892000D01*
X180606838Y-121127317D01*
X180745910Y-121343441D01*
X180958110Y-121488431D01*
X181059530Y-121508969D01*
X172856202Y-121508969D01*
X172515996Y-121576640D01*
X172317038Y-121709580D01*
X172227584Y-121769351D01*
X171333955Y-122662980D01*
X163183388Y-122662980D01*
X163186803Y-122654756D01*
X163186948Y-122488590D01*
X163199000Y-122428000D01*
X163187053Y-122367940D01*
X163187169Y-122235001D01*
X163843999Y-122235001D01*
X164184205Y-122167330D01*
X164472617Y-121974619D01*
X165688618Y-120758618D01*
X165755338Y-120658765D01*
X165881329Y-120470206D01*
X165921264Y-120269440D01*
X166810000Y-120269440D01*
X167013143Y-120231216D01*
X167013052Y-120335410D01*
X167001000Y-120396000D01*
X167012947Y-120456060D01*
X167012803Y-120620775D01*
X167076258Y-120774346D01*
X167088310Y-120834938D01*
X167122333Y-120885857D01*
X167185233Y-121038086D01*
X167302628Y-121155686D01*
X167336949Y-121207051D01*
X167387866Y-121241073D01*
X167504235Y-121357645D01*
X167657695Y-121421367D01*
X167709062Y-121455690D01*
X167769124Y-121467637D01*
X167921244Y-121530803D01*
X168087410Y-121530948D01*
X168148000Y-121543000D01*
X171378753Y-121543000D01*
X171817691Y-121455690D01*
X172189804Y-121207051D01*
X173206804Y-120190052D01*
X173455442Y-119817939D01*
X173486216Y-119663225D01*
X173542752Y-119379001D01*
X173542752Y-114696062D01*
X173600235Y-114753645D01*
X174017244Y-114926803D01*
X174468775Y-114927197D01*
X174886086Y-114754767D01*
X175205645Y-114435765D01*
X175378803Y-114018756D01*
X175379197Y-113567225D01*
X175206767Y-113149914D01*
X175133000Y-113076018D01*
X175133000Y-107665943D01*
X175190431Y-107581890D01*
X175241440Y-107330000D01*
X175241440Y-106457750D01*
X176681000Y-106457750D01*
X176681000Y-106923310D01*
X176777673Y-107156699D01*
X176956302Y-107335327D01*
X177189691Y-107432000D01*
X177530250Y-107432000D01*
X177689000Y-107273250D01*
X177689000Y-106299000D01*
X176839750Y-106299000D01*
X176681000Y-106457750D01*
X175241440Y-106457750D01*
X175241440Y-106030000D01*
X175197162Y-105794683D01*
X175133000Y-105694972D01*
X175133000Y-104914162D01*
X175214691Y-104948000D01*
X175830250Y-104948000D01*
X175989000Y-104789250D01*
X175989000Y-104140000D01*
X175969000Y-104140000D01*
X175969000Y-103886000D01*
X175989000Y-103886000D01*
X175989000Y-103866000D01*
X176243000Y-103866000D01*
X176243000Y-103886000D01*
X176243000Y-103886000D01*
G37*
X176243000Y-103886000D02*
X176263000Y-103886000D01*
X176263000Y-104140000D01*
X176243000Y-104140000D01*
X176243000Y-104789250D01*
X176401750Y-104948000D01*
X177017309Y-104948000D01*
X177250698Y-104851327D01*
X177346395Y-104755631D01*
X177502764Y-104912000D01*
X177189691Y-104912000D01*
X176956302Y-105008673D01*
X176777673Y-105187301D01*
X176681000Y-105420690D01*
X176681000Y-105886250D01*
X176839750Y-106045000D01*
X177689000Y-106045000D01*
X177689000Y-106025000D01*
X177881001Y-106025000D01*
X177881001Y-107561763D01*
X176851382Y-108591382D01*
X176658671Y-108879794D01*
X176591000Y-109220000D01*
X176591000Y-114488000D01*
X176658671Y-114828206D01*
X176781098Y-115011431D01*
X176851382Y-115116618D01*
X178188893Y-116454129D01*
X178188803Y-116556775D01*
X178361233Y-116974086D01*
X178680235Y-117293645D01*
X179097244Y-117466803D01*
X179548775Y-117467197D01*
X179675457Y-117414853D01*
X179703401Y-117456673D01*
X179711382Y-117468618D01*
X180473382Y-118230618D01*
X180562560Y-118290205D01*
X180562560Y-118352000D01*
X180606838Y-118587317D01*
X180745910Y-118803441D01*
X180845860Y-118871734D01*
X180758559Y-118927910D01*
X180613569Y-119140110D01*
X180562560Y-119392000D01*
X180562560Y-120892000D01*
X180606838Y-121127317D01*
X180745910Y-121343441D01*
X180958110Y-121488431D01*
X181059530Y-121508969D01*
X172856202Y-121508969D01*
X172515996Y-121576640D01*
X172317038Y-121709580D01*
X172227584Y-121769351D01*
X171333955Y-122662980D01*
X163183388Y-122662980D01*
X163186803Y-122654756D01*
X163186948Y-122488590D01*
X163199000Y-122428000D01*
X163187053Y-122367940D01*
X163187169Y-122235001D01*
X163843999Y-122235001D01*
X164184205Y-122167330D01*
X164472617Y-121974619D01*
X165688618Y-120758618D01*
X165755338Y-120658765D01*
X165881329Y-120470206D01*
X165921264Y-120269440D01*
X166810000Y-120269440D01*
X167013143Y-120231216D01*
X167013052Y-120335410D01*
X167001000Y-120396000D01*
X167012947Y-120456060D01*
X167012803Y-120620775D01*
X167076258Y-120774346D01*
X167088310Y-120834938D01*
X167122333Y-120885857D01*
X167185233Y-121038086D01*
X167302628Y-121155686D01*
X167336949Y-121207051D01*
X167387866Y-121241073D01*
X167504235Y-121357645D01*
X167657695Y-121421367D01*
X167709062Y-121455690D01*
X167769124Y-121467637D01*
X167921244Y-121530803D01*
X168087410Y-121530948D01*
X168148000Y-121543000D01*
X171378753Y-121543000D01*
X171817691Y-121455690D01*
X172189804Y-121207051D01*
X173206804Y-120190052D01*
X173455442Y-119817939D01*
X173486216Y-119663225D01*
X173542752Y-119379001D01*
X173542752Y-114696062D01*
X173600235Y-114753645D01*
X174017244Y-114926803D01*
X174468775Y-114927197D01*
X174886086Y-114754767D01*
X175205645Y-114435765D01*
X175378803Y-114018756D01*
X175379197Y-113567225D01*
X175206767Y-113149914D01*
X175133000Y-113076018D01*
X175133000Y-107665943D01*
X175190431Y-107581890D01*
X175241440Y-107330000D01*
X175241440Y-106457750D01*
X176681000Y-106457750D01*
X176681000Y-106923310D01*
X176777673Y-107156699D01*
X176956302Y-107335327D01*
X177189691Y-107432000D01*
X177530250Y-107432000D01*
X177689000Y-107273250D01*
X177689000Y-106299000D01*
X176839750Y-106299000D01*
X176681000Y-106457750D01*
X175241440Y-106457750D01*
X175241440Y-106030000D01*
X175197162Y-105794683D01*
X175133000Y-105694972D01*
X175133000Y-104914162D01*
X175214691Y-104948000D01*
X175830250Y-104948000D01*
X175989000Y-104789250D01*
X175989000Y-104140000D01*
X175969000Y-104140000D01*
X175969000Y-103886000D01*
X175989000Y-103886000D01*
X175989000Y-103866000D01*
X176243000Y-103866000D01*
X176243000Y-103886000D01*
G36*
X156146009Y-120265000D02*
X155368247Y-120265000D01*
X146435000Y-111331754D01*
X146435000Y-110553991D01*
X156146009Y-120265000D01*
X156146009Y-120265000D01*
G37*
X156146009Y-120265000D02*
X155368247Y-120265000D01*
X146435000Y-111331754D01*
X146435000Y-110553991D01*
X156146009Y-120265000D01*
G36*
X185792235Y-106371645D02*
X186182127Y-106533543D01*
X186181758Y-106956661D01*
X186393990Y-107470303D01*
X186786630Y-107863629D01*
X187158751Y-108018147D01*
X187148949Y-108027949D01*
X186900310Y-108400062D01*
X186813000Y-108839000D01*
X186813000Y-109854560D01*
X186210000Y-109854560D01*
X185974683Y-109898838D01*
X185758559Y-110037910D01*
X185613569Y-110250110D01*
X185562560Y-110502000D01*
X185562560Y-111212599D01*
X185283920Y-111491240D01*
X185174090Y-111320559D01*
X184961890Y-111175569D01*
X184710000Y-111124560D01*
X181410938Y-111124560D01*
X181474803Y-110970756D01*
X181475197Y-110519225D01*
X181353804Y-110225432D01*
X185500168Y-106079068D01*
X185792235Y-106371645D01*
X185792235Y-106371645D01*
G37*
X185792235Y-106371645D02*
X186182127Y-106533543D01*
X186181758Y-106956661D01*
X186393990Y-107470303D01*
X186786630Y-107863629D01*
X187158751Y-108018147D01*
X187148949Y-108027949D01*
X186900310Y-108400062D01*
X186813000Y-108839000D01*
X186813000Y-109854560D01*
X186210000Y-109854560D01*
X185974683Y-109898838D01*
X185758559Y-110037910D01*
X185613569Y-110250110D01*
X185562560Y-110502000D01*
X185562560Y-111212599D01*
X185283920Y-111491240D01*
X185174090Y-111320559D01*
X184961890Y-111175569D01*
X184710000Y-111124560D01*
X181410938Y-111124560D01*
X181474803Y-110970756D01*
X181475197Y-110519225D01*
X181353804Y-110225432D01*
X185500168Y-106079068D01*
X185792235Y-106371645D01*
G36*
X168713238Y-102190917D02*
X168852310Y-102407041D01*
X169064510Y-102552031D01*
X169316400Y-102603040D01*
X170602858Y-102603040D01*
X168652939Y-104552959D01*
X168404300Y-104925072D01*
X168316990Y-105364010D01*
X168316990Y-110993754D01*
X167946618Y-110623382D01*
X167873777Y-110574711D01*
X167658206Y-110430671D01*
X167435690Y-110386410D01*
X167413162Y-110266683D01*
X167274090Y-110050559D01*
X167174140Y-109982266D01*
X167261441Y-109926090D01*
X167406431Y-109713890D01*
X167457440Y-109462000D01*
X167457440Y-107962000D01*
X167413162Y-107726683D01*
X167274090Y-107510559D01*
X167193541Y-107455522D01*
X167301441Y-107386090D01*
X167446431Y-107173890D01*
X167497440Y-106922000D01*
X167497440Y-105422000D01*
X167453162Y-105186683D01*
X167314090Y-104970559D01*
X167101890Y-104825569D01*
X166850000Y-104774560D01*
X164415695Y-104774560D01*
X164491787Y-104723717D01*
X166858409Y-102357094D01*
X167037152Y-102476526D01*
X167610641Y-102590600D01*
X167669359Y-102590600D01*
X168242848Y-102476526D01*
X168708442Y-102165426D01*
X168713238Y-102190917D01*
X168713238Y-102190917D01*
G37*
X168713238Y-102190917D02*
X168852310Y-102407041D01*
X169064510Y-102552031D01*
X169316400Y-102603040D01*
X170602858Y-102603040D01*
X168652939Y-104552959D01*
X168404300Y-104925072D01*
X168316990Y-105364010D01*
X168316990Y-110993754D01*
X167946618Y-110623382D01*
X167873777Y-110574711D01*
X167658206Y-110430671D01*
X167435690Y-110386410D01*
X167413162Y-110266683D01*
X167274090Y-110050559D01*
X167174140Y-109982266D01*
X167261441Y-109926090D01*
X167406431Y-109713890D01*
X167457440Y-109462000D01*
X167457440Y-107962000D01*
X167413162Y-107726683D01*
X167274090Y-107510559D01*
X167193541Y-107455522D01*
X167301441Y-107386090D01*
X167446431Y-107173890D01*
X167497440Y-106922000D01*
X167497440Y-105422000D01*
X167453162Y-105186683D01*
X167314090Y-104970559D01*
X167101890Y-104825569D01*
X166850000Y-104774560D01*
X164415695Y-104774560D01*
X164491787Y-104723717D01*
X166858409Y-102357094D01*
X167037152Y-102476526D01*
X167610641Y-102590600D01*
X167669359Y-102590600D01*
X168242848Y-102476526D01*
X168708442Y-102165426D01*
X168713238Y-102190917D01*
G36*
X216535243Y-108940900D02*
X216534811Y-109435724D01*
X216408000Y-109410500D01*
X204615760Y-109410500D01*
X203863261Y-108658001D01*
X216652713Y-108658001D01*
X216535243Y-108940900D01*
X216535243Y-108940900D01*
G37*
X216535243Y-108940900D02*
X216534811Y-109435724D01*
X216408000Y-109410500D01*
X204615760Y-109410500D01*
X203863261Y-108658001D01*
X216652713Y-108658001D01*
X216535243Y-108940900D01*
G36*
X152527000Y-100965000D02*
X152547000Y-100965000D01*
X152547000Y-101219000D01*
X152527000Y-101219000D01*
X152527000Y-102426469D01*
X152759027Y-102546968D01*
X153288490Y-102298821D01*
X153670008Y-101880839D01*
X153850971Y-102151670D01*
X154337152Y-102476526D01*
X154910641Y-102590600D01*
X154969359Y-102590600D01*
X155542848Y-102476526D01*
X156029029Y-102151670D01*
X156210000Y-101880828D01*
X156390971Y-102151670D01*
X156877152Y-102476526D01*
X157450641Y-102590600D01*
X157509359Y-102590600D01*
X158082848Y-102476526D01*
X158569029Y-102151670D01*
X158750000Y-101880828D01*
X158930971Y-102151670D01*
X159417152Y-102476526D01*
X159990641Y-102590600D01*
X160049359Y-102590600D01*
X160622848Y-102476526D01*
X161109029Y-102151670D01*
X161290000Y-101880828D01*
X161470971Y-102151670D01*
X161957152Y-102476526D01*
X162530641Y-102590600D01*
X162589359Y-102590600D01*
X163162848Y-102476526D01*
X163649029Y-102151670D01*
X163830000Y-101880828D01*
X164010971Y-102151670D01*
X164441378Y-102439259D01*
X163566136Y-103314500D01*
X160020005Y-103314500D01*
X160020000Y-103314499D01*
X159704094Y-103377337D01*
X159436283Y-103556283D01*
X155923595Y-107068971D01*
X155829000Y-107068888D01*
X155829000Y-106473601D01*
X155814539Y-106400900D01*
X155761330Y-106133396D01*
X155568618Y-105844983D01*
X152192112Y-102468477D01*
X152273000Y-102426469D01*
X152273000Y-101219000D01*
X152253000Y-101219000D01*
X152253000Y-100965000D01*
X152273000Y-100965000D01*
X152273000Y-100945000D01*
X152527000Y-100945000D01*
X152527000Y-100965000D01*
X152527000Y-100965000D01*
G37*
X152527000Y-100965000D02*
X152547000Y-100965000D01*
X152547000Y-101219000D01*
X152527000Y-101219000D01*
X152527000Y-102426469D01*
X152759027Y-102546968D01*
X153288490Y-102298821D01*
X153670008Y-101880839D01*
X153850971Y-102151670D01*
X154337152Y-102476526D01*
X154910641Y-102590600D01*
X154969359Y-102590600D01*
X155542848Y-102476526D01*
X156029029Y-102151670D01*
X156210000Y-101880828D01*
X156390971Y-102151670D01*
X156877152Y-102476526D01*
X157450641Y-102590600D01*
X157509359Y-102590600D01*
X158082848Y-102476526D01*
X158569029Y-102151670D01*
X158750000Y-101880828D01*
X158930971Y-102151670D01*
X159417152Y-102476526D01*
X159990641Y-102590600D01*
X160049359Y-102590600D01*
X160622848Y-102476526D01*
X161109029Y-102151670D01*
X161290000Y-101880828D01*
X161470971Y-102151670D01*
X161957152Y-102476526D01*
X162530641Y-102590600D01*
X162589359Y-102590600D01*
X163162848Y-102476526D01*
X163649029Y-102151670D01*
X163830000Y-101880828D01*
X164010971Y-102151670D01*
X164441378Y-102439259D01*
X163566136Y-103314500D01*
X160020005Y-103314500D01*
X160020000Y-103314499D01*
X159704094Y-103377337D01*
X159436283Y-103556283D01*
X155923595Y-107068971D01*
X155829000Y-107068888D01*
X155829000Y-106473601D01*
X155814539Y-106400900D01*
X155761330Y-106133396D01*
X155568618Y-105844983D01*
X152192112Y-102468477D01*
X152273000Y-102426469D01*
X152273000Y-101219000D01*
X152253000Y-101219000D01*
X152253000Y-100965000D01*
X152273000Y-100965000D01*
X152273000Y-100945000D01*
X152527000Y-100945000D01*
X152527000Y-100965000D01*
G36*
X208915000Y-102330250D02*
X209073750Y-102489000D01*
X210185000Y-102489000D01*
X210185000Y-102469000D01*
X210439000Y-102469000D01*
X210439000Y-102489000D01*
X211550250Y-102489000D01*
X211582000Y-102457250D01*
X211613750Y-102489000D01*
X212725000Y-102489000D01*
X212725000Y-102469000D01*
X212979000Y-102469000D01*
X212979000Y-102489000D01*
X214090250Y-102489000D01*
X214122000Y-102457250D01*
X214153750Y-102489000D01*
X215265000Y-102489000D01*
X215265000Y-102469000D01*
X215519000Y-102469000D01*
X215519000Y-102489000D01*
X216630250Y-102489000D01*
X216693750Y-102425500D01*
X216782126Y-102425500D01*
X217139630Y-102783629D01*
X217347512Y-102869949D01*
X217141697Y-102954990D01*
X216789000Y-103307072D01*
X216789000Y-102901750D01*
X216630250Y-102743000D01*
X215519000Y-102743000D01*
X215519000Y-103854250D01*
X215677750Y-104013000D01*
X216280309Y-104013000D01*
X216513698Y-103916327D01*
X216535213Y-103894812D01*
X216534758Y-104416661D01*
X216555558Y-104467001D01*
X204632918Y-104467001D01*
X203067667Y-102901750D01*
X208915000Y-102901750D01*
X208915000Y-103504310D01*
X209011673Y-103737699D01*
X209190302Y-103916327D01*
X209423691Y-104013000D01*
X210026250Y-104013000D01*
X210185000Y-103854250D01*
X210185000Y-102743000D01*
X210439000Y-102743000D01*
X210439000Y-103854250D01*
X210597750Y-104013000D01*
X211200309Y-104013000D01*
X211433698Y-103916327D01*
X211582000Y-103768026D01*
X211730302Y-103916327D01*
X211963691Y-104013000D01*
X212566250Y-104013000D01*
X212725000Y-103854250D01*
X212725000Y-102743000D01*
X212979000Y-102743000D01*
X212979000Y-103854250D01*
X213137750Y-104013000D01*
X213740309Y-104013000D01*
X213973698Y-103916327D01*
X214122000Y-103768026D01*
X214270302Y-103916327D01*
X214503691Y-104013000D01*
X215106250Y-104013000D01*
X215265000Y-103854250D01*
X215265000Y-102743000D01*
X214153750Y-102743000D01*
X214122000Y-102774750D01*
X214090250Y-102743000D01*
X212979000Y-102743000D01*
X212725000Y-102743000D01*
X211613750Y-102743000D01*
X211582000Y-102774750D01*
X211550250Y-102743000D01*
X210439000Y-102743000D01*
X210185000Y-102743000D01*
X209073750Y-102743000D01*
X208915000Y-102901750D01*
X203067667Y-102901750D01*
X202083417Y-101917500D01*
X208915000Y-101917500D01*
X208915000Y-102330250D01*
X208915000Y-102330250D01*
G37*
X208915000Y-102330250D02*
X209073750Y-102489000D01*
X210185000Y-102489000D01*
X210185000Y-102469000D01*
X210439000Y-102469000D01*
X210439000Y-102489000D01*
X211550250Y-102489000D01*
X211582000Y-102457250D01*
X211613750Y-102489000D01*
X212725000Y-102489000D01*
X212725000Y-102469000D01*
X212979000Y-102469000D01*
X212979000Y-102489000D01*
X214090250Y-102489000D01*
X214122000Y-102457250D01*
X214153750Y-102489000D01*
X215265000Y-102489000D01*
X215265000Y-102469000D01*
X215519000Y-102469000D01*
X215519000Y-102489000D01*
X216630250Y-102489000D01*
X216693750Y-102425500D01*
X216782126Y-102425500D01*
X217139630Y-102783629D01*
X217347512Y-102869949D01*
X217141697Y-102954990D01*
X216789000Y-103307072D01*
X216789000Y-102901750D01*
X216630250Y-102743000D01*
X215519000Y-102743000D01*
X215519000Y-103854250D01*
X215677750Y-104013000D01*
X216280309Y-104013000D01*
X216513698Y-103916327D01*
X216535213Y-103894812D01*
X216534758Y-104416661D01*
X216555558Y-104467001D01*
X204632918Y-104467001D01*
X203067667Y-102901750D01*
X208915000Y-102901750D01*
X208915000Y-103504310D01*
X209011673Y-103737699D01*
X209190302Y-103916327D01*
X209423691Y-104013000D01*
X210026250Y-104013000D01*
X210185000Y-103854250D01*
X210185000Y-102743000D01*
X210439000Y-102743000D01*
X210439000Y-103854250D01*
X210597750Y-104013000D01*
X211200309Y-104013000D01*
X211433698Y-103916327D01*
X211582000Y-103768026D01*
X211730302Y-103916327D01*
X211963691Y-104013000D01*
X212566250Y-104013000D01*
X212725000Y-103854250D01*
X212725000Y-102743000D01*
X212979000Y-102743000D01*
X212979000Y-103854250D01*
X213137750Y-104013000D01*
X213740309Y-104013000D01*
X213973698Y-103916327D01*
X214122000Y-103768026D01*
X214270302Y-103916327D01*
X214503691Y-104013000D01*
X215106250Y-104013000D01*
X215265000Y-103854250D01*
X215265000Y-102743000D01*
X214153750Y-102743000D01*
X214122000Y-102774750D01*
X214090250Y-102743000D01*
X212979000Y-102743000D01*
X212725000Y-102743000D01*
X211613750Y-102743000D01*
X211582000Y-102774750D01*
X211550250Y-102743000D01*
X210439000Y-102743000D01*
X210185000Y-102743000D01*
X209073750Y-102743000D01*
X208915000Y-102901750D01*
X203067667Y-102901750D01*
X202083417Y-101917500D01*
X208915000Y-101917500D01*
X208915000Y-102330250D01*
G36*
X200279000Y-96393000D02*
X200299000Y-96393000D01*
X200299000Y-96647000D01*
X200279000Y-96647000D01*
X200279000Y-96667000D01*
X200025000Y-96667000D01*
X200025000Y-96647000D01*
X200005000Y-96647000D01*
X200005000Y-96393000D01*
X200025000Y-96393000D01*
X200025000Y-96373000D01*
X200279000Y-96373000D01*
X200279000Y-96393000D01*
X200279000Y-96393000D01*
G37*
X200279000Y-96393000D02*
X200299000Y-96393000D01*
X200299000Y-96647000D01*
X200279000Y-96647000D01*
X200279000Y-96667000D01*
X200025000Y-96667000D01*
X200025000Y-96647000D01*
X200005000Y-96647000D01*
X200005000Y-96393000D01*
X200025000Y-96393000D01*
X200025000Y-96373000D01*
X200279000Y-96373000D01*
X200279000Y-96393000D01*
G36*
X203395283Y-90875717D02*
X203663094Y-91054663D01*
X203979000Y-91117501D01*
X203979005Y-91117500D01*
X205590573Y-91117500D01*
X205619866Y-91137073D01*
X205736235Y-91253645D01*
X205889695Y-91317367D01*
X205941062Y-91351690D01*
X206000673Y-91363547D01*
X205966560Y-91532000D01*
X205966560Y-92232000D01*
X206005124Y-92436950D01*
X205787641Y-92436950D01*
X205554252Y-92533623D01*
X205375623Y-92712251D01*
X205278950Y-92945640D01*
X205278950Y-93186250D01*
X205437700Y-93345000D01*
X206187000Y-93345000D01*
X206187000Y-93325000D01*
X206441000Y-93325000D01*
X206441000Y-93345000D01*
X206461000Y-93345000D01*
X206461000Y-93599000D01*
X206441000Y-93599000D01*
X206441000Y-94348300D01*
X206587157Y-94494457D01*
X206412509Y-94606840D01*
X206386107Y-94645480D01*
X206355914Y-94645480D01*
X206323717Y-94613283D01*
X206323714Y-94613281D01*
X206122867Y-94412433D01*
X206187000Y-94348300D01*
X206187000Y-93599000D01*
X205437700Y-93599000D01*
X205373567Y-93663133D01*
X205047440Y-93337006D01*
X205047440Y-92407000D01*
X205003162Y-92171683D01*
X204864090Y-91955559D01*
X204651890Y-91810569D01*
X204400000Y-91759560D01*
X203950000Y-91759560D01*
X203846329Y-91779067D01*
X203750000Y-91759560D01*
X203647502Y-91759560D01*
X203637663Y-91710094D01*
X203458717Y-91442283D01*
X202948434Y-90932000D01*
X203200000Y-90680434D01*
X203395283Y-90875717D01*
X203395283Y-90875717D01*
G37*
X203395283Y-90875717D02*
X203663094Y-91054663D01*
X203979000Y-91117501D01*
X203979005Y-91117500D01*
X205590573Y-91117500D01*
X205619866Y-91137073D01*
X205736235Y-91253645D01*
X205889695Y-91317367D01*
X205941062Y-91351690D01*
X206000673Y-91363547D01*
X205966560Y-91532000D01*
X205966560Y-92232000D01*
X206005124Y-92436950D01*
X205787641Y-92436950D01*
X205554252Y-92533623D01*
X205375623Y-92712251D01*
X205278950Y-92945640D01*
X205278950Y-93186250D01*
X205437700Y-93345000D01*
X206187000Y-93345000D01*
X206187000Y-93325000D01*
X206441000Y-93325000D01*
X206441000Y-93345000D01*
X206461000Y-93345000D01*
X206461000Y-93599000D01*
X206441000Y-93599000D01*
X206441000Y-94348300D01*
X206587157Y-94494457D01*
X206412509Y-94606840D01*
X206386107Y-94645480D01*
X206355914Y-94645480D01*
X206323717Y-94613283D01*
X206323714Y-94613281D01*
X206122867Y-94412433D01*
X206187000Y-94348300D01*
X206187000Y-93599000D01*
X205437700Y-93599000D01*
X205373567Y-93663133D01*
X205047440Y-93337006D01*
X205047440Y-92407000D01*
X205003162Y-92171683D01*
X204864090Y-91955559D01*
X204651890Y-91810569D01*
X204400000Y-91759560D01*
X203950000Y-91759560D01*
X203846329Y-91779067D01*
X203750000Y-91759560D01*
X203647502Y-91759560D01*
X203637663Y-91710094D01*
X203458717Y-91442283D01*
X202948434Y-90932000D01*
X203200000Y-90680434D01*
X203395283Y-90875717D01*
G36*
X141270950Y-85848880D02*
X141270950Y-86089490D01*
X141429700Y-86248240D01*
X142179000Y-86248240D01*
X142179000Y-86228240D01*
X142433000Y-86228240D01*
X142433000Y-86248240D01*
X142453000Y-86248240D01*
X142453000Y-86502240D01*
X142433000Y-86502240D01*
X142433000Y-87251540D01*
X142579157Y-87397697D01*
X142404509Y-87510080D01*
X142259519Y-87722280D01*
X142208510Y-87974170D01*
X142208510Y-88774270D01*
X142252788Y-89009587D01*
X142361541Y-89178593D01*
X142326309Y-89164000D01*
X141985750Y-89164000D01*
X141827000Y-89322750D01*
X141827000Y-90297000D01*
X142676250Y-90297000D01*
X142835000Y-90138250D01*
X142835000Y-89672690D01*
X142738327Y-89439301D01*
X142686401Y-89387376D01*
X142855950Y-89421710D01*
X143656050Y-89421710D01*
X143891367Y-89377432D01*
X144068857Y-89263220D01*
X145388629Y-89263220D01*
X145402110Y-89272431D01*
X145654000Y-89323440D01*
X146514394Y-89323440D01*
X144346077Y-91491757D01*
X144098050Y-91441530D01*
X143297950Y-91441530D01*
X143062633Y-91485808D01*
X142846509Y-91624880D01*
X142751023Y-91764629D01*
X142736377Y-91729271D01*
X142577065Y-91569960D01*
X142738327Y-91408699D01*
X142835000Y-91175310D01*
X142835000Y-90709750D01*
X142676250Y-90551000D01*
X141827000Y-90551000D01*
X141827000Y-91525250D01*
X141925000Y-91623250D01*
X141925000Y-92362020D01*
X141945000Y-92362020D01*
X141945000Y-92616020D01*
X141925000Y-92616020D01*
X141925000Y-93365320D01*
X142071157Y-93511477D01*
X141935143Y-93599000D01*
X141158792Y-93599000D01*
X141097000Y-93502972D01*
X141097000Y-93472000D01*
X141092606Y-93449911D01*
X141271641Y-93524070D01*
X141512250Y-93524070D01*
X141671000Y-93365320D01*
X141671000Y-92616020D01*
X140921700Y-92616020D01*
X140765478Y-92772242D01*
X139689676Y-91696440D01*
X140200000Y-91696440D01*
X140435317Y-91652162D01*
X140651441Y-91513090D01*
X140697969Y-91444994D01*
X140840302Y-91587327D01*
X140954334Y-91634561D01*
X140859623Y-91729271D01*
X140762950Y-91962660D01*
X140762950Y-92203270D01*
X140921700Y-92362020D01*
X141671000Y-92362020D01*
X141671000Y-91612720D01*
X141573000Y-91514720D01*
X141573000Y-90551000D01*
X141553000Y-90551000D01*
X141553000Y-90297000D01*
X141573000Y-90297000D01*
X141573000Y-89322750D01*
X141414250Y-89164000D01*
X141073691Y-89164000D01*
X140840302Y-89260673D01*
X140699064Y-89401910D01*
X140664090Y-89347559D01*
X140451890Y-89202569D01*
X140332975Y-89178488D01*
X140543871Y-89042780D01*
X140688861Y-88830580D01*
X140739870Y-88578690D01*
X140739870Y-86981030D01*
X140695592Y-86745713D01*
X140641075Y-86660990D01*
X141270950Y-86660990D01*
X141270950Y-86901600D01*
X141367623Y-87134989D01*
X141546252Y-87313617D01*
X141779641Y-87410290D01*
X142020250Y-87410290D01*
X142179000Y-87251540D01*
X142179000Y-86502240D01*
X141429700Y-86502240D01*
X141270950Y-86660990D01*
X140641075Y-86660990D01*
X140556520Y-86529589D01*
X140344320Y-86384599D01*
X140227634Y-86360970D01*
X140327747Y-86342132D01*
X140543871Y-86203060D01*
X140688861Y-85990860D01*
X140721610Y-85829140D01*
X141279127Y-85829140D01*
X141270950Y-85848880D01*
X141270950Y-85848880D01*
G37*
X141270950Y-85848880D02*
X141270950Y-86089490D01*
X141429700Y-86248240D01*
X142179000Y-86248240D01*
X142179000Y-86228240D01*
X142433000Y-86228240D01*
X142433000Y-86248240D01*
X142453000Y-86248240D01*
X142453000Y-86502240D01*
X142433000Y-86502240D01*
X142433000Y-87251540D01*
X142579157Y-87397697D01*
X142404509Y-87510080D01*
X142259519Y-87722280D01*
X142208510Y-87974170D01*
X142208510Y-88774270D01*
X142252788Y-89009587D01*
X142361541Y-89178593D01*
X142326309Y-89164000D01*
X141985750Y-89164000D01*
X141827000Y-89322750D01*
X141827000Y-90297000D01*
X142676250Y-90297000D01*
X142835000Y-90138250D01*
X142835000Y-89672690D01*
X142738327Y-89439301D01*
X142686401Y-89387376D01*
X142855950Y-89421710D01*
X143656050Y-89421710D01*
X143891367Y-89377432D01*
X144068857Y-89263220D01*
X145388629Y-89263220D01*
X145402110Y-89272431D01*
X145654000Y-89323440D01*
X146514394Y-89323440D01*
X144346077Y-91491757D01*
X144098050Y-91441530D01*
X143297950Y-91441530D01*
X143062633Y-91485808D01*
X142846509Y-91624880D01*
X142751023Y-91764629D01*
X142736377Y-91729271D01*
X142577065Y-91569960D01*
X142738327Y-91408699D01*
X142835000Y-91175310D01*
X142835000Y-90709750D01*
X142676250Y-90551000D01*
X141827000Y-90551000D01*
X141827000Y-91525250D01*
X141925000Y-91623250D01*
X141925000Y-92362020D01*
X141945000Y-92362020D01*
X141945000Y-92616020D01*
X141925000Y-92616020D01*
X141925000Y-93365320D01*
X142071157Y-93511477D01*
X141935143Y-93599000D01*
X141158792Y-93599000D01*
X141097000Y-93502972D01*
X141097000Y-93472000D01*
X141092606Y-93449911D01*
X141271641Y-93524070D01*
X141512250Y-93524070D01*
X141671000Y-93365320D01*
X141671000Y-92616020D01*
X140921700Y-92616020D01*
X140765478Y-92772242D01*
X139689676Y-91696440D01*
X140200000Y-91696440D01*
X140435317Y-91652162D01*
X140651441Y-91513090D01*
X140697969Y-91444994D01*
X140840302Y-91587327D01*
X140954334Y-91634561D01*
X140859623Y-91729271D01*
X140762950Y-91962660D01*
X140762950Y-92203270D01*
X140921700Y-92362020D01*
X141671000Y-92362020D01*
X141671000Y-91612720D01*
X141573000Y-91514720D01*
X141573000Y-90551000D01*
X141553000Y-90551000D01*
X141553000Y-90297000D01*
X141573000Y-90297000D01*
X141573000Y-89322750D01*
X141414250Y-89164000D01*
X141073691Y-89164000D01*
X140840302Y-89260673D01*
X140699064Y-89401910D01*
X140664090Y-89347559D01*
X140451890Y-89202569D01*
X140332975Y-89178488D01*
X140543871Y-89042780D01*
X140688861Y-88830580D01*
X140739870Y-88578690D01*
X140739870Y-86981030D01*
X140695592Y-86745713D01*
X140641075Y-86660990D01*
X141270950Y-86660990D01*
X141270950Y-86901600D01*
X141367623Y-87134989D01*
X141546252Y-87313617D01*
X141779641Y-87410290D01*
X142020250Y-87410290D01*
X142179000Y-87251540D01*
X142179000Y-86502240D01*
X141429700Y-86502240D01*
X141270950Y-86660990D01*
X140641075Y-86660990D01*
X140556520Y-86529589D01*
X140344320Y-86384599D01*
X140227634Y-86360970D01*
X140327747Y-86342132D01*
X140543871Y-86203060D01*
X140688861Y-85990860D01*
X140721610Y-85829140D01*
X141279127Y-85829140D01*
X141270950Y-85848880D01*
G36*
X183502560Y-85090000D02*
X183546838Y-85325317D01*
X183685910Y-85541441D01*
X183898110Y-85686431D01*
X184150000Y-85737440D01*
X184368342Y-85737440D01*
X184193559Y-85849910D01*
X184048569Y-86062110D01*
X183997560Y-86314000D01*
X183997560Y-86914000D01*
X184041838Y-87149317D01*
X184105678Y-87248528D01*
X184048569Y-87332110D01*
X183997560Y-87584000D01*
X183997560Y-88184000D01*
X184041838Y-88419317D01*
X184105678Y-88518528D01*
X184048569Y-88602110D01*
X184023152Y-88727622D01*
X183265871Y-89484903D01*
X183163225Y-89484813D01*
X182745914Y-89657243D01*
X182426355Y-89976245D01*
X182253197Y-90393254D01*
X182252810Y-90836903D01*
X181430000Y-90836903D01*
X181430000Y-90709750D01*
X181271250Y-90551000D01*
X180147000Y-90551000D01*
X180147000Y-90571000D01*
X179893000Y-90571000D01*
X179893000Y-90551000D01*
X178768750Y-90551000D01*
X178610000Y-90709750D01*
X178610000Y-90836903D01*
X173564333Y-90836903D01*
X174056627Y-90344609D01*
X174249338Y-90056197D01*
X174317009Y-89715991D01*
X174317009Y-89561897D01*
X174616235Y-89861645D01*
X175033244Y-90034803D01*
X175484775Y-90035197D01*
X175700347Y-89946124D01*
X175740838Y-90161317D01*
X175879910Y-90377441D01*
X176092110Y-90522431D01*
X176344000Y-90573440D01*
X177644000Y-90573440D01*
X177879317Y-90529162D01*
X178095441Y-90390090D01*
X178240431Y-90177890D01*
X178291440Y-89926000D01*
X178291440Y-88935796D01*
X178454236Y-88773000D01*
X178613963Y-88773000D01*
X178597560Y-88854000D01*
X178597560Y-89454000D01*
X178641838Y-89689317D01*
X178700178Y-89779980D01*
X178610000Y-89997690D01*
X178610000Y-90138250D01*
X178768750Y-90297000D01*
X179893000Y-90297000D01*
X179893000Y-90288890D01*
X180147000Y-90289112D01*
X180147000Y-90297000D01*
X181271250Y-90297000D01*
X181430000Y-90138250D01*
X181430000Y-89997690D01*
X181340194Y-89780878D01*
X181391431Y-89705890D01*
X181442440Y-89454000D01*
X181442440Y-88854000D01*
X181398162Y-88618683D01*
X181334322Y-88519472D01*
X181391431Y-88435890D01*
X181442440Y-88184000D01*
X181442440Y-87584000D01*
X181398162Y-87348683D01*
X181334322Y-87249472D01*
X181391431Y-87165890D01*
X181442440Y-86914000D01*
X181442440Y-86314000D01*
X181398162Y-86078683D01*
X181259090Y-85862559D01*
X181046890Y-85717569D01*
X180795000Y-85666560D01*
X179245000Y-85666560D01*
X179009683Y-85710838D01*
X178987675Y-85725000D01*
X178291440Y-85725000D01*
X178291440Y-85217000D01*
X182570798Y-85217000D01*
X182911004Y-85149329D01*
X183199416Y-84956618D01*
X183502560Y-84653474D01*
X183502560Y-85090000D01*
X183502560Y-85090000D01*
G37*
X183502560Y-85090000D02*
X183546838Y-85325317D01*
X183685910Y-85541441D01*
X183898110Y-85686431D01*
X184150000Y-85737440D01*
X184368342Y-85737440D01*
X184193559Y-85849910D01*
X184048569Y-86062110D01*
X183997560Y-86314000D01*
X183997560Y-86914000D01*
X184041838Y-87149317D01*
X184105678Y-87248528D01*
X184048569Y-87332110D01*
X183997560Y-87584000D01*
X183997560Y-88184000D01*
X184041838Y-88419317D01*
X184105678Y-88518528D01*
X184048569Y-88602110D01*
X184023152Y-88727622D01*
X183265871Y-89484903D01*
X183163225Y-89484813D01*
X182745914Y-89657243D01*
X182426355Y-89976245D01*
X182253197Y-90393254D01*
X182252810Y-90836903D01*
X181430000Y-90836903D01*
X181430000Y-90709750D01*
X181271250Y-90551000D01*
X180147000Y-90551000D01*
X180147000Y-90571000D01*
X179893000Y-90571000D01*
X179893000Y-90551000D01*
X178768750Y-90551000D01*
X178610000Y-90709750D01*
X178610000Y-90836903D01*
X173564333Y-90836903D01*
X174056627Y-90344609D01*
X174249338Y-90056197D01*
X174317009Y-89715991D01*
X174317009Y-89561897D01*
X174616235Y-89861645D01*
X175033244Y-90034803D01*
X175484775Y-90035197D01*
X175700347Y-89946124D01*
X175740838Y-90161317D01*
X175879910Y-90377441D01*
X176092110Y-90522431D01*
X176344000Y-90573440D01*
X177644000Y-90573440D01*
X177879317Y-90529162D01*
X178095441Y-90390090D01*
X178240431Y-90177890D01*
X178291440Y-89926000D01*
X178291440Y-88935796D01*
X178454236Y-88773000D01*
X178613963Y-88773000D01*
X178597560Y-88854000D01*
X178597560Y-89454000D01*
X178641838Y-89689317D01*
X178700178Y-89779980D01*
X178610000Y-89997690D01*
X178610000Y-90138250D01*
X178768750Y-90297000D01*
X179893000Y-90297000D01*
X179893000Y-90288890D01*
X180147000Y-90289112D01*
X180147000Y-90297000D01*
X181271250Y-90297000D01*
X181430000Y-90138250D01*
X181430000Y-89997690D01*
X181340194Y-89780878D01*
X181391431Y-89705890D01*
X181442440Y-89454000D01*
X181442440Y-88854000D01*
X181398162Y-88618683D01*
X181334322Y-88519472D01*
X181391431Y-88435890D01*
X181442440Y-88184000D01*
X181442440Y-87584000D01*
X181398162Y-87348683D01*
X181334322Y-87249472D01*
X181391431Y-87165890D01*
X181442440Y-86914000D01*
X181442440Y-86314000D01*
X181398162Y-86078683D01*
X181259090Y-85862559D01*
X181046890Y-85717569D01*
X180795000Y-85666560D01*
X179245000Y-85666560D01*
X179009683Y-85710838D01*
X178987675Y-85725000D01*
X178291440Y-85725000D01*
X178291440Y-85217000D01*
X182570798Y-85217000D01*
X182911004Y-85149329D01*
X183199416Y-84956618D01*
X183502560Y-84653474D01*
X183502560Y-85090000D01*
G36*
X197142110Y-88114431D02*
X197253523Y-88136993D01*
X197158683Y-88154838D01*
X196942559Y-88293910D01*
X196797569Y-88506110D01*
X196772408Y-88630356D01*
X196697095Y-88645337D01*
X196429283Y-88824283D01*
X196429281Y-88824286D01*
X195416956Y-89836610D01*
X192078784Y-89836610D01*
X192104709Y-89782791D01*
X192107358Y-89767026D01*
X191986217Y-89535000D01*
X190627000Y-89535000D01*
X190627000Y-89555000D01*
X190373000Y-89555000D01*
X190373000Y-89535000D01*
X189013783Y-89535000D01*
X188980630Y-89598500D01*
X186813178Y-89598500D01*
X186842440Y-89454000D01*
X186842440Y-89373994D01*
X187268824Y-88947610D01*
X188936525Y-88947610D01*
X188895291Y-89033209D01*
X188892642Y-89048974D01*
X189013783Y-89281000D01*
X190373000Y-89281000D01*
X190373000Y-89261000D01*
X190627000Y-89261000D01*
X190627000Y-89281000D01*
X191986217Y-89281000D01*
X192107358Y-89048974D01*
X192104709Y-89033209D01*
X192063475Y-88947610D01*
X195758890Y-88947610D01*
X196074796Y-88884773D01*
X196342607Y-88705827D01*
X197018477Y-88029956D01*
X197142110Y-88114431D01*
X197142110Y-88114431D01*
G37*
X197142110Y-88114431D02*
X197253523Y-88136993D01*
X197158683Y-88154838D01*
X196942559Y-88293910D01*
X196797569Y-88506110D01*
X196772408Y-88630356D01*
X196697095Y-88645337D01*
X196429283Y-88824283D01*
X196429281Y-88824286D01*
X195416956Y-89836610D01*
X192078784Y-89836610D01*
X192104709Y-89782791D01*
X192107358Y-89767026D01*
X191986217Y-89535000D01*
X190627000Y-89535000D01*
X190627000Y-89555000D01*
X190373000Y-89555000D01*
X190373000Y-89535000D01*
X189013783Y-89535000D01*
X188980630Y-89598500D01*
X186813178Y-89598500D01*
X186842440Y-89454000D01*
X186842440Y-89373994D01*
X187268824Y-88947610D01*
X188936525Y-88947610D01*
X188895291Y-89033209D01*
X188892642Y-89048974D01*
X189013783Y-89281000D01*
X190373000Y-89281000D01*
X190373000Y-89261000D01*
X190627000Y-89261000D01*
X190627000Y-89281000D01*
X191986217Y-89281000D01*
X192107358Y-89048974D01*
X192104709Y-89033209D01*
X192063475Y-88947610D01*
X195758890Y-88947610D01*
X196074796Y-88884773D01*
X196342607Y-88705827D01*
X197018477Y-88029956D01*
X197142110Y-88114431D01*
G36*
X208902560Y-85598000D02*
X208946838Y-85833317D01*
X209085910Y-86049441D01*
X209167770Y-86105374D01*
X209098559Y-86149910D01*
X208953569Y-86362110D01*
X208902560Y-86614000D01*
X208902560Y-88138000D01*
X208946838Y-88373317D01*
X209085910Y-88589441D01*
X209167770Y-88645374D01*
X209098559Y-88689910D01*
X209044519Y-88769000D01*
X208526000Y-88769000D01*
X208098675Y-88854000D01*
X208087062Y-88856310D01*
X207895123Y-88984560D01*
X207862101Y-88984560D01*
X207768938Y-88922310D01*
X207750704Y-88918683D01*
X207330000Y-88835000D01*
X206690000Y-88835000D01*
X206269296Y-88918683D01*
X206251062Y-88922310D01*
X205878948Y-89170949D01*
X205583398Y-89466500D01*
X205035000Y-89466500D01*
X205035000Y-89017750D01*
X204876250Y-88859000D01*
X204397440Y-88859000D01*
X204397440Y-88605000D01*
X204876250Y-88605000D01*
X205035000Y-88446250D01*
X205035000Y-87880691D01*
X204983765Y-87757000D01*
X206079974Y-87757000D01*
X206395880Y-87694163D01*
X206663691Y-87515217D01*
X208902560Y-85276347D01*
X208902560Y-85598000D01*
X208902560Y-85598000D01*
G37*
X208902560Y-85598000D02*
X208946838Y-85833317D01*
X209085910Y-86049441D01*
X209167770Y-86105374D01*
X209098559Y-86149910D01*
X208953569Y-86362110D01*
X208902560Y-86614000D01*
X208902560Y-88138000D01*
X208946838Y-88373317D01*
X209085910Y-88589441D01*
X209167770Y-88645374D01*
X209098559Y-88689910D01*
X209044519Y-88769000D01*
X208526000Y-88769000D01*
X208098675Y-88854000D01*
X208087062Y-88856310D01*
X207895123Y-88984560D01*
X207862101Y-88984560D01*
X207768938Y-88922310D01*
X207750704Y-88918683D01*
X207330000Y-88835000D01*
X206690000Y-88835000D01*
X206269296Y-88918683D01*
X206251062Y-88922310D01*
X205878948Y-89170949D01*
X205583398Y-89466500D01*
X205035000Y-89466500D01*
X205035000Y-89017750D01*
X204876250Y-88859000D01*
X204397440Y-88859000D01*
X204397440Y-88605000D01*
X204876250Y-88605000D01*
X205035000Y-88446250D01*
X205035000Y-87880691D01*
X204983765Y-87757000D01*
X206079974Y-87757000D01*
X206395880Y-87694163D01*
X206663691Y-87515217D01*
X208902560Y-85276347D01*
X208902560Y-85598000D01*
G36*
X214315748Y-81265858D02*
X214301605Y-81280000D01*
X215974282Y-82952677D01*
X216341730Y-82735748D01*
X216678090Y-81903551D01*
X216746990Y-82070303D01*
X217139630Y-82463629D01*
X217347512Y-82549949D01*
X217141697Y-82634990D01*
X216748371Y-83027630D01*
X216535243Y-83540900D01*
X216535221Y-83565937D01*
X216405890Y-83477569D01*
X216154000Y-83426560D01*
X215620945Y-83426560D01*
X215794677Y-83132282D01*
X214122000Y-81459605D01*
X212449323Y-83132282D01*
X212623055Y-83426560D01*
X212090000Y-83426560D01*
X211854683Y-83470838D01*
X211638559Y-83609910D01*
X211582626Y-83691770D01*
X211538090Y-83622559D01*
X211325890Y-83477569D01*
X211074000Y-83426560D01*
X209550000Y-83426560D01*
X209314683Y-83470838D01*
X209242010Y-83517602D01*
X209242010Y-83517424D01*
X209697101Y-83062333D01*
X209777391Y-83115981D01*
X210312000Y-83222321D01*
X210846609Y-83115981D01*
X211299828Y-82813149D01*
X211602660Y-82359930D01*
X211649358Y-82125163D01*
X211902270Y-82735748D01*
X212269718Y-82952677D01*
X213942395Y-81280000D01*
X213928253Y-81265858D01*
X214107858Y-81086253D01*
X214122000Y-81100395D01*
X214136143Y-81086253D01*
X214315748Y-81265858D01*
X214315748Y-81265858D01*
G37*
X214315748Y-81265858D02*
X214301605Y-81280000D01*
X215974282Y-82952677D01*
X216341730Y-82735748D01*
X216678090Y-81903551D01*
X216746990Y-82070303D01*
X217139630Y-82463629D01*
X217347512Y-82549949D01*
X217141697Y-82634990D01*
X216748371Y-83027630D01*
X216535243Y-83540900D01*
X216535221Y-83565937D01*
X216405890Y-83477569D01*
X216154000Y-83426560D01*
X215620945Y-83426560D01*
X215794677Y-83132282D01*
X214122000Y-81459605D01*
X212449323Y-83132282D01*
X212623055Y-83426560D01*
X212090000Y-83426560D01*
X211854683Y-83470838D01*
X211638559Y-83609910D01*
X211582626Y-83691770D01*
X211538090Y-83622559D01*
X211325890Y-83477569D01*
X211074000Y-83426560D01*
X209550000Y-83426560D01*
X209314683Y-83470838D01*
X209242010Y-83517602D01*
X209242010Y-83517424D01*
X209697101Y-83062333D01*
X209777391Y-83115981D01*
X210312000Y-83222321D01*
X210846609Y-83115981D01*
X211299828Y-82813149D01*
X211602660Y-82359930D01*
X211649358Y-82125163D01*
X211902270Y-82735748D01*
X212269718Y-82952677D01*
X213942395Y-81280000D01*
X213928253Y-81265858D01*
X214107858Y-81086253D01*
X214122000Y-81100395D01*
X214136143Y-81086253D01*
X214315748Y-81265858D01*
G36*
X150495000Y-81153000D02*
X150515000Y-81153000D01*
X150515000Y-81407000D01*
X150495000Y-81407000D01*
X150495000Y-81427000D01*
X150241000Y-81427000D01*
X150241000Y-81407000D01*
X150221000Y-81407000D01*
X150221000Y-81153000D01*
X150241000Y-81153000D01*
X150241000Y-81133000D01*
X150495000Y-81133000D01*
X150495000Y-81153000D01*
X150495000Y-81153000D01*
G37*
X150495000Y-81153000D02*
X150515000Y-81153000D01*
X150515000Y-81407000D01*
X150495000Y-81407000D01*
X150495000Y-81427000D01*
X150241000Y-81427000D01*
X150241000Y-81407000D01*
X150221000Y-81407000D01*
X150221000Y-81153000D01*
X150241000Y-81153000D01*
X150241000Y-81133000D01*
X150495000Y-81133000D01*
X150495000Y-81153000D01*
M02*
